<svg width="336" height="336" viewBox="0 0 336 336" fill="none" xmlns="http://www.w3.org/2000/svg">
<path d="M269.378 134.064C267.735 125.393 265.636 116.816 263.088 108.367C255.427 83.9126 240.18 59.1696 213.992 50.8502C194.658 44.7149 173.793 48.9485 157.456 61.4544C131.833 81.0633 113.185 107.822 85.1492 124.804C61.7434 138.99 49.4928 161.905 57.362 194.295C65.2311 226.686 91.5197 245.555 120.288 243.264C144.198 241.335 169.196 243.398 189.867 255.004C208.34 265.373 240.979 256.348 267.98 228.023C283.712 211.512 282.186 190.519 277.059 170.903C273.887 158.753 271.831 146.362 269.378 134.064Z" fill="#6EB6FF"/>
<path opacity="0.7" d="M269.378 134.064C267.735 125.393 265.636 116.816 263.088 108.367C255.427 83.9126 240.18 59.1696 213.992 50.8502C194.658 44.7149 173.793 48.9485 157.456 61.4544C131.833 81.0633 113.185 107.822 85.1492 124.804C61.7434 138.99 49.4928 161.905 57.362 194.295C65.2311 226.686 91.5197 245.555 120.288 243.264C144.198 241.335 169.196 243.398 189.867 255.004C208.34 265.373 240.979 256.348 267.98 228.023C283.712 211.512 282.186 190.519 277.059 170.903C273.887 158.753 271.831 146.362 269.378 134.064Z" fill="white"/>
<path d="M296.627 284.579C296.627 286.675 239.507 288.382 169.068 288.382C98.6294 288.382 41.5027 286.675 41.5027 284.579C41.5027 282.482 98.6227 280.775 169.068 280.775C239.514 280.775 296.627 282.482 296.627 284.579Z" fill="#6EB6FF"/>
<path opacity="0.3" d="M296.627 284.579C296.627 286.675 239.507 288.382 169.068 288.382C98.6294 288.382 41.5027 286.675 41.5027 284.579C41.5027 282.482 98.6227 280.775 169.068 280.775C239.514 280.775 296.627 282.482 296.627 284.579Z" fill="white"/>
<path d="M272.207 211.351C272.207 211.384 273.934 209.57 274.028 209.442C275.124 207.977 276.38 204.496 275.191 202.823C274.986 202.551 274.726 202.326 274.428 202.161C274.13 201.997 273.801 201.896 273.462 201.867C273.123 201.838 272.782 201.881 272.46 201.992C272.138 202.103 271.844 202.281 271.596 202.514C270.507 203.468 270.252 205.236 270.346 206.6C270.46 208.199 272.207 211.344 272.207 211.351Z" fill="#6EB6FF"/>
<path d="M287.905 205.101C286.225 203.925 282.757 205.209 281.299 206.311C281.171 206.412 279.371 208.132 279.404 208.145H279.444C278.893 208.347 278.309 208.562 277.67 208.817C276.501 209.288 275.184 209.839 273.786 210.524C272.277 211.258 270.81 212.075 269.391 212.97C267.801 213.968 266.304 215.106 264.916 216.371C264.898 216.385 264.883 216.4 264.869 216.418C265.164 215.9 265.951 214.402 265.998 214.294C266.67 212.587 266.959 208.918 265.373 207.608C265.101 207.401 264.79 207.253 264.458 207.175C264.126 207.096 263.781 207.088 263.446 207.152C263.11 207.215 262.792 207.348 262.512 207.542C262.231 207.737 261.995 207.988 261.818 208.28C261.025 209.489 261.24 211.257 261.697 212.547C262.208 214.005 264.526 216.411 264.714 216.579C263.33 217.899 262.037 219.311 260.843 220.806C260.171 221.673 259.466 222.566 258.827 223.494C259.069 223.037 259.284 222.62 259.305 222.56C259.977 220.86 260.266 217.184 258.68 215.873C258.409 215.666 258.098 215.519 257.766 215.44C257.435 215.362 257.09 215.354 256.756 215.418C256.421 215.481 256.103 215.614 255.823 215.808C255.544 216.003 255.308 216.254 255.131 216.545C254.332 217.748 254.554 219.522 255.004 220.806C255.454 222.089 257.403 224.213 257.92 224.757L257.134 225.792C255.924 227.479 254.728 229.152 253.499 230.778C253.068 231.349 252.625 231.9 252.155 232.445C252.37 232.035 252.551 231.692 252.571 231.638C253.243 229.932 253.532 226.262 251.946 224.918C251.675 224.71 251.364 224.562 251.031 224.483C250.699 224.404 250.354 224.396 250.018 224.459C249.683 224.522 249.364 224.656 249.084 224.851C248.804 225.046 248.568 225.298 248.391 225.59C247.592 226.8 247.813 228.567 248.27 229.858C248.727 231.148 250.475 233.056 251.086 233.708C250.616 234.259 250.145 234.804 249.661 235.314C249.325 235.657 249.03 235.986 248.667 236.329L247.639 237.297C246.967 237.888 246.295 238.506 245.589 239.071C245.119 239.467 244.668 239.83 244.245 240.2C244.675 239.642 245.508 238.52 245.589 238.419C246.346 236.997 246.726 235.406 246.691 233.796C246.781 233.641 246.857 233.479 246.92 233.312C247.045 232.995 247.103 232.655 247.089 232.314C247.075 231.974 246.989 231.64 246.838 231.335C246.686 231.029 246.472 230.759 246.21 230.542C245.947 230.324 245.642 230.164 245.314 230.073C243.298 229.582 240.542 232.021 239.581 233.58C239.528 233.675 239.017 234.736 238.715 235.415C238.829 234.992 238.956 234.575 239.071 234.138C239.313 233.271 239.528 232.398 239.743 231.45C239.837 230.993 239.938 230.53 240.038 230.066C240.139 229.602 240.2 229.105 240.287 228.621C240.455 227.492 240.576 226.343 240.677 225.18C241.436 225.389 244.144 226.094 245.502 225.852C246.859 225.611 248.519 225.006 249.204 223.736C249.378 223.442 249.488 223.115 249.526 222.777C249.565 222.438 249.531 222.095 249.428 221.77C249.324 221.445 249.153 221.146 248.926 220.892C248.699 220.637 248.42 220.434 248.109 220.295C246.214 219.502 243.103 221.498 241.913 222.889C241.839 222.976 241.1 224.072 240.704 224.683C240.757 224.011 240.811 223.285 240.845 222.573C240.925 220.557 240.952 218.454 240.986 216.384C240.986 215.752 240.986 215.121 241.026 214.489C241.295 214.563 244.5 215.47 246.019 215.235C247.363 215.033 249.036 214.395 249.729 213.118C249.9 212.824 250.007 212.497 250.044 212.158C250.081 211.82 250.046 211.477 249.943 211.153C249.839 210.828 249.668 210.529 249.441 210.275C249.214 210.021 248.937 209.818 248.627 209.677C246.738 208.891 243.62 210.887 242.431 212.278C242.343 212.379 241.282 213.958 241.026 214.375C241.06 212.984 241.107 211.593 241.208 210.228C241.337 208.385 241.584 206.551 241.947 204.738C242.075 204.738 245.414 205.733 246.973 205.491C248.317 205.289 249.984 204.651 250.676 203.374C250.848 203.08 250.955 202.753 250.993 202.415C251.03 202.077 250.996 201.735 250.893 201.41C250.79 201.086 250.619 200.787 250.393 200.533C250.167 200.278 249.891 200.074 249.581 199.933C247.686 199.147 244.568 201.136 243.385 202.534C243.304 202.621 242.491 203.824 242.122 204.402L242.014 204.362C242.429 202.546 243.007 200.772 243.741 199.06C244.131 198.112 244.554 197.232 244.991 196.372C245.596 196.614 248.351 197.716 249.789 197.635C251.227 197.555 252.88 197.124 253.707 195.935C253.91 195.662 254.053 195.349 254.127 195.016C254.201 194.684 254.205 194.34 254.138 194.006C254.071 193.672 253.934 193.356 253.737 193.078C253.54 192.801 253.287 192.567 252.995 192.394C251.2 191.406 247.881 193.066 246.55 194.295C246.476 194.363 245.818 195.135 245.34 195.707C245.542 195.33 245.744 194.934 245.945 194.571C246.698 193.227 247.464 192.017 248.156 190.962C248.553 190.371 248.922 189.84 249.278 189.343C249.991 189.276 252.88 188.946 254.097 188.254C255.313 187.562 256.603 186.379 256.785 184.941C256.84 184.605 256.824 184.261 256.737 183.932C256.65 183.602 256.495 183.295 256.281 183.03C256.067 182.765 255.8 182.548 255.496 182.393C255.193 182.238 254.86 182.149 254.52 182.132C252.47 182.078 250.286 185.055 249.682 186.782C249.628 186.937 249.077 189.363 249.11 189.356H249.157C248.808 189.804 248.438 190.315 248.049 190.888C247.33 191.93 246.53 193.113 245.75 194.457C244.893 195.898 244.118 197.388 243.432 198.919C242.658 200.631 242.035 202.407 241.571 204.228C241.574 204.25 241.574 204.272 241.571 204.295C241.571 203.697 241.369 202.023 241.342 201.896C240.966 200.108 239.171 196.869 237.135 196.668C236.795 196.642 236.454 196.688 236.133 196.803C235.813 196.918 235.52 197.1 235.274 197.335C235.028 197.571 234.834 197.856 234.706 198.172C234.577 198.488 234.517 198.827 234.528 199.167C234.528 200.612 235.691 201.97 236.779 202.789C238.009 203.724 241.268 204.456 241.53 204.51C241.109 206.376 240.81 208.269 240.636 210.175C240.536 211.284 240.462 212.399 240.401 213.535C240.354 213.017 240.307 212.554 240.294 212.493C239.911 210.699 238.116 207.467 236.08 207.258C235.74 207.233 235.399 207.279 235.078 207.394C234.758 207.509 234.465 207.69 234.219 207.926C233.973 208.162 233.779 208.447 233.651 208.763C233.522 209.078 233.462 209.417 233.473 209.758C233.473 211.203 234.635 212.56 235.724 213.387C236.813 214.213 239.602 214.899 240.334 215.074C240.334 215.504 240.294 215.934 240.28 216.364C240.2 218.434 240.132 220.503 240.005 222.526C239.958 223.238 239.884 223.944 239.817 224.643C239.776 224.186 239.729 223.796 239.723 223.742C239.339 221.948 237.545 218.716 235.509 218.508C235.169 218.482 234.828 218.528 234.507 218.643C234.186 218.758 233.893 218.94 233.647 219.175C233.401 219.411 233.208 219.696 233.079 220.012C232.951 220.328 232.89 220.667 232.902 221.007C232.902 222.459 234.064 223.81 235.153 224.636C236.242 225.463 238.762 226.088 239.628 226.289C239.541 227.008 239.447 227.727 239.326 228.413C239.232 228.883 239.178 229.347 239.057 229.811L238.735 231.155C238.493 232.021 238.258 232.922 238.002 233.762C237.827 234.347 237.653 234.904 237.478 235.469C237.532 234.756 237.606 233.365 237.599 233.244C237.498 231.423 236.215 227.949 234.239 227.438C233.907 227.362 233.563 227.357 233.23 227.423C232.896 227.488 232.58 227.624 232.301 227.819C232.023 228.015 231.789 228.267 231.615 228.559C231.44 228.852 231.329 229.177 231.289 229.515C231.067 230.946 232.008 232.458 232.962 233.439C233.916 234.42 236.994 235.704 237.371 235.852C237.075 236.779 236.786 237.673 236.497 238.54C235.496 241.463 234.555 243.862 233.876 245.529C233.876 245.589 233.829 245.643 233.802 245.697L235.025 246.369C235.066 246.261 235.113 246.154 235.153 246.039C235.825 244.339 236.705 241.893 237.646 238.916C237.948 237.975 238.251 236.967 238.553 235.926C239.579 236.054 240.611 236.121 241.644 236.127C242.014 237.626 243.728 240.085 243.949 240.401C243.197 241.013 242.458 241.604 241.752 242.148C239.306 244.037 237.196 245.508 235.704 246.53L235.529 246.651L236.873 247.39C238.325 246.348 240.233 244.904 242.498 243.103C243.264 242.484 244.077 241.806 244.897 241.087C245.199 241.342 247.652 243.425 249.104 243.842C250.414 244.218 252.195 244.339 253.351 243.472C253.63 243.278 253.865 243.026 254.041 242.735C254.217 242.443 254.329 242.118 254.371 241.78C254.413 241.442 254.383 241.1 254.284 240.774C254.184 240.448 254.018 240.147 253.794 239.891C252.41 238.379 248.747 238.883 247.074 239.649C246.98 239.696 245.972 240.321 245.34 240.697C245.676 240.408 246.012 240.132 246.342 239.83C247.014 239.245 247.686 238.634 248.398 237.975L249.406 236.988C249.749 236.658 250.078 236.275 250.414 235.919C251.18 235.072 251.913 234.179 252.632 233.265C253.156 233.856 255.031 235.953 256.274 236.517C257.517 237.082 259.258 237.471 260.534 236.793C260.839 236.642 261.109 236.429 261.327 236.167C261.544 235.905 261.704 235.601 261.797 235.273C261.889 234.946 261.912 234.603 261.863 234.266C261.815 233.929 261.696 233.607 261.515 233.318C260.373 231.618 256.677 231.558 254.916 232.062C254.802 232.095 253.572 232.599 252.9 232.888C253.324 232.337 253.761 231.786 254.171 231.208C255.373 229.548 256.536 227.848 257.705 226.128L258.787 224.569C258.969 224.777 261.146 227.304 262.544 227.929C263.78 228.5 265.521 228.89 266.797 228.204C267.104 228.055 267.375 227.843 267.594 227.581C267.812 227.32 267.973 227.015 268.066 226.687C268.159 226.359 268.181 226.015 268.131 225.678C268.082 225.341 267.962 225.018 267.779 224.73C266.636 223.03 262.94 222.97 261.179 223.48C261.052 223.514 259.291 224.246 258.854 224.455C259.647 223.312 260.454 222.177 261.294 221.095C262.414 219.624 263.63 218.23 264.936 216.922C265.023 217.022 267.281 219.663 268.706 220.322C269.949 220.9 271.69 221.283 272.966 220.604C273.272 220.454 273.543 220.241 273.761 219.98C273.979 219.718 274.139 219.414 274.232 219.086C274.324 218.758 274.347 218.415 274.298 218.078C274.249 217.741 274.129 217.418 273.947 217.13C272.805 215.423 269.109 215.369 267.348 215.873C267.234 215.907 265.897 216.465 265.265 216.74L265.198 216.639C266.547 215.359 268.006 214.201 269.559 213.179C270.413 212.601 271.253 212.097 272.086 211.633C272.456 212.164 274.169 214.59 275.392 215.329C276.615 216.068 278.248 216.612 279.592 216.075C279.913 215.958 280.206 215.775 280.452 215.537C280.697 215.3 280.889 215.013 281.016 214.696C281.143 214.379 281.202 214.038 281.188 213.697C281.174 213.355 281.088 213.021 280.936 212.715C279.989 210.894 276.32 210.437 274.519 210.746C274.418 210.746 273.437 211.042 272.731 211.257L273.86 210.638C275.238 209.926 276.548 209.348 277.697 208.851C278.369 208.575 278.961 208.333 279.525 208.118C280.163 208.454 282.744 209.778 284.142 209.866C285.539 209.953 287.273 209.684 288.214 208.589C288.429 208.342 288.592 208.055 288.693 207.744C288.795 207.433 288.832 207.105 288.803 206.779C288.774 206.453 288.68 206.137 288.525 205.848C288.371 205.56 288.16 205.306 287.905 205.101Z" fill="#6EB6FF"/>
<path d="M240.704 193.106C241.678 194.383 244.87 196.043 244.877 196.043C244.883 196.043 245.334 193.61 245.34 193.449C245.448 191.621 244.574 188.032 242.652 187.293C242.331 187.179 241.99 187.134 241.65 187.161C241.311 187.188 240.98 187.286 240.681 187.449C240.382 187.612 240.12 187.836 239.913 188.107C239.707 188.377 239.559 188.689 239.481 189.02C239.104 190.411 239.904 192.024 240.704 193.106Z" fill="#6EB6FF"/>
<g opacity="0.5">
<path d="M272.207 211.351C272.207 211.384 273.934 209.57 274.028 209.442C275.124 207.977 276.38 204.496 275.191 202.823C274.986 202.551 274.726 202.326 274.428 202.161C274.13 201.997 273.801 201.896 273.462 201.867C273.123 201.838 272.782 201.881 272.46 201.992C272.138 202.103 271.844 202.281 271.596 202.514C270.507 203.468 270.252 205.236 270.346 206.6C270.46 208.199 272.207 211.344 272.207 211.351Z" fill="white"/>
<path d="M287.905 205.101C286.225 203.925 282.757 205.209 281.299 206.311C281.171 206.412 279.371 208.132 279.404 208.145H279.444C278.893 208.347 278.309 208.562 277.67 208.817C276.501 209.288 275.184 209.839 273.786 210.524C272.277 211.258 270.81 212.075 269.391 212.97C267.801 213.968 266.304 215.106 264.916 216.371C264.898 216.385 264.883 216.4 264.869 216.418C265.164 215.9 265.951 214.402 265.998 214.294C266.67 212.587 266.959 208.918 265.373 207.608C265.101 207.401 264.79 207.253 264.458 207.175C264.126 207.096 263.781 207.088 263.446 207.152C263.11 207.215 262.792 207.348 262.512 207.542C262.231 207.737 261.995 207.988 261.818 208.28C261.025 209.489 261.24 211.257 261.697 212.547C262.208 214.005 264.526 216.411 264.714 216.579C263.33 217.899 262.037 219.311 260.843 220.806C260.171 221.673 259.466 222.566 258.827 223.494C259.069 223.037 259.284 222.62 259.305 222.56C259.977 220.86 260.266 217.184 258.68 215.873C258.409 215.666 258.098 215.519 257.766 215.44C257.435 215.362 257.09 215.354 256.756 215.418C256.421 215.481 256.103 215.614 255.823 215.808C255.544 216.003 255.308 216.254 255.131 216.545C254.332 217.748 254.554 219.522 255.004 220.806C255.454 222.089 257.403 224.213 257.92 224.757L257.134 225.792C255.924 227.479 254.728 229.152 253.499 230.778C253.068 231.349 252.625 231.9 252.155 232.445C252.37 232.035 252.551 231.692 252.571 231.638C253.243 229.932 253.532 226.262 251.946 224.918C251.675 224.71 251.364 224.562 251.031 224.483C250.699 224.404 250.354 224.396 250.018 224.459C249.683 224.522 249.364 224.656 249.084 224.851C248.804 225.046 248.568 225.298 248.391 225.59C247.592 226.8 247.813 228.567 248.27 229.858C248.727 231.148 250.475 233.056 251.086 233.708C250.616 234.259 250.145 234.804 249.661 235.314C249.325 235.657 249.03 235.986 248.667 236.329L247.639 237.297C246.967 237.888 246.295 238.506 245.589 239.071C245.119 239.467 244.668 239.83 244.245 240.2C244.675 239.642 245.508 238.52 245.589 238.419C246.346 236.997 246.726 235.406 246.691 233.796C246.781 233.641 246.857 233.479 246.92 233.312C247.045 232.995 247.103 232.655 247.089 232.314C247.075 231.974 246.989 231.64 246.838 231.335C246.686 231.029 246.472 230.759 246.21 230.542C245.947 230.324 245.642 230.164 245.314 230.073C243.298 229.582 240.542 232.021 239.581 233.58C239.528 233.675 239.017 234.736 238.715 235.415C238.829 234.992 238.956 234.575 239.071 234.138C239.313 233.271 239.528 232.398 239.743 231.45C239.837 230.993 239.938 230.53 240.038 230.066C240.139 229.602 240.2 229.105 240.287 228.621C240.455 227.492 240.576 226.343 240.677 225.18C241.436 225.389 244.144 226.094 245.502 225.852C246.859 225.611 248.519 225.006 249.204 223.736C249.378 223.442 249.488 223.115 249.526 222.777C249.565 222.438 249.531 222.095 249.428 221.77C249.324 221.445 249.153 221.146 248.926 220.892C248.699 220.637 248.42 220.434 248.109 220.295C246.214 219.502 243.103 221.498 241.913 222.889C241.839 222.976 241.1 224.072 240.704 224.683C240.757 224.011 240.811 223.285 240.845 222.573C240.925 220.557 240.952 218.454 240.986 216.384C240.986 215.752 240.986 215.121 241.026 214.489C241.295 214.563 244.5 215.47 246.019 215.235C247.363 215.033 249.036 214.395 249.729 213.118C249.9 212.824 250.007 212.497 250.044 212.158C250.081 211.82 250.046 211.477 249.943 211.153C249.839 210.828 249.668 210.529 249.441 210.275C249.214 210.021 248.937 209.818 248.627 209.677C246.738 208.891 243.62 210.887 242.431 212.278C242.343 212.379 241.282 213.958 241.026 214.375C241.06 212.984 241.107 211.593 241.208 210.228C241.337 208.385 241.584 206.551 241.947 204.738C242.075 204.738 245.414 205.733 246.973 205.491C248.317 205.289 249.984 204.651 250.676 203.374C250.848 203.08 250.955 202.753 250.993 202.415C251.03 202.077 250.996 201.735 250.893 201.41C250.79 201.086 250.619 200.787 250.393 200.533C250.167 200.278 249.891 200.074 249.581 199.933C247.686 199.147 244.568 201.136 243.385 202.534C243.304 202.621 242.491 203.824 242.122 204.402L242.014 204.362C242.429 202.546 243.007 200.772 243.741 199.06C244.131 198.112 244.554 197.232 244.991 196.372C245.596 196.614 248.351 197.716 249.789 197.635C251.227 197.555 252.88 197.124 253.707 195.935C253.91 195.662 254.053 195.349 254.127 195.016C254.201 194.684 254.205 194.34 254.138 194.006C254.071 193.672 253.934 193.356 253.737 193.078C253.54 192.801 253.287 192.567 252.995 192.394C251.2 191.406 247.881 193.066 246.55 194.295C246.476 194.363 245.818 195.135 245.34 195.707C245.542 195.33 245.744 194.934 245.945 194.571C246.698 193.227 247.464 192.017 248.156 190.962C248.553 190.371 248.922 189.84 249.278 189.343C249.991 189.276 252.88 188.946 254.097 188.254C255.313 187.562 256.603 186.379 256.785 184.941C256.84 184.605 256.824 184.261 256.737 183.932C256.65 183.602 256.495 183.295 256.281 183.03C256.067 182.765 255.8 182.548 255.496 182.393C255.193 182.238 254.86 182.149 254.52 182.132C252.47 182.078 250.286 185.055 249.682 186.782C249.628 186.937 249.077 189.363 249.11 189.356H249.157C248.808 189.804 248.438 190.315 248.049 190.888C247.33 191.93 246.53 193.113 245.75 194.457C244.893 195.898 244.118 197.388 243.432 198.919C242.658 200.631 242.035 202.407 241.571 204.228C241.574 204.25 241.574 204.272 241.571 204.295C241.571 203.697 241.369 202.023 241.342 201.896C240.966 200.108 239.171 196.869 237.135 196.668C236.795 196.642 236.454 196.688 236.133 196.803C235.813 196.918 235.52 197.1 235.274 197.335C235.028 197.571 234.834 197.856 234.706 198.172C234.577 198.488 234.517 198.827 234.528 199.167C234.528 200.612 235.691 201.97 236.779 202.789C238.009 203.724 241.268 204.456 241.53 204.51C241.109 206.376 240.81 208.269 240.636 210.175C240.536 211.284 240.462 212.399 240.401 213.535C240.354 213.017 240.307 212.554 240.294 212.493C239.911 210.699 238.116 207.467 236.08 207.258C235.74 207.233 235.399 207.279 235.078 207.394C234.758 207.509 234.465 207.69 234.219 207.926C233.973 208.162 233.779 208.447 233.651 208.763C233.522 209.078 233.462 209.417 233.473 209.758C233.473 211.203 234.635 212.56 235.724 213.387C236.813 214.213 239.602 214.899 240.334 215.074C240.334 215.504 240.294 215.934 240.28 216.364C240.2 218.434 240.132 220.503 240.005 222.526C239.958 223.238 239.884 223.944 239.817 224.643C239.776 224.186 239.729 223.796 239.723 223.742C239.339 221.948 237.545 218.716 235.509 218.508C235.169 218.482 234.828 218.528 234.507 218.643C234.186 218.758 233.893 218.94 233.647 219.175C233.401 219.411 233.208 219.696 233.079 220.012C232.951 220.328 232.89 220.667 232.902 221.007C232.902 222.459 234.064 223.81 235.153 224.636C236.242 225.463 238.762 226.088 239.628 226.289C239.541 227.008 239.447 227.727 239.326 228.413C239.232 228.883 239.178 229.347 239.057 229.811L238.735 231.155C238.493 232.021 238.258 232.922 238.002 233.762C237.827 234.347 237.653 234.904 237.478 235.469C237.532 234.756 237.606 233.365 237.599 233.244C237.498 231.423 236.215 227.949 234.239 227.438C233.907 227.362 233.563 227.357 233.23 227.423C232.896 227.488 232.58 227.624 232.301 227.819C232.023 228.015 231.789 228.267 231.615 228.559C231.44 228.852 231.329 229.177 231.289 229.515C231.067 230.946 232.008 232.458 232.962 233.439C233.916 234.42 236.994 235.704 237.371 235.852C237.075 236.779 236.786 237.673 236.497 238.54C235.496 241.463 234.555 243.862 233.876 245.529C233.876 245.589 233.829 245.643 233.802 245.697L235.025 246.369C235.066 246.261 235.113 246.154 235.153 246.039C235.825 244.339 236.705 241.893 237.646 238.916C237.948 237.975 238.251 236.967 238.553 235.926C239.579 236.054 240.611 236.121 241.644 236.127C242.014 237.626 243.728 240.085 243.949 240.401C243.197 241.013 242.458 241.604 241.752 242.148C239.306 244.037 237.196 245.508 235.704 246.53L235.529 246.651L236.873 247.39C238.325 246.348 240.233 244.904 242.498 243.103C243.264 242.484 244.077 241.806 244.897 241.087C245.199 241.342 247.652 243.425 249.104 243.842C250.414 244.218 252.195 244.339 253.351 243.472C253.63 243.278 253.865 243.026 254.041 242.735C254.217 242.443 254.329 242.118 254.371 241.78C254.413 241.442 254.383 241.1 254.284 240.774C254.184 240.448 254.018 240.147 253.794 239.891C252.41 238.379 248.747 238.883 247.074 239.649C246.98 239.696 245.972 240.321 245.34 240.697C245.676 240.408 246.012 240.132 246.342 239.83C247.014 239.245 247.686 238.634 248.398 237.975L249.406 236.988C249.749 236.658 250.078 236.275 250.414 235.919C251.18 235.072 251.913 234.179 252.632 233.265C253.156 233.856 255.031 235.953 256.274 236.517C257.517 237.082 259.258 237.471 260.534 236.793C260.839 236.642 261.109 236.429 261.327 236.167C261.544 235.905 261.704 235.601 261.797 235.273C261.889 234.946 261.912 234.603 261.863 234.266C261.815 233.929 261.696 233.607 261.515 233.318C260.373 231.618 256.677 231.558 254.916 232.062C254.802 232.095 253.572 232.599 252.9 232.888C253.324 232.337 253.761 231.786 254.171 231.208C255.373 229.548 256.536 227.848 257.705 226.128L258.787 224.569C258.969 224.777 261.146 227.304 262.544 227.929C263.78 228.5 265.521 228.89 266.797 228.204C267.104 228.055 267.375 227.843 267.594 227.581C267.812 227.32 267.973 227.015 268.066 226.687C268.159 226.359 268.181 226.015 268.131 225.678C268.082 225.341 267.962 225.018 267.779 224.73C266.636 223.03 262.94 222.97 261.179 223.48C261.052 223.514 259.291 224.246 258.854 224.455C259.647 223.312 260.454 222.177 261.294 221.095C262.414 219.624 263.63 218.23 264.936 216.922C265.023 217.022 267.281 219.663 268.706 220.322C269.949 220.9 271.69 221.283 272.966 220.604C273.272 220.454 273.543 220.241 273.761 219.98C273.979 219.718 274.139 219.414 274.232 219.086C274.324 218.758 274.347 218.415 274.298 218.078C274.249 217.741 274.129 217.418 273.947 217.13C272.805 215.423 269.109 215.369 267.348 215.873C267.234 215.907 265.897 216.465 265.265 216.74L265.198 216.639C266.547 215.359 268.006 214.201 269.559 213.179C270.413 212.601 271.253 212.097 272.086 211.633C272.456 212.164 274.169 214.59 275.392 215.329C276.615 216.068 278.248 216.612 279.592 216.075C279.913 215.958 280.206 215.775 280.452 215.537C280.697 215.3 280.889 215.013 281.016 214.696C281.143 214.379 281.202 214.038 281.188 213.697C281.174 213.355 281.088 213.021 280.936 212.715C279.989 210.894 276.32 210.437 274.519 210.746C274.418 210.746 273.437 211.042 272.731 211.257L273.86 210.638C275.238 209.926 276.548 209.348 277.697 208.851C278.369 208.575 278.961 208.333 279.525 208.118C280.163 208.454 282.744 209.778 284.142 209.866C285.539 209.953 287.273 209.684 288.214 208.589C288.429 208.342 288.592 208.055 288.693 207.744C288.795 207.433 288.832 207.105 288.803 206.779C288.774 206.453 288.68 206.137 288.525 205.848C288.371 205.56 288.16 205.306 287.905 205.101Z" fill="white"/>
<path d="M240.704 193.106C241.678 194.383 244.87 196.043 244.877 196.043C244.883 196.043 245.334 193.61 245.34 193.449C245.448 191.621 244.574 188.032 242.652 187.293C242.331 187.179 241.99 187.134 241.65 187.161C241.311 187.188 240.98 187.286 240.681 187.449C240.382 187.612 240.12 187.836 239.913 188.107C239.707 188.377 239.559 188.689 239.481 189.02C239.104 190.411 239.904 192.024 240.704 193.106Z" fill="white"/>
</g>
<path d="M109.536 159.13C109.576 159.13 109.012 156.314 108.951 156.146C108.279 154.13 105.86 150.629 103.495 150.636C103.102 150.648 102.716 150.743 102.362 150.914C102.008 151.085 101.694 151.329 101.441 151.629C101.187 151.93 101 152.28 100.891 152.658C100.781 153.035 100.753 153.431 100.807 153.821C100.981 155.481 102.473 156.899 103.824 157.712C105.396 158.673 109.536 159.13 109.536 159.13Z" fill="#6EB6FF"/>
<path d="M114.112 140.172C111.881 140.972 110.752 145.098 110.846 147.208C110.846 147.39 111.27 150.232 111.31 150.212H111.357C111.176 150.884 110.994 151.556 110.806 152.329C110.47 153.747 110.134 155.353 109.825 157.127C109.506 159.038 109.295 160.965 109.193 162.9C109.075 165.063 109.149 167.234 109.415 169.384C109.418 169.411 109.418 169.438 109.415 169.465C109.126 168.833 108.252 167.106 108.165 166.979C107.009 165.211 103.73 162.476 101.445 163.108C101.07 163.224 100.723 163.418 100.427 163.677C100.131 163.935 99.8926 164.253 99.7273 164.61C99.5619 164.966 99.4733 165.354 99.4671 165.747C99.4608 166.14 99.5372 166.53 99.6911 166.891C100.296 168.444 102.11 169.418 103.629 169.848C105.343 170.339 109.16 169.761 109.462 169.714C109.785 171.898 110.254 174.057 110.866 176.178C111.216 177.415 111.606 178.651 112.016 179.888C111.747 179.35 111.498 178.873 111.458 178.812C110.295 177.045 107.023 174.31 104.738 174.942C104.362 175.056 104.014 175.249 103.718 175.507C103.422 175.765 103.183 176.082 103.017 176.438C102.852 176.795 102.763 177.182 102.758 177.575C102.752 177.968 102.829 178.357 102.984 178.718C103.589 180.277 105.403 181.252 106.922 181.682C108.441 182.112 111.72 181.682 112.587 181.568C112.748 182.038 112.903 182.515 113.064 182.986C113.843 185.244 114.636 187.501 115.342 189.706C115.591 190.492 115.806 191.278 116.014 192.058C115.772 191.58 115.57 191.184 115.53 191.13C114.374 189.363 111.095 186.628 108.81 187.26C108.434 187.374 108.087 187.567 107.79 187.824C107.494 188.082 107.255 188.4 107.09 188.756C106.924 189.112 106.836 189.5 106.83 189.893C106.824 190.285 106.901 190.675 107.056 191.036C107.661 192.595 109.475 193.57 110.994 194C112.513 194.43 115.476 194.053 116.505 193.906C116.706 194.719 116.908 195.525 117.062 196.318C117.163 196.862 117.291 197.38 117.358 197.938C117.425 198.495 117.506 199.02 117.586 199.55C117.694 200.585 117.808 201.654 117.889 202.668C117.949 203.34 117.99 204.012 118.037 204.684C117.801 203.898 117.297 202.366 117.244 202.245C116.407 200.584 115.16 199.164 113.622 198.119C113.536 197.93 113.432 197.75 113.313 197.581C113.1 197.25 112.82 196.968 112.491 196.752C112.161 196.536 111.791 196.392 111.402 196.329C111.014 196.265 110.617 196.284 110.236 196.384C109.856 196.484 109.5 196.663 109.193 196.909C107.406 198.462 107.849 202.702 108.676 204.651C108.723 204.765 109.395 205.948 109.825 206.667C109.502 206.27 109.2 205.881 108.864 205.471C108.192 204.671 107.52 203.885 106.794 203.038L105.685 201.835C105.322 201.425 104.892 201.042 104.489 200.639C103.548 199.725 102.54 198.845 101.512 197.951C102.184 197.373 104.684 195.263 105.396 193.872C106.109 192.481 106.606 190.465 105.867 188.966C105.705 188.608 105.47 188.288 105.176 188.027C104.882 187.765 104.537 187.569 104.162 187.451C103.787 187.332 103.391 187.294 103.001 187.338C102.61 187.383 102.234 187.51 101.895 187.71C99.8792 188.966 99.6911 193.227 100.209 195.276C100.242 195.404 100.78 196.829 101.089 197.608C100.464 197.098 99.8456 196.58 99.2005 196.076C97.3256 194.631 95.3903 193.227 93.4616 191.816C92.8703 191.386 92.2856 190.942 91.701 190.512C91.9564 190.304 94.9468 187.891 95.733 186.305C96.4386 184.894 96.9493 182.898 96.2101 181.4C96.0485 181.041 95.8131 180.721 95.5193 180.46C95.2255 180.199 94.88 180.002 94.5052 179.884C94.1304 179.765 93.7348 179.727 93.3442 179.772C92.9537 179.816 92.5769 179.943 92.2386 180.143C90.2226 181.4 90.0277 185.66 90.5519 187.71C90.5519 187.864 91.365 189.921 91.5868 190.431C90.2965 189.47 89.0264 188.503 87.8034 187.495C86.1441 186.145 84.5729 184.691 83.0994 183.14C83.2204 183.046 86.3519 180.54 87.1314 178.913C87.837 177.502 88.3477 175.506 87.6085 174.008C87.4469 173.649 87.2115 173.329 86.9177 173.068C86.6239 172.807 86.2784 172.61 85.9036 172.492C85.5288 172.373 85.1332 172.335 84.7427 172.38C84.3521 172.424 83.9753 172.551 83.637 172.751C81.621 174.008 81.4261 178.268 81.9503 180.318C81.9503 180.452 82.5752 182.018 82.8709 182.757L82.7567 182.824C81.323 181.223 80.0365 179.496 78.9128 177.663C78.2812 176.669 77.7368 175.647 77.2261 174.7C77.8511 174.29 80.7205 172.402 81.6143 171.017C82.508 169.633 83.1935 167.765 82.6223 166.199C82.501 165.825 82.3023 165.481 82.0391 165.188C81.7759 164.896 81.4542 164.662 81.0948 164.503C80.7354 164.343 80.3464 164.261 79.9531 164.261C79.5598 164.262 79.171 164.345 78.812 164.506C76.6818 165.54 76.0165 169.754 76.3055 171.844C76.3055 171.958 76.6079 173.1 76.8296 173.927C76.6079 173.484 76.3727 173.027 76.1576 172.583C75.3781 170.97 74.7666 169.452 74.229 168.094C73.9333 167.321 73.6847 166.622 73.4562 165.957C73.8661 165.238 75.4722 162.301 75.6335 160.695C75.7948 159.089 75.5461 157.08 74.2895 155.951C74.0093 155.675 73.6742 155.462 73.3061 155.324C72.938 155.186 72.545 155.128 72.1527 155.152C71.7605 155.176 71.3776 155.282 71.0291 155.464C70.6806 155.646 70.3742 155.899 70.1298 156.206C68.7186 158.101 70.0693 162.154 71.2924 163.874C71.3932 164.022 73.3084 166.165 73.3084 166.125V166.078C73.5167 166.75 73.7452 167.422 73.9804 168.148C74.4844 169.492 75.069 171.058 75.8149 172.691C76.5973 174.462 77.4836 176.185 78.4693 177.852C79.567 179.723 80.8262 181.495 82.2325 183.147L82.2863 183.201C81.6949 182.838 80.0149 181.857 79.8738 181.816C77.9317 180.983 73.6914 180.513 72.1324 182.293C71.8829 182.598 71.7 182.951 71.5957 183.33C71.4914 183.71 71.468 184.107 71.5269 184.496C71.5858 184.885 71.7258 185.257 71.9378 185.588C72.1497 185.92 72.4289 186.203 72.7573 186.42C74.1013 187.38 76.1711 187.192 77.6696 186.715C79.3698 186.178 82.2325 183.59 82.461 183.355C83.9252 184.996 85.4966 186.539 87.165 187.972C88.1394 188.812 89.1474 189.632 90.1688 190.431L89.1138 189.84C87.1717 189.007 82.9314 188.536 81.3724 190.324C81.1227 190.627 80.9395 190.979 80.8347 191.358C80.73 191.736 80.706 192.133 80.7643 192.521C80.8226 192.91 80.9619 193.281 81.1731 193.613C81.3844 193.944 81.6629 194.227 81.9906 194.443C83.3346 195.411 85.4044 195.216 86.9096 194.739C88.4149 194.262 90.9416 192.105 91.5733 191.52L92.756 192.441C94.6578 193.892 96.5596 195.337 98.3807 196.809C99.0191 197.326 99.6306 197.864 100.249 198.395C99.7852 198.132 99.3954 197.911 99.3282 197.884C97.3928 197.051 93.1458 196.58 91.5935 198.361C91.3437 198.665 91.1604 199.018 91.0556 199.397C90.9508 199.776 90.9267 200.173 90.985 200.561C91.0433 200.95 91.1826 201.323 91.3939 201.655C91.6052 201.986 91.8838 202.27 92.2117 202.487C93.5557 203.448 95.6255 203.26 97.1308 202.783C98.636 202.306 100.901 200.35 101.673 199.665C102.292 200.229 102.903 200.794 103.474 201.372C103.857 201.768 104.247 202.131 104.61 202.554L105.692 203.777C106.364 204.584 107.036 205.41 107.661 206.21C108.098 206.761 108.508 207.299 108.918 207.836C108.286 207.312 107.023 206.311 106.902 206.244C105.107 205.121 100.988 204.012 99.1804 205.572C98.8873 205.834 98.6529 206.155 98.4925 206.514C98.332 206.873 98.249 207.262 98.249 207.655C98.249 208.048 98.332 208.437 98.4925 208.796C98.6529 209.155 98.8873 209.476 99.1804 209.738C100.383 210.9 102.44 211.021 103.999 210.78C105.712 210.511 108.824 208.481 109.207 208.226C109.879 209.12 110.551 209.993 111.135 210.833C113.232 213.723 114.865 216.209 115.98 217.963L116.095 218.145L117.539 217.439L117.311 217.096C116.142 215.349 114.441 212.869 112.264 210C111.592 209.086 110.833 208.132 110.053 207.157C110.853 206.273 111.603 205.344 112.298 204.375C113.958 205.047 117.425 205.047 117.869 205.047C117.943 206.17 118.003 207.258 118.043 208.286C118.191 211.848 118.185 214.825 118.144 216.908V217.15L119.73 216.377C119.73 214.308 119.656 211.519 119.441 208.212C119.374 207.077 119.28 205.86 119.166 204.617C119.609 204.51 123.198 203.582 124.542 202.5C125.771 201.513 127.068 199.913 127.028 198.247C127.031 197.853 126.951 197.463 126.793 197.103C126.636 196.742 126.404 196.419 126.113 196.154C125.822 195.889 125.478 195.688 125.104 195.565C124.731 195.441 124.335 195.398 123.944 195.438C121.598 195.74 119.629 199.524 119.24 201.607C119.24 201.728 119.119 203.085 119.065 203.939C119.018 203.435 118.977 202.937 118.924 202.413C118.816 201.385 118.682 200.35 118.541 199.248L118.279 197.628C118.205 197.091 118.057 196.533 117.943 195.975C117.66 194.685 117.311 193.402 116.928 192.105C117.828 192.017 121.041 191.634 122.418 190.848C123.796 190.062 125.308 188.677 125.516 187.018C125.579 186.629 125.559 186.232 125.458 185.852C125.357 185.472 125.177 185.118 124.93 184.812C124.682 184.507 124.373 184.256 124.023 184.078C123.672 183.9 123.288 183.798 122.895 183.779C120.53 183.718 118.01 187.139 117.318 189.155C117.271 189.276 116.935 190.767 116.76 191.587C116.525 190.814 116.296 190.042 116.034 189.262C115.268 187.024 114.428 184.787 113.595 182.542L112.849 180.486C113.171 180.452 117.002 180.089 118.541 179.202C119.885 178.416 121.43 177.032 121.639 175.379C121.701 174.99 121.682 174.593 121.581 174.212C121.48 173.832 121.3 173.477 121.053 173.171C120.805 172.865 120.496 172.614 120.146 172.435C119.795 172.256 119.411 172.153 119.018 172.133C116.652 172.079 114.132 175.493 113.44 177.509C113.386 177.663 112.903 179.8 112.802 180.351C112.257 178.839 111.727 177.327 111.27 175.815C110.632 173.779 110.129 171.702 109.764 169.599C109.912 169.599 113.911 169.223 115.49 168.316C116.834 167.53 118.379 166.145 118.588 164.485C118.65 164.097 118.629 163.701 118.528 163.321C118.426 162.942 118.246 162.588 117.999 162.282C117.752 161.977 117.443 161.727 117.093 161.548C116.743 161.37 116.359 161.267 115.967 161.246C113.601 161.186 111.081 164.606 110.389 166.622C110.342 166.757 109.973 168.383 109.811 169.163H109.677C109.369 167.036 109.249 164.886 109.321 162.738C109.321 161.556 109.435 160.427 109.543 159.331C110.295 159.331 113.729 159.331 115.234 158.659C116.74 157.987 118.353 156.825 118.742 155.198C118.847 154.819 118.871 154.422 118.813 154.033C118.754 153.644 118.614 153.272 118.401 152.941C118.189 152.61 117.909 152.327 117.58 152.112C117.25 151.896 116.88 151.753 116.491 151.691C114.146 151.368 111.263 154.52 110.356 156.395C110.302 156.502 109.919 157.611 109.643 158.411C109.704 157.913 109.758 157.403 109.818 156.932C110.06 155.158 110.389 153.572 110.692 152.127C110.873 151.321 111.048 150.595 111.223 149.916C111.962 149.54 114.932 147.988 115.927 146.724C116.921 145.461 117.842 143.66 117.439 142.02C117.218 141.35 116.754 140.788 116.137 140.445C115.521 140.103 114.797 140.005 114.112 140.172Z" fill="#6EB6FF"/>
<path d="M71.3327 176.649C73.1807 176.575 76.8767 174.68 76.8834 174.68C76.8902 174.68 74.8674 172.623 74.7465 172.509C73.0934 171.165 69.1286 169.62 67.1596 170.923C66.8374 171.149 66.5666 171.44 66.3647 171.778C66.1629 172.116 66.0346 172.492 65.9883 172.883C65.942 173.274 65.9787 173.67 66.096 174.046C66.2133 174.421 66.4086 174.768 66.669 175.063C67.7308 176.36 69.7535 176.736 71.3327 176.649Z" fill="#6EB6FF"/>
<g opacity="0.5">
<path d="M109.536 159.13C109.576 159.13 109.012 156.314 108.951 156.146C108.279 154.13 105.86 150.629 103.495 150.636C103.102 150.648 102.716 150.743 102.362 150.914C102.008 151.085 101.694 151.329 101.441 151.629C101.187 151.93 101 152.28 100.891 152.658C100.781 153.035 100.753 153.431 100.807 153.821C100.981 155.481 102.473 156.899 103.824 157.712C105.396 158.673 109.536 159.13 109.536 159.13Z" fill="white"/>
<path d="M114.112 140.172C111.881 140.972 110.752 145.098 110.846 147.208C110.846 147.39 111.27 150.232 111.31 150.212H111.357C111.176 150.884 110.994 151.556 110.806 152.329C110.47 153.747 110.134 155.353 109.825 157.127C109.506 159.038 109.295 160.965 109.193 162.9C109.075 165.063 109.149 167.234 109.415 169.384C109.418 169.411 109.418 169.438 109.415 169.465C109.126 168.833 108.252 167.106 108.165 166.979C107.009 165.211 103.73 162.476 101.445 163.108C101.07 163.224 100.723 163.418 100.427 163.677C100.131 163.935 99.8926 164.253 99.7273 164.61C99.5619 164.966 99.4733 165.354 99.4671 165.747C99.4608 166.14 99.5372 166.53 99.6911 166.891C100.296 168.444 102.11 169.418 103.629 169.848C105.343 170.339 109.16 169.761 109.462 169.714C109.785 171.898 110.254 174.057 110.866 176.178C111.216 177.415 111.606 178.651 112.016 179.888C111.747 179.35 111.498 178.873 111.458 178.812C110.295 177.045 107.023 174.31 104.738 174.942C104.362 175.056 104.014 175.249 103.718 175.507C103.422 175.765 103.183 176.082 103.017 176.438C102.852 176.795 102.763 177.182 102.758 177.575C102.752 177.968 102.829 178.357 102.984 178.718C103.589 180.277 105.403 181.252 106.922 181.682C108.441 182.112 111.72 181.682 112.587 181.568C112.748 182.038 112.903 182.515 113.064 182.986C113.843 185.244 114.636 187.501 115.342 189.706C115.591 190.492 115.806 191.278 116.014 192.058C115.772 191.58 115.57 191.184 115.53 191.13C114.374 189.363 111.095 186.628 108.81 187.26C108.434 187.374 108.087 187.567 107.79 187.824C107.494 188.082 107.255 188.4 107.09 188.756C106.924 189.112 106.836 189.5 106.83 189.893C106.824 190.285 106.901 190.675 107.056 191.036C107.661 192.595 109.475 193.57 110.994 194C112.513 194.43 115.476 194.053 116.505 193.906C116.706 194.719 116.908 195.525 117.062 196.318C117.163 196.862 117.291 197.38 117.358 197.938C117.425 198.495 117.506 199.02 117.586 199.55C117.694 200.585 117.808 201.654 117.889 202.668C117.949 203.34 117.99 204.012 118.037 204.684C117.801 203.898 117.297 202.366 117.244 202.245C116.407 200.584 115.16 199.164 113.622 198.119C113.536 197.93 113.432 197.75 113.313 197.581C113.1 197.25 112.82 196.968 112.491 196.752C112.161 196.536 111.791 196.392 111.402 196.329C111.014 196.265 110.617 196.284 110.236 196.384C109.856 196.484 109.5 196.663 109.193 196.909C107.406 198.462 107.849 202.702 108.676 204.651C108.723 204.765 109.395 205.948 109.825 206.667C109.502 206.27 109.2 205.881 108.864 205.471C108.192 204.671 107.52 203.885 106.794 203.038L105.685 201.835C105.322 201.425 104.892 201.042 104.489 200.639C103.548 199.725 102.54 198.845 101.512 197.951C102.184 197.373 104.684 195.263 105.396 193.872C106.109 192.481 106.606 190.465 105.867 188.966C105.705 188.608 105.47 188.288 105.176 188.027C104.882 187.765 104.537 187.569 104.162 187.451C103.787 187.332 103.391 187.294 103.001 187.338C102.61 187.383 102.234 187.51 101.895 187.71C99.8792 188.966 99.6911 193.227 100.209 195.276C100.242 195.404 100.78 196.829 101.089 197.608C100.464 197.098 99.8456 196.58 99.2005 196.076C97.3256 194.631 95.3903 193.227 93.4616 191.816C92.8703 191.386 92.2856 190.942 91.701 190.512C91.9564 190.304 94.9468 187.891 95.733 186.305C96.4386 184.894 96.9493 182.898 96.2101 181.4C96.0485 181.041 95.8131 180.721 95.5193 180.46C95.2255 180.199 94.88 180.002 94.5052 179.884C94.1304 179.765 93.7348 179.727 93.3442 179.772C92.9537 179.816 92.5769 179.943 92.2386 180.143C90.2226 181.4 90.0277 185.66 90.5519 187.71C90.5519 187.864 91.365 189.921 91.5868 190.431C90.2965 189.47 89.0264 188.503 87.8034 187.495C86.1441 186.145 84.5729 184.691 83.0994 183.14C83.2204 183.046 86.3519 180.54 87.1314 178.913C87.837 177.502 88.3477 175.506 87.6085 174.008C87.4469 173.649 87.2115 173.329 86.9177 173.068C86.6239 172.807 86.2784 172.61 85.9036 172.492C85.5288 172.373 85.1332 172.335 84.7427 172.38C84.3521 172.424 83.9753 172.551 83.637 172.751C81.621 174.008 81.4261 178.268 81.9503 180.318C81.9503 180.452 82.5752 182.018 82.8709 182.757L82.7567 182.824C81.323 181.223 80.0365 179.496 78.9128 177.663C78.2812 176.669 77.7368 175.647 77.2261 174.7C77.8511 174.29 80.7205 172.402 81.6143 171.017C82.508 169.633 83.1935 167.765 82.6223 166.199C82.501 165.825 82.3023 165.481 82.0391 165.188C81.7759 164.896 81.4542 164.662 81.0948 164.503C80.7354 164.343 80.3464 164.261 79.9531 164.261C79.5598 164.262 79.171 164.345 78.812 164.506C76.6818 165.54 76.0165 169.754 76.3055 171.844C76.3055 171.958 76.6079 173.1 76.8296 173.927C76.6079 173.484 76.3727 173.027 76.1576 172.583C75.3781 170.97 74.7666 169.452 74.229 168.094C73.9333 167.321 73.6847 166.622 73.4562 165.957C73.8661 165.238 75.4722 162.301 75.6335 160.695C75.7948 159.089 75.5461 157.08 74.2895 155.951C74.0093 155.675 73.6742 155.462 73.3061 155.324C72.938 155.186 72.545 155.128 72.1527 155.152C71.7605 155.176 71.3776 155.282 71.0291 155.464C70.6806 155.646 70.3742 155.899 70.1298 156.206C68.7186 158.101 70.0693 162.154 71.2924 163.874C71.3932 164.022 73.3084 166.165 73.3084 166.125V166.078C73.5167 166.75 73.7452 167.422 73.9804 168.148C74.4844 169.492 75.069 171.058 75.8149 172.691C76.5973 174.462 77.4836 176.185 78.4693 177.852C79.567 179.723 80.8262 181.495 82.2325 183.147L82.2863 183.201C81.6949 182.838 80.0149 181.857 79.8738 181.816C77.9317 180.983 73.6914 180.513 72.1324 182.293C71.8829 182.598 71.7 182.951 71.5957 183.33C71.4914 183.71 71.468 184.107 71.5269 184.496C71.5858 184.885 71.7258 185.257 71.9378 185.588C72.1497 185.92 72.4289 186.203 72.7573 186.42C74.1013 187.38 76.1711 187.192 77.6696 186.715C79.3698 186.178 82.2325 183.59 82.461 183.355C83.9252 184.996 85.4966 186.539 87.165 187.972C88.1394 188.812 89.1474 189.632 90.1688 190.431L89.1138 189.84C87.1717 189.007 82.9314 188.536 81.3724 190.324C81.1227 190.627 80.9395 190.979 80.8347 191.358C80.73 191.736 80.706 192.133 80.7643 192.521C80.8226 192.91 80.9619 193.281 81.1731 193.613C81.3844 193.944 81.6629 194.227 81.9906 194.443C83.3346 195.411 85.4044 195.216 86.9096 194.739C88.4149 194.262 90.9416 192.105 91.5733 191.52L92.756 192.441C94.6578 193.892 96.5596 195.337 98.3807 196.809C99.0191 197.326 99.6306 197.864 100.249 198.395C99.7852 198.132 99.3954 197.911 99.3282 197.884C97.3928 197.051 93.1458 196.58 91.5935 198.361C91.3437 198.665 91.1604 199.018 91.0556 199.397C90.9508 199.776 90.9267 200.173 90.985 200.561C91.0433 200.95 91.1826 201.323 91.3939 201.655C91.6052 201.986 91.8838 202.27 92.2117 202.487C93.5557 203.448 95.6255 203.26 97.1308 202.783C98.636 202.306 100.901 200.35 101.673 199.665C102.292 200.229 102.903 200.794 103.474 201.372C103.857 201.768 104.247 202.131 104.61 202.554L105.692 203.777C106.364 204.584 107.036 205.41 107.661 206.21C108.098 206.761 108.508 207.299 108.918 207.836C108.286 207.312 107.023 206.311 106.902 206.244C105.107 205.121 100.988 204.012 99.1804 205.572C98.8873 205.834 98.6529 206.155 98.4925 206.514C98.332 206.873 98.249 207.262 98.249 207.655C98.249 208.048 98.332 208.437 98.4925 208.796C98.6529 209.155 98.8873 209.476 99.1804 209.738C100.383 210.9 102.44 211.021 103.999 210.78C105.712 210.511 108.824 208.481 109.207 208.226C109.879 209.12 110.551 209.993 111.135 210.833C113.232 213.723 114.865 216.209 115.98 217.963L116.095 218.145L117.539 217.439L117.311 217.096C116.142 215.349 114.441 212.869 112.264 210C111.592 209.086 110.833 208.132 110.053 207.157C110.853 206.273 111.603 205.344 112.298 204.375C113.958 205.047 117.425 205.047 117.869 205.047C117.943 206.17 118.003 207.258 118.043 208.286C118.191 211.848 118.185 214.825 118.144 216.908V217.15L119.73 216.377C119.73 214.308 119.656 211.519 119.441 208.212C119.374 207.077 119.28 205.86 119.166 204.617C119.609 204.51 123.198 203.582 124.542 202.5C125.771 201.513 127.068 199.913 127.028 198.247C127.031 197.853 126.951 197.463 126.793 197.103C126.636 196.742 126.404 196.419 126.113 196.154C125.822 195.889 125.478 195.688 125.104 195.565C124.731 195.441 124.335 195.398 123.944 195.438C121.598 195.74 119.629 199.524 119.24 201.607C119.24 201.728 119.119 203.085 119.065 203.939C119.018 203.435 118.977 202.937 118.924 202.413C118.816 201.385 118.682 200.35 118.541 199.248L118.279 197.628C118.205 197.091 118.057 196.533 117.943 195.975C117.66 194.685 117.311 193.402 116.928 192.105C117.828 192.017 121.041 191.634 122.418 190.848C123.796 190.062 125.308 188.677 125.516 187.018C125.579 186.629 125.559 186.232 125.458 185.852C125.357 185.472 125.177 185.118 124.93 184.812C124.682 184.507 124.373 184.256 124.023 184.078C123.672 183.9 123.288 183.798 122.895 183.779C120.53 183.718 118.01 187.139 117.318 189.155C117.271 189.276 116.935 190.767 116.76 191.587C116.525 190.814 116.296 190.042 116.034 189.262C115.268 187.024 114.428 184.787 113.595 182.542L112.849 180.486C113.171 180.452 117.002 180.089 118.541 179.202C119.885 178.416 121.43 177.032 121.639 175.379C121.701 174.99 121.682 174.593 121.581 174.212C121.48 173.832 121.3 173.477 121.053 173.171C120.805 172.865 120.496 172.614 120.146 172.435C119.795 172.256 119.411 172.153 119.018 172.133C116.652 172.079 114.132 175.493 113.44 177.509C113.386 177.663 112.903 179.8 112.802 180.351C112.257 178.839 111.727 177.327 111.27 175.815C110.632 173.779 110.129 171.702 109.764 169.599C109.912 169.599 113.911 169.223 115.49 168.316C116.834 167.53 118.379 166.145 118.588 164.485C118.65 164.097 118.629 163.701 118.528 163.321C118.426 162.942 118.246 162.588 117.999 162.282C117.752 161.977 117.443 161.727 117.093 161.548C116.743 161.37 116.359 161.267 115.967 161.246C113.601 161.186 111.081 164.606 110.389 166.622C110.342 166.757 109.973 168.383 109.811 169.163H109.677C109.369 167.036 109.249 164.886 109.321 162.738C109.321 161.556 109.435 160.427 109.543 159.331C110.295 159.331 113.729 159.331 115.234 158.659C116.74 157.987 118.353 156.825 118.742 155.198C118.847 154.819 118.871 154.422 118.813 154.033C118.754 153.644 118.614 153.272 118.401 152.941C118.189 152.61 117.909 152.327 117.58 152.112C117.25 151.896 116.88 151.753 116.491 151.691C114.146 151.368 111.263 154.52 110.356 156.395C110.302 156.502 109.919 157.611 109.643 158.411C109.704 157.913 109.758 157.403 109.818 156.932C110.06 155.158 110.389 153.572 110.692 152.127C110.873 151.321 111.048 150.595 111.223 149.916C111.962 149.54 114.932 147.988 115.927 146.724C116.921 145.461 117.842 143.66 117.439 142.02C117.218 141.35 116.754 140.788 116.137 140.445C115.521 140.103 114.797 140.005 114.112 140.172Z" fill="white"/>
<path d="M71.3327 176.649C73.1807 176.575 76.8767 174.68 76.8834 174.68C76.8902 174.68 74.8674 172.623 74.7465 172.509C73.0934 171.165 69.1286 169.62 67.1596 170.923C66.8374 171.149 66.5666 171.44 66.3647 171.778C66.1629 172.116 66.0346 172.492 65.9883 172.883C65.942 173.274 65.9787 173.67 66.096 174.046C66.2133 174.421 66.4086 174.768 66.669 175.063C67.7308 176.36 69.7535 176.736 71.3327 176.649Z" fill="white"/>
</g>
<path d="M93.9187 227.398C93.9187 227.398 105.141 200.35 111.424 201.526C117.707 202.702 100.672 244.648 100.672 244.648C100.672 244.648 120.416 207.406 133.882 207.406C147.349 207.406 128.943 248.566 111.895 262.288C111.895 262.288 138.815 233.278 154.52 239.555C170.224 245.831 123.11 275.224 123.11 275.224C123.11 275.224 150.481 266.603 147.343 273.269C144.204 279.935 135.677 281.104 135.677 281.104L166.636 282.677H58.9209L83.1532 280.325C83.1532 280.325 58.0204 267.779 64.7539 262.685C71.4873 257.591 86.2915 268.565 86.2915 268.565C86.2915 268.565 60.7151 240.341 65.6476 229.75C70.5801 219.159 92.5747 248.963 92.5747 248.963C92.5747 248.963 74.6255 210.934 78.214 204.288C81.8025 197.642 93.9187 227.398 93.9187 227.398Z" fill="#6EB6FF"/>
<path opacity="0.5" d="M93.9187 227.398C93.9187 227.398 105.141 200.35 111.424 201.526C117.707 202.702 100.672 244.648 100.672 244.648C100.672 244.648 120.416 207.406 133.882 207.406C147.349 207.406 128.943 248.566 111.895 262.288C111.895 262.288 138.815 233.278 154.52 239.555C170.224 245.831 123.11 275.224 123.11 275.224C123.11 275.224 150.481 266.603 147.343 273.269C144.204 279.935 135.677 281.104 135.677 281.104L166.636 282.677H58.9209L83.1532 280.325C83.1532 280.325 58.0204 267.779 64.7539 262.685C71.4873 257.591 86.2915 268.565 86.2915 268.565C86.2915 268.565 60.7151 240.341 65.6476 229.75C70.5801 219.159 92.5747 248.963 92.5747 248.963C92.5747 248.963 74.6255 210.934 78.214 204.288C81.8025 197.642 93.9187 227.398 93.9187 227.398Z" fill="white"/>
<path d="M90.3302 228.823C100.202 257.994 100.202 278.638 100.202 278.638C100.202 278.638 88.536 279.082 76.4198 270.11" stroke="#263238" stroke-linecap="round" stroke-linejoin="round"/>
<path d="M95.2694 244.534C97.2988 235.813 99.9947 227.26 103.333 218.951" stroke="#263238" stroke-linecap="round" stroke-linejoin="round"/>
<path d="M124.434 227.479L99.3081 264.728C99.3081 264.728 82.2528 250.367 76.4198 242.29" stroke="#263238" stroke-linecap="round" stroke-linejoin="round"/>
<path d="M99.7583 273.699C99.7583 273.699 126.228 261.132 137.001 253.956" stroke="#263238" stroke-linecap="round" stroke-linejoin="round"/>
<path d="M238.688 227.398C238.688 227.398 227.472 200.35 221.216 201.526C214.959 202.702 231.968 244.648 231.968 244.648C231.968 244.648 212.224 207.406 198.764 207.406C185.304 207.406 203.697 248.566 220.752 262.288C220.752 262.288 193.825 233.278 178.12 239.555C162.416 245.831 209.536 275.224 209.536 275.224C209.536 275.224 182.159 266.603 185.304 273.269C188.449 279.935 196.97 281.104 196.97 281.104L165.984 282.677H273.692L249.46 280.325C249.46 280.325 274.586 267.779 267.859 262.685C261.132 257.591 246.315 268.565 246.315 268.565C246.315 268.565 271.898 240.341 266.959 229.75C262.019 219.159 240.032 248.963 240.032 248.963C240.032 248.963 257.987 210.934 254.392 204.268C250.797 197.602 238.688 227.398 238.688 227.398Z" fill="#6EB6FF"/>
<path opacity="0.5" d="M238.688 227.398C238.688 227.398 227.472 200.35 221.216 201.526C214.959 202.702 231.968 244.648 231.968 244.648C231.968 244.648 212.224 207.406 198.764 207.406C185.304 207.406 203.697 248.566 220.752 262.288C220.752 262.288 193.825 233.278 178.12 239.555C162.416 245.831 209.536 275.224 209.536 275.224C209.536 275.224 182.159 266.603 185.304 273.269C188.449 279.935 196.97 281.104 196.97 281.104L165.984 282.677H273.692L249.46 280.325C249.46 280.325 274.586 267.779 267.859 262.685C261.132 257.591 246.315 268.565 246.315 268.565C246.315 268.565 271.898 240.341 266.959 229.75C262.019 219.159 240.032 248.963 240.032 248.963C240.032 248.963 257.987 210.934 254.392 204.268C250.797 197.602 238.688 227.398 238.688 227.398Z" fill="white"/>
<path d="M242.276 228.823C232.404 257.994 232.404 278.638 232.404 278.638C232.404 278.638 244.07 279.082 256.186 270.11" stroke="#263238" stroke-linecap="round" stroke-linejoin="round"/>
<path d="M237.344 244.534C235.314 235.813 232.618 227.26 229.28 218.951" stroke="#263238" stroke-linecap="round" stroke-linejoin="round"/>
<path d="M208.172 227.479L233.305 264.728C233.305 264.728 250.354 250.367 256.187 242.29" stroke="#263238" stroke-linecap="round" stroke-linejoin="round"/>
<path d="M232.855 273.699C232.855 273.699 206.378 261.132 195.606 253.956" stroke="#263238" stroke-linecap="round" stroke-linejoin="round"/>
<path d="M220.571 81.648H116.814C114.309 81.648 112.278 83.6788 112.278 86.184V280.452C112.278 282.958 114.309 284.988 116.814 284.988H220.571C223.076 284.988 225.107 282.958 225.107 280.452V86.184C225.107 83.6788 223.076 81.648 220.571 81.648Z" fill="#263238" stroke="#263238" stroke-miterlimit="10"/>
<path d="M176.494 93.7978H162.449C162.259 93.7978 162.072 93.7604 161.896 93.6878C161.721 93.6152 161.562 93.5088 161.428 93.3746C161.293 93.2404 161.187 93.0811 161.114 92.9059C161.042 92.7306 161.004 92.5427 161.004 92.353C161.004 92.1635 161.042 91.976 161.115 91.8011C161.187 91.6262 161.294 91.4673 161.428 91.3337C161.562 91.2001 161.722 91.0943 161.897 91.0224C162.072 90.9505 162.26 90.914 162.449 90.9149H176.494C176.875 90.9149 177.241 91.0664 177.511 91.3361C177.781 91.6058 177.932 91.9715 177.932 92.353C177.933 92.5424 177.896 92.7301 177.825 92.9053C177.753 93.0806 177.647 93.2399 177.513 93.3742C177.38 93.5084 177.221 93.615 177.046 93.6877C176.871 93.7603 176.683 93.7978 176.494 93.7978Z" fill="#6EB6FF"/>
<path d="M217.977 266.818H119.408V93.9658H142.773L145.401 96.1431C146.316 96.9088 147.473 97.3275 148.666 97.3258H189.887C191.124 97.3189 192.317 96.8655 193.247 96.049L195.619 93.9658H217.956L217.977 266.818Z" fill="white" stroke="#263238" stroke-width="0.938618" stroke-linecap="round" stroke-linejoin="round"/>
<path d="M158.773 106.707L157.429 102.191H123.883V106.707V257.638V262.161H213.803V106.707H158.773Z" fill="#6EB6FF"/>
<path d="M210.638 114.845H127.042V257.188H210.638V114.845Z" fill="white"/>
<path d="M171.844 272.16C171.845 271.716 171.715 271.281 171.469 270.911C171.223 270.541 170.873 270.253 170.463 270.082C170.053 269.911 169.601 269.865 169.165 269.951C168.73 270.037 168.329 270.25 168.015 270.564C167.7 270.877 167.486 271.277 167.398 271.713C167.311 272.149 167.355 272.6 167.525 273.011C167.695 273.421 167.982 273.772 168.352 274.019C168.721 274.266 169.155 274.398 169.599 274.398C170.193 274.396 170.762 274.16 171.182 273.741C171.602 273.322 171.84 272.754 171.844 272.16Z" fill="#6EB6FF"/>
<path d="M162.563 250.972C177.765 250.972 190.089 233.437 190.089 211.808C190.089 190.178 177.765 172.644 162.563 172.644C147.362 172.644 135.038 190.178 135.038 211.808C135.038 233.437 147.362 250.972 162.563 250.972Z" fill="#6EB6FF"/>
<path opacity="0.5" d="M162.563 250.972C177.765 250.972 190.089 233.437 190.089 211.808C190.089 190.178 177.765 172.644 162.563 172.644C147.362 172.644 135.038 190.178 135.038 211.808C135.038 233.437 147.362 250.972 162.563 250.972Z" fill="white"/>
<path d="M166.468 168.094C166.468 168.094 164.747 165.218 163.168 165.077C161.589 164.936 142.787 176.736 139.91 182.878C137.034 189.02 134.313 201.345 141.926 213.205C149.352 224.744 160.991 224.361 167.026 223.783C173.06 223.205 177.106 221.243 183.221 216.337C189.336 211.431 194.947 204.207 195.76 199.302C196.573 194.396 193.583 191.668 191.675 190.989C189.766 190.31 178.725 190.445 170.681 182.253C162.637 174.061 166.468 168.094 166.468 168.094Z" fill="#263238" stroke="#263238" stroke-linecap="round" stroke-linejoin="round"/>
<path d="M168.907 164.358C168.907 164.358 164.028 166.226 161.011 169.525C157.994 172.825 156.132 177.999 155.991 185.606C155.85 193.213 158.29 201.822 167.758 205.558C177.226 209.294 185.7 206.418 188.429 203.831C191.157 201.244 194.477 193.932 194.477 193.932C194.477 193.932 179.41 197.964 172.234 189.477C165.057 180.99 168.907 164.358 168.907 164.358Z" fill="white" stroke="#263238" stroke-linecap="round" stroke-linejoin="round"/>
<path d="M253.23 169.66C249.547 164.136 240.757 162.503 233.809 160.252C226.861 158.001 222.768 153.532 224.609 142.471C226.451 131.41 236.033 113.44 235.852 110.168C235.67 106.895 202.736 107.103 199.665 108.152C196.594 109.2 195.989 108.965 193.126 112.647C191.54 114.636 190.104 116.741 188.832 118.944L192.38 111.485H192.642C193.028 110.504 193.575 109.596 194.262 108.797C197.384 105.174 199.154 100.581 199.268 95.8003C199.403 88.7645 194.396 89.4432 193.449 91.607C192.501 93.7709 186.957 101.217 185.331 103.246C183.705 105.276 180.325 110.826 180.325 110.826L176.568 123.85C176.568 123.85 175.748 127.734 171.044 142.457C166.34 157.181 168.39 163.968 168.39 163.968C168.39 163.968 167.16 163.356 164.297 172.146C161.435 180.936 162.664 192.179 167.772 197.494C172.879 202.81 179.632 202.608 187.199 199.544C191.854 197.549 195.73 194.09 198.24 189.692C198.24 189.692 206.217 187.676 212.144 183.154C218.071 178.631 222.566 173.954 231.168 174.364C239.77 174.774 249.567 179.679 252.84 179.471C256.113 179.263 256.912 175.177 253.23 169.66Z" fill="white"/>
<mask id="mask0_36_294" style="mask-type:luminance" maskUnits="userSpaceOnUse" x="162" y="90" width="94" height="112">
<path d="M253.23 169.66C249.547 164.136 240.757 162.503 233.809 160.252C226.861 158.001 222.768 153.532 224.609 142.471C226.451 131.41 236.033 113.44 235.852 110.168C235.67 106.895 202.736 107.103 199.665 108.152C196.594 109.2 195.989 108.965 193.126 112.647C191.54 114.636 190.104 116.741 188.832 118.944L192.38 111.485H192.642C193.028 110.504 193.575 109.596 194.262 108.797C197.384 105.174 199.154 100.581 199.268 95.8003C199.403 88.7645 194.396 89.4432 193.449 91.607C192.501 93.7709 186.957 101.217 185.331 103.246C183.705 105.276 180.325 110.826 180.325 110.826L176.568 123.85C176.568 123.85 175.748 127.734 171.044 142.457C166.34 157.181 168.39 163.968 168.39 163.968C168.39 163.968 167.16 163.356 164.297 172.146C161.435 180.936 162.664 192.179 167.772 197.494C172.879 202.81 179.632 202.608 187.199 199.544C191.854 197.549 195.73 194.09 198.24 189.692C198.24 189.692 206.217 187.676 212.144 183.154C218.071 178.631 222.566 173.954 231.168 174.364C239.77 174.774 249.567 179.679 252.84 179.471C256.113 179.263 256.912 175.177 253.23 169.66Z" fill="white"/>
</mask>
<g mask="url(#mask0_36_294)">
<path d="M200.498 150.528C177.751 153.922 170.601 159.351 172.872 166.824C173.343 168.306 174.109 169.677 175.123 170.856C175.123 170.997 175.123 171.152 175.163 171.313C175.163 171.313 175.567 171.555 176.171 171.985C176.968 172.754 177.829 173.453 178.745 174.075C180.237 175.493 181.574 177.267 181.299 178.913C180.714 182.421 172.563 188.55 168.443 188.845C164.324 189.141 162.893 185.049 162.308 189.43C161.723 193.812 170.782 204.617 179.545 203.448C188.308 202.279 195.612 190.008 195.612 190.008C195.612 190.008 194.443 187.992 200.316 181.83C204.174 177.798 209.691 176.017 213.918 174.364C217.908 173.19 221.798 171.698 225.55 169.902C235.946 164.808 248.297 168.208 248.297 168.208C248.297 168.208 223.245 147.094 200.498 150.528Z" fill="#6EB6FF"/>
<path opacity="0.5" d="M200.498 150.528C177.751 153.922 170.601 159.351 172.872 166.824C173.343 168.306 174.109 169.677 175.123 170.856C175.123 170.997 175.123 171.152 175.163 171.313C175.163 171.313 175.567 171.555 176.171 171.985C176.968 172.754 177.829 173.453 178.745 174.075C180.237 175.493 181.574 177.267 181.299 178.913C180.714 182.421 172.563 188.55 168.443 188.845C164.324 189.141 162.893 185.049 162.308 189.43C161.723 193.812 170.782 204.617 179.545 203.448C188.308 202.279 195.612 190.008 195.612 190.008C195.612 190.008 194.443 187.992 200.316 181.83C204.174 177.798 209.691 176.017 213.918 174.364C217.908 173.19 221.798 171.698 225.55 169.902C235.946 164.808 248.297 168.208 248.297 168.208C248.297 168.208 223.245 147.094 200.498 150.528Z" fill="white"/>
</g>
<path d="M253.23 169.66C249.547 164.136 240.757 162.503 233.809 160.252C226.861 158.001 222.768 153.532 224.609 142.471C226.451 131.41 236.033 113.44 235.852 110.168C235.67 106.895 202.736 107.103 199.665 108.152C196.594 109.2 195.989 108.965 193.126 112.647C191.54 114.636 190.104 116.741 188.832 118.944L192.38 111.485H192.642C193.028 110.504 193.575 109.596 194.262 108.797C197.384 105.174 199.154 100.581 199.268 95.8003C199.403 88.7645 194.396 89.4432 193.449 91.607C192.501 93.7709 186.957 101.217 185.331 103.246C183.705 105.276 180.325 110.826 180.325 110.826L176.568 123.85C176.568 123.85 175.748 127.734 171.044 142.457C166.34 157.181 168.39 163.968 168.39 163.968C168.39 163.968 167.16 163.356 164.297 172.146C161.435 180.936 162.664 192.179 167.772 197.494C172.879 202.81 179.632 202.608 187.199 199.544C191.854 197.549 195.73 194.09 198.24 189.692C198.24 189.692 206.217 187.676 212.144 183.154C218.071 178.631 222.566 173.954 231.168 174.364C239.77 174.774 249.567 179.679 252.84 179.471C256.113 179.263 256.912 175.177 253.23 169.66Z" stroke="#263238" stroke-linecap="round" stroke-linejoin="round"/>
<path d="M253.344 179.424C253.344 179.424 253.774 177.704 248.895 175.392C244.017 173.08 242.007 174.673 242.007 175.822C242.007 176.971 252.591 179.424 253.344 179.424Z" fill="white" stroke="#263238" stroke-linecap="round" stroke-linejoin="round"/>
<path d="M207.117 100.686L194.806 110.161H211.317C211.317 110.161 211.317 98.5219 207.117 100.686Z" fill="white" stroke="#263238" stroke-linecap="round" stroke-linejoin="round"/>
<path d="M191.675 169.028C193.423 167.052 195.603 165.505 198.045 164.506" stroke="#263238" stroke-linecap="round" stroke-linejoin="round"/>
<path d="M189.437 172.704C189.625 172.158 189.871 171.633 190.169 171.138" stroke="#263238" stroke-linecap="round" stroke-linejoin="round"/>
<path d="M184.531 185.472C183.873 184.893 183.257 184.266 182.69 183.597" stroke="#263238" stroke-linecap="round" stroke-linejoin="round"/>
<path d="M198.24 189.692C194.443 190.124 190.607 189.338 187.286 187.448" stroke="#263238" stroke-linecap="round" stroke-linejoin="round"/>
<path d="M244.272 109.348H182.233C173.665 109.348 166.723 115.98 166.723 124.132V153.364C166.723 160.474 171.971 166.414 178.974 167.845L175.701 177.529L190.848 168.202H244.272C252.833 168.202 259.782 161.569 259.782 153.418V124.186C259.782 115.98 252.833 109.348 244.272 109.348Z" fill="#6EB6FF" stroke="#263238" stroke-width="2" stroke-miterlimit="10"/>
<path d="M176.823 129.031H246.563" stroke="#263238" stroke-width="2.06409" stroke-miterlimit="10" stroke-linecap="round"/>
<path d="M176.823 136.214H246.563" stroke="#263238" stroke-width="2.06409" stroke-miterlimit="10" stroke-linecap="round"/>
<path d="M176.823 143.391H246.563" stroke="#263238" stroke-width="2.06409" stroke-miterlimit="10" stroke-linecap="round"/>
<path d="M176.823 150.568H246.563" stroke="#263238" stroke-width="2.06409" stroke-miterlimit="10" stroke-linecap="round"/>
<path d="M259.217 134.971C263.994 134.971 267.866 131.274 267.866 126.712C267.866 122.151 263.994 118.453 259.217 118.453C254.441 118.453 250.569 122.151 250.569 126.712C250.569 131.274 254.441 134.971 259.217 134.971Z" fill="#263238"/>
<path d="M258.545 132.545C258.261 131.978 258.133 131.344 258.176 130.711V123.991L256.657 124.837C256.493 124.932 256.308 124.983 256.119 124.985C255.978 124.987 255.837 124.958 255.708 124.901C255.578 124.845 255.462 124.761 255.367 124.656C255.169 124.45 255.06 124.175 255.064 123.89C255.06 123.696 255.116 123.506 255.225 123.346C255.382 123.158 255.568 122.997 255.777 122.868L258.72 121.363C259.049 121.127 259.433 120.982 259.835 120.94C260.837 120.94 261.334 121.692 261.334 123.198V130.946C261.334 132.418 260.81 133.15 259.755 133.15C259.517 133.171 259.278 133.126 259.064 133.019C258.851 132.912 258.671 132.748 258.545 132.545Z" fill="white"/>
<path d="M226.034 105.02C226.034 105.02 226.309 110.43 231.181 113.004C236.053 115.577 242.276 115.02 242.411 111.787C242.545 108.555 238.755 105.155 236.188 100.82C233.621 96.4857 227.929 98.9318 225.496 101.909" fill="white"/>
<path d="M226.034 105.02C226.034 105.02 226.309 110.43 231.181 113.004C236.053 115.577 242.276 115.02 242.411 111.787C242.545 108.555 238.755 105.155 236.188 100.82C233.621 96.4857 227.929 98.9318 225.496 101.909" stroke="#263238" stroke-linecap="round" stroke-linejoin="round"/>
<path d="M234.427 109.348C234.017 111.512 235.509 112.708 236.86 113.38C238.211 114.052 240.892 113.655 242.411 111.76C242.478 110.174 241.611 108.562 240.395 106.821C238.701 107.036 234.743 107.654 234.427 109.348Z" fill="white" stroke="#263238" stroke-linecap="round" stroke-linejoin="round"/>
<path d="M215.887 105.02C215.887 105.02 216.155 110.43 221.027 113.004C225.899 115.577 232.129 115.02 232.263 111.787C232.398 108.555 228.608 105.155 226.034 100.82C223.46 96.4857 217.782 98.9318 215.342 101.909" fill="white"/>
<path d="M215.887 105.02C215.887 105.02 216.155 110.43 221.027 113.004C225.899 115.577 232.129 115.02 232.263 111.787C232.398 108.555 228.608 105.155 226.034 100.82C223.46 96.4857 217.782 98.9318 215.342 101.909" stroke="#263238" stroke-linecap="round" stroke-linejoin="round"/>
<path d="M224.28 109.348C223.87 111.512 225.362 112.708 226.713 113.38C228.063 114.052 230.745 113.655 232.263 111.76C232.324 110.174 231.457 108.562 230.247 106.821C228.554 107.036 224.596 107.654 224.28 109.348Z" fill="white" stroke="#263238" stroke-linecap="round" stroke-linejoin="round"/>
<path d="M206.445 105.02C206.445 105.02 206.714 110.43 211.586 113.004C216.458 115.577 222.68 115.02 222.815 111.787C222.949 108.555 219.166 105.155 216.592 100.82C214.018 96.4857 208.333 98.9318 205.901 101.909" fill="white"/>
<path d="M206.445 105.02C206.445 105.02 206.714 110.43 211.586 113.004C216.458 115.577 222.68 115.02 222.815 111.787C222.949 108.555 219.166 105.155 216.592 100.82C214.018 96.4857 208.333 98.9318 205.901 101.909" stroke="#263238" stroke-linecap="round" stroke-linejoin="round"/>
<path d="M214.832 109.348C214.428 111.512 215.914 112.708 217.271 113.38C218.628 114.052 221.303 113.655 222.815 111.76C222.882 110.174 222.015 108.562 220.799 106.821C219.106 107.036 215.148 107.654 214.832 109.348Z" fill="white" stroke="#263238" stroke-linecap="round" stroke-linejoin="round"/>
<path d="M168.39 163.968C168.39 163.968 168.766 172.287 173.356 177.885" stroke="#263238" stroke-linecap="round" stroke-linejoin="round"/>
<path d="M155.03 198.69C155.03 200.384 153.901 201.755 152.51 201.755C151.119 201.755 149.99 200.411 149.99 198.69C149.99 196.97 151.119 195.626 152.51 195.626C153.901 195.626 155.03 196.997 155.03 198.69Z" fill="white"/>
<path d="M148.761 202.507C148.761 204.201 147.632 205.572 146.241 205.572C144.85 205.572 143.721 204.228 143.721 202.507C143.721 200.787 144.85 199.436 146.241 199.436C147.632 199.436 148.761 200.814 148.761 202.507Z" stroke="#263238" stroke-linecap="round" stroke-linejoin="round"/>
</svg>
