<svg width="302" height="302" viewBox="0 0 302 302" fill="none" xmlns="http://www.w3.org/2000/svg">
<path d="M266.189 159.311C267.397 143.263 263.664 126.508 258.663 111.595C251.264 89.392 236.817 66.6393 212.536 61.3845C198.535 58.3645 184.287 61.602 172.279 69.1882C160.737 76.4845 151.743 85.913 137.543 87.737C123.186 89.5853 108.454 88.8424 94.0249 88.8424C56.9212 88.8424 26.8118 127.818 34.3376 168.419C41.8635 209.02 77.3545 237.173 107.464 237.173C134.523 237.173 156.787 220.943 182.487 216.582C195.231 214.42 208.03 216.981 220.641 213.744C235.301 209.975 249.084 200.993 257.208 187.989C262.74 179.122 265.434 169.356 266.189 159.311Z" fill="#6EB6FF"/>
<path opacity="0.7" d="M266.189 159.311C267.397 143.263 263.664 126.508 258.663 111.595C251.264 89.392 236.817 66.6393 212.536 61.3845C198.535 58.3645 184.287 61.602 172.279 69.1882C160.737 76.4845 151.743 85.913 137.543 87.737C123.186 89.5853 108.454 88.8424 94.0249 88.8424C56.9212 88.8424 26.8118 127.818 34.3376 168.419C41.8635 209.02 77.3545 237.173 107.464 237.173C134.523 237.173 156.787 220.943 182.487 216.582C195.231 214.42 208.03 216.981 220.641 213.744C235.301 209.975 249.084 200.993 257.208 187.989C262.74 179.122 265.434 169.356 266.189 159.311Z" fill="white"/>
<path d="M261.846 153.676C261.846 153.676 261.846 150.656 257.618 146.47C253.39 142.284 250.709 139.856 250.709 139.856C250.709 139.856 248.607 146.766 252.521 150.976C255.394 153.933 258.509 156.644 261.834 159.082L261.846 153.676Z" fill="#6EB6FF"/>
<path d="M255.746 172.436C255.746 172.436 255.746 169.416 251.518 165.23C247.29 161.045 244.62 158.616 244.62 158.616C244.62 158.616 242.512 165.526 246.432 169.736C249.305 172.693 252.421 175.404 255.746 177.842V172.436Z" fill="#6EB6FF"/>
<path d="M261.58 158.792C261.58 158.792 261.901 155.808 266.527 152.069C271.154 148.33 274.095 146.228 274.095 146.228C274.095 146.228 275.454 153.319 271.13 157.1C267.96 159.738 264.576 162.106 261.013 164.179L261.58 158.792Z" fill="#6EB6FF"/>
<path d="M254.212 180.946C254.212 180.946 254.816 178.011 259.835 174.779C264.854 171.548 267.971 169.766 267.971 169.766C267.971 169.766 268.575 176.966 263.882 180.258C260.453 182.548 256.838 184.548 253.076 186.237L254.212 180.946Z" fill="#6EB6FF"/>
<path d="M255.595 205.106C255.595 205.106 255.595 202.086 259.823 197.895C264.051 193.703 266.726 191.287 266.726 191.287C266.726 191.287 268.834 198.197 264.914 202.4C262.042 205.36 258.927 208.074 255.601 210.512L255.595 205.106Z" fill="#6EB6FF"/>
<path d="M255.529 211.001C255.529 211.001 255.951 208.03 252.388 203.27C248.824 198.511 246.487 195.744 246.487 195.744C246.487 195.744 243.424 202.286 246.692 207.003C249.114 210.339 251.812 213.467 254.755 216.353L255.529 211.001Z" fill="#6EB6FF"/>
<path d="M251.379 228.475C251.379 228.475 251.379 225.455 255.607 221.269C259.835 217.084 262.517 214.656 262.517 214.656C262.517 214.656 264.619 221.565 260.705 225.775C257.831 228.733 254.715 231.446 251.391 233.887L251.379 228.475Z" fill="#6EB6FF"/>
<path d="M254.188 244.318C254.188 244.318 253.427 241.413 256.429 236.279C259.43 231.145 261.442 228.137 261.442 228.137C261.442 228.137 265.223 234.286 262.511 239.347C260.482 242.936 258.157 246.348 255.559 249.549L254.188 244.318Z" fill="#6EB6FF"/>
<path d="M262.227 152.909C262.015 156.036 261.632 159.149 261.079 162.234C259.412 170.823 255.257 176.368 253.596 184.123C251.935 191.879 256.706 201.875 255.408 211.841C254.109 221.807 250.256 227.346 251.361 233.996C252.466 240.646 258.289 258.657 258.289 258.657" stroke="#263238" stroke-linecap="round" stroke-linejoin="round"/>
<path d="M261.544 160.791L266.074 157.312" stroke="#263238" stroke-linecap="round" stroke-linejoin="round"/>
<path d="M261.756 156.786L259.853 153.41" stroke="#263238" stroke-linecap="round" stroke-linejoin="round"/>
<path d="M253.849 183.767C253.849 183.767 257.642 180.922 261.544 178.077" stroke="#263238" stroke-linecap="round" stroke-linejoin="round"/>
<path d="M255.746 177.842C255.746 177.842 252.581 171.645 248.999 167.538" stroke="#263238" stroke-linecap="round" stroke-linejoin="round"/>
<path d="M255.746 209.383C257.909 205.384 260.644 201.721 263.863 198.511" stroke="#263238" stroke-linecap="round" stroke-linejoin="round"/>
<path d="M255.009 213.599C253.858 210.887 252.482 208.277 250.896 205.795C248.685 202.527 248.365 202.104 248.365 202.104" stroke="#263238" stroke-linecap="round" stroke-linejoin="round"/>
<path d="M251.379 233.996C252.342 231.615 253.485 229.311 254.798 227.104C256.111 225.053 257.592 223.113 259.225 221.306" stroke="#263238" stroke-linecap="round" stroke-linejoin="round"/>
<path d="M255.559 249.549C255.338 247.272 255.731 244.979 256.694 242.905C258.277 239.848 260.064 235.844 260.801 234.261" stroke="#263238" stroke-linecap="round" stroke-linejoin="round"/>
<path d="M227.527 193.812C227.527 193.812 227.201 191.927 229.381 188.829C231.562 185.73 233.005 183.936 233.005 183.936C233.005 183.936 235.071 188.043 233.078 191.1C231.597 193.267 229.939 195.308 228.119 197.2L227.527 193.812Z" fill="#6EB6FF"/>
<path d="M233.392 204.913C233.392 204.913 233.066 203.029 235.246 199.93C237.427 196.832 238.87 195.038 238.87 195.038C238.87 195.038 240.936 199.145 238.943 202.207C237.461 204.372 235.803 206.411 233.984 208.301L233.392 204.913Z" fill="#6EB6FF"/>
<path d="M228.246 196.989C228.246 196.989 227.726 195.177 224.416 193.31C221.106 191.444 219.041 190.465 219.041 190.465C219.041 190.465 218.956 195.062 222.061 196.958C224.334 198.267 226.712 199.384 229.17 200.298L228.246 196.989Z" fill="#6EB6FF"/>
<path d="M235.276 210.083C235.276 210.083 234.564 208.308 231.085 206.822C227.606 205.336 225.431 204.563 225.431 204.563C225.431 204.563 225.83 209.141 229.14 210.699C231.538 211.762 234.021 212.623 236.563 213.272L235.276 210.083Z" fill="#6EB6FF"/>
<path d="M237.028 225.383C237.028 225.383 236.708 223.498 233.609 221.318C230.511 219.137 228.56 217.923 228.56 217.923C228.56 217.923 227.992 222.483 230.897 224.694C233.02 226.24 235.269 227.603 237.62 228.771L237.028 225.383Z" fill="#6EB6FF"/>
<path d="M237.717 229.073C237.717 229.073 237.113 227.261 238.846 223.879C240.58 220.496 241.727 218.521 241.727 218.521C241.727 218.521 244.355 222.29 242.82 225.606C241.665 227.96 240.313 230.213 238.78 232.341L237.717 229.073Z" fill="#6EB6FF"/>
<path d="M242.995 244.264C242.995 244.264 243.213 242.367 246.179 240.036C249.144 237.704 251.011 236.357 251.011 236.357C251.011 236.357 251.838 240.881 249.066 243.255C247.035 244.917 244.869 246.406 242.591 247.706L242.995 244.264Z" fill="#6EB6FF"/>
<path d="M242.204 239.577C242.204 239.577 241.878 237.692 238.785 235.512C235.693 233.331 233.748 232.117 233.748 232.117C233.748 232.117 233.18 236.677 236.085 238.894C238.209 240.437 240.458 241.801 242.808 242.971L242.204 239.577Z" fill="#6EB6FF"/>
<path d="M242.204 249.82C242.204 249.82 242.361 247.912 239.921 245.019C237.481 242.125 235.898 240.458 235.898 240.458C235.898 240.458 234.189 244.723 236.442 247.604C238.093 249.633 239.912 251.52 241.878 253.245L242.204 249.82Z" fill="#6EB6FF"/>
<path d="M227.207 193.365C227.68 195.303 228.258 197.215 228.941 199.09C230.916 204.297 234.123 207.323 236.007 212.004C237.892 216.685 236.007 223.48 237.868 229.586C239.728 235.693 242.808 238.749 242.808 243.038C242.808 247.326 241.141 259.255 241.141 259.255" stroke="#263238" stroke-linecap="round" stroke-linejoin="round"/>
<path d="M228.493 198.233L225.274 196.548" stroke="#263238" stroke-linecap="round" stroke-linejoin="round"/>
<path d="M227.926 195.744L228.747 193.425" stroke="#263238" stroke-linecap="round" stroke-linejoin="round"/>
<path d="M235.808 211.811C235.808 211.811 233.12 210.44 230.372 209.075" stroke="#263238" stroke-linecap="round" stroke-linejoin="round"/>
<path d="M233.978 208.301C234.77 205.813 235.812 203.411 237.088 201.132" stroke="#263238" stroke-linecap="round" stroke-linejoin="round"/>
<path d="M237.402 228.076C235.61 225.808 233.498 223.813 231.133 222.151" stroke="#263238" stroke-linecap="round" stroke-linejoin="round"/>
<path d="M238.32 230.637C238.75 228.815 239.33 227.031 240.054 225.304C241.087 223.015 241.262 222.713 241.262 222.713" stroke="#263238" stroke-linecap="round" stroke-linejoin="round"/>
<path d="M242.663 246.293C243.71 244.995 244.871 243.793 246.13 242.699C246.931 242.109 247.683 241.455 248.377 240.742" stroke="#263238" stroke-linecap="round" stroke-linejoin="round"/>
<path d="M242.808 243.038C241.945 241.646 240.978 240.321 239.915 239.075C238.868 237.932 237.729 236.878 236.508 235.922" stroke="#263238" stroke-linecap="round" stroke-linejoin="round"/>
<path d="M241.878 253.245C241.77 251.793 241.276 250.396 240.446 249.198C239.124 247.453 237.565 245.133 236.931 244.221" stroke="#263238" stroke-linecap="round" stroke-linejoin="round"/>
<path d="M55.9727 167.501L53.3271 159.945L55.9727 163.152L53.8949 151.815L57.1082 159.945L58.2437 144.066L60.1342 159.184L62.212 156.164V159.945L64.6703 154.841L63.3475 163.72L65.6125 162.21L62.0247 167.121L55.9727 167.501Z" fill="#6EB6FF"/>
<path d="M64.29 165.611H54.4629L56.2326 185.452H62.5203L64.29 165.611Z" fill="#263238" stroke="#263238" stroke-linecap="round" stroke-linejoin="round"/>
<path d="M82.7239 185.229H49.2441V256.138H82.7239V185.229Z" fill="white" stroke="#263238" stroke-linecap="round" stroke-linejoin="round"/>
<path d="M84.554 185.229H65.981V256.138H84.554V185.229Z" fill="white" stroke="#263238" stroke-linecap="round" stroke-linejoin="round"/>
<path d="M82.4641 185.229H65.981V256.138H82.4641V185.229Z" fill="#263238" stroke="#263238" stroke-linecap="round" stroke-linejoin="round"/>
<path d="M80.6098 239.649H65.981V254.169H80.6098V239.649Z" fill="#6EB6FF" stroke="#263238" stroke-linecap="round" stroke-linejoin="round"/>
<path d="M80.6098 240.434H65.981V242.295H80.6098V240.434Z" fill="white" stroke="#263238" stroke-linecap="round" stroke-linejoin="round"/>
<path d="M80.6098 251.125H65.981V252.985H80.6098V251.125Z" fill="white" stroke="#263238" stroke-linecap="round" stroke-linejoin="round"/>
<path d="M68.7534 239.951V258.313" stroke="#263238" stroke-linecap="round" stroke-linejoin="round"/>
<path d="M73.8569 239.951V258.313" stroke="#263238" stroke-linecap="round" stroke-linejoin="round"/>
<path d="M78.3389 239.951V258.313" stroke="#263238" stroke-linecap="round" stroke-linejoin="round"/>
<path d="M80.6098 187.862H65.981V209.214H80.6098V187.862Z" fill="#6EB6FF" stroke="#263238" stroke-linecap="round" stroke-linejoin="round"/>
<path d="M80.6098 188.756H65.981V190.87H80.6098V188.756Z" fill="white" stroke="#263238" stroke-linecap="round" stroke-linejoin="round"/>
<path d="M80.6098 202.443H65.981V204.557H80.6098V202.443Z" fill="white" stroke="#263238" stroke-linecap="round" stroke-linejoin="round"/>
<path d="M68.7534 188.2V209.069" stroke="#263238" stroke-linecap="round" stroke-linejoin="round"/>
<path d="M73.8569 188.2V209.069" stroke="#263238" stroke-linecap="round" stroke-linejoin="round"/>
<path d="M78.3389 188.2V209.069" stroke="#263238" stroke-linecap="round" stroke-linejoin="round"/>
<path d="M80.6098 213.593H65.981V234.944H80.6098V213.593Z" fill="#6EB6FF" stroke="#263238" stroke-linecap="round" stroke-linejoin="round"/>
<path d="M80.6098 214.486H65.981V216.6H80.6098V214.486Z" fill="white" stroke="#263238" stroke-linecap="round" stroke-linejoin="round"/>
<path d="M80.6098 228.173H65.981V230.287H80.6098V228.173Z" fill="white" stroke="#263238" stroke-linecap="round" stroke-linejoin="round"/>
<path d="M68.7534 213.937V234.799" stroke="#263238" stroke-linecap="round" stroke-linejoin="round"/>
<path d="M73.8569 213.937V234.799" stroke="#263238" stroke-linecap="round" stroke-linejoin="round"/>
<path d="M78.3389 213.937V234.799" stroke="#263238" stroke-linecap="round" stroke-linejoin="round"/>
<path d="M82.7178 208.918H65.981V211.346H82.7178V208.918Z" fill="white" stroke="#263238" stroke-linecap="round" stroke-linejoin="round"/>
<path d="M82.7178 234.811H65.981V237.239H82.7178V234.811Z" fill="white" stroke="#263238" stroke-linecap="round" stroke-linejoin="round"/>
<path d="M82.7178 185.229V256.132" stroke="#263238" stroke-linecap="round" stroke-linejoin="round"/>
<path d="M63.6191 185.229V256.132H65.9808V187.862H82.4277V185.198L63.6191 185.229Z" fill="white" stroke="#263238" stroke-linecap="round" stroke-linejoin="round"/>
<path d="M65.981 187.862V185.229" stroke="#263238" stroke-linecap="round" stroke-linejoin="round"/>
<path d="M82.5907 152.655C80.8331 149.267 80.0962 146.838 80.0962 146.277C80.0962 145.165 82.5122 144.501 82.5122 144.501C86.2812 142.508 104.009 145.389 111.987 146.718C116.454 147.496 120.972 147.94 125.505 148.046C125.505 148.046 126.61 147.165 127.921 146.053C129.232 144.942 135.453 137.633 137.893 136.993C140.333 136.353 142.544 137.881 142.544 137.881C142.544 137.881 146.536 140.297 145.866 140.762C145.195 141.227 135.453 149.623 133.013 151.175C130.572 152.727 125.481 152.063 121.047 152.951C117.23 153.712 101.768 154.654 98.2222 154.944C95.5595 155.576 92.7649 155.343 90.2434 154.28" fill="white"/>
<mask id="mask0_2_2480" style="mask-type:luminance" maskUnits="userSpaceOnUse" x="80" y="136" width="66" height="20">
<path d="M82.5907 152.655C80.8331 149.267 80.0962 146.838 80.0962 146.277C80.0962 145.165 82.5122 144.501 82.5122 144.501C86.2812 142.508 104.009 145.389 111.987 146.718C116.454 147.496 120.972 147.94 125.505 148.046C125.505 148.046 126.61 147.165 127.921 146.053C129.232 144.942 135.453 137.633 137.893 136.993C140.333 136.353 142.544 137.881 142.544 137.881C142.544 137.881 146.536 140.297 145.866 140.762C145.195 141.227 135.453 149.623 133.013 151.175C130.572 152.727 125.481 152.063 121.047 152.951C117.23 153.712 101.768 154.654 98.2222 154.944C95.5595 155.576 92.7649 155.343 90.2434 154.28" fill="white"/>
</mask>
<g mask="url(#mask0_2_2480)">
<path d="M142.586 137.857C142.586 137.857 140.37 136.305 137.935 136.969C135.501 137.634 129.292 144.948 127.963 146.029C126.635 147.11 125.547 148.022 125.547 148.022C121.015 147.916 116.496 147.472 112.03 146.693C104.051 145.365 86.3236 142.465 82.5547 144.477C82.5547 144.477 80.1387 145.141 80.1387 146.253C80.2226 146.874 80.3829 147.482 80.6158 148.065L80.948 148.185C80.948 148.185 85.3754 147.72 94.9306 147.95C104.486 148.179 126.586 149.49 128.006 150.003C128.61 150.233 132.892 149.267 137.639 147.587C141.263 144.634 145.522 140.943 145.951 140.684C146.579 140.291 142.586 137.857 142.586 137.857Z" fill="#6EB6FF"/>
<path opacity="0.5" d="M142.586 137.857C142.586 137.857 140.37 136.305 137.935 136.969C135.501 137.634 129.292 144.948 127.963 146.029C126.635 147.11 125.547 148.022 125.547 148.022C121.015 147.916 116.496 147.472 112.03 146.693C104.051 145.365 86.3236 142.465 82.5547 144.477C82.5547 144.477 80.1387 145.141 80.1387 146.253C80.2226 146.874 80.3829 147.482 80.6158 148.065L80.948 148.185C80.948 148.185 85.3754 147.72 94.9306 147.95C104.486 148.179 126.586 149.49 128.006 150.003C128.61 150.233 132.892 149.267 137.639 147.587C141.263 144.634 145.522 140.943 145.951 140.684C146.579 140.291 142.586 137.857 142.586 137.857Z" fill="white"/>
</g>
<path d="M82.5907 152.655C80.8331 149.267 80.0962 146.838 80.0962 146.277C80.0962 145.165 82.5122 144.501 82.5122 144.501C86.2812 142.508 104.009 145.389 111.987 146.718C116.454 147.496 120.972 147.94 125.505 148.046C125.505 148.046 126.61 147.165 127.921 146.053C129.232 144.942 135.453 137.633 137.893 136.993C140.333 136.353 142.544 137.881 142.544 137.881C142.544 137.881 146.536 140.297 145.866 140.762C145.195 141.227 135.453 149.623 133.013 151.175C130.572 152.727 125.481 152.063 121.047 152.951C117.23 153.712 101.768 154.654 98.2222 154.944C95.5595 155.576 92.7649 155.343 90.2434 154.28" stroke="#263238" stroke-linecap="round" stroke-linejoin="round"/>
<path d="M170.117 172.357C170.518 171.596 171.119 170.96 171.856 170.516C172.592 170.072 173.436 169.838 174.296 169.839H214.583C214.583 169.839 217.494 169.839 216.625 175.371C215.755 180.904 203.808 214.686 200.921 224.899C198.034 235.113 197.424 256.64 197.424 256.64H149.104C149.104 256.64 152.933 205.161 170.117 172.357Z" fill="white"/>
<mask id="mask1_2_2480" style="mask-type:luminance" maskUnits="userSpaceOnUse" x="149" y="169" width="68" height="88">
<path d="M170.117 172.357C170.518 171.596 171.119 170.96 171.856 170.516C172.592 170.072 173.436 169.838 174.296 169.839H214.583C214.583 169.839 217.494 169.839 216.625 175.371C215.755 180.904 203.808 214.686 200.921 224.899C198.034 235.113 197.424 256.64 197.424 256.64H149.104C149.104 256.64 152.933 205.161 170.117 172.357Z" fill="white"/>
</mask>
<g mask="url(#mask1_2_2480)">
<path opacity="0.16" d="M188.261 169.839H174.296C173.436 169.838 172.592 170.072 171.855 170.516C171.119 170.96 170.517 171.596 170.116 172.357C152.933 205.161 149.061 256.621 149.061 256.621H170.733L176.078 236.321L198.366 240.917C198.523 239.214 198.704 237.481 198.915 235.771L198.426 230.335C198.426 230.335 193.86 225.534 192.422 224.332C190.985 223.13 191.939 220.961 191.697 211.593C191.456 202.225 183.048 195.491 179.919 189.722C176.791 183.954 181.605 180.348 185.929 174.58C187.469 172.496 188.098 170.962 188.261 169.839Z" fill="black"/>
</g>
<path d="M170.117 172.357C170.518 171.596 171.119 170.96 171.856 170.516C172.592 170.072 173.436 169.838 174.296 169.839H214.583C214.583 169.839 217.494 169.839 216.625 175.371C215.755 180.904 203.808 214.686 200.921 224.899C198.034 235.113 197.424 256.64 197.424 256.64H149.104C149.104 256.64 152.933 205.161 170.117 172.357Z" stroke="#263238" stroke-linecap="round" stroke-linejoin="round"/>
<path d="M207.595 179.448C203.524 188.949 194.911 226.56 193.509 256.621H197.399C197.399 256.621 198.003 235.071 200.896 224.881C203.789 214.692 215.749 180.904 216.6 175.353C217.452 169.803 214.559 169.821 214.559 169.821C214.559 169.821 210.862 171.832 207.595 179.448Z" fill="#263238" stroke="#263238" stroke-linecap="round" stroke-linejoin="round"/>
<path d="M136.824 160.459C136.824 160.459 130.397 156.69 127.963 150.046C125.529 143.402 147.019 132.759 156.351 132.095C165.683 131.43 168.316 133.865 173.867 143.396C179.418 152.927 183.175 165.997 180.294 172.424C177.413 178.85 172.538 180.403 176.066 185.712C179.593 191.021 189.583 206.097 188.919 213.188C188.255 220.279 181.387 226.476 171.403 227.152C161.419 227.829 148.131 221.831 137.053 212.052C125.976 202.274 128.851 187.892 132.825 183.242C136.8 178.591 142.797 176.815 143.238 172.164C143.679 167.513 136.824 160.459 136.824 160.459Z" fill="#263238" stroke="#263238" stroke-linecap="round" stroke-linejoin="round"/>
<path d="M164.215 149.943C167.628 156.297 171.898 164.807 173.233 169.947C175.564 178.947 163.569 184.613 166.897 188.943" stroke="white" stroke-linecap="round" stroke-linejoin="round"/>
<path d="M159.564 141.62C159.564 141.62 160.893 143.885 162.729 147.219" stroke="white" stroke-linecap="round" stroke-linejoin="round"/>
<path d="M177.467 157.608C177.861 158.799 178.116 160.031 178.228 161.28" stroke="white" stroke-linecap="round" stroke-linejoin="round"/>
<path d="M161.872 138.316C161.872 138.316 172.37 146.071 176.561 155.355" stroke="white" stroke-linecap="round" stroke-linejoin="round"/>
<path d="M147.303 144.133C139.808 146.234 129.026 149.647 129.902 151.616" stroke="white" stroke-linecap="round" stroke-linejoin="round"/>
<path d="M154.231 142.284C154.231 142.284 152.63 142.683 150.245 143.323" stroke="white" stroke-linecap="round" stroke-linejoin="round"/>
<path d="M144.96 138.37C149.254 137.017 153.75 136.424 158.248 136.619" stroke="white" stroke-linecap="round" stroke-linejoin="round"/>
<path d="M141.904 139.621C142.583 139.267 143.285 138.96 144.006 138.703" stroke="white" stroke-linecap="round" stroke-linejoin="round"/>
<path d="M82.5908 152.655C81.5735 150.792 80.7634 148.823 80.1748 146.784C80.7605 148.824 81.5708 150.793 82.5908 152.655ZM80.1084 146.44C80.1084 146.476 80.1084 146.518 80.1084 146.573C80.1205 146.518 80.1144 146.476 80.1084 146.44ZM82.5908 152.649C84.8498 156.928 87.6602 160.891 90.9502 164.439C98.929 173.082 121.978 195.69 124.17 197.242C126.363 198.795 125.722 203.222 124.17 207.655C122.618 212.089 116.856 218.527 117.079 225.606C117.303 232.685 119.495 243.557 119.296 245.774C119.097 247.99 113.552 255.528 113.552 255.528H170.726C170.726 255.528 163.599 246.468 163.599 243.37C163.599 240.271 173.384 200.57 173.825 197.689C174.266 194.808 172.496 192.815 168.951 192.591C165.405 192.368 151.888 189.487 151.223 187.27C150.559 185.054 154.769 176.634 154.769 176.634L141.481 177.298C141.481 177.298 140.816 183.06 139.929 184.172C139.041 185.283 137.712 183.06 134.607 181.514C131.503 179.968 125.547 178.633 123.306 176.857C121.066 175.081 99.8169 155.113 99.8169 155.113" fill="white"/>
<mask id="mask2_2_2480" style="mask-type:luminance" maskUnits="userSpaceOnUse" x="80" y="146" width="94" height="110">
<path d="M82.5908 152.655C81.5735 150.792 80.7634 148.823 80.1748 146.784C80.7605 148.824 81.5708 150.793 82.5908 152.655ZM80.1084 146.44C80.1084 146.476 80.1084 146.518 80.1084 146.573C80.1205 146.518 80.1144 146.476 80.1084 146.44ZM82.5908 152.649C84.8498 156.928 87.6602 160.891 90.9502 164.439C98.929 173.082 121.978 195.69 124.17 197.242C126.363 198.795 125.722 203.222 124.17 207.655C122.618 212.089 116.856 218.527 117.079 225.606C117.303 232.685 119.495 243.557 119.296 245.774C119.097 247.99 113.552 255.528 113.552 255.528H170.726C170.726 255.528 163.599 246.468 163.599 243.37C163.599 240.271 173.384 200.57 173.825 197.689C174.266 194.808 172.496 192.815 168.951 192.591C165.405 192.368 151.888 189.487 151.223 187.27C150.559 185.054 154.769 176.634 154.769 176.634L141.481 177.298C141.481 177.298 140.816 183.06 139.929 184.172C139.041 185.283 137.712 183.06 134.607 181.514C131.503 179.968 125.547 178.633 123.306 176.857C121.066 175.081 99.8169 155.113 99.8169 155.113" fill="white"/>
</mask>
<g mask="url(#mask2_2_2480)">
<path d="M126.701 178.567C127.806 180.499 128.911 182.245 128.911 182.245C128.911 182.245 132.638 184.341 133.568 184.341C134.498 184.341 140.091 187.361 140.091 187.361C140.091 187.361 144.754 186.195 143.111 182.233C142.593 181.218 141.939 180.28 141.166 179.442C140.889 181.2 140.442 183.501 139.916 184.16C139.028 185.265 137.7 183.048 134.595 181.502C132.584 180.499 129.328 179.581 126.701 178.567Z" fill="#6EB6FF"/>
<path d="M115.321 169.597C108.478 163.261 99.8167 155.137 99.8167 155.137L94.7793 154.413L94.1753 154.751C94.1753 154.751 108.393 167.332 111.419 168.733C112.644 169.296 113.974 169.591 115.321 169.597Z" fill="#6EB6FF"/>
<path d="M122.491 176.157L121.947 175.673C122.225 176.132 122.382 176.422 122.382 176.422L122.491 176.157Z" fill="#6EB6FF"/>
<g opacity="0.5">
<path d="M126.701 178.567C127.806 180.499 128.911 182.245 128.911 182.245C128.911 182.245 132.638 184.341 133.568 184.341C134.498 184.341 140.091 187.361 140.091 187.361C140.091 187.361 144.754 186.195 143.111 182.233C142.593 181.218 141.939 180.28 141.166 179.442C140.889 181.2 140.442 183.501 139.916 184.16C139.028 185.265 137.7 183.048 134.595 181.502C132.584 180.499 129.328 179.581 126.701 178.567Z" fill="white"/>
<path d="M115.321 169.597C108.478 163.261 99.8167 155.137 99.8167 155.137L94.7793 154.413L94.1753 154.751C94.1753 154.751 108.393 167.332 111.419 168.733C112.644 169.296 113.974 169.591 115.321 169.597Z" fill="white"/>
<path d="M122.491 176.157L121.947 175.673C122.225 176.132 122.382 176.422 122.382 176.422L122.491 176.157Z" fill="white"/>
</g>
</g>
<path d="M80.0963 146.277C80.0936 146.319 80.0936 146.361 80.0963 146.404M80.1748 146.784C80.7634 148.823 81.5735 150.792 82.5908 152.655C81.5708 150.793 80.7605 148.824 80.1748 146.784ZM80.1748 146.784C80.1582 146.727 80.146 146.668 80.1386 146.609M82.5908 152.649C84.8498 156.928 87.6602 160.891 90.9502 164.439C98.929 173.082 121.978 195.69 124.17 197.242C126.363 198.795 125.722 203.222 124.17 207.655C122.618 212.089 116.856 218.527 117.079 225.606C117.303 232.685 119.495 243.557 119.296 245.774C119.097 247.99 113.552 255.528 113.552 255.528H170.726C170.726 255.528 163.599 246.468 163.599 243.37C163.599 240.271 173.384 200.57 173.825 197.689C174.266 194.808 172.496 192.815 168.951 192.591C165.405 192.368 151.888 189.487 151.223 187.27C150.559 185.054 154.769 176.634 154.769 176.634L141.481 177.298C141.481 177.298 140.816 183.06 139.929 184.172C139.041 185.283 137.712 183.06 134.607 181.514C131.503 179.968 125.547 178.633 123.306 176.857C121.066 175.081 99.8169 155.113 99.8169 155.113M80.1084 146.44C80.1084 146.476 80.1084 146.518 80.1084 146.573C80.1205 146.518 80.1144 146.476 80.1084 146.44Z" stroke="#263238" stroke-linecap="round" stroke-linejoin="round"/>
<path d="M99.8171 155.137C99.8171 155.137 92.7382 155.27 88.7881 152.015" stroke="#263238" stroke-linecap="round" stroke-linejoin="round"/>
<path d="M151.229 187.27C150.565 185.06 154.775 176.634 154.775 176.634L141.487 177.298C141.487 177.298 140.822 183.06 139.934 184.172C139.047 185.283 137.718 183.06 134.613 181.514C134.378 181.393 134.118 181.279 133.852 181.164L133.049 193.793C133.049 193.793 134.215 206.024 148.191 203.699C153.851 202.757 159.891 197.707 165.103 192.03C159.74 191.045 151.737 188.967 151.229 187.27Z" fill="white"/>
<mask id="mask3_2_2480" style="mask-type:luminance" maskUnits="userSpaceOnUse" x="133" y="176" width="33" height="28">
<path d="M151.229 187.27C150.565 185.06 154.775 176.634 154.775 176.634L141.487 177.298C141.487 177.298 140.822 183.06 139.934 184.172C139.047 185.283 137.718 183.06 134.613 181.514C134.378 181.393 134.118 181.279 133.852 181.164L133.049 193.793C133.049 193.793 134.215 206.024 148.191 203.699C153.851 202.757 159.891 197.707 165.103 192.03C159.74 191.045 151.737 188.967 151.229 187.27Z" fill="white"/>
</mask>
<g mask="url(#mask3_2_2480)">
<path d="M150.855 178.307C150.855 178.307 150.051 182.813 149.405 187.796C148.759 192.779 148.282 196.487 148.282 196.487L151.229 187.27L154.551 177.504C154.551 177.504 151.338 177.504 150.855 178.307Z" fill="#6EB6FF"/>
<path opacity="0.5" d="M150.855 178.307C150.855 178.307 150.051 182.813 149.405 187.796C148.759 192.779 148.282 196.487 148.282 196.487L151.229 187.27L154.551 177.504C154.551 177.504 151.338 177.504 150.855 178.307Z" fill="white"/>
</g>
<path d="M151.229 187.27C150.565 185.06 154.775 176.634 154.775 176.634L141.487 177.298C141.487 177.298 140.822 183.06 139.934 184.172C139.047 185.283 137.718 183.06 134.613 181.514C134.378 181.393 134.118 181.279 133.852 181.164L133.049 193.793C133.049 193.793 134.215 206.024 148.191 203.699C153.851 202.757 159.891 197.707 165.103 192.03C159.74 191.045 151.737 188.967 151.229 187.27Z" stroke="#263238" stroke-linecap="round" stroke-linejoin="round"/>
<path d="M139.929 184.172C139.041 185.277 137.712 183.06 134.608 181.514C132.651 180.53 129.534 179.636 126.955 178.669C126.224 176.936 125.258 174.677 124.635 173.312C123.53 170.896 121.754 172.424 121.754 172.424C120.828 171.37 120.079 170.173 119.538 168.878C118.432 166.462 116.657 166.662 114.223 166.221C111.788 165.78 106.685 161.123 106.685 161.123C106.685 161.123 104.299 159.311 103.314 158.411C102.167 160.67 99.4185 164.644 93.4751 167.127C102.952 177.026 122.177 195.835 124.195 197.248C126.411 198.795 125.747 203.228 124.195 207.661C122.642 212.095 116.88 218.533 117.104 225.612C117.327 232.691 119.52 243.563 119.32 245.78C119.121 247.755 114.7 253.946 113.739 255.275L115.992 255.528H127.722C127.655 249.585 127.661 225.328 131.726 215.664C136.383 204.557 139.929 184.172 139.929 184.172Z" fill="#6EB6FF"/>
<mask id="mask4_2_2480" style="mask-type:luminance" maskUnits="userSpaceOnUse" x="93" y="158" width="47" height="98">
<path d="M139.929 184.172C139.041 185.277 137.712 183.06 134.608 181.514C132.651 180.53 129.534 179.636 126.955 178.669C126.224 176.936 125.258 174.677 124.635 173.312C123.53 170.896 121.754 172.424 121.754 172.424C120.828 171.37 120.079 170.173 119.538 168.878C118.432 166.462 116.657 166.662 114.223 166.221C111.788 165.78 106.685 161.123 106.685 161.123C106.685 161.123 104.299 159.311 103.314 158.411C102.167 160.67 99.4185 164.644 93.4751 167.127C102.952 177.026 122.177 195.835 124.195 197.248C126.411 198.795 125.747 203.228 124.195 207.661C122.642 212.095 116.88 218.533 117.104 225.612C117.327 232.691 119.52 243.563 119.32 245.78C119.121 247.755 114.7 253.946 113.739 255.275L115.992 255.528H127.722C127.655 249.585 127.661 225.328 131.726 215.664C136.383 204.557 139.929 184.172 139.929 184.172Z" fill="white"/>
</mask>
<g mask="url(#mask4_2_2480)">
<path opacity="0.16" d="M134.608 181.514C132.651 180.53 129.534 179.636 126.955 178.669C126.224 176.936 125.258 174.677 124.636 173.312C123.53 170.896 121.755 172.424 121.755 172.424C120.828 171.37 120.079 170.173 119.538 168.878C118.433 166.462 116.657 166.662 114.223 166.221C111.789 165.78 106.685 161.123 106.685 161.123C106.685 161.123 104.299 159.311 103.314 158.411C102.823 159.37 102.238 160.279 101.569 161.123C105.531 164.475 109.904 168.027 111.432 168.733C114.452 170.129 115.159 168.963 117.472 170.364C119.785 171.766 122.365 176.404 122.365 176.404C122.365 176.404 123.766 172.672 124.932 175.239C126.097 177.806 128.894 182.227 128.894 182.227C128.894 182.227 132.62 184.323 133.551 184.323C134.281 184.323 137.863 186.183 139.385 186.986C139.724 185.217 139.911 184.154 139.911 184.154C139.041 185.277 137.712 183.06 134.608 181.514Z" fill="black"/>
</g>
<path d="M139.929 184.172C139.041 185.277 137.712 183.06 134.608 181.514C132.651 180.53 129.534 179.636 126.955 178.669C126.224 176.936 125.258 174.677 124.635 173.312C123.53 170.896 121.754 172.424 121.754 172.424C120.828 171.37 120.079 170.173 119.538 168.878C118.432 166.462 116.657 166.662 114.223 166.221C111.788 165.78 106.685 161.123 106.685 161.123C106.685 161.123 104.299 159.311 103.314 158.411C102.167 160.67 99.4185 164.644 93.4751 167.127C102.952 177.026 122.177 195.835 124.195 197.248C126.411 198.795 125.747 203.228 124.195 207.661C122.642 212.095 116.88 218.533 117.104 225.612C117.327 232.691 119.52 243.563 119.32 245.78C119.121 247.755 114.7 253.946 113.739 255.275L115.992 255.528H127.722C127.655 249.585 127.662 225.328 131.726 215.664C136.383 204.557 139.929 184.172 139.929 184.172Z" stroke="#263238" stroke-linecap="round" stroke-linejoin="round"/>
<path d="M140.086 183.399C140.086 183.399 137.331 182.553 135.634 184.039C133.937 185.525 131.406 193.147 129.914 201.416C128.995 206.229 129.629 211.211 131.726 215.64C131.726 215.64 135.211 206.502 136.268 202.05C137.325 197.599 140.086 183.399 140.086 183.399Z" fill="#6EB6FF"/>
<mask id="mask5_2_2480" style="mask-type:luminance" maskUnits="userSpaceOnUse" x="129" y="183" width="12" height="33">
<path d="M140.086 183.399C140.086 183.399 137.331 182.553 135.634 184.039C133.937 185.525 131.406 193.147 129.914 201.416C128.995 206.229 129.629 211.211 131.726 215.64C131.726 215.64 135.211 206.502 136.268 202.05C137.325 197.599 140.086 183.399 140.086 183.399Z" fill="white"/>
</mask>
<g mask="url(#mask5_2_2480)">
<path opacity="0.16" d="M134.801 184.745C134.801 184.745 136.794 184.262 137.615 184.54C138.307 184.837 138.954 185.229 139.536 185.706L140.086 183.399C139.261 182.977 138.326 182.823 137.41 182.958C136.039 183.235 134.801 184.745 134.801 184.745Z" fill="black"/>
</g>
<path d="M140.086 183.399C140.086 183.399 137.331 182.553 135.634 184.039C133.937 185.525 131.406 193.147 129.914 201.416C128.995 206.229 129.629 211.211 131.726 215.64C131.726 215.64 135.211 206.502 136.268 202.05C137.325 197.599 140.086 183.399 140.086 183.399Z" stroke="#263238" stroke-linecap="round" stroke-linejoin="round"/>
<path d="M121.537 184.123L125.082 198.529L117.104 180.354" stroke="#263238" stroke-linecap="round" stroke-linejoin="round"/>
<path d="M144.893 255.528H170.732C170.732 255.528 163.605 246.468 163.605 243.37C163.605 240.271 173.39 200.57 173.831 197.689C174.272 194.808 172.502 192.815 168.957 192.591C165.411 192.368 151.894 189.487 151.229 187.27C151.229 187.27 146.131 205.221 144.362 217.41C142.84 227.865 144.416 249.561 144.893 255.528Z" fill="#6EB6FF"/>
<mask id="mask6_2_2480" style="mask-type:luminance" maskUnits="userSpaceOnUse" x="143" y="187" width="31" height="69">
<path d="M144.893 255.528H170.732C170.732 255.528 163.605 246.468 163.605 243.37C163.605 240.271 173.39 200.57 173.831 197.689C174.272 194.808 172.502 192.815 168.957 192.591C165.411 192.368 151.894 189.487 151.229 187.27C151.229 187.27 146.131 205.221 144.362 217.41C142.84 227.865 144.416 249.561 144.893 255.528Z" fill="white"/>
</mask>
<g mask="url(#mask6_2_2480)">
<path opacity="0.16" d="M168.956 192.591C166.051 192.41 156.454 190.441 152.715 188.52L154.074 191.661C156.536 192.968 159.184 193.888 161.926 194.391C166.426 195.195 170.611 195.038 173.347 199.06L173.48 199.26C173.649 198.486 173.764 197.943 173.8 197.689C174.278 194.808 172.502 192.815 168.956 192.591Z" fill="black"/>
</g>
<path d="M144.893 255.528H170.732C170.732 255.528 163.605 246.468 163.605 243.37C163.605 240.271 173.39 200.57 173.831 197.689C174.272 194.808 172.502 192.815 168.957 192.591C165.411 192.368 151.894 189.487 151.229 187.27C151.229 187.27 146.131 205.221 144.362 217.41C142.84 227.865 144.416 249.561 144.893 255.528Z" stroke="#263238" stroke-linecap="round" stroke-linejoin="round"/>
<path d="M151.229 187.27C151.229 187.27 144.392 209.014 144.362 217.41C144.362 217.41 154.074 205.65 155.343 197.387C156.611 189.124 151.229 187.27 151.229 187.27Z" fill="#6EB6FF"/>
<mask id="mask7_2_2480" style="mask-type:luminance" maskUnits="userSpaceOnUse" x="144" y="187" width="12" height="31">
<path d="M151.229 187.27C151.229 187.27 144.392 209.014 144.362 217.41C144.362 217.41 154.074 205.65 155.343 197.387C156.611 189.124 151.229 187.27 151.229 187.27Z" fill="white"/>
</mask>
<g mask="url(#mask7_2_2480)">
<path opacity="0.16" d="M150.051 190.049C151.079 190.014 152.099 190.23 153.024 190.679C153.949 191.127 154.751 191.794 155.36 192.622C155.36 192.622 154.02 188.678 151.229 187.27L150.051 190.049Z" fill="black"/>
</g>
<path d="M151.229 187.27C151.229 187.27 144.392 209.014 144.362 217.41C144.362 217.41 154.074 205.65 155.343 197.387C156.611 189.124 151.229 187.27 151.229 187.27Z" stroke="#263238" stroke-linecap="round" stroke-linejoin="round"/>
<path d="M224.223 251.439C224.223 251.439 229.23 251.645 232.51 252.116C234.697 252.412 236.899 252.588 239.105 252.641C239.105 252.641 237.293 248.981 235.361 247.948C233.428 246.915 229.924 245.067 226.989 245.478C224.054 245.888 219.856 248.848 220.206 249.79C220.556 250.732 222.121 251.155 224.223 251.439Z" fill="white"/>
<mask id="mask8_2_2480" style="mask-type:luminance" maskUnits="userSpaceOnUse" x="220" y="245" width="20" height="8">
<path d="M224.223 251.439C224.223 251.439 229.23 251.645 232.51 252.116C234.697 252.412 236.899 252.588 239.105 252.641C239.105 252.641 237.293 248.981 235.361 247.948C233.428 246.915 229.924 245.067 226.989 245.478C224.054 245.888 219.856 248.848 220.206 249.79C220.556 250.732 222.121 251.155 224.223 251.439Z" fill="white"/>
</mask>
<g mask="url(#mask8_2_2480)">
<path d="M224.223 251.439C224.223 251.439 229.23 251.645 232.51 252.116C234.697 252.412 236.899 252.588 239.105 252.641C239.105 252.641 237.293 248.981 235.361 247.948C233.428 246.915 229.924 245.067 226.989 245.478C224.054 245.888 219.856 248.848 220.206 249.79C220.556 250.732 222.121 251.155 224.223 251.439Z" fill="#6EB6FF"/>
<path opacity="0.5" d="M224.223 251.439C224.223 251.439 229.23 251.645 232.51 252.116C234.697 252.412 236.899 252.588 239.105 252.641C239.105 252.641 237.293 248.981 235.361 247.948C233.428 246.915 229.924 245.067 226.989 245.478C224.054 245.888 219.856 248.848 220.206 249.79C220.556 250.732 222.121 251.155 224.223 251.439Z" fill="white"/>
</g>
<path d="M224.223 251.439C224.223 251.439 229.23 251.645 232.51 252.116C234.697 252.412 236.899 252.588 239.105 252.641C239.105 252.641 237.293 248.981 235.361 247.948C233.428 246.915 229.924 245.067 226.989 245.478C224.054 245.888 219.856 248.848 220.206 249.79C220.556 250.732 222.121 251.155 224.223 251.439Z" stroke="#263238" stroke-linecap="round" stroke-linejoin="round"/>
<path d="M232.54 249.941C232.54 249.941 236.508 247.882 237.499 247.912C238.489 247.942 245.073 252.393 244.747 253.106C244.525 253.437 244.206 253.689 243.833 253.828C243.46 253.967 243.053 253.985 242.669 253.879C241.938 253.535 237.505 251.651 237.505 251.651L234.606 252.333L232.54 249.941Z" fill="white"/>
<mask id="mask9_2_2480" style="mask-type:luminance" maskUnits="userSpaceOnUse" x="232" y="247" width="13" height="7">
<path d="M232.54 249.941C232.54 249.941 236.508 247.882 237.499 247.912C238.489 247.942 245.073 252.393 244.747 253.106C244.525 253.437 244.206 253.689 243.833 253.828C243.46 253.967 243.053 253.985 242.669 253.879C241.938 253.535 237.505 251.651 237.505 251.651L234.606 252.333L232.54 249.941Z" fill="white"/>
</mask>
<g mask="url(#mask9_2_2480)">
<path d="M232.54 249.941C232.54 249.941 236.508 247.882 237.499 247.912C238.489 247.942 245.073 252.393 244.747 253.106C244.421 253.819 242.862 254.399 242.669 253.879C242.476 253.36 237.505 251.651 237.505 251.651L234.606 252.333L232.54 249.941Z" fill="#6EB6FF"/>
<path opacity="0.5" d="M232.54 249.941C232.54 249.941 236.508 247.882 237.499 247.912C238.489 247.942 245.073 252.393 244.747 253.106C244.421 253.819 242.862 254.399 242.669 253.879C242.476 253.36 237.505 251.651 237.505 251.651L234.606 252.333L232.54 249.941Z" fill="white"/>
</g>
<path d="M232.54 249.941C232.54 249.941 236.508 247.882 237.499 247.912C238.489 247.942 245.073 252.393 244.747 253.106C244.525 253.437 244.206 253.689 243.833 253.828C243.46 253.967 243.053 253.985 242.669 253.879C241.938 253.535 237.505 251.651 237.505 251.651L234.606 252.333L232.54 249.941Z" stroke="#263238" stroke-linecap="round" stroke-linejoin="round"/>
<path d="M229.707 246.553C229.707 246.553 234.998 246.384 236.049 246.915C237.1 247.447 241.847 255.589 241.135 256.181C240.422 256.772 238.453 256.597 238.513 255.939C238.574 255.281 234.14 250.92 234.14 250.92L230.692 250.165L229.707 246.553Z" fill="white"/>
<mask id="mask10_2_2480" style="mask-type:luminance" maskUnits="userSpaceOnUse" x="229" y="246" width="13" height="11">
<path d="M229.707 246.553C229.707 246.553 234.998 246.384 236.049 246.915C237.1 247.447 241.847 255.589 241.135 256.181C240.422 256.772 238.453 256.597 238.513 255.939C238.574 255.281 234.14 250.92 234.14 250.92L230.692 250.165L229.707 246.553Z" fill="white"/>
</mask>
<g mask="url(#mask10_2_2480)">
<path d="M229.707 246.553C229.707 246.553 234.998 246.384 236.049 246.915C237.1 247.447 241.847 255.589 241.135 256.181C240.422 256.772 238.453 256.597 238.513 255.939C238.574 255.281 234.14 250.92 234.14 250.92L230.692 250.165L229.707 246.553Z" fill="#6EB6FF"/>
<path opacity="0.5" d="M229.707 246.553C229.707 246.553 234.998 246.384 236.049 246.915C237.1 247.447 241.847 255.589 241.135 256.181C240.422 256.772 238.453 256.597 238.513 255.939C238.574 255.281 234.14 250.92 234.14 250.92L230.692 250.165L229.707 246.553Z" fill="white"/>
</g>
<path d="M229.707 246.553C229.707 246.553 234.998 246.384 236.049 246.915C237.1 247.447 241.847 255.589 241.135 256.181C240.422 256.772 238.453 256.597 238.513 255.939C238.574 255.281 234.14 250.92 234.14 250.92L230.692 250.165L229.707 246.553Z" stroke="#263238" stroke-linecap="round" stroke-linejoin="round"/>
<path d="M226.572 245.46C226.572 245.46 231.93 245.284 232.993 245.828C234.056 246.372 238.864 254.604 238.139 255.208C237.414 255.812 235.433 255.625 235.493 254.96C235.554 254.296 231.066 249.881 231.066 249.881L227.575 249.114L226.572 245.46Z" fill="white"/>
<mask id="mask11_2_2480" style="mask-type:luminance" maskUnits="userSpaceOnUse" x="226" y="245" width="13" height="11">
<path d="M226.572 245.46C226.572 245.46 231.93 245.284 232.993 245.828C234.056 246.372 238.864 254.604 238.139 255.208C237.414 255.812 235.433 255.625 235.493 254.96C235.554 254.296 231.066 249.881 231.066 249.881L227.575 249.114L226.572 245.46Z" fill="white"/>
</mask>
<g mask="url(#mask11_2_2480)">
<path d="M226.572 245.46C226.572 245.46 231.93 245.284 232.993 245.828C234.056 246.372 238.864 254.604 238.139 255.208C237.414 255.812 235.433 255.625 235.493 254.96C235.554 254.296 231.066 249.881 231.066 249.881L227.575 249.114L226.572 245.46Z" fill="#6EB6FF"/>
<path opacity="0.5" d="M226.572 245.46C226.572 245.46 231.93 245.284 232.993 245.828C234.056 246.372 238.864 254.604 238.139 255.208C237.414 255.812 235.433 255.625 235.493 254.96C235.554 254.296 231.066 249.881 231.066 249.881L227.575 249.114L226.572 245.46Z" fill="white"/>
</g>
<path d="M226.572 245.46C226.572 245.46 231.93 245.284 232.993 245.828C234.056 246.372 238.864 254.604 238.139 255.208C237.414 255.812 235.433 255.625 235.493 254.96C235.554 254.296 231.066 249.881 231.066 249.881L227.575 249.114L226.572 245.46Z" stroke="#263238" stroke-linecap="round" stroke-linejoin="round"/>
<path d="M165.659 214.764C169.537 220.738 177.322 235.874 179.593 237.577C183.139 240.235 206.84 246.686 209.123 248.449C211.406 250.213 211.249 251.983 213.411 252.629C215.574 253.275 223.679 255.13 226.772 255.42C229.864 255.709 228.481 253.795 228.481 253.795L223.208 250.171L227.805 249.035C227.805 249.035 232.413 254.58 233.277 254.882C234.141 255.184 235.663 254.882 235.566 254.199C235.397 253.106 230.48 244.161 228.735 243.78C226.989 243.4 216.395 244.868 216.395 244.868C216.395 244.868 194.174 229.882 193.775 229.351C193.775 229.351 192.446 225.582 191.359 224.03C190.272 222.477 189.583 222.924 189.583 222.924C189.583 222.924 190.03 220.925 189.366 220.261L185.821 216.715L185.694 216.884C185.09 215.676 184.486 214.299 183.821 212.729C181.967 208.362 175.402 196.107 174.296 194.337C173.469 193.014 166.535 192.066 163.02 191.667" fill="#6EB6FF"/>
<mask id="mask12_2_2480" style="mask-type:luminance" maskUnits="userSpaceOnUse" x="163" y="191" width="73" height="65">
<path d="M165.659 214.764C169.537 220.738 177.322 235.874 179.593 237.577C183.139 240.235 206.84 246.686 209.123 248.449C211.406 250.213 211.249 251.983 213.411 252.629C215.574 253.275 223.679 255.13 226.772 255.42C229.864 255.709 228.481 253.795 228.481 253.795L223.208 250.171L227.805 249.035C227.805 249.035 232.413 254.58 233.277 254.882C234.141 255.184 235.663 254.882 235.566 254.199C235.397 253.106 230.48 244.161 228.735 243.78C226.989 243.4 216.395 244.868 216.395 244.868C216.395 244.868 194.174 229.882 193.775 229.351C193.775 229.351 192.446 225.582 191.359 224.03C190.272 222.477 189.583 222.924 189.583 222.924C189.583 222.924 190.03 220.925 189.366 220.261L185.821 216.715L185.694 216.884C185.09 215.676 184.486 214.299 183.821 212.729C181.967 208.362 175.402 196.107 174.296 194.337C173.469 193.014 166.535 192.066 163.02 191.667" fill="white"/>
</mask>
<g mask="url(#mask12_2_2480)">
<path opacity="0.16" d="M181.097 215.145C183.996 217.718 183.03 217.718 182.384 219.977C181.738 222.236 182.867 219.173 185.603 219.337C188.339 219.5 187.536 223.033 187.21 223.679C186.884 224.326 190.592 225.129 189.946 226.572C189.3 228.016 185.603 230.112 183.513 232.208C181.423 234.304 188.98 228.825 191.553 228.668C192.338 228.614 192.984 228.717 193.528 228.705C192.957 227.088 192.225 225.534 191.341 224.066C190.23 222.514 189.565 222.961 189.565 222.961C189.565 222.961 190.012 220.961 189.348 220.297L185.802 216.751L185.676 216.921C185.072 215.713 184.468 214.335 183.803 212.765C181.949 208.398 175.383 196.143 174.278 194.373C173.451 193.05 166.517 192.102 163.001 191.704L163.322 194.5L163.4 194.56C163.4 194.56 167.743 195.364 169.192 195.527C170.642 195.69 172.412 196.97 172.249 197.943C172.086 198.915 167.906 203.252 169.192 203.578C170.479 203.904 171.929 200.359 173.378 200.842C174.828 201.325 178.18 212.572 181.097 215.145Z" fill="black"/>
</g>
<path d="M165.659 214.764C169.537 220.738 177.322 235.874 179.593 237.577C183.139 240.235 206.84 246.686 209.123 248.449C211.406 250.213 211.249 251.983 213.411 252.629C215.574 253.275 223.679 255.13 226.772 255.42C229.864 255.709 228.481 253.795 228.481 253.795L223.208 250.171L227.805 249.035C227.805 249.035 232.413 254.58 233.277 254.882C234.141 255.184 235.663 254.882 235.566 254.199C235.397 253.106 230.48 244.161 228.735 243.78C226.989 243.4 216.395 244.868 216.395 244.868C216.395 244.868 194.174 229.882 193.775 229.351C193.775 229.351 192.446 225.582 191.359 224.03C190.272 222.477 189.583 222.924 189.583 222.924C189.583 222.924 190.03 220.925 189.366 220.261L185.821 216.715L185.694 216.884C185.09 215.676 184.486 214.299 183.821 212.729C181.967 208.362 175.402 196.107 174.296 194.337C173.469 193.014 166.535 192.066 163.02 191.667" stroke="#263238" stroke-linecap="round" stroke-linejoin="round"/>
<path d="M165.719 206.568C165.556 207.112 165.417 207.655 165.309 208.211" stroke="#263238" stroke-linecap="round" stroke-linejoin="round"/>
<path d="M171.59 196.572C169.692 198.735 168.091 201.142 166.831 203.729" stroke="#263238" stroke-linecap="round" stroke-linejoin="round"/>
<path d="M180.463 230.867C182.094 228.451 184.691 225.389 187.554 224.513" stroke="#263238" stroke-linecap="round" stroke-linejoin="round"/>
<path d="M178.657 233.839C178.657 233.839 178.947 233.271 179.467 232.413" stroke="#263238" stroke-linecap="round" stroke-linejoin="round"/>
<path d="M178.657 230.021C178.657 230.021 181.623 222.604 184.588 220.696C187.554 218.787 185.857 222.604 185.857 222.604" stroke="#263238" stroke-linecap="round" stroke-linejoin="round"/>
<path d="M209.123 248.455C211.412 250.225 211.249 251.989 213.411 252.635C215.573 253.281 223.679 255.136 226.772 255.426C229.864 255.715 228.481 253.801 228.481 253.801L223.208 250.177L227.804 249.041C227.804 249.041 232.413 254.586 233.277 254.888C234.14 255.19 235.783 255.299 235.566 254.205C235.143 252.091 230.48 244.167 228.735 243.786C226.989 243.406 216.395 244.874 216.395 244.874C216.395 244.874 196.155 230.982 193.938 229.478C185.343 230.305 181.254 234.805 179.533 237.505L179.593 237.553C183.139 240.235 206.84 246.686 209.123 248.455Z" fill="white"/>
<mask id="mask13_2_2480" style="mask-type:luminance" maskUnits="userSpaceOnUse" x="179" y="229" width="57" height="27">
<path d="M209.123 248.455C211.412 250.225 211.249 251.989 213.411 252.635C215.573 253.281 223.679 255.136 226.772 255.426C229.864 255.715 228.481 253.801 228.481 253.801L223.208 250.177L227.804 249.041C227.804 249.041 232.413 254.586 233.277 254.888C234.14 255.19 235.783 255.299 235.566 254.205C235.143 252.091 230.48 244.167 228.735 243.786C226.989 243.406 216.395 244.874 216.395 244.874C216.395 244.874 196.155 230.982 193.938 229.478C185.343 230.305 181.254 234.805 179.533 237.505L179.593 237.553C183.139 240.235 206.84 246.686 209.123 248.455Z" fill="white"/>
</mask>
<g mask="url(#mask13_2_2480)">
<path d="M235.56 254.23C234.461 251.542 230.474 244.191 228.729 243.811C226.983 243.43 216.389 244.898 216.389 244.898C216.389 244.898 196.149 231.006 193.932 229.502C191.676 229.698 189.463 230.234 187.367 231.09C190.562 232.902 211.859 244.982 214.547 245.52C217.398 246.124 226.911 244.56 228.584 245.683C229.647 246.396 232.812 251.415 234.95 254.979C235.56 254.888 235.783 254.773 235.56 254.23Z" fill="#6EB6FF"/>
<path opacity="0.5" d="M235.56 254.23C233.845 250.382 230.474 244.191 228.729 243.811C226.983 243.43 216.389 244.898 216.389 244.898C216.389 244.898 196.149 231.006 193.932 229.502C191.676 229.698 189.463 230.234 187.367 231.09C190.562 232.902 211.859 244.982 214.547 245.52C217.398 246.124 226.911 244.56 228.584 245.683C229.647 246.396 232.812 251.415 234.95 254.979C235.56 254.888 235.801 254.767 235.56 254.23Z" fill="white"/>
</g>
<path d="M209.123 248.455C211.412 250.225 211.249 251.989 213.411 252.635C215.573 253.281 223.679 255.136 226.772 255.426C229.864 255.715 228.481 253.801 228.481 253.801L223.208 250.177L227.804 249.041C227.804 249.041 232.413 254.586 233.277 254.888C234.14 255.19 235.783 255.299 235.566 254.205C235.143 252.091 230.48 244.167 228.735 243.786C226.989 243.406 216.395 244.874 216.395 244.874C216.395 244.874 196.155 230.982 193.938 229.478C185.343 230.305 181.254 234.805 179.533 237.505L179.593 237.553C183.139 240.235 206.84 246.686 209.123 248.455Z" stroke="#263238" stroke-linecap="round" stroke-linejoin="round"/>
<path d="M155.741 142.985L137.549 150.577C137.328 153.775 136.536 156.906 135.211 159.824C133.061 164.373 134.317 172.98 136.383 177.624C138.449 182.269 147.551 180.451 150.879 179.871C153.136 179.442 155.347 178.797 157.481 177.944C158.452 178.319 159.503 178.44 160.534 178.296C161.566 178.153 162.543 177.749 163.376 177.123C163.376 177.123 153.639 149.792 155.741 142.985Z" fill="white"/>
<mask id="mask14_2_2480" style="mask-type:luminance" maskUnits="userSpaceOnUse" x="134" y="142" width="30" height="39">
<path d="M155.741 142.985L137.549 150.577C137.328 153.775 136.536 156.906 135.211 159.824C133.061 164.373 134.317 172.98 136.383 177.624C138.449 182.269 147.551 180.451 150.879 179.871C153.136 179.442 155.347 178.797 157.481 177.944C158.452 178.319 159.503 178.44 160.534 178.296C161.566 178.153 162.543 177.749 163.376 177.123C163.376 177.123 153.639 149.792 155.741 142.985Z" fill="white"/>
</mask>
<g mask="url(#mask14_2_2480)">
<path d="M155.741 142.985L137.549 150.577C137.328 153.775 136.536 156.906 135.211 159.824C133.061 164.373 134.317 172.98 136.383 177.624C136.729 178.371 137.285 179.001 137.983 179.436V179.086C137.983 179.086 134.607 170.721 135.247 165.895C135.888 161.069 138.63 158.647 138.95 155.596C139.27 152.546 139.107 151.097 145.225 148.844C151.344 146.591 153.911 144.501 154.551 146.748C155.191 148.995 157.771 163.805 159.54 167.344C161.31 170.884 161.147 174.592 158.417 176.193C155.658 177.849 152.701 179.152 149.617 180.071L150.903 179.847C153.16 179.418 155.371 178.772 157.505 177.92C158.476 178.295 159.527 178.416 160.559 178.272C161.59 178.128 162.568 177.725 163.4 177.099C163.4 177.099 153.639 149.792 155.741 142.985Z" fill="#6EB6FF"/>
<path opacity="0.5" d="M155.741 142.985L137.549 150.577C137.328 153.775 136.536 156.906 135.211 159.824C133.061 164.373 134.317 172.98 136.383 177.624C136.729 178.371 137.285 179.001 137.983 179.436V179.086C137.983 179.086 134.607 170.721 135.247 165.895C135.888 161.069 138.63 158.647 138.95 155.596C139.27 152.546 139.107 151.097 145.225 148.844C151.344 146.591 153.911 144.501 154.551 146.748C155.191 148.995 157.771 163.805 159.54 167.344C161.31 170.884 161.147 174.592 158.417 176.193C155.658 177.849 152.701 179.152 149.617 180.071L150.903 179.847C153.16 179.418 155.371 178.772 157.505 177.92C158.476 178.295 159.527 178.416 160.559 178.272C161.59 178.128 162.568 177.725 163.4 177.099C163.4 177.099 153.639 149.792 155.741 142.985Z" fill="white"/>
</g>
<path d="M155.741 142.985L137.549 150.577C137.328 153.775 136.536 156.906 135.211 159.824C133.061 164.373 134.317 172.98 136.383 177.624C138.449 182.269 147.551 180.451 150.879 179.871C153.136 179.442 155.347 178.797 157.481 177.944C158.452 178.319 159.503 178.44 160.534 178.296C161.566 178.153 162.543 177.749 163.376 177.123C163.376 177.123 153.639 149.792 155.741 142.985Z" stroke="#263238" stroke-linecap="round" stroke-linejoin="round"/>
<path d="M146.548 154.89C146.598 155.959 146.465 157.03 146.156 158.055C145.672 159.263 141.112 164.01 141.251 164.524C141.39 165.037 141.801 166.686 142.61 166.843" stroke="#263238" stroke-linecap="round" stroke-linejoin="round"/>
<path d="M151.604 159.136C152.238 157.867 154.322 159.106 154.292 161.963" stroke="#263238" stroke-linecap="round" stroke-linejoin="round"/>
<path d="M141.275 155.403C141.275 155.403 143.051 154.624 144.64 157.499" stroke="#263238" stroke-linecap="round" stroke-linejoin="round"/>
<path d="M149.079 163.322C151.131 163.425 153.082 164.243 154.594 165.635" stroke="#263238" stroke-width="0.5" stroke-linecap="round" stroke-linejoin="round"/>
<path d="M139.131 159.547C140.192 159.688 141.229 159.975 142.212 160.398" stroke="#263238" stroke-width="0.5" stroke-linecap="round" stroke-linejoin="round"/>
<path d="M146.349 152.208C145.88 151.96 145.36 151.824 144.829 151.812C144.299 151.799 143.773 151.91 143.293 152.136C141.668 152.915 140.671 153.772 140.78 152.776C140.889 151.779 142.797 150.68 143.371 150.535C143.945 150.39 146.512 149.991 146.349 152.208Z" fill="#263238"/>
<path d="M150.903 149.955C152.597 151.325 153.942 153.076 154.829 155.065C156.037 158.085 156.992 154.787 156.037 152.812C155.083 150.837 152.323 148.735 150.903 149.955Z" fill="#263238"/>
<path d="M163.642 182.287C163.642 183.695 162.844 184.836 161.866 184.836C160.887 184.836 160.096 183.695 160.096 182.287C160.096 180.88 160.887 177.298 161.866 177.298C162.844 177.298 163.642 180.88 163.642 182.287Z" fill="#6EB6FF" stroke="#263238" stroke-linecap="round" stroke-linejoin="round"/>
<path d="M151.761 158.586C151.691 158.771 151.637 158.961 151.598 159.154C151.423 160.048 151.247 161.914 151.598 161.993C151.948 162.071 152.806 160.326 152.957 159.432C152.991 159.257 153.011 159.079 153.017 158.9C152.605 158.771 152.185 158.666 151.761 158.586Z" fill="#263238"/>
<path d="M141.457 155.228C141.403 155.386 141.361 155.547 141.33 155.711C141.149 156.605 141.155 158.568 141.535 158.641C141.916 158.713 142.538 156.877 142.713 155.983C142.757 155.766 142.781 155.546 142.786 155.325C142.353 155.206 141.902 155.173 141.457 155.228Z" fill="#263238"/>
<path d="M151.604 159.166L152.208 158.043C153.166 158.229 154.033 158.731 154.672 159.468" stroke="#263238" stroke-width="0.75" stroke-linecap="round" stroke-linejoin="round"/>
<path d="M141.457 155.228L142.061 154.521C142.061 154.521 142.32 154.394 143.746 155.041" stroke="#263238" stroke-width="0.75" stroke-linecap="round" stroke-linejoin="round"/>
<path d="M139.167 171.608C139.167 171.608 140.182 169.742 141.541 169.742C142.9 169.742 143.915 172.792 143.915 172.792" stroke="#263238" stroke-linecap="round" stroke-linejoin="round"/>
<path d="M95.4323 252.098C94.1189 252.032 92.8289 251.725 91.6271 251.192C91.4595 251.13 91.3063 251.034 91.1768 250.911C91.0472 250.788 90.9441 250.64 90.8737 250.476C90.8032 250.311 90.767 250.135 90.767 249.956C90.7671 249.777 90.8035 249.601 90.8741 249.436C90.9447 249.272 91.0479 249.124 91.1776 249.001C91.3072 248.878 91.4605 248.783 91.6281 248.721C91.7957 248.659 91.9742 248.632 92.1526 248.642C92.3311 248.651 92.5057 248.697 92.666 248.776C93.874 249.289 95.4383 249.609 95.8551 249.428C96.6222 248.57 97.8 243.388 96.2779 240.887C95.9336 240.332 95.6135 240.229 95.4021 240.205C94.5384 240.084 93.2579 240.972 92.8049 241.413C92.6788 241.532 92.5305 241.625 92.3684 241.686C92.2064 241.748 92.0338 241.777 91.8605 241.772C91.6871 241.767 91.5165 241.728 91.3583 241.657C91.2002 241.586 91.0575 241.485 90.9385 241.358C90.8195 241.232 90.7266 241.084 90.6649 240.922C90.6033 240.76 90.5741 240.587 90.5792 240.414C90.5842 240.241 90.6234 240.07 90.6943 239.912C90.7653 239.754 90.8668 239.611 90.9929 239.492C91.2284 239.263 93.4089 237.3 95.7343 237.614C96.311 237.698 96.8606 237.914 97.3404 238.245C97.8201 238.576 98.2171 239.013 98.5006 239.522C100.741 243.176 99.2073 250.128 97.4859 251.506C96.8877 251.929 96.164 252.137 95.4323 252.098Z" fill="white"/>
<mask id="mask15_2_2480" style="mask-type:luminance" maskUnits="userSpaceOnUse" x="90" y="237" width="10" height="16">
<path d="M95.4323 252.098C94.1189 252.032 92.8289 251.725 91.6271 251.192C91.4595 251.13 91.3063 251.034 91.1768 250.911C91.0472 250.788 90.9441 250.64 90.8737 250.476C90.8032 250.311 90.767 250.135 90.767 249.956C90.7671 249.777 90.8035 249.601 90.8741 249.436C90.9447 249.272 91.0479 249.124 91.1776 249.001C91.3072 248.878 91.4605 248.783 91.6281 248.721C91.7957 248.659 91.9742 248.632 92.1526 248.642C92.3311 248.651 92.5057 248.697 92.666 248.776C93.874 249.289 95.4383 249.609 95.8551 249.428C96.6222 248.57 97.8 243.388 96.2779 240.887C95.9336 240.332 95.6135 240.229 95.4021 240.205C94.5384 240.084 93.2579 240.972 92.8049 241.413C92.6788 241.532 92.5305 241.625 92.3684 241.686C92.2064 241.748 92.0338 241.777 91.8605 241.772C91.6871 241.767 91.5165 241.728 91.3583 241.657C91.2002 241.586 91.0575 241.485 90.9385 241.358C90.8195 241.232 90.7266 241.084 90.6649 240.922C90.6033 240.76 90.5741 240.587 90.5792 240.414C90.5842 240.241 90.6234 240.07 90.6943 239.912C90.7653 239.754 90.8668 239.611 90.9929 239.492C91.2284 239.263 93.4089 237.3 95.7343 237.614C96.311 237.698 96.8606 237.914 97.3404 238.245C97.8201 238.576 98.2171 239.013 98.5006 239.522C100.741 243.176 99.2073 250.128 97.4859 251.506C96.8877 251.929 96.164 252.137 95.4323 252.098Z" fill="white"/>
</mask>
<g mask="url(#mask15_2_2480)">
<path d="M97.2018 240.489C97.0434 240.113 96.7954 239.783 96.4794 239.526C96.1635 239.269 95.7894 239.093 95.3898 239.015C93.8798 238.773 92.4604 240.289 92.3034 240.458C92.159 240.632 92.0698 240.845 92.0472 241.07C92.0246 241.295 92.0696 241.522 92.1765 241.721C92.4141 241.673 92.6337 241.56 92.8107 241.395C93.2637 240.972 94.5442 240.084 95.4079 240.187C95.6193 240.187 95.9394 240.313 96.2837 240.869C97.8058 243.346 96.628 248.552 95.8609 249.41C95.4442 249.591 93.8858 249.271 92.6718 248.757C92.5224 248.695 92.3627 248.66 92.2007 248.655C92.2117 248.82 92.2639 248.98 92.3525 249.121C92.4411 249.261 92.5633 249.377 92.708 249.458C93.4718 249.866 94.3142 250.105 95.1784 250.159C95.6715 250.182 96.1545 250.013 96.5253 249.688C97.6608 248.643 98.6635 243.297 97.2018 240.489Z" fill="#6EB6FF"/>
<path opacity="0.5" d="M97.2018 240.489C97.0434 240.113 96.7954 239.783 96.4794 239.526C96.1635 239.269 95.7894 239.093 95.3898 239.015C93.8798 238.773 92.4604 240.289 92.3034 240.458C92.159 240.632 92.0698 240.845 92.0472 241.07C92.0246 241.295 92.0696 241.522 92.1765 241.721C92.4141 241.673 92.6337 241.56 92.8107 241.395C93.2637 240.972 94.5442 240.084 95.4079 240.187C95.6193 240.187 95.9394 240.313 96.2837 240.869C97.8058 243.346 96.628 248.552 95.8609 249.41C95.4442 249.591 93.8858 249.271 92.6718 248.757C92.5224 248.695 92.3627 248.66 92.2007 248.655C92.2117 248.82 92.2639 248.98 92.3525 249.121C92.4411 249.261 92.5633 249.377 92.708 249.458C93.4718 249.866 94.3142 250.105 95.1784 250.159C95.6715 250.182 96.1545 250.013 96.5253 249.688C97.6608 248.643 98.6635 243.297 97.2018 240.489Z" fill="white"/>
</g>
<path d="M95.4323 252.098C94.1189 252.032 92.8289 251.725 91.6271 251.192C91.4595 251.13 91.3063 251.034 91.1768 250.911C91.0472 250.788 90.9441 250.64 90.8737 250.476C90.8032 250.311 90.767 250.135 90.767 249.956C90.7671 249.777 90.8035 249.601 90.8741 249.436C90.9447 249.272 91.0479 249.124 91.1776 249.001C91.3072 248.878 91.4605 248.783 91.6281 248.721C91.7957 248.659 91.9742 248.632 92.1526 248.642C92.3311 248.651 92.5057 248.697 92.666 248.776C93.874 249.289 95.4383 249.609 95.8551 249.428C96.6222 248.57 97.8 243.388 96.2779 240.887C95.9336 240.332 95.6135 240.229 95.4021 240.205C94.5384 240.084 93.2579 240.972 92.8049 241.413C92.6788 241.532 92.5305 241.625 92.3684 241.686C92.2064 241.748 92.0338 241.777 91.8605 241.772C91.6871 241.767 91.5165 241.728 91.3583 241.657C91.2002 241.586 91.0575 241.485 90.9385 241.358C90.8195 241.232 90.7266 241.084 90.6649 240.922C90.6033 240.76 90.5741 240.587 90.5792 240.414C90.5842 240.241 90.6234 240.07 90.6943 239.912C90.7653 239.754 90.8668 239.611 90.9929 239.492C91.2284 239.263 93.4089 237.3 95.7343 237.614C96.311 237.698 96.8606 237.914 97.3404 238.245C97.8201 238.576 98.2171 239.013 98.5006 239.522C100.741 243.176 99.2073 250.128 97.4859 251.506C96.8877 251.929 96.164 252.137 95.4323 252.098Z" stroke="#263238" stroke-linecap="round" stroke-linejoin="round"/>
<path d="M93.1248 236.514H78.5986V255.794H93.1248V236.514Z" fill="white"/>
<mask id="mask16_2_2480" style="mask-type:luminance" maskUnits="userSpaceOnUse" x="78" y="236" width="16" height="20">
<path d="M93.1248 236.514H78.5986V255.794H93.1248V236.514Z" fill="white"/>
</mask>
<g mask="url(#mask16_2_2480)">
<path d="M84.548 236.514H78.5986V255.794H84.548V236.514Z" fill="#6EB6FF"/>
<path opacity="0.5" d="M84.548 236.514H78.5986V255.794H84.548V236.514Z" fill="white"/>
</g>
<path d="M93.1248 236.514H78.5986V255.794H93.1248V236.514Z" stroke="#263238" stroke-linecap="round" stroke-linejoin="round"/>
<path d="M172.949 255.528H110.894L108.871 221.414C108.815 221.084 108.831 220.745 108.919 220.421C109.007 220.097 109.164 219.796 109.379 219.539C109.595 219.282 109.863 219.074 110.166 218.931C110.47 218.787 110.8 218.712 111.136 218.708H172.683C173.021 218.708 173.354 218.781 173.661 218.923C173.967 219.065 174.238 219.272 174.456 219.53C174.674 219.787 174.833 220.09 174.923 220.415C175.012 220.741 175.029 221.082 174.973 221.414L172.949 255.528Z" fill="#263238" stroke="#263238" stroke-linecap="round" stroke-linejoin="round"/>
<path d="M113.951 219.524H172.237C172.566 219.52 172.892 219.589 173.192 219.725C173.492 219.861 173.758 220.061 173.973 220.31C174.188 220.56 174.345 220.854 174.434 221.171C174.524 221.488 174.542 221.82 174.49 222.145" stroke="white" stroke-linecap="round" stroke-linejoin="round"/>
<path d="M109.324 221.608C109.372 221.037 109.634 220.505 110.058 220.119C110.481 219.733 111.034 219.52 111.607 219.524" stroke="white" stroke-linecap="round" stroke-linejoin="round"/>
<path d="M173.209 252.206H110.634V255.528H173.209V252.206Z" fill="white" stroke="#263238" stroke-linecap="round" stroke-linejoin="round"/>
<path d="M141.698 239.909C144.146 239.909 146.131 238.719 146.131 237.251C146.131 235.783 144.146 234.594 141.698 234.594C139.25 234.594 137.265 235.783 137.265 237.251C137.265 238.719 139.25 239.909 141.698 239.909Z" fill="white" stroke="#263238" stroke-linecap="round" stroke-linejoin="round"/>
<path d="M267.59 255.136H34.5308V260.795H267.59V255.136Z" fill="#263238"/>
<path d="M207.16 45.3H95.0396C91.2601 45.3 88.1963 48.3639 88.1963 52.1433V116.475C88.1963 120.255 91.2601 123.319 95.0396 123.319H207.16C210.94 123.319 214.003 120.255 214.003 116.475V52.1433C214.003 48.3639 210.94 45.3 207.16 45.3Z" fill="#6EB6FF"/>
<path d="M154.058 90.135C164.229 88.5005 171.149 78.9307 169.514 68.7603C167.88 58.5898 158.31 51.6701 148.139 53.3046C137.969 54.9391 131.049 64.5089 132.684 74.6793C134.318 84.8498 143.888 91.7695 154.058 90.135Z" fill="#263238"/>
<path d="M150.958 75.1678L144.743 83.1466C144.531 83.4788 144.241 83.7531 143.897 83.945C143.553 84.1369 143.167 84.2403 142.774 84.2459C142.234 84.2533 141.713 84.0471 141.324 83.6721C141.126 83.4909 140.97 83.2692 140.866 83.0222C140.762 82.7752 140.712 82.5086 140.72 82.2406C140.74 81.6405 140.951 81.0625 141.324 80.5917L148.409 71.8277L141.765 63.0576C141.456 62.646 141.287 62.1466 141.282 61.6322C141.28 61.3253 141.342 61.0215 141.464 60.7398C141.585 60.4581 141.764 60.2046 141.988 59.9953C142.199 59.7753 142.452 59.6003 142.733 59.4809C143.013 59.3615 143.315 59.3002 143.619 59.3007C144.009 59.307 144.392 59.411 144.732 59.603C145.071 59.795 145.358 60.069 145.564 60.4L151.568 68.3064L157.608 60.5329C157.824 60.1702 158.126 59.8664 158.487 59.6483C158.849 59.4302 159.258 59.3046 159.68 59.2826C159.941 59.2819 160.2 59.3353 160.44 59.4392C160.68 59.5431 160.896 59.6954 161.075 59.8866C161.265 60.0658 161.417 60.282 161.521 60.5219C161.625 60.7618 161.678 61.0204 161.679 61.2818C161.672 61.7497 161.511 62.2021 161.22 62.5684L154.111 71.6646L160.978 80.7246C161.303 81.1296 161.484 81.6311 161.492 82.15C161.494 82.4501 161.43 82.7471 161.306 83.0203C161.182 83.2935 161 83.5365 160.773 83.7325C160.33 84.1587 159.739 84.3968 159.124 84.3969C158.732 84.392 158.347 84.2889 158.005 84.0968C157.663 83.9047 157.375 83.63 157.167 83.2976L150.958 75.1678Z" fill="white"/>
<path d="M186.636 109.807H115.54C114.098 109.807 112.715 109.234 111.696 108.215C110.676 107.196 110.104 105.813 110.104 104.371C110.104 102.929 110.676 101.547 111.696 100.527C112.715 99.5079 114.098 98.9352 115.54 98.9352H186.636C188.078 98.9352 189.461 99.5079 190.48 100.527C191.5 101.547 192.072 102.929 192.072 104.371C192.072 105.813 191.5 107.196 190.48 108.215C189.461 109.234 188.078 109.807 186.636 109.807Z" fill="white"/>
<path d="M125.282 106.123C125.234 106.123 125.187 106.113 125.144 106.094C125.1 106.076 125.061 106.048 125.028 106.014C124.992 105.979 124.964 105.936 124.946 105.889C124.927 105.843 124.918 105.793 124.919 105.742C124.919 105.657 124.942 105.574 124.986 105.501L125.529 104.655H124.418C124.367 104.658 124.315 104.649 124.267 104.631C124.219 104.612 124.176 104.583 124.14 104.546C124.078 104.474 124.044 104.382 124.044 104.287C124.044 104.191 124.078 104.099 124.14 104.027C124.176 103.99 124.219 103.961 124.267 103.943C124.315 103.924 124.367 103.916 124.418 103.918L125.511 103.948L125.028 103.163C124.98 103.083 124.953 102.991 124.95 102.897C124.948 102.847 124.957 102.797 124.976 102.75C124.994 102.704 125.023 102.661 125.058 102.626C125.092 102.591 125.133 102.564 125.177 102.545C125.222 102.526 125.27 102.517 125.318 102.517C125.386 102.516 125.452 102.535 125.509 102.571C125.566 102.608 125.611 102.66 125.638 102.722L126.17 103.671L126.677 102.765C126.709 102.694 126.76 102.634 126.824 102.59C126.887 102.546 126.962 102.521 127.039 102.517C127.087 102.517 127.134 102.527 127.177 102.545C127.221 102.564 127.26 102.591 127.293 102.626C127.328 102.659 127.356 102.699 127.375 102.744C127.394 102.789 127.403 102.837 127.402 102.885C127.401 102.971 127.376 103.055 127.329 103.127L126.798 103.979L127.903 103.948C127.954 103.945 128.006 103.954 128.054 103.972C128.102 103.991 128.145 104.02 128.181 104.057C128.243 104.129 128.277 104.222 128.277 104.317C128.277 104.412 128.243 104.504 128.181 104.577C128.145 104.614 128.102 104.643 128.054 104.661C128.006 104.68 127.954 104.688 127.903 104.685H126.786L127.281 105.458C127.337 105.552 127.368 105.658 127.372 105.766C127.373 105.815 127.365 105.864 127.347 105.91C127.33 105.956 127.303 105.997 127.269 106.032C127.237 106.066 127.199 106.093 127.156 106.112C127.114 106.131 127.068 106.14 127.021 106.141C126.946 106.139 126.874 106.116 126.812 106.074C126.75 106.032 126.701 105.974 126.671 105.905L126.17 105.017L125.668 105.905C125.632 105.975 125.576 106.033 125.507 106.072C125.439 106.11 125.36 106.128 125.282 106.123Z" fill="black"/>
<path d="M130.827 106.123C130.779 106.123 130.732 106.113 130.689 106.094C130.645 106.076 130.606 106.048 130.573 106.014C130.537 105.979 130.509 105.936 130.49 105.889C130.472 105.843 130.463 105.793 130.464 105.742C130.464 105.657 130.487 105.574 130.531 105.501L131.074 104.655H129.963C129.912 104.658 129.86 104.649 129.812 104.631C129.764 104.612 129.721 104.583 129.685 104.546C129.623 104.474 129.589 104.382 129.589 104.287C129.589 104.191 129.623 104.099 129.685 104.027C129.721 103.99 129.764 103.961 129.812 103.943C129.86 103.924 129.912 103.916 129.963 103.918L131.056 103.948L130.543 103.133C130.494 103.053 130.467 102.961 130.464 102.867C130.463 102.817 130.472 102.767 130.49 102.72C130.509 102.673 130.537 102.631 130.573 102.595C130.607 102.561 130.647 102.533 130.692 102.515C130.736 102.496 130.784 102.487 130.833 102.487C130.9 102.486 130.967 102.505 131.024 102.541C131.081 102.578 131.126 102.63 131.153 102.692L131.684 103.64L132.192 102.734C132.224 102.664 132.274 102.603 132.338 102.56C132.402 102.516 132.477 102.491 132.554 102.487C132.602 102.487 132.648 102.496 132.692 102.515C132.736 102.534 132.775 102.561 132.808 102.595C132.843 102.629 132.871 102.669 132.89 102.714C132.909 102.758 132.918 102.807 132.916 102.855C132.916 102.941 132.891 103.025 132.844 103.097L132.312 103.948L133.418 103.918C133.469 103.915 133.521 103.923 133.569 103.942C133.617 103.961 133.66 103.99 133.696 104.027C133.758 104.099 133.792 104.191 133.792 104.287C133.792 104.382 133.758 104.474 133.696 104.546C133.66 104.583 133.617 104.612 133.569 104.631C133.521 104.65 133.469 104.658 133.418 104.655H132.3L132.796 105.428C132.852 105.522 132.883 105.628 132.886 105.736C132.888 105.785 132.88 105.834 132.862 105.88C132.845 105.925 132.818 105.967 132.784 106.002C132.752 106.036 132.713 106.063 132.671 106.082C132.628 106.1 132.582 106.11 132.536 106.111C132.461 106.11 132.388 106.087 132.326 106.045C132.264 106.003 132.215 105.944 132.186 105.875L131.684 104.987L131.183 105.875C131.153 105.946 131.104 106.007 131.041 106.051C130.978 106.095 130.903 106.12 130.827 106.123Z" fill="black"/>
<path d="M136.372 106.123C136.324 106.123 136.277 106.113 136.234 106.094C136.19 106.076 136.151 106.048 136.118 106.014C136.082 105.979 136.054 105.936 136.035 105.889C136.017 105.843 136.008 105.793 136.009 105.742C136.009 105.657 136.032 105.574 136.076 105.501L136.619 104.655H135.508C135.456 104.658 135.405 104.649 135.357 104.631C135.309 104.612 135.266 104.583 135.23 104.546C135.168 104.474 135.134 104.382 135.134 104.287C135.134 104.191 135.168 104.099 135.23 104.027C135.266 103.99 135.309 103.961 135.357 103.943C135.405 103.924 135.456 103.916 135.508 103.918L136.601 103.948L136.088 103.133C136.039 103.053 136.012 102.961 136.009 102.867C136.008 102.817 136.017 102.767 136.035 102.72C136.054 102.673 136.082 102.631 136.118 102.595C136.152 102.561 136.192 102.533 136.237 102.515C136.281 102.496 136.329 102.487 136.378 102.487C136.445 102.486 136.512 102.505 136.569 102.541C136.626 102.578 136.67 102.63 136.698 102.692L137.229 103.64L137.737 102.734C137.769 102.664 137.819 102.603 137.883 102.56C137.947 102.516 138.022 102.491 138.099 102.487C138.146 102.487 138.193 102.496 138.237 102.515C138.281 102.534 138.32 102.561 138.353 102.595C138.388 102.629 138.416 102.669 138.435 102.714C138.454 102.758 138.463 102.807 138.461 102.855C138.461 102.941 138.435 103.025 138.389 103.097L137.857 103.948L138.963 103.918C139.014 103.915 139.066 103.923 139.114 103.942C139.162 103.961 139.205 103.99 139.241 104.027C139.303 104.099 139.337 104.191 139.337 104.287C139.337 104.382 139.303 104.474 139.241 104.546C139.205 104.583 139.162 104.612 139.114 104.631C139.066 104.65 139.014 104.658 138.963 104.655H137.845L138.341 105.428C138.396 105.522 138.428 105.628 138.431 105.736C138.433 105.785 138.425 105.834 138.407 105.88C138.389 105.925 138.363 105.967 138.329 106.002C138.297 106.036 138.258 106.063 138.216 106.082C138.173 106.1 138.127 106.11 138.081 106.111C138.006 106.11 137.933 106.087 137.871 106.045C137.809 106.003 137.76 105.944 137.731 105.875L137.229 104.987L136.728 105.875C136.698 105.946 136.649 106.007 136.586 106.051C136.523 106.095 136.448 106.12 136.372 106.123Z" fill="black"/>
<path d="M141.94 106.123C141.893 106.123 141.846 106.113 141.802 106.094C141.759 106.076 141.719 106.048 141.687 106.014C141.651 105.979 141.623 105.936 141.604 105.889C141.586 105.843 141.577 105.793 141.578 105.742C141.578 105.657 141.601 105.574 141.644 105.501L142.188 104.655H141.077C141.025 104.658 140.974 104.649 140.926 104.631C140.878 104.612 140.835 104.583 140.799 104.546C140.737 104.474 140.703 104.382 140.703 104.287C140.703 104.191 140.737 104.099 140.799 104.027C140.835 103.99 140.878 103.961 140.926 103.943C140.974 103.924 141.025 103.916 141.077 103.918L142.17 103.948L141.657 103.133C141.608 103.053 141.581 102.961 141.578 102.867C141.577 102.817 141.586 102.767 141.604 102.72C141.623 102.673 141.651 102.631 141.687 102.595C141.721 102.561 141.761 102.533 141.806 102.515C141.85 102.496 141.898 102.487 141.946 102.487C142.014 102.486 142.081 102.505 142.137 102.541C142.194 102.578 142.239 102.63 142.267 102.692L142.798 103.64L143.305 102.734C143.337 102.664 143.388 102.603 143.452 102.56C143.516 102.516 143.591 102.491 143.668 102.487C143.715 102.487 143.762 102.496 143.806 102.515C143.849 102.534 143.889 102.561 143.922 102.595C143.957 102.629 143.985 102.669 144.004 102.714C144.022 102.758 144.031 102.807 144.03 102.855C144.029 102.941 144.004 103.025 143.958 103.097L143.426 103.948L144.532 103.918C144.583 103.915 144.634 103.923 144.682 103.942C144.73 103.961 144.774 103.99 144.809 104.027C144.871 104.099 144.906 104.191 144.906 104.287C144.906 104.382 144.871 104.474 144.809 104.546C144.774 104.583 144.73 104.612 144.682 104.631C144.634 104.65 144.583 104.658 144.532 104.655H143.414L143.909 105.428C143.965 105.522 143.997 105.628 144 105.736C144.002 105.785 143.994 105.834 143.976 105.88C143.958 105.925 143.932 105.967 143.897 106.002C143.866 106.036 143.827 106.063 143.785 106.082C143.742 106.1 143.696 106.11 143.65 106.111C143.575 106.109 143.502 106.086 143.44 106.044C143.378 106.002 143.329 105.944 143.299 105.875L142.798 104.987L142.297 105.875C142.267 105.946 142.218 106.007 142.155 106.051C142.091 106.095 142.017 106.12 141.94 106.123Z" fill="black"/>
<path d="M147.461 106.123C147.413 106.123 147.367 106.113 147.323 106.094C147.279 106.076 147.24 106.048 147.207 106.014C147.172 105.979 147.143 105.936 147.125 105.889C147.106 105.843 147.097 105.793 147.099 105.742C147.101 105.658 147.124 105.575 147.165 105.501L147.709 104.655H146.597C146.546 104.658 146.494 104.649 146.447 104.631C146.399 104.612 146.355 104.583 146.319 104.546C146.257 104.474 146.223 104.382 146.223 104.287C146.223 104.191 146.257 104.099 146.319 104.027C146.355 103.99 146.399 103.961 146.447 103.943C146.494 103.924 146.546 103.916 146.597 103.918L147.69 103.948L147.177 103.133C147.129 103.053 147.102 102.961 147.099 102.867C147.097 102.817 147.106 102.767 147.125 102.72C147.143 102.673 147.172 102.631 147.207 102.595C147.241 102.561 147.282 102.534 147.326 102.515C147.371 102.496 147.419 102.487 147.467 102.487C147.535 102.486 147.601 102.505 147.658 102.541C147.715 102.578 147.76 102.63 147.787 102.692L148.319 103.64L148.826 102.734C148.858 102.664 148.909 102.603 148.973 102.56C149.036 102.516 149.111 102.491 149.188 102.487C149.236 102.486 149.283 102.495 149.327 102.514C149.371 102.533 149.41 102.561 149.442 102.595C149.477 102.629 149.505 102.669 149.524 102.714C149.543 102.758 149.552 102.807 149.551 102.855C149.55 102.941 149.525 103.025 149.478 103.097L148.947 103.948L150.052 103.918C150.103 103.915 150.155 103.923 150.203 103.942C150.251 103.961 150.294 103.99 150.33 104.027C150.392 104.099 150.426 104.191 150.426 104.287C150.426 104.382 150.392 104.474 150.33 104.546C150.294 104.583 150.251 104.612 150.203 104.631C150.155 104.65 150.103 104.658 150.052 104.655H148.935L149.43 105.428C149.486 105.522 149.517 105.628 149.521 105.736C149.522 105.785 149.514 105.834 149.496 105.88C149.479 105.925 149.452 105.967 149.418 106.002C149.386 106.036 149.348 106.063 149.305 106.082C149.263 106.1 149.217 106.11 149.17 106.111C149.095 106.109 149.023 106.086 148.961 106.044C148.899 106.002 148.85 105.944 148.82 105.875L148.319 104.987L147.817 105.875C147.788 105.946 147.738 106.007 147.675 106.051C147.612 106.095 147.538 106.12 147.461 106.123Z" fill="black"/>
<path d="M153.005 106.123C152.958 106.123 152.911 106.113 152.867 106.094C152.824 106.076 152.784 106.048 152.752 106.014C152.716 105.979 152.688 105.936 152.669 105.889C152.65 105.843 152.642 105.793 152.643 105.742C152.646 105.658 152.669 105.575 152.709 105.501L153.253 104.655H152.148C152.095 104.658 152.043 104.65 151.994 104.631C151.945 104.613 151.901 104.584 151.864 104.546C151.802 104.474 151.768 104.382 151.768 104.287C151.768 104.191 151.802 104.099 151.864 104.027C151.901 103.99 151.945 103.961 151.994 103.942C152.043 103.923 152.095 103.915 152.148 103.918L153.235 103.948L152.721 103.133C152.673 103.053 152.646 102.961 152.643 102.867C152.642 102.817 152.65 102.767 152.669 102.72C152.688 102.673 152.716 102.631 152.752 102.595C152.786 102.561 152.826 102.534 152.871 102.515C152.915 102.496 152.963 102.487 153.011 102.487C153.079 102.486 153.145 102.505 153.202 102.541C153.259 102.578 153.304 102.63 153.332 102.692L153.863 103.64L154.37 102.734C154.402 102.664 154.453 102.603 154.517 102.56C154.581 102.516 154.656 102.491 154.733 102.487C154.78 102.486 154.828 102.495 154.871 102.514C154.915 102.533 154.954 102.561 154.986 102.595C155.022 102.629 155.05 102.669 155.069 102.714C155.087 102.758 155.096 102.807 155.095 102.855C155.094 102.941 155.069 103.025 155.023 103.097L154.491 103.948L155.597 103.918C155.648 103.915 155.699 103.923 155.747 103.942C155.795 103.961 155.839 103.99 155.874 104.027C155.936 104.099 155.971 104.191 155.971 104.287C155.971 104.382 155.936 104.474 155.874 104.546C155.839 104.583 155.795 104.612 155.747 104.631C155.699 104.65 155.648 104.658 155.597 104.655H154.479L154.974 105.428C155.03 105.522 155.061 105.628 155.065 105.736C155.067 105.785 155.059 105.834 155.041 105.88C155.023 105.925 154.996 105.967 154.962 106.002C154.931 106.036 154.892 106.063 154.85 106.082C154.807 106.1 154.761 106.11 154.715 106.111C154.64 106.109 154.567 106.086 154.505 106.044C154.443 106.002 154.394 105.944 154.364 105.875L153.863 104.987L153.362 105.875C153.332 105.946 153.283 106.007 153.22 106.051C153.156 106.095 153.082 106.12 153.005 106.123Z" fill="black"/>
<path d="M158.55 106.123C158.503 106.123 158.456 106.113 158.412 106.094C158.369 106.076 158.329 106.048 158.297 106.014C158.261 105.979 158.233 105.936 158.214 105.889C158.195 105.843 158.186 105.793 158.188 105.742C158.188 105.657 158.211 105.574 158.254 105.501L158.798 104.655H157.687C157.635 104.658 157.584 104.649 157.536 104.631C157.488 104.612 157.445 104.583 157.409 104.546C157.347 104.474 157.313 104.382 157.312 104.287C157.313 104.191 157.347 104.099 157.409 104.027C157.445 103.99 157.488 103.961 157.536 103.943C157.584 103.924 157.635 103.916 157.687 103.918L158.78 103.948L158.248 103.163C158.2 103.083 158.173 102.991 158.17 102.897C158.168 102.847 158.177 102.797 158.196 102.75C158.215 102.704 158.243 102.661 158.278 102.626C158.312 102.591 158.353 102.564 158.397 102.545C158.442 102.526 158.49 102.517 158.538 102.517C158.606 102.516 158.672 102.535 158.729 102.571C158.786 102.608 158.831 102.66 158.858 102.722L159.39 103.671L159.897 102.765C159.929 102.694 159.98 102.634 160.044 102.59C160.108 102.546 160.182 102.521 160.26 102.517C160.307 102.516 160.354 102.525 160.398 102.544C160.442 102.563 160.481 102.591 160.513 102.626C160.549 102.659 160.577 102.699 160.595 102.744C160.614 102.789 160.623 102.837 160.622 102.885C160.621 102.971 160.596 103.055 160.55 103.127L160.018 103.979L161.123 103.948C161.175 103.945 161.226 103.954 161.274 103.972C161.322 103.991 161.365 104.02 161.401 104.057C161.463 104.129 161.497 104.222 161.497 104.317C161.497 104.412 161.463 104.504 161.401 104.577C161.365 104.614 161.322 104.643 161.274 104.661C161.226 104.68 161.175 104.688 161.123 104.685H160.006L160.501 105.458C160.557 105.552 160.588 105.658 160.592 105.766C160.594 105.815 160.585 105.864 160.568 105.91C160.55 105.956 160.523 105.997 160.489 106.032C160.457 106.066 160.419 106.093 160.376 106.112C160.334 106.131 160.288 106.14 160.241 106.141C160.167 106.139 160.094 106.116 160.032 106.074C159.97 106.032 159.921 105.974 159.891 105.905L159.39 105.017L158.889 105.905C158.856 105.968 158.808 106.021 158.748 106.059C158.689 106.097 158.621 106.119 158.55 106.123Z" fill="black"/>
<path d="M164.095 106.123C164.047 106.123 164 106.113 163.957 106.094C163.913 106.076 163.874 106.048 163.841 106.014C163.805 105.979 163.777 105.936 163.759 105.889C163.74 105.843 163.731 105.793 163.732 105.742C163.735 105.658 163.758 105.575 163.799 105.501L164.343 104.655H163.237C163.186 104.659 163.134 104.651 163.086 104.632C163.038 104.614 162.995 104.584 162.959 104.546C162.894 104.476 162.857 104.383 162.857 104.287C162.857 104.19 162.894 104.097 162.959 104.027C162.995 103.989 163.038 103.96 163.086 103.941C163.134 103.922 163.186 103.914 163.237 103.918L164.324 103.948L163.811 103.133C163.763 103.053 163.736 102.961 163.732 102.867C163.731 102.818 163.739 102.769 163.757 102.723C163.775 102.676 163.802 102.634 163.836 102.599C163.87 102.563 163.912 102.535 163.957 102.516C164.003 102.497 164.051 102.487 164.101 102.487C164.169 102.486 164.235 102.505 164.292 102.541C164.349 102.578 164.394 102.63 164.421 102.692L164.953 103.64L165.46 102.734C165.492 102.664 165.543 102.604 165.606 102.56C165.67 102.516 165.745 102.491 165.822 102.487C165.87 102.485 165.917 102.494 165.961 102.513C166.005 102.532 166.044 102.56 166.076 102.595C166.111 102.629 166.139 102.669 166.158 102.714C166.177 102.758 166.186 102.807 166.185 102.855C166.184 102.941 166.159 103.025 166.112 103.097L165.581 103.948L166.686 103.918C166.737 103.915 166.789 103.923 166.837 103.942C166.885 103.961 166.928 103.99 166.964 104.027C167.026 104.099 167.06 104.191 167.06 104.287C167.06 104.382 167.026 104.474 166.964 104.546C166.928 104.583 166.885 104.612 166.837 104.631C166.789 104.65 166.737 104.658 166.686 104.655H165.569L166.064 105.428C166.12 105.522 166.151 105.628 166.155 105.736C166.156 105.784 166.148 105.831 166.132 105.876C166.115 105.92 166.09 105.961 166.057 105.996C166.024 106.031 165.985 106.059 165.942 106.079C165.899 106.098 165.852 106.109 165.804 106.111C165.729 106.109 165.657 106.086 165.595 106.044C165.533 106.002 165.484 105.944 165.454 105.875L164.953 104.987L164.451 105.875C164.421 105.946 164.372 106.007 164.309 106.051C164.246 106.095 164.172 106.12 164.095 106.123Z" fill="black"/>
<path d="M169.64 106.123C169.592 106.123 169.545 106.113 169.502 106.094C169.458 106.076 169.419 106.048 169.386 106.014C169.35 105.979 169.322 105.936 169.304 105.889C169.285 105.843 169.276 105.793 169.277 105.742C169.28 105.658 169.303 105.575 169.344 105.501L169.887 104.655H168.776C168.726 104.658 168.675 104.65 168.628 104.631C168.581 104.612 168.539 104.583 168.504 104.546C168.438 104.476 168.402 104.383 168.402 104.287C168.402 104.19 168.438 104.097 168.504 104.027C168.539 103.99 168.581 103.961 168.628 103.942C168.675 103.923 168.726 103.915 168.776 103.918L169.869 103.948L169.356 103.133C169.307 103.053 169.28 102.961 169.277 102.867C169.276 102.818 169.284 102.769 169.302 102.723C169.32 102.676 169.347 102.634 169.381 102.599C169.415 102.563 169.456 102.535 169.502 102.516C169.547 102.497 169.596 102.487 169.646 102.487C169.713 102.486 169.78 102.505 169.837 102.541C169.894 102.578 169.939 102.63 169.966 102.692L170.497 103.64L171.005 102.734C171.037 102.664 171.087 102.604 171.151 102.56C171.215 102.516 171.29 102.491 171.367 102.487C171.415 102.485 171.462 102.494 171.506 102.513C171.55 102.532 171.589 102.56 171.621 102.595C171.656 102.629 171.684 102.669 171.703 102.714C171.722 102.758 171.731 102.807 171.73 102.855C171.729 102.941 171.704 103.025 171.657 103.097L171.126 103.948L172.231 103.918C172.282 103.915 172.334 103.923 172.382 103.942C172.43 103.961 172.473 103.99 172.509 104.027C172.571 104.099 172.605 104.191 172.605 104.287C172.605 104.382 172.571 104.474 172.509 104.546C172.473 104.583 172.43 104.612 172.382 104.631C172.334 104.65 172.282 104.658 172.231 104.655H171.114L171.609 105.428C171.665 105.522 171.696 105.628 171.699 105.736C171.701 105.784 171.693 105.831 171.677 105.876C171.66 105.92 171.634 105.961 171.602 105.996C171.569 106.031 171.53 106.059 171.487 106.079C171.444 106.098 171.397 106.109 171.349 106.111C171.274 106.109 171.202 106.086 171.14 106.044C171.078 106.002 171.029 105.944 170.999 105.875L170.497 104.987L169.996 105.875C169.966 105.946 169.917 106.007 169.854 106.051C169.791 106.095 169.717 106.12 169.64 106.123Z" fill="black"/>
<path d="M175.16 106.123C175.113 106.123 175.066 106.113 175.022 106.094C174.979 106.076 174.939 106.048 174.907 106.014C174.871 105.979 174.843 105.936 174.824 105.889C174.805 105.843 174.796 105.793 174.798 105.742C174.801 105.658 174.823 105.575 174.864 105.501L175.408 104.655H174.297C174.246 104.658 174.196 104.65 174.149 104.631C174.102 104.612 174.059 104.583 174.025 104.546C173.959 104.476 173.922 104.383 173.922 104.287C173.922 104.19 173.959 104.097 174.025 104.027C174.059 103.99 174.102 103.961 174.149 103.942C174.196 103.923 174.246 103.915 174.297 103.918L175.39 103.948L174.876 103.133C174.828 103.053 174.801 102.961 174.798 102.867C174.796 102.817 174.805 102.767 174.824 102.72C174.843 102.673 174.871 102.631 174.907 102.595C174.94 102.561 174.981 102.534 175.025 102.515C175.07 102.496 175.118 102.487 175.166 102.487C175.234 102.486 175.3 102.505 175.357 102.541C175.414 102.578 175.459 102.63 175.486 102.692L176.018 103.64L176.525 102.734C176.557 102.664 176.608 102.604 176.672 102.56C176.736 102.516 176.81 102.491 176.888 102.487C176.935 102.485 176.983 102.494 177.027 102.513C177.07 102.532 177.11 102.56 177.141 102.595C177.177 102.629 177.205 102.669 177.224 102.714C177.242 102.758 177.251 102.807 177.25 102.855C177.249 102.941 177.224 103.025 177.178 103.097L176.646 103.948L177.751 103.918C177.803 103.915 177.854 103.923 177.902 103.942C177.95 103.961 177.994 103.99 178.029 104.027C178.091 104.099 178.126 104.191 178.126 104.287C178.126 104.382 178.091 104.474 178.029 104.546C177.994 104.583 177.95 104.612 177.902 104.631C177.854 104.65 177.803 104.658 177.751 104.655H176.634L177.129 105.428C177.185 105.522 177.216 105.628 177.22 105.736C177.222 105.785 177.213 105.834 177.196 105.88C177.178 105.925 177.151 105.967 177.117 106.002C177.085 106.036 177.047 106.063 177.005 106.082C176.962 106.1 176.916 106.11 176.87 106.111C176.795 106.109 176.722 106.086 176.66 106.044C176.598 106.002 176.549 105.944 176.519 105.875L176.018 104.987L175.517 105.875C175.487 105.946 175.438 106.007 175.374 106.051C175.311 106.095 175.237 106.12 175.16 106.123Z" fill="black"/>
<path d="M194.162 119.483H201.549" stroke="white" stroke-width="3" stroke-linecap="round" stroke-linejoin="round"/>
<path d="M91.7056 65.0931V114.156C91.7056 115.577 92.27 116.94 93.2747 117.944C94.2795 118.949 95.6422 119.513 97.063 119.513H187.15" stroke="white" stroke-width="3" stroke-linecap="round" stroke-linejoin="round"/>
<path d="M91.7056 52.0829V59.4397" stroke="white" stroke-width="3" stroke-linecap="round" stroke-linejoin="round"/>
</svg>
