<svg width="20" height="15" viewBox="0 0 20 15" fill="none" xmlns="http://www.w3.org/2000/svg">
<g clip-path="url(#clip0_183_2195)">
<path d="M4.54547 14.9262V7.23887L2.14898 5.05781L0 3.84747V13.5696C0 14.3202 0.611328 14.9262 1.36367 14.9262H4.54547Z" fill="#4285F4"/>
<path d="M15.4541 14.9262H18.6359C19.3905 14.9262 19.9996 14.3179 19.9996 13.5696V3.84753L17.5655 5.23383L15.4541 7.23886V14.9262Z" fill="#34A853"/>
<path d="M4.54582 7.23886L4.21973 4.2352L4.54582 1.36041L10.0004 5.43015L15.4549 1.36041L15.8196 4.08L15.4549 7.23886L10.0004 11.3086L4.54582 7.23886Z" fill="#EA4335"/>
<path d="M15.4541 1.36042V7.23887L19.9996 3.84747V2.03869C19.9996 0.361095 18.0746 -0.595253 16.7269 0.410835L15.4541 1.36042Z" fill="#FBBC04"/>
<path d="M0 3.84747L2.09055 5.40732L4.54547 7.23887V1.36043L3.27266 0.410841C1.92266 -0.595325 0 0.3611 0 2.03861V3.84739V3.84747Z" fill="#C5221F"/>
</g>
<defs>
<clipPath id="clip0_183_2195">
<rect width="20" height="15" fill="white"/>
</clipPath>
</defs>
</svg>
