<svg width="104" height="104" viewBox="0 0 104 104" fill="none" xmlns="http://www.w3.org/2000/svg">
<path d="M38.8815 92.9178C60.4407 96.8927 81.8917 78.9631 91.7613 61.776C98.3175 50.3527 100.932 36.945 97.1049 26.0354C94.301 18.0399 87.2477 10.2939 76.7521 9.95491C65.0728 9.56803 55.6629 21.008 43.6572 20.7855C31.6514 20.5629 17.472 25.4759 10.608 34.397C3.74405 43.3181 2.32757 59.5837 8.17445 72.2051C11.5024 79.3999 17.4055 85.5629 25.0744 89.3027C29.2906 91.3599 33.8437 91.9423 38.6173 92.8679L38.8815 92.9178Z" fill="#6EB6FF"/>
<path opacity="0.8" d="M38.8815 92.9178C60.4407 96.8927 81.8917 78.9631 91.7613 61.776C98.3175 50.3527 100.932 36.945 97.1049 26.0354C94.301 18.0399 87.2477 10.2939 76.7521 9.95491C65.0728 9.56803 55.6629 21.008 43.6572 20.7855C31.6514 20.5629 17.472 25.4759 10.608 34.397C3.74405 43.3181 2.32757 59.5837 8.17445 72.2051C11.5024 79.3999 17.4055 85.5629 25.0744 89.3027C29.2906 91.3599 33.8437 91.9423 38.6173 92.8679L38.8815 92.9178Z" fill="white"/>
<path d="M8.62793 84.4313L57.2687 65.2163L100.554 87.2705" stroke="#263238" stroke-width="0.5" stroke-miterlimit="10" stroke-linecap="round"/>
<path d="M57.2686 65.2165V5.61621" stroke="#263238" stroke-width="0.5" stroke-miterlimit="10" stroke-linecap="round"/>
<path d="M34.162 93.6127L32.993 95.4015C32.9623 95.4473 32.941 95.4987 32.9304 95.5528C32.9197 95.6068 32.9199 95.6625 32.9309 95.7165C32.942 95.7705 32.9636 95.8217 32.9946 95.8673C33.0256 95.9128 33.0654 95.9518 33.1116 95.9818L33.4381 96.2002C33.5236 96.259 33.628 96.2836 33.7307 96.2694C33.8335 96.2551 33.9272 96.203 33.9935 96.1233C35.3517 94.5092 42.0285 86.6114 43.21 85.8002C44.5245 84.8954 56.938 83.0858 56.938 83.0858C56.916 82.903 56.8288 82.7341 56.6924 82.6104C56.556 82.4866 56.3796 82.4161 56.1954 82.4119C53.7743 82.3578 45.5167 82.1686 45.0944 82.0978C44.6015 82.0167 44.0253 82.0167 44.1085 81.4406C44.1668 81.0246 44.9634 79.3086 45.394 78.3975C45.4261 78.3298 45.4423 78.2555 45.4412 78.1805C45.4401 78.1055 45.4217 78.0318 45.3875 77.965C45.3533 77.8982 45.3042 77.8402 45.244 77.7955C45.1838 77.7507 45.1141 77.7205 45.0404 77.707C44.9572 77.6915 44.8715 77.6979 44.7916 77.7256C44.7118 77.7534 44.6405 77.8014 44.5848 77.865C43.8298 78.7303 40.9344 82.025 40.0775 82.5929C39.2205 83.1607 28.6541 86.2641 25.8732 87.0753C25.8027 87.0945 25.7386 87.132 25.6873 87.1839C25.6359 87.2358 25.5991 87.3002 25.5805 87.3709C25.562 87.4415 25.5624 87.5157 25.5816 87.5862C25.6008 87.6566 25.6383 87.7207 25.6901 87.7721C25.7388 87.8232 25.7996 87.861 25.8669 87.8821C25.9342 87.9033 26.0058 87.9069 26.0749 87.8927C27.6765 87.5662 37.2404 85.6214 37.6938 85.4695C38.1868 85.3052 39.6677 85.3884 37.9392 88.1028C36.2108 90.8172 34.162 93.6127 34.162 93.6127Z" fill="#263238"/>
<path d="M41.007 86.1788C40.4922 86.1783 39.9986 85.9734 39.6347 85.6091C39.2708 85.2448 39.0664 84.751 39.0664 84.2361V68.2659C39.0829 67.7619 39.2947 67.2841 39.657 66.9334C40.0194 66.5828 40.5038 66.3867 41.0081 66.3867C41.5123 66.3867 41.9968 66.5828 42.3591 66.9334C42.7215 67.2841 42.9333 67.7619 42.9498 68.2659V84.2403C42.9487 84.7548 42.7435 85.2479 42.3793 85.6113C42.0151 85.9747 41.5216 86.1788 41.007 86.1788Z" fill="#263238"/>
<path d="M21.4072 57.791L23.1669 63.5651" stroke="#263238" stroke-width="4" stroke-miterlimit="10" stroke-linecap="round"/>
<path d="M16.3924 59.4882C16.2988 59.7732 20.0032 61.1917 20.0032 61.1917L26.0976 57.9136C26.0976 57.9136 25.2178 56.1789 22.0084 55.6776C18.7989 55.1764 16.7938 58.2922 16.3924 59.4882Z" fill="#8C8C8C" stroke="#263238" stroke-width="0.5" stroke-linecap="round" stroke-linejoin="round"/>
<path d="M20.0034 61.1999C20.0034 61.1999 20.5047 58.2879 22.41 57.0898C24.3153 55.8917 26.0978 57.9218 26.0978 57.9218L20.0034 61.1999Z" fill="#5E5E5E" stroke="#263238" stroke-width="0.5" stroke-linecap="round" stroke-linejoin="round"/>
<path d="M36.1088 71.0591C36.1088 71.0591 32.8495 85.8271 32.1568 87.541C30.9671 90.505 27.6162 91.3994 24.7687 90.4218C20.6711 89.0241 19.8807 84.9119 19.8952 81.0244C19.9098 77.4884 20.7023 74.1604 21.5384 70.7638C21.9399 69.1268 22.2955 67.4774 22.6637 65.8342C22.7261 65.5596 22.9091 63.698 23.1671 63.5649L37.232 56.3244C37.232 56.3244 44.9634 34.9566 47.5509 30.0519C50.1384 25.1473 54.5563 23.8556 58.3128 24.4671C61.5431 24.9934 64.3074 28.0031 63.2175 34.8214C62.1275 41.6396 51.9855 63.5254 51.713 64.6111C51.4405 65.6969 36.1088 71.0591 36.1088 71.0591Z" fill="#8C8C8C" stroke="#263238" stroke-width="0.5" stroke-linecap="round" stroke-linejoin="round"/>
<path d="M36.1086 71.4668C36.0358 71.4668 35.9642 71.4482 35.9006 71.4127L22.9589 63.9247C22.9024 63.9031 22.8513 63.8695 22.8091 63.8261C22.767 63.7828 22.7348 63.7307 22.7148 63.6737C22.6948 63.6166 22.6875 63.5559 22.6934 63.4957C22.6993 63.4355 22.7182 63.3773 22.7488 63.3252C22.7795 63.2731 22.8212 63.2283 22.8709 63.1939C22.9206 63.1595 22.9773 63.1364 23.0369 63.1261C23.0965 63.1159 23.1576 63.1188 23.2159 63.1345C23.2743 63.1503 23.3286 63.1786 23.3749 63.2175L36.3166 70.7055C36.3892 70.754 36.4447 70.8241 36.4752 70.9058C36.5058 70.9876 36.5098 71.0769 36.4868 71.1611C36.4638 71.2453 36.4149 71.3201 36.3471 71.3749C36.2792 71.4298 36.1958 71.4619 36.1086 71.4668Z" fill="#8C8C8C" stroke="#263238" stroke-linecap="round" stroke-linejoin="round"/>
<path d="M51.2304 65.2354C51.1574 65.2353 51.0856 65.2159 51.0224 65.1793L37.024 56.8489C36.9487 56.7856 36.8982 56.6977 36.8815 56.6008C36.8648 56.5038 36.883 56.4041 36.9329 56.3193C36.9828 56.2345 37.0611 56.1702 37.1539 56.1377C37.2468 56.1051 37.3481 56.1066 37.44 56.1417L51.4384 64.4617C51.5312 64.5172 51.5987 64.6066 51.6267 64.7111C51.6546 64.8155 51.6408 64.9268 51.5882 65.0212C51.5527 65.0852 51.5009 65.1388 51.4381 65.1764C51.3753 65.214 51.3036 65.2344 51.2304 65.2354Z" fill="#8C8C8C" stroke="#263238" stroke-linecap="round" stroke-linejoin="round"/>
<path d="M51.584 65.0293L36.1088 71.0592L33.3403 83.3624" stroke="#263238" stroke-width="4" stroke-miterlimit="10" stroke-linecap="round"/>
<path d="M48.0063 29.1475L63.2881 34.3787" stroke="#263238" stroke-linecap="round" stroke-linejoin="round"/>
<path d="M49.0547 30.8424L59.619 34.7112L60.867 31.8283L51.091 28.2923C51.091 28.2923 49.4769 27.6891 49.0547 30.8424Z" fill="#8C8C8C" stroke="#263238" stroke-width="0.5" stroke-linecap="round" stroke-linejoin="round"/>
<path d="M59.619 34.711C59.619 34.711 58.7516 31.9633 60.867 31.8281L59.619 34.711Z" fill="#5E5E5E" stroke="#263238" stroke-linecap="round" stroke-linejoin="round"/>
<path d="M39.9173 20.12C39.9173 20.12 39.1831 18.4248 36.8639 17.624C34.5447 16.8232 30.992 18.9282 29.5131 20.8002C28.0343 22.6722 27.3063 25.6071 27.7035 27.5852C28.1008 29.5632 30.1351 31.3188 30.4179 31.9968C30.7008 32.6749 30.757 32.9016 30.0207 33.2968C29.2843 33.692 29.2303 33.4674 29.2864 33.692C29.3426 33.9167 30.2474 34.4284 30.9837 34.4845C31.4651 34.5083 31.9462 34.4311 32.396 34.2578L32.2837 35.0503C32.2837 35.0503 32.9618 35.3332 34.2618 34.9941C35.5618 34.6551 36.1338 34.0893 36.1338 34.0893C36.1338 34.0893 37.1509 34.5407 37.7167 34.5407C38.2129 34.5115 38.7053 34.4356 39.1872 34.314L39.2434 33.7503C39.6386 33.7835 40.0359 33.7835 40.4311 33.7503C41.0551 33.692 42.2407 32.9016 42.2407 32.9016L41.6749 32.053C41.8574 32.1213 42.0519 32.1515 42.2465 32.1418C42.441 32.1322 42.6316 32.0828 42.8064 31.9968C43.4845 31.714 43.9941 30.9776 43.9941 30.9776C43.9941 30.9776 42.8626 31.1482 42.8626 30.2434C42.8626 29.3386 44.2187 27.19 43.4283 23.7954C42.6379 20.4008 41.3317 19.1591 39.9173 20.12Z" fill="#263238" stroke="#263238" stroke-width="0.5" stroke-miterlimit="10"/>
<path d="M29.7274 48.0713L29.457 51.7009C29.457 51.7009 30.081 53.4918 31.25 53.2692C32.419 53.0467 32.7726 51.9692 32.9972 51.029C33.1595 50.2597 33.2789 49.482 33.355 48.6994L29.7274 48.0713Z" fill="white" stroke="#263238" stroke-linecap="round" stroke-linejoin="round"/>
<path d="M23.1671 60.9086C23.1671 60.9086 21.4657 61.6575 20.6482 62.9533C19.8308 64.2491 20.3841 66.56 20.5796 68.4694C20.7751 70.3789 22.1458 81.3426 22.1458 82.7736C22.1458 84.2047 21.6695 85.3632 21.397 85.5671C21.1245 85.7709 18.8761 87.1333 17.5137 87.6783C16.1513 88.2232 15.3338 87.8863 15.13 88.4271C14.9261 88.9679 15.338 89.3131 15.754 89.4483C16.17 89.5835 18.5453 90.1306 19.498 89.8643C20.4506 89.5981 20.9956 89.2507 22.6991 88.9096C24.4026 88.5685 25.1514 88.9783 25.2201 87.2768C25.2887 85.5754 25.0828 83.7408 25.1514 81.8272C25.2201 79.9136 26.0375 75.0152 26.1061 72.0179C26.1748 69.0206 26.1727 66.3645 26.1727 66.3645L30.601 63.7749C30.1072 62.6378 29.2428 61.7015 28.1487 61.1187C26.3682 60.2285 23.1671 60.9086 23.1671 60.9086Z" fill="white" stroke="#263238" stroke-width="0.5" stroke-miterlimit="10" stroke-linecap="round"/>
<path d="M16.5899 88.1922C16.5899 88.1922 15.7891 88.0903 15.7371 88.6311C15.6851 89.1719 15.8411 89.3799 16.28 89.4839" stroke="#263238" stroke-width="0.5" stroke-miterlimit="10" stroke-linecap="round"/>
<path d="M28.7371 62.5854C28.7371 62.5854 25.771 64.4096 25.5443 65.3227C25.3176 66.2358 24.575 73.5345 24.575 75.3067C24.575 77.0788 23.6619 85.9147 23.4331 86.6573C23.2043 87.3998 22.52 87.6827 21.2657 88.0821C20.0115 88.4814 18.5285 88.8163 18.1291 88.8163C17.7297 88.8163 16.6461 88.5313 16.5337 88.9889C16.5173 89.0521 16.5089 89.1171 16.5088 89.1824C16.5127 89.3727 16.5724 89.5576 16.6803 89.7144C16.7883 89.8711 16.9398 89.9928 17.1161 90.0643L17.1598 90.083C17.1598 90.083 18.9278 91.0523 19.3272 91.1667C19.6995 91.2663 20.0819 91.3235 20.467 91.3373C20.6958 91.3373 21.4945 91.279 22.6344 91.279C23.7742 91.279 25.3717 91.279 25.9998 90.8817C26.628 90.4844 26.5136 89.6337 26.5136 88.8267C26.5136 88.0196 26.8547 84.6064 27.7117 82.4411C28.5686 80.2758 30.4489 76.9083 30.7901 74.3416C31.1312 71.7749 31.075 68.4677 31.075 68.4677L33.128 67.4984C33.0121 66.2457 32.5369 65.0532 31.7593 64.0643C30.4489 62.3566 28.7371 62.5854 28.7371 62.5854Z" fill="white" stroke="#263238" stroke-width="0.5" stroke-miterlimit="10" stroke-linecap="round"/>
<path d="M17.1602 90.0745C17.1602 90.0745 17.2184 89.5025 18.0733 89.3901" stroke="#263238" stroke-width="0.5" stroke-miterlimit="10" stroke-linecap="round"/>
<path d="M17.7881 90.3595C17.7881 90.3595 17.8442 89.8457 18.5868 89.7896" stroke="#263238" stroke-width="0.5" stroke-miterlimit="10" stroke-linecap="round"/>
<path d="M18.5288 90.759C18.5782 90.5986 18.6761 90.4574 18.8091 90.3549C18.9421 90.2525 19.1036 90.1938 19.2714 90.187" stroke="#263238" stroke-width="0.5" stroke-miterlimit="10" stroke-linecap="round"/>
<path d="M19.3272 91.1582C19.3272 91.1582 19.0984 90.6444 20.0677 90.7006" stroke="#263238" stroke-width="0.5" stroke-miterlimit="10" stroke-linecap="round"/>
<path d="M34.6798 33.3218C34.6798 33.3218 35.2248 34.7528 35.0958 35.2291C34.9669 35.7055 32.8494 36.1152 31.8947 36.5229C30.94 36.9306 29.6462 42.9272 29.0347 44.2896C28.5828 45.3549 28.1945 46.446 27.872 47.5573C27.872 47.5573 29.1658 48.5807 30.187 48.8531C31.2083 49.1256 31.616 49.1922 31.616 49.1922C31.616 49.1922 32.9098 51.5093 33.1822 52.3267C33.4547 53.1442 33.7272 54.0968 33.4547 54.3693C33.1822 54.6418 31.3435 56.208 30.9358 56.4805C30.5282 56.753 24.7374 59.7503 23.6558 60.4325L22.5659 61.1127C22.5659 61.1127 26.0395 61.3851 28.4918 62.7475C30.9442 64.1099 32.7142 67.9933 32.7142 67.9933C32.7142 67.9933 42.4549 66.1546 45.0424 64.0413C47.6299 61.928 47.632 60.7133 47.632 58.2527C47.632 55.792 47.1557 48.9883 47.1557 47.3535C47.1557 45.7186 45.7246 37.2051 44.9072 36.3877C44.0898 35.5703 39.389 35.5016 39.2538 35.0939C39.1186 34.6863 38.8378 33.3218 38.8378 33.3218H34.6798Z" fill="#6EB6FF" stroke="#263238" stroke-width="0.5" stroke-miterlimit="10"/>
<path d="M35.6074 50.207C36.4623 50.9683 37.8767 52.1082 39.3181 52.7384" stroke="#263238" stroke-width="0.5" stroke-miterlimit="10" stroke-linecap="round"/>
<path d="M34.7881 49.4312C34.7881 49.4312 34.8921 49.5372 35.0772 49.714" stroke="#263238" stroke-width="0.5" stroke-miterlimit="10" stroke-linecap="round"/>
<path d="M36.585 52.0918C36.585 52.0918 38.5984 53.4584 39.8214 53.8889" stroke="#263238" stroke-width="0.5" stroke-miterlimit="10" stroke-linecap="round"/>
<path d="M46.5649 59.6089C46.6386 59.8303 46.6922 60.058 46.7251 60.2891" stroke="#263238" stroke-width="0.5" stroke-miterlimit="10" stroke-linecap="round"/>
<path d="M44.9282 57.9155C45.5281 58.1065 46.0305 58.5225 46.3301 59.0762" stroke="#263238" stroke-width="0.5" stroke-miterlimit="10" stroke-linecap="round"/>
<path d="M38.4551 55.5361C38.6631 55.5985 38.8711 55.6485 39.0312 55.6797" stroke="#263238" stroke-width="0.5" stroke-miterlimit="10" stroke-linecap="round"/>
<path d="M35.4351 54.3921C35.4351 54.3921 36.5853 54.8996 37.6773 55.2886" stroke="#263238" stroke-width="0.5" stroke-miterlimit="10" stroke-linecap="round"/>
<path d="M36.7909 38.9064C39.574 38.6672 40.7658 36.6725 41.2297 35.5119C40.1772 35.3788 39.3015 35.2664 39.2433 35.0959C39.106 34.6799 38.8273 33.3237 38.8273 33.3237H34.6673C34.6673 33.3237 35.2122 34.7548 35.0833 35.2311C35.0292 35.4225 34.6527 35.6034 34.1618 35.7781C33.9247 36.7037 33.5711 39.1852 36.7909 38.9064Z" fill="white" stroke="#263238" stroke-width="0.5" stroke-miterlimit="10"/>
<path d="M36.9285 35.2375C37.7451 35.0466 38.4639 34.5644 38.9503 33.8813C38.8837 33.5672 38.8338 33.3218 38.8338 33.3218H34.6738C34.6738 33.3218 35.1668 34.6218 35.0898 35.1543C35.6892 35.3166 36.317 35.345 36.9285 35.2375Z" fill="#263238" stroke="#263238" stroke-miterlimit="10"/>
<path d="M38.6733 23.0049C37.4413 23.9711 36.1368 24.841 34.7712 25.607C32.6226 26.7926 31.6055 27.479 31.6055 27.479C31.6055 27.479 32.7911 31.381 33.0739 32.342C33.5274 33.8687 36.0712 34.8858 37.7123 34.5468C39.3535 34.2078 40.4267 32.5105 40.5391 31.2188C40.6514 29.9271 40.3144 26.2996 40.3144 26.2996C40.3144 26.2996 38.6733 25.3761 38.6733 23.0049Z" fill="white" stroke="#263238" stroke-miterlimit="10"/>
<path d="M34.1455 29.22L35.2812 29.0308" stroke="#263238" stroke-width="0.2" stroke-miterlimit="10"/>
<path d="M38.9936 28.2734L37.9702 28.6894" stroke="#263238" stroke-width="0.2" stroke-miterlimit="10"/>
<path d="M36.8807 26.7075C36.8807 26.7075 36.9286 28.2758 37.0222 28.5608C37.1158 28.8458 37.7835 29.0371 37.4507 29.7027C37.1179 30.3683 36.263 30.5597 35.9302 29.8941" stroke="#263238" stroke-width="0.5" stroke-miterlimit="10"/>
<path d="M35.0146 28.1197C35.1041 28.467 35.0438 28.7832 34.8774 28.8269C34.711 28.8706 34.503 28.6189 34.4114 28.2757C34.3199 27.9325 34.3844 27.6122 34.5487 27.5685C34.713 27.5248 34.9231 27.7723 35.0146 28.1197Z" fill="#263238"/>
<path d="M38.355 27.5584C38.3945 27.914 38.2885 28.2198 38.1179 28.2385C37.9473 28.2572 37.7768 27.9827 37.7373 27.627C37.6977 27.2713 37.8038 26.9635 37.9765 26.9448C38.1491 26.926 38.3176 27.2006 38.355 27.5584Z" fill="#263238"/>
<path d="M33.415 27.1901C33.415 27.1901 33.6979 26.1147 34.8274 26.3415" stroke="#263238" stroke-width="0.5" stroke-miterlimit="10" stroke-linecap="round"/>
<path d="M37.0347 26.2853C37.0347 26.2853 38.1641 25.6072 38.8443 26.3976" stroke="#263238" stroke-width="0.5" stroke-miterlimit="10" stroke-linecap="round"/>
<path d="M35.5679 31.431C35.5679 31.431 37.0384 32.055 38.1679 30.9214" stroke="#263238" stroke-width="0.5" stroke-miterlimit="10"/>
<path d="M31.8242 28.2631C31.8242 28.2631 31.1461 27.4727 30.8633 28.3775C30.5804 29.2823 31.0338 29.6255 31.3729 29.9042C31.7119 30.1829 32.5044 30.4138 32.5044 30.4138L31.8242 28.2631Z" stroke="#263238" stroke-miterlimit="10"/>
<path d="M40.3706 27.19C40.3706 27.19 40.9946 26.0023 41.2754 27.19C41.5562 28.3776 40.5869 29.5279 40.5308 29.6964L40.3706 27.19Z" stroke="#263238" stroke-miterlimit="10"/>
<path d="M42.7858 50.6919L42.6485 53.4167C42.6485 53.4167 37.8125 58.1841 36.5874 58.9329C35.3623 59.6817 34.0664 60.2953 34.0664 60.2953C34.0664 60.2953 32.6624 60.8236 32.1591 61.0253C31.4872 61.2937 30.0083 61.6493 29.5611 61.9197C29.1139 62.1901 28.128 63.2197 27.6351 63.8458C27.1421 64.4719 26.5139 64.9669 26.6949 65.1916C26.8759 65.4162 27.2773 65.0106 27.2773 65.0106C27.2773 65.0106 26.7843 65.6346 27.0069 65.8634C27.2295 66.0922 27.6309 65.774 27.6309 65.774C27.6309 65.774 27.3626 66.3564 27.6746 66.4458C27.9866 66.5353 28.4816 66.086 28.4816 66.086C28.4816 66.086 28.3922 66.5789 29.1056 66.1754C29.8191 65.7719 31.1648 64.6092 31.1648 64.6092C31.1648 64.6092 32.3296 64.4282 33.0015 63.8916C33.4665 63.475 33.8471 62.973 34.1226 62.4127L34.8069 61.9967C34.8069 61.9967 38.3429 60.8381 41.2112 59.5444C44.0796 58.2506 46.4549 56.4119 46.5236 56.2164C46.5922 56.0209 46.6588 50.8354 46.6588 50.8354C46.6588 50.8354 43.6802 50.7522 42.7858 50.6919Z" fill="white" stroke="#263238" stroke-width="0.5" stroke-linecap="round" stroke-linejoin="round"/>
<path d="M27.2773 65.0107C27.2773 65.0107 28.5253 63.7128 28.8436 63.3987C29.0311 63.2101 29.2406 63.0446 29.4676 62.9058" stroke="#263238" stroke-width="0.5" stroke-linecap="round" stroke-linejoin="round"/>
<path d="M27.6348 65.7738C27.6348 65.7738 28.8432 64.4738 29.1573 64.1597C29.4669 63.8822 29.7964 63.6277 30.1432 63.3984" stroke="#263238" stroke-width="0.5" stroke-linecap="round" stroke-linejoin="round"/>
<path d="M28.4961 66.0861C28.8102 65.8177 30.0644 64.3846 30.4679 64.2494C30.6549 64.1964 30.835 64.1217 31.0046 64.0269" stroke="#263238" stroke-width="0.5" stroke-linecap="round" stroke-linejoin="round"/>
<path d="M42.8482 40.9512L41.5586 50.9602C42.5473 51.3883 43.6159 51.601 44.6932 51.5842C46.6005 51.5842 48.5079 50.4256 48.5079 50.4256C48.5079 50.4256 46.4632 38.4365 46.0556 37.3466C45.6479 36.2567 44.1482 36.1215 43.8071 36.1901" fill="#6EB6FF"/>
<path d="M42.8482 40.9512L41.5586 50.9602C42.5473 51.3883 43.6159 51.601 44.6932 51.5842C46.6005 51.5842 48.5079 50.4256 48.5079 50.4256C48.5079 50.4256 46.4632 38.4365 46.0556 37.3466C45.6479 36.2567 44.1482 36.1215 43.8071 36.1901" stroke="#263238" stroke-width="0.5" stroke-miterlimit="10"/>
<path d="M31.4789 39.0439C31.4789 39.0439 31.2709 41.9039 30.934 43.4723C30.597 45.0406 30.6615 47.7633 31.6141 49.1923" stroke="#263238" stroke-width="0.5" stroke-miterlimit="10"/>
<path d="M23.2316 61.5557C23.2316 61.5557 22.021 62.8557 21.8422 63.2197C21.5953 63.7674 21.4003 64.337 21.2598 64.9211C21.2598 65.1021 21.3055 65.2352 21.6175 65.0105C21.9295 64.7859 22.1562 63.9809 22.3351 63.6669C22.514 63.3528 23.0964 62.4189 23.0964 62.4189" stroke="#263238" stroke-width="0.5" stroke-linecap="round" stroke-linejoin="round"/>
<path d="M29.6818 51.2075C29.6818 51.2075 28.2924 53.716 27.71 55.1491C27.2503 56.2848 26.5077 58.1797 26.2186 58.9181C25.8712 59.2155 24.07 60.761 23.5437 61.2872C22.9025 61.9521 22.4402 62.7686 22.2 63.6605C22.0212 64.4675 21.7965 65.3245 21.9775 65.5866C22 65.6229 22.0297 65.6542 22.0648 65.6786C22.0998 65.7031 22.1395 65.7201 22.1814 65.7286C22.2232 65.7372 22.2664 65.7371 22.3082 65.7284C22.3501 65.7198 22.3897 65.7026 22.4247 65.6781L22.7824 65.6323C22.7824 65.6323 23.0965 66.1253 23.5 65.5429C23.9036 64.9605 24.5754 63.8789 24.798 63.6605C25.0205 63.4421 25.9191 62.7203 25.9191 62.7203C25.6505 63.2908 25.3513 63.8463 25.0226 64.3843C24.7543 64.7421 25.1578 65.0083 25.4261 64.6984C25.6944 64.3885 26.6367 63.3984 27.0381 62.6371C27.4396 61.8758 27.4874 60.711 27.5311 60.5322C27.5581 60.424 27.6808 60.0808 27.7744 59.8187C27.7744 59.8187 29.3677 57.7096 30.5325 56.5885C31.6973 55.4674 32.0571 53.0962 32.3692 52.3328" fill="white"/>
<path d="M29.6818 51.2075C29.6818 51.2075 28.2924 53.716 27.71 55.1491C27.2503 56.2848 26.5077 58.1797 26.2186 58.9181C25.8712 59.2155 24.07 60.761 23.5437 61.2872C22.9025 61.9521 22.4402 62.7686 22.2 63.6605C22.0212 64.4675 21.7965 65.3245 21.9775 65.5866C22 65.6229 22.0297 65.6542 22.0648 65.6786C22.0998 65.7031 22.1395 65.7201 22.1814 65.7286C22.2232 65.7372 22.2664 65.7371 22.3082 65.7284C22.3501 65.7198 22.3897 65.7026 22.4247 65.6781L22.7824 65.6323C22.7824 65.6323 23.0965 66.1253 23.5 65.5429C23.9036 64.9605 24.5754 63.8789 24.798 63.6605C25.0205 63.4421 25.9191 62.7203 25.9191 62.7203C25.6505 63.2908 25.3513 63.8463 25.0226 64.3843C24.7543 64.7421 25.1578 65.0083 25.4261 64.6984C25.6944 64.3885 26.6367 63.3984 27.0381 62.6371C27.4396 61.8758 27.4874 60.711 27.5311 60.5322C27.5581 60.424 27.6808 60.0808 27.7744 59.8187C27.7744 59.8187 29.3677 57.7096 30.5325 56.5885C31.6973 55.4674 32.0572 53.0962 32.3692 52.3328" stroke="#263238" stroke-width="0.5" stroke-linecap="round" stroke-linejoin="round"/>
<path d="M22.7822 65.6326C22.7822 65.6326 23.635 63.8418 23.9928 63.3925C24.2667 63.0336 24.5208 62.66 24.7541 62.2734" stroke="#263238" stroke-width="0.5" stroke-linecap="round" stroke-linejoin="round"/>
<path d="M22.4243 65.6781C22.4243 65.6781 22.4701 64.3323 22.7821 63.6168C23.0941 62.9013 23.9469 61.8696 23.9469 61.8696" stroke="#263238" stroke-width="0.5" stroke-linecap="round" stroke-linejoin="round"/>
<path d="M35.647 65.5117L36.7494 70.928" stroke="#263238" stroke-width="4" stroke-miterlimit="10" stroke-linecap="round"/>
<path d="M30.3329 66.2149C30.2372 66.4999 33.9417 67.9184 33.9417 67.9184L40.0361 64.6424C40.0361 64.6424 39.1562 62.9056 35.9489 62.4043C32.7415 61.9031 30.7343 65.0106 30.3329 66.2149Z" fill="#8C8C8C" stroke="#263238" stroke-width="0.5" stroke-linecap="round" stroke-linejoin="round"/>
<path d="M33.9414 67.9186C33.9414 67.9186 34.4427 65.0066 36.348 63.8085C38.2532 62.6105 40.0358 64.6405 40.0358 64.6405L33.9414 67.9186Z" fill="#5E5E5E" stroke="#263238" stroke-width="0.5" stroke-linecap="round" stroke-linejoin="round"/>
<path d="M82.3683 61.4704C81.7298 61.1168 81.1307 60.8631 80.7855 61.0544L76.2989 63.5213C74.5577 64.4784 73.2623 66.0816 72.6922 67.985L67.4922 85.3363L76.7523 89.8312L90.6883 65.6263L82.3683 61.4704Z" fill="white" stroke="#263238" stroke-width="0.5" stroke-miterlimit="10" stroke-linecap="round"/>
<path d="M85.4714 85.0387L76.7583 89.8227L81.9583 72.4693C82.5308 70.5697 83.8259 68.9707 85.565 68.016L90.0495 65.5512C90.1723 65.4829 90.3127 65.4529 90.4527 65.465C90.5927 65.4771 90.7258 65.5307 90.8351 65.619C90.9444 65.7073 91.0248 65.8262 91.0661 65.9605C91.1073 66.0948 91.1075 66.2384 91.0666 66.3728L85.4714 85.0387Z" fill="#8C8C8C" stroke="#263238" stroke-width="0.5" stroke-linecap="round" stroke-linejoin="round"/>
<path d="M71.3546 75.708L78.8468 79.3854L76.8042 85.5152L69.4473 81.8378L71.3546 75.708Z" fill="#8C8C8C" stroke="#263238" stroke-width="0.5" stroke-linecap="round" stroke-linejoin="round"/>
<path d="M79.5101 72.1944L79.2022 73.1783L78.2205 72.6895L78.5075 71.7306L77.3614 71.2002L77.0765 72.1154L76.0947 71.6266L76.361 70.7363L75.2253 70.2122L74.9486 71.0941L73.9669 70.6032L74.2248 69.7483L73.2618 69.3032L72.7168 70.8029L80.209 74.3451L80.756 72.7706L79.5101 72.1944Z" fill="#8C8C8C" stroke="#263238" stroke-width="0.5" stroke-linecap="round" stroke-linejoin="round"/>
<path d="M68.3573 59.0864L65.8239 60.505C65.7168 60.5654 65.624 60.6481 65.5516 60.7474C65.4791 60.8468 65.4288 60.9605 65.404 61.0809C65.3791 61.2013 65.3804 61.3256 65.4076 61.4455C65.4348 61.5653 65.4874 61.678 65.5618 61.7759C65.6416 61.8795 65.7441 61.9634 65.8613 62.0213L78.3018 68.2239C79.1479 68.6389 80.1151 68.7356 81.0266 68.4963C82.1602 68.1781 85.6962 66.2395 87.3602 65.3119C87.6323 65.1599 87.8621 64.9423 88.0288 64.679C88.1956 64.4156 88.2939 64.1148 88.3149 63.8039L88.3836 62.7639L86.6114 62.3479L79.8015 66.98C79.5098 67.1423 79.1816 67.2275 78.8478 67.2275C78.514 67.2275 78.1858 67.1423 77.8941 66.98C76.8042 66.4351 67.2674 61.3952 67.2674 61.3952C67.2674 61.3952 66.816 61.025 67.4754 60.5923C67.9309 60.2928 69.3162 59.4879 69.3162 59.4879L68.3573 59.0864Z" fill="white" stroke="#263238" stroke-width="0.5" stroke-miterlimit="10" stroke-linecap="round"/>
<path d="M88.2462 49.5498L85.9312 53.7743L89.7459 55.4092L92.7432 51.1847L88.2462 49.5498Z" fill="white" stroke="#263238" stroke-miterlimit="10" stroke-linecap="round"/>
<path d="M87.2583 51.3552L91.4578 52.9943L92.7433 51.1847L88.2463 49.5498L87.2583 51.3552Z" fill="#263238" stroke="#263238" stroke-miterlimit="10" stroke-linecap="round"/>
<path d="M82.5761 51.1949L93.9745 56.0975C94.2275 56.2066 94.4334 56.402 94.5557 56.6489C94.678 56.8957 94.7086 57.178 94.6422 57.4453L94.3157 58.7453C94.2017 59.2027 93.9896 59.6297 93.694 59.9968C93.3983 60.3639 93.0263 60.6622 92.6038 60.8711L82.4493 65.886C82.0288 66.0936 81.5662 66.2016 81.0973 66.2016C80.6283 66.2016 80.1657 66.0936 79.7453 65.886L67.9205 60.037C67.8014 59.9779 67.7005 59.8877 67.6285 59.776C67.5565 59.6642 67.5161 59.535 67.5116 59.4021C67.5072 59.2693 67.5387 59.1376 67.603 59.0213C67.6673 58.9049 67.7619 58.8081 67.8768 58.7412L80.6085 51.3135C80.9044 51.1415 81.2365 51.0412 81.5782 51.0206C81.9199 51 82.2617 51.0597 82.5761 51.1949Z" fill="white" stroke="#263238" stroke-width="0.5" stroke-miterlimit="10" stroke-linecap="round"/>
<path d="M96.583 54.0279L81.166 48.0063C80.9445 47.9204 80.7541 47.7696 80.6197 47.5737C80.4854 47.3777 80.4134 47.1457 80.4131 46.9081V33.0948C80.4132 32.9027 80.4601 32.7136 80.5498 32.5437C80.6395 32.3739 80.7693 32.2285 80.9279 32.1201C81.0865 32.0117 81.2691 31.9436 81.4599 31.9218C81.6507 31.8999 81.844 31.9248 82.023 31.9945L97.44 38.0265C97.6613 38.1127 97.8516 38.2635 97.9859 38.4594C98.1202 38.6554 98.1924 38.8872 98.1929 39.1247V52.938C98.1911 53.1292 98.143 53.3171 98.0526 53.4856C97.9621 53.6541 97.8322 53.7981 97.6739 53.9053C97.5155 54.0125 97.3336 54.0796 97.1435 54.101C96.9535 54.1224 96.7612 54.0973 96.583 54.0279Z" fill="white" stroke="#263238" stroke-miterlimit="10" stroke-linecap="round"/>
<path d="M96.8991 38.349L92.4999 36.631L90.8963 37.1031L87.7492 36.0174L86.5761 34.3201L82.5097 32.731C82.3425 32.6656 82.1619 32.642 81.9836 32.6623C81.8052 32.6826 81.6345 32.7462 81.4863 32.8475C81.3381 32.9487 81.2169 33.0846 81.1332 33.2434C81.0494 33.4022 81.0057 33.579 81.0059 33.7585V46.6545C81.0058 46.8761 81.0727 47.0926 81.1978 47.2756C81.3229 47.4585 81.5003 47.5995 81.7068 47.6799L96.0963 53.2959C96.2633 53.3612 96.4437 53.3848 96.6219 53.3646C96.8 53.3444 96.9706 53.281 97.1188 53.18C97.2669 53.079 97.3882 52.9434 97.4721 52.7849C97.5559 52.6264 97.5999 52.4498 97.6001 52.2705V39.3745C97.6001 39.1528 97.5332 38.9364 97.4081 38.7534C97.2831 38.5704 97.1057 38.4295 96.8991 38.349Z" fill="#263238" stroke="#263238" stroke-miterlimit="10" stroke-linecap="round"/>
<path d="M83.5808 53.3892L89.1552 55.7125L84.0446 58.6557L78.1582 56.3324L83.5808 53.3892Z" fill="#8C8C8C" stroke="#263238" stroke-linecap="round" stroke-linejoin="round"/>
<path d="M83.5806 65.1622C83.435 64.299 71.3086 58.5665 69.4886 57.7969L67.8787 58.7412C67.7639 58.8081 67.6693 58.9049 67.605 59.0213C67.5407 59.1377 67.5091 59.2693 67.5136 59.4022C67.5181 59.535 67.5584 59.6642 67.6304 59.776C67.7024 59.8878 67.8033 59.978 67.9224 60.037L79.7472 65.886C80.1677 66.0936 80.6303 66.2016 81.0992 66.2016C81.5681 66.2016 82.0308 66.0936 82.4512 65.886L83.5994 65.3202C83.5952 65.2662 83.589 65.2121 83.5806 65.1622Z" fill="#8C8C8C" stroke="#263238" stroke-linecap="round" stroke-linejoin="round"/>
<path d="M74.8741 56.6819C75.1796 56.6819 75.4274 56.5161 75.4274 56.3116C75.4274 56.1072 75.1796 55.9414 74.8741 55.9414C74.5685 55.9414 74.3208 56.1072 74.3208 56.3116C74.3208 56.5161 74.5685 56.6819 74.8741 56.6819Z" fill="white" stroke="#263238" stroke-miterlimit="10" stroke-linecap="round"/>
<path d="M76.9063 57.6057C77.2119 57.6057 77.4596 57.44 77.4596 57.2355C77.4596 57.031 77.2119 56.8652 76.9063 56.8652C76.6007 56.8652 76.353 57.031 76.353 57.2355C76.353 57.44 76.6007 57.6057 76.9063 57.6057Z" fill="white" stroke="#263238" stroke-miterlimit="10" stroke-linecap="round"/>
<path d="M78.938 58.5291C79.2436 58.5291 79.4913 58.3633 79.4913 58.1588C79.4913 57.9543 79.2436 57.7886 78.938 57.7886C78.6325 57.7886 78.3848 57.9543 78.3848 58.1588C78.3848 58.3633 78.6325 58.5291 78.938 58.5291Z" fill="white" stroke="#263238" stroke-miterlimit="10" stroke-linecap="round"/>
<path d="M80.9703 59.4524C81.2758 59.4524 81.5236 59.2866 81.5236 59.0822C81.5236 58.8777 81.2758 58.7119 80.9703 58.7119C80.6647 58.7119 80.417 58.8777 80.417 59.0822C80.417 59.2866 80.6647 59.4524 80.9703 59.4524Z" fill="white" stroke="#263238" stroke-width="0.5" stroke-miterlimit="10" stroke-linecap="round"/>
<path d="M83.5559 60.0059C83.5559 60.2139 83.3084 60.3761 83.0005 60.3761C82.6927 60.3761 82.4473 60.2097 82.4473 60.0059C82.4473 59.802 82.6948 59.6377 83.0005 59.6377C83.3063 59.6377 83.5559 59.802 83.5559 60.0059Z" fill="white" stroke="#263238" stroke-width="0.5" stroke-miterlimit="10" stroke-linecap="round"/>
<path d="M85.0328 61.2996C85.3383 61.2996 85.5861 61.1338 85.5861 60.9293C85.5861 60.7248 85.3383 60.5591 85.0328 60.5591C84.7272 60.5591 84.4795 60.7248 84.4795 60.9293C84.4795 61.1338 84.7272 61.2996 85.0328 61.2996Z" fill="white" stroke="#263238" stroke-width="0.5" stroke-miterlimit="10" stroke-linecap="round"/>
<path d="M73.4888 57.7908C73.7944 57.7908 74.0421 57.625 74.0421 57.4205C74.0421 57.2161 73.7944 57.0503 73.4888 57.0503C73.1833 57.0503 72.9355 57.2161 72.9355 57.4205C72.9355 57.625 73.1833 57.7908 73.4888 57.7908Z" fill="white" stroke="#263238" stroke-miterlimit="10" stroke-linecap="round"/>
<path d="M75.521 58.7141C75.8266 58.7141 76.0743 58.5484 76.0743 58.3439C76.0743 58.1394 75.8266 57.9736 75.521 57.9736C75.2155 57.9736 74.9678 58.1394 74.9678 58.3439C74.9678 58.5484 75.2155 58.7141 75.521 58.7141Z" fill="white" stroke="#263238" stroke-miterlimit="10" stroke-linecap="round"/>
<path d="M77.5528 59.6379C77.8584 59.6379 78.1061 59.4722 78.1061 59.2677C78.1061 59.0632 77.8584 58.8975 77.5528 58.8975C77.2472 58.8975 76.9995 59.0632 76.9995 59.2677C76.9995 59.4722 77.2472 59.6379 77.5528 59.6379Z" fill="white" stroke="#263238" stroke-miterlimit="10" stroke-linecap="round"/>
<path d="M79.585 60.5613C79.8906 60.5613 80.1383 60.3955 80.1383 60.191C80.1383 59.9866 79.8906 59.8208 79.585 59.8208C79.2795 59.8208 79.0317 59.9866 79.0317 60.191C79.0317 60.3955 79.2795 60.5613 79.585 60.5613Z" fill="white" stroke="#263238" stroke-width="0.5" stroke-miterlimit="10" stroke-linecap="round"/>
<path d="M81.6153 61.4846C81.9209 61.4846 82.1686 61.3189 82.1686 61.1144C82.1686 60.9099 81.9209 60.7441 81.6153 60.7441C81.3097 60.7441 81.062 60.9099 81.062 61.1144C81.062 61.3189 81.3097 61.4846 81.6153 61.4846Z" fill="white" stroke="#263238" stroke-width="0.5" stroke-miterlimit="10" stroke-linecap="round"/>
<path d="M83.6475 62.4084C83.9531 62.4084 84.2008 62.2427 84.2008 62.0382C84.2008 61.8337 83.9531 61.668 83.6475 61.668C83.342 61.668 83.0942 61.8337 83.0942 62.0382C83.0942 62.2427 83.342 62.4084 83.6475 62.4084Z" fill="white" stroke="#263238" stroke-width="0.5" stroke-miterlimit="10" stroke-linecap="round"/>
<path d="M58.0426 85.7505C57.4969 86.4051 56.9164 87.03 56.3038 87.6225C55.607 88.2465 54.2841 88.9454 53.658 89.2241C53.0319 89.5028 54.5628 90.2641 55.4676 90.2641C56.3724 90.2641 57.6246 89.9854 59.0868 89.9854C60.549 89.9854 61.8719 89.9854 62.0799 88.8705C62.2879 87.7556 61.0399 84.4858 61.0399 84.4858L57.8388 85.1098L58.0426 85.7505Z" fill="#6EB6FF" stroke="#263238" stroke-width="0.5" stroke-miterlimit="10"/>
<path d="M55.9522 89.5795C54.6772 89.7168 53.9097 89.4942 53.5311 89.3257C53.3231 89.6523 54.6501 90.2763 55.4655 90.2763C56.3703 90.2763 57.6225 89.9976 59.0847 89.9976C60.5469 89.9976 61.8698 89.9976 62.0778 88.8827C62.1044 88.7085 62.1093 88.5318 62.0924 88.3564C61.7895 88.6152 61.458 88.8385 61.1044 89.022C60.1309 89.5108 57.9033 89.3715 55.9522 89.5795Z" fill="white" stroke="#263238" stroke-width="0.5" stroke-miterlimit="10" stroke-linecap="round"/>
<path d="M53.4561 70.5122L56.3805 85.6962C57.1096 86.1407 57.981 86.2895 58.8162 86.1122C60.2722 85.8335 61.8801 84.9287 61.8801 84.9287L58.9473 71.9682C58.9473 71.9682 55.0493 68.6964 53.4561 70.5122Z" fill="#263238" stroke="#263238" stroke-miterlimit="10" stroke-linecap="round"/>
<path d="M49.1338 88.3273C49.1338 88.3273 48.5764 89.8582 48.3018 90.1993C48.0273 90.5404 45.1007 93.0531 44.4725 93.4025C43.8444 93.7519 44.6119 94.1679 45.1693 94.3073C45.7268 94.4467 47.9545 94.0993 49.4853 93.4753C51.0162 92.8513 53.3833 92.6433 53.8013 91.9444C54.2194 91.2455 52.8965 87.8364 52.8965 87.8364C52.8965 87.8364 49.4812 88.7433 49.1338 88.3273Z" fill="#6EB6FF" stroke="#263238" stroke-width="0.5" stroke-miterlimit="10"/>
<path d="M46.2781 93.7561C45.2964 94.0743 44.7119 94.0556 44.3604 93.9266C44.5964 94.1141 44.8715 94.2463 45.1653 94.3135C45.7228 94.4529 47.9504 94.1055 49.4813 93.4815C51.0122 92.8575 53.3792 92.6495 53.7973 91.9506C53.9096 91.7614 53.8951 91.3724 53.814 90.9106C53.5436 91.0604 53.2523 91.2039 52.9611 91.3266C51.9877 91.7281 48.6452 92.9906 46.2781 93.7561Z" fill="white" stroke="#263238" stroke-width="0.5" stroke-miterlimit="10" stroke-linecap="round"/>
<path d="M55.3282 65.3561C55.3282 65.3561 50.1782 64.0332 49.2734 64.4513C48.3686 64.8694 46.9854 66.887 46.9854 68.7673C46.9854 70.6476 47.8902 88.1113 47.8902 88.1113C48.8129 88.5467 49.8009 88.8277 50.8146 88.9433C51.2827 88.9743 51.7522 88.9101 52.1948 88.7546C52.6374 88.5991 53.0439 88.3555 53.3897 88.0385L52.7657 70.0777L55.6194 66.5979C55.6194 66.5979 56.1602 65.9822 55.3282 65.3561Z" fill="#263238" stroke="#263238" stroke-miterlimit="10" stroke-linecap="round"/>
<path d="M52.2665 70.2275C52.2665 70.2275 50.1865 69.8801 48.9946 68.5635" stroke="white" stroke-miterlimit="10" stroke-linecap="round"/>
<path d="M63.6957 91.0835C63.5615 91.0835 63.4287 91.0571 63.3048 91.0057C63.1809 90.9544 63.0683 90.8792 62.9735 90.7843C62.8787 90.6895 62.8034 90.5769 62.7521 90.453C62.7008 90.3291 62.6744 90.1963 62.6744 90.0622V82.8092C62.6681 82.6711 62.69 82.5331 62.7385 82.4037C62.7871 82.2742 62.8614 82.1559 62.9569 82.056C63.0525 81.956 63.1673 81.8765 63.2944 81.8221C63.4216 81.7678 63.5584 81.7397 63.6967 81.7397C63.835 81.7397 63.9718 81.7678 64.099 81.8221C64.2261 81.8765 64.3409 81.956 64.4365 82.056C64.532 82.1559 64.6063 82.2742 64.6549 82.4037C64.7034 82.5331 64.7252 82.6711 64.719 82.8092V90.0643C64.7187 90.1984 64.6921 90.3311 64.6405 90.4549C64.5889 90.5787 64.5135 90.6912 64.4184 90.7858C64.3234 90.8805 64.2107 90.9555 64.0866 91.0065C63.9626 91.0576 63.8298 91.0837 63.6957 91.0835Z" fill="#263238"/>
<path d="M63.6961 84.7497C63.1814 84.7497 62.6878 84.5453 62.3238 84.1813C61.9599 83.8174 61.7554 83.3238 61.7554 82.8091V74.6347C61.7469 74.3744 61.7908 74.115 61.8846 73.872C61.9783 73.6289 62.12 73.4073 62.3011 73.2201C62.4823 73.0329 62.6992 72.8841 62.939 72.7824C63.1788 72.6808 63.4366 72.6284 63.6971 72.6284C63.9576 72.6284 64.2154 72.6808 64.4552 72.7824C64.695 72.8841 64.912 73.0329 65.0931 73.2201C65.2743 73.4073 65.4159 73.6289 65.5097 73.872C65.6034 74.115 65.6473 74.3744 65.6388 74.6347V82.8091C65.6382 83.324 65.4333 83.8176 65.0691 84.1815C64.7048 84.5453 64.211 84.7497 63.6961 84.7497Z" fill="#263238"/>
<path d="M61.9589 89.9602L52.7445 94.2242C52.674 94.2559 52.6141 94.3074 52.5721 94.3723C52.5302 94.4372 52.5078 94.5129 52.5078 94.5903C52.5078 94.6676 52.5302 94.7433 52.5721 94.8082C52.6141 94.8732 52.674 94.9246 52.7445 94.9563H52.7591C53.2708 95.1643 54.8994 94.5112 54.8994 94.5112L61.4452 92.3002C61.829 92.1606 62.2449 92.1344 62.6433 92.2247C63.0416 92.3151 63.4055 92.5182 63.6916 92.8098L68.1885 98.328C68.1885 98.328 68.904 98.952 69.1079 98.2261C69.3117 97.5002 65.8381 91.7781 65.8381 91.7781C65.8381 91.7781 65.94 90.7568 67.1672 90.3491C68.0845 90.0642 71.9679 88.2234 71.9679 88.2234C71.9679 88.2234 72.3839 87.8074 71.7599 87.7117C71.1359 87.616 64.1991 89.3466 64.1991 89.3466L62.87 86.5885C62.87 86.5885 62.3604 86.4866 62.454 87.2021C62.5476 87.9176 62.6744 89.4402 61.9589 89.9602Z" fill="#263238" stroke="#263238" stroke-width="0.5" stroke-miterlimit="10" stroke-linecap="round"/>
<path d="M55.0118 95.1643C55.0118 95.3552 54.9552 95.5418 54.8491 95.7005C54.7431 95.8592 54.5924 95.9829 54.416 96.056C54.2396 96.129 54.0456 96.1482 53.8584 96.1109C53.6712 96.0737 53.4992 95.9818 53.3642 95.8468C53.2292 95.7118 53.1373 95.5398 53.1001 95.3526C53.0628 95.1654 53.082 94.9714 53.155 94.795C53.2281 94.6187 53.3518 94.4679 53.5105 94.3619C53.6692 94.2558 53.8558 94.1992 54.0467 94.1992C54.3026 94.1992 54.5481 94.3009 54.7291 94.4819C54.9101 94.6629 55.0118 94.9084 55.0118 95.1643Z" fill="#263238" stroke="#263238" stroke-width="0.5" stroke-miterlimit="10" stroke-linecap="round"/>
<path d="M72.1592 88.8953C72.1592 89.0862 72.1026 89.2728 71.9966 89.4315C71.8905 89.5902 71.7398 89.7139 71.5635 89.787C71.3871 89.86 71.1931 89.8791 71.0058 89.8419C70.8186 89.8046 70.6467 89.7127 70.5117 89.5777C70.3767 89.4428 70.2848 89.2708 70.2475 89.0836C70.2103 88.8964 70.2294 88.7023 70.3025 88.526C70.3755 88.3496 70.4992 88.1989 70.6579 88.0928C70.8166 87.9868 71.0032 87.9302 71.1941 87.9302C71.3209 87.9299 71.4466 87.9547 71.5638 88.0031C71.681 88.0515 71.7875 88.1226 71.8772 88.2122C71.9669 88.3019 72.0379 88.4084 72.0863 88.5256C72.1347 88.6429 72.1595 88.7685 72.1592 88.8953Z" fill="#263238" stroke="#263238" stroke-width="0.5" stroke-miterlimit="10" stroke-linecap="round"/>
<path d="M68.5694 97.7371C68.5694 97.928 68.5128 98.1146 68.4068 98.2733C68.3007 98.432 68.15 98.5557 67.9736 98.6287C67.7973 98.7018 67.6032 98.7209 67.416 98.6837C67.2288 98.6464 67.0568 98.5545 66.9218 98.4195C66.7869 98.2846 66.6949 98.1126 66.6577 97.9254C66.6205 97.7382 66.6396 97.5441 66.7126 97.3678C66.7857 97.1914 66.9094 97.0407 67.0681 96.9346C67.2268 96.8286 67.4134 96.772 67.6043 96.772C67.7311 96.7717 67.8567 96.7965 67.9739 96.8449C68.0912 96.8933 68.1977 96.9644 68.2873 97.054C68.377 97.1437 68.4481 97.2502 68.4965 97.3674C68.5449 97.4847 68.5697 97.6103 68.5694 97.7371Z" fill="#263238" stroke="#263238" stroke-width="0.5" stroke-miterlimit="10" stroke-linecap="round"/>
<path d="M53.4559 70.5123C53.4559 70.5123 50.3775 71.5523 51.4445 72.4945C51.8355 72.8398 61.4285 78.1521 62.4685 78.2166C65.7383 78.4246 75.1378 73.0062 75.6495 71.779C76.1611 70.5518 73.0952 69.3267 70.9487 68.1015C68.8021 66.8764 64.4091 65.7511 63.3879 66.2628C62.3666 66.7745 53.4559 70.5123 53.4559 70.5123Z" fill="#6EB6FF" stroke="#263238" stroke-miterlimit="10"/>
<path d="M62.2108 28.0594C62.2108 28.0594 61.3102 29.6215 61.3102 30.4618C61.3102 31.3021 61.3705 31.4207 61.0107 31.9012C60.6508 32.3816 59.4507 32.442 59.4507 32.9828C59.4507 33.5236 59.7502 34.1226 60.11 34.3036L60.4699 34.4824C60.4699 34.4824 60.4096 36.4626 60.4096 37.4236C60.4096 38.3845 60.4096 39.1645 60.9504 39.3455C61.4912 39.5264 63.8312 39.5244 63.8312 39.5244L64.7318 42.8253C64.7318 42.8253 66.9532 41.8061 68.2137 41.1447C68.9347 40.7639 69.6763 40.4236 70.4352 40.1255C70.4352 40.1255 69.3536 37.5442 69.6531 37.0637C69.9526 36.5832 72.2344 36.1028 73.0747 33.7628C73.915 31.4228 73.4366 27.8202 71.7539 26.5597C70.0712 25.2992 66.712 24.8791 66.712 24.8791C66.712 24.8791 65.3932 23.3773 64.0724 22.9572C62.7516 22.537 59.6296 23.5583 59.5089 25.84C59.3883 28.1218 62.2108 28.0594 62.2108 28.0594Z" fill="white" stroke="#263238" stroke-width="0.5" stroke-miterlimit="10" stroke-linecap="round"/>
<path d="M64.6715 36.1025L64.0829 36.1899C64.0518 36.7888 63.8497 37.3663 63.5005 37.8539" stroke="#263238" stroke-width="0.5" stroke-miterlimit="10" stroke-linecap="round"/>
<path d="M71.7599 26.5597C70.0793 25.2992 66.718 24.8791 66.718 24.8791C66.718 24.8791 65.3993 23.3773 64.0785 22.9572C62.7577 22.537 59.6356 23.5583 59.515 25.84C59.3943 28.1218 62.219 28.0594 62.219 28.0594C62.219 28.0594 61.8591 29.2616 62.0401 30.0416C62.2211 30.8216 63.2403 32.5626 63.5398 32.9224C63.8393 33.2823 63.779 33.3384 64.5611 32.9828C65.3431 32.6271 65.8798 33.7024 65.5803 34.782C65.2807 35.8615 64.6796 36.1028 64.6796 36.1028C65.1504 36.6565 65.7476 37.0888 66.4206 37.3632C67.5022 37.7793 69.6612 37.0637 69.6612 37.0637C69.9628 36.5832 72.2425 36.1028 73.0828 33.7628C73.9231 31.4228 73.4364 27.8202 71.7599 26.5597Z" fill="#263238" stroke="#263238" stroke-miterlimit="10" stroke-linecap="round"/>
<path d="M60.1309 32.3942C60.069 32.0768 60.069 31.7505 60.1309 31.4332C60.2744 30.6012 60.7549 29.9772 61.1896 30.0625C61.2503 30.0744 61.3081 30.0977 61.3602 30.1311" stroke="#263238" stroke-width="0.5" stroke-miterlimit="10" stroke-linecap="round"/>
<path d="M60.2222 31.1255L64.5527 32.9829" stroke="#263238" stroke-width="0.5" stroke-miterlimit="10" stroke-linecap="round"/>
<path d="M70.9133 26.1395C70.7877 26.1659 70.6702 26.2215 70.5703 26.302C70.4703 26.3824 70.3909 26.4854 70.3383 26.6024C70.2858 26.7195 70.2617 26.8473 70.268 26.9754C70.2743 27.1035 70.3108 27.2284 70.3746 27.3397C70.7906 28.3006 71.6954 27.7557 71.9949 29.0806C72.4852 31.2077 72.2089 33.4396 71.2149 35.383C69.8941 37.9643 69.0538 37.671 69.4136 38.3242C69.7734 38.9773 71.5747 39.4058 72.7146 39.0438C73.8544 38.6819 74.5866 37.6045 74.5866 37.6045C74.5866 37.6045 74.1061 39.0438 74.3453 39.1042C74.5845 39.1645 76.2672 39.8259 78.0082 36.8162C79.7491 33.8064 78.8402 32.4939 78.8402 32.4939C78.8402 32.4939 79.3206 33.7544 79.3789 33.0347C79.4371 32.315 80.2109 29.5528 76.6749 27.271C73.1389 24.9893 70.9133 26.1395 70.9133 26.1395Z" fill="#263238" stroke="#263238" stroke-miterlimit="10" stroke-linecap="round"/>
<path d="M60.5883 48.5161C60.5883 48.5161 59.2342 46.823 58.839 46.2593C58.4438 45.6956 57.8801 45.6353 57.0897 45.3004C56.2993 44.9656 55.7356 44.3977 55.3987 44.5662C55.3227 44.5954 55.2559 44.6442 55.2051 44.7078C55.1543 44.7714 55.1214 44.8473 55.1098 44.9279C55.0981 45.0084 55.1081 45.0906 55.1388 45.1659C55.1695 45.2413 55.2197 45.3071 55.2843 45.3566C55.5672 45.5812 56.0747 45.808 56.3014 45.9806C56.4591 46.1038 56.6098 46.2357 56.7528 46.3758L55.0596 47.3908L54.2692 47.3347C54.2692 47.3347 53.6452 45.5292 53.4227 45.8121C53.2001 46.095 53.3104 46.9977 53.5932 47.8422C53.8761 48.6867 54.1008 49.2545 54.6083 49.2545C55.1158 49.2545 58.0507 48.7449 58.0507 48.7449L59.696 51.3366L61.672 49.6456L60.5883 48.5161Z" fill="white" stroke="#263238" stroke-width="0.5" stroke-miterlimit="10" stroke-linecap="round"/>
<path d="M55.1199 48.0648L54.4439 48.0086C54.4439 48.0086 53.4268 46.0326 53.146 46.3716C52.8652 46.7107 53.4268 47.9524 53.4268 47.9524C53.4268 47.9524 54.0508 49.0236 54.5001 49.0236C54.9494 49.0236 55.9103 48.46 55.9103 48.46" fill="white"/>
<path d="M55.1199 48.0648L54.4439 48.0086C54.4439 48.0086 53.4268 46.0326 53.146 46.3716C52.8652 46.7107 53.4268 47.9524 53.4268 47.9524C53.4268 47.9524 54.0508 49.0236 54.5001 49.0236C54.9494 49.0236 55.9103 48.46 55.9103 48.46" stroke="#263238" stroke-width="0.5" stroke-miterlimit="10" stroke-linecap="round"/>
<path d="M55.12 48.6286H54.1008C54.1008 48.6286 53.0857 46.6547 52.8028 46.9938C52.52 47.3328 53.0857 48.5725 53.0857 48.5725C53.0857 48.5725 53.7097 49.6458 54.1569 49.6458C54.6041 49.6458 55.5672 49.08 55.5672 49.08" fill="white"/>
<path d="M55.12 48.6286H54.1008C54.1008 48.6286 53.0857 46.6547 52.8028 46.9938C52.52 47.3328 53.0857 48.5725 53.0857 48.5725C53.0857 48.5725 53.7097 49.6458 54.1569 49.6458C54.6041 49.6458 55.5672 49.08 55.5672 49.08" stroke="#263238" stroke-width="0.5" stroke-miterlimit="10" stroke-linecap="round"/>
<path d="M58.4482 48.9115C58.4482 48.9115 54.2154 50.2095 53.9325 50.0389C53.6496 49.8683 52.1853 48.5163 52.3538 48.065C52.5223 47.6136 53.0298 47.9527 53.2003 48.2335C53.3709 48.5143 54.1592 49.1923 54.1592 49.1923C54.1592 49.1923 56.753 47.8403 57.2605 47.8403C57.768 47.8403 58.2194 48.4061 58.2194 48.4061" fill="white"/>
<path d="M58.4482 48.9115C58.4482 48.9115 54.2154 50.2095 53.9325 50.0389C53.6496 49.8683 52.1853 48.5163 52.3538 48.065C52.5223 47.6136 53.0298 47.9527 53.2003 48.2335C53.3709 48.5143 54.1592 49.1923 54.1592 49.1923C54.1592 49.1923 56.753 47.8403 57.2605 47.8403C57.768 47.8403 58.2194 48.4061 58.2194 48.4061" stroke="#263238" stroke-width="0.5" stroke-miterlimit="10" stroke-linecap="round"/>
<path d="M63.6127 45.03C62.5565 45.9697 61.5785 46.9936 60.6882 48.0917C59.3653 49.7557 59.0242 50.7375 59.0242 51.4322C59.0242 52.1269 58.9535 62.918 58.9535 62.918C58.9535 62.918 58.6748 64.2409 58.8141 64.5196L58.9535 64.7983C58.9535 64.7983 56.1704 65.077 54.7082 64.7983C53.246 64.5196 52.4098 65.0063 52.2018 66.818C52.0742 68.0895 52.0276 69.3678 52.0624 70.6452C52.0624 70.6452 57.0752 73.3596 58.8848 74.125C60.6944 74.8905 63.6189 76.205 65.7759 75.373C67.9328 74.541 71.2754 73.4241 72.5276 71.8225C73.7797 70.2209 73.9212 69.1081 73.9212 67.4378C73.9212 65.7676 73.7132 64.7234 73.9212 63.6085C74.1292 62.4937 75.5207 55.742 76.0012 52.4015C76.4816 49.061 76.9746 46.5546 75.7224 44.6057C74.4703 42.6567 73.3575 41.6874 72.592 41.4794C71.8266 41.2714 66.8138 43.4284 65.5616 43.9151C64.8546 44.176 64.196 44.5528 63.6127 45.03Z" fill="white" stroke="#263238" stroke-width="0.5" stroke-miterlimit="10" stroke-linecap="round"/>
<path d="M59.1201 67.3213C59.1201 67.3213 59.1201 68.7295 60.9318 70.3394" stroke="#263238" stroke-width="0.5" stroke-miterlimit="10" stroke-linecap="round"/>
<path d="M58.9473 68.8359C58.9473 68.8359 59.3217 70.8099 60.9316 72.0849" stroke="#263238" stroke-width="0.5" stroke-miterlimit="10" stroke-linecap="round"/>
<path d="M72.4048 49.835C71.7455 51.526 70.458 53.995 68.1533 55.6818" stroke="#263238" stroke-width="0.5" stroke-miterlimit="10" stroke-linecap="round"/>
<path d="M73.0081 47.9482C73.0081 47.9482 72.9436 48.2561 72.7876 48.7636" stroke="#263238" stroke-width="0.5" stroke-miterlimit="10" stroke-linecap="round"/>
<path d="M72.0656 52.416C72.0656 52.416 71.1338 54.1861 68.8042 55.7711" stroke="#263238" stroke-width="0.5" stroke-miterlimit="10" stroke-linecap="round"/>
<path d="M71.1985 39.7388C71.1985 39.7388 65.491 41.8188 63.8894 43.15C62.2878 44.4812 61.7324 46.5612 61.7324 46.5612C61.7324 46.5612 64.6569 44.4021 67.5793 43.5681C69.451 43.0157 71.2682 42.293 73.0081 41.409L71.1985 39.7388Z" fill="white" stroke="#263238" stroke-width="0.5" stroke-miterlimit="10" stroke-linecap="round"/>
<path d="M53.5185 63.4757C53.5185 63.4757 52.0625 62.6437 51.7089 62.4357C51.3553 62.2277 50.7334 62.0884 50.594 62.3671C50.5136 62.5176 50.4661 62.6835 50.4547 62.8538C50.4547 62.8538 49.3419 62.9224 49.2067 63.2698C49.0715 63.6172 48.9987 63.8252 48.9987 63.8252C48.9987 63.8252 48.3747 63.9645 48.3747 64.4492C48.3747 64.9338 48.0273 65.562 48.306 65.6972C48.3643 65.7339 48.4297 65.7578 48.498 65.7672C48.5662 65.7766 48.6357 65.7712 48.7017 65.7515C48.7677 65.7318 48.8288 65.6982 48.8807 65.653C48.9326 65.6077 48.9743 65.5519 49.0028 65.4892C49.0868 65.3213 49.1798 65.1581 49.2816 65.0004L49.9056 65.2791C49.9056 65.2791 50.5296 65.9031 51.0891 66.0445C51.5472 66.1365 52.0133 66.1832 52.4806 66.1839L53.9366 63.8959L53.5185 63.4757Z" fill="white" stroke="#263238" stroke-miterlimit="10" stroke-linecap="round"/>
<path d="M60.7567 48.5098C60.7567 48.5098 59.3007 49.2066 58.6767 50.3194C58.0527 51.4322 55.4069 63.7541 55.4069 63.7541L53.5349 63.4754C53.5349 63.4754 52.7695 62.9179 52.0041 64.3074C51.2386 65.6968 51.7961 66.6744 51.7961 66.6744C51.7961 66.6744 56.1828 68.4133 56.8089 68.6234C57.4349 68.8334 58.3397 69.5968 58.9658 68.8314C59.5919 68.0659 63.3525 54.8392 63.3525 54.8392" fill="white"/>
<path d="M60.7567 48.5098C60.7567 48.5098 59.3007 49.2066 58.6767 50.3194C58.0527 51.4322 55.4069 63.7541 55.4069 63.7541L53.5349 63.4754C53.5349 63.4754 52.7695 62.9179 52.0041 64.3074C51.2386 65.6968 51.7961 66.6744 51.7961 66.6744C51.7961 66.6744 56.1828 68.4133 56.8089 68.6234C57.4349 68.8334 58.3397 69.5968 58.9658 68.8314C59.5919 68.0659 63.3525 54.8392 63.3525 54.8392" stroke="#263238" stroke-width="0.5" stroke-miterlimit="10" stroke-linecap="round"/>
<path d="M65.2101 59.7276L64.7754 67.201C64.7637 67.4032 64.8048 67.605 64.8946 67.7865C64.9844 67.968 65.1198 68.1231 65.2876 68.2366C65.4553 68.35 65.6497 68.4179 65.8516 68.4337C66.0535 68.4494 66.2561 68.4124 66.4394 68.3263L78.5782 62.6188C78.7619 62.5325 78.9199 62.3998 79.0366 62.2339C79.1533 62.0679 79.2248 61.8744 79.2439 61.6724L79.9843 53.8953C80.0035 53.6927 79.9693 53.4887 79.8852 53.3034C79.8012 53.1181 79.6701 52.958 79.5051 52.839C79.34 52.72 79.1468 52.6463 78.9444 52.625C78.7421 52.6038 78.5377 52.6358 78.3515 52.718L66.4186 57.9887C66.0763 58.1389 65.7823 58.3808 65.5691 58.6877C65.3558 58.9946 65.2315 59.3545 65.2101 59.7276Z" fill="#6EB6FF" stroke="#263238" stroke-width="0.5" stroke-miterlimit="10"/>
<path d="M79.9842 53.835C79.8406 53.8411 79.6995 53.8743 79.5682 53.9327L67.6353 59.2034C67.2936 59.3536 67.0001 59.5952 66.7872 59.9017C66.5743 60.2082 66.4503 60.5677 66.4289 60.9402L65.9941 68.4158V68.4366C66.149 68.4296 66.301 68.3921 66.4413 68.3263L78.5802 62.6188C78.7639 62.5325 78.9219 62.3999 79.0386 62.2339C79.1553 62.0679 79.2267 61.8744 79.2458 61.6724L79.9863 53.8953C79.9842 53.8724 79.9842 53.8537 79.9842 53.835Z" fill="#6EB6FF" stroke="#263238" stroke-width="0.5" stroke-miterlimit="10"/>
<path d="M73.2491 60.915H73.2283C72.9066 60.915 72.5978 61.0415 72.3686 61.2672C72.1394 61.4929 72.0081 61.7998 72.0032 62.1214L71.7807 75.3294C71.7801 75.4346 71.7519 75.5378 71.699 75.6287C71.6461 75.7196 71.5702 75.795 71.4791 75.8474C71.3887 75.9018 71.2858 75.9317 71.1804 75.9343C71.075 75.9368 70.9708 75.9119 70.8779 75.8619L70.1749 75.4875C69.3304 75.9326 68.4547 76.3611 67.5957 76.7355C67.7034 76.8915 67.8458 77.0203 68.0117 77.112L69.7173 78.0189C70.1807 78.2654 70.6996 78.3888 71.2243 78.3772C71.7491 78.3657 72.262 78.2197 72.7142 77.9531C73.1663 77.6866 73.5424 77.3084 73.8065 76.8548C74.0707 76.4013 74.2139 75.8875 74.2226 75.3627L74.4451 62.1547C74.4491 61.8323 74.3257 61.5213 74.1018 61.2892C73.8779 61.0571 73.5715 60.9227 73.2491 60.915Z" fill="#263238"/>
</svg>
