<svg width="15" height="15" viewBox="0 0 15 15" fill="none" xmlns="http://www.w3.org/2000/svg">
<g clip-path="url(#clip0_183_2193)">
<path d="M12.7807 12.7808H10.5582V9.30015C10.5582 8.47017 10.5434 7.40171 9.40225 7.40171C8.24467 7.40171 8.06754 8.30605 8.06754 9.23974V12.7806H5.84508V5.62298H7.97865V6.60115H8.00854C8.22206 6.23605 8.5306 5.9357 8.90132 5.73209C9.27203 5.52848 9.69103 5.42923 10.1137 5.44492C12.3663 5.44492 12.7816 6.92663 12.7816 8.85425L12.7807 12.7808ZM3.33727 4.64464C2.62494 4.64476 2.04738 4.06738 2.04727 3.35505C2.04715 2.64273 2.62447 2.06517 3.3368 2.06505C4.04912 2.06488 4.62668 2.64226 4.6268 3.35458C4.62686 3.69666 4.49103 4.02474 4.2492 4.26667C4.00737 4.50861 3.67934 4.64456 3.33727 4.64464ZM4.44855 12.7809H2.22369V5.62298H4.4485V12.7808L4.44855 12.7809ZM13.8887 0.000969642H1.10689C0.502793 -0.00582723 0.00738281 0.478099 0 1.0822V13.9173C0.00714844 14.5217 0.5025 15.0061 1.10684 14.9998H13.8887C14.4943 15.0073 14.9916 14.5229 15 13.9173V1.0812C14.9914 0.475931 14.494 -0.00793661 13.8887 -2.64516e-05" fill="#0A66C2"/>
</g>
<defs>
<clipPath id="clip0_183_2193">
<rect width="15" height="15" fill="white"/>
</clipPath>
</defs>
</svg>
