<svg width="289" height="249" viewBox="0 0 289 249" fill="none" xmlns="http://www.w3.org/2000/svg">
<path d="M17.5468 96.0802C17.5468 96.0802 7.7275 139.39 36.1062 177.354C64.4849 215.318 113.596 230.327 153.121 243.533C192.647 256.739 229.446 242.035 243.078 208.842C256.71 175.65 228.616 157.531 222.162 114.015C215.708 70.4989 220.55 58.01 191.568 24.7181C162.586 -8.5738 103.528 -8.1762 63.8459 25.5488C24.164 59.2738 17.5468 96.0802 17.5468 96.0802Z" fill="#6EB6FF"/>
<path opacity="0.7" d="M17.5468 96.0802C17.5468 96.0802 7.7275 139.39 36.1062 177.354C64.4849 215.318 113.596 230.327 153.121 243.533C192.647 256.739 229.446 242.035 243.078 208.842C256.71 175.65 228.616 157.531 222.162 114.015C215.708 70.4989 220.55 58.01 191.568 24.7181C162.586 -8.5738 103.528 -8.1762 63.8459 25.5488C24.164 59.2738 17.5468 96.0802 17.5468 96.0802Z" fill="white"/>
<path d="M240.037 33.596C240.037 33.596 240.747 29.9182 236.608 23.7554C232.468 17.5926 229.735 14 229.735 14C229.735 14 225.475 21.9662 229.28 28.058C232.093 32.3713 235.261 36.4419 238.752 40.2274L240.037 33.596Z" fill="#6EB6FF"/>
<path d="M228.059 55.1303C228.059 55.1303 228.769 51.4525 224.63 45.2897C220.491 39.1269 217.743 35.5343 217.743 35.5343C217.743 35.5343 213.483 43.5005 217.296 49.5852C220.107 53.9016 223.275 57.9747 226.767 61.7617L228.059 55.1303Z" fill="#6EB6FF"/>
<path d="M238.482 39.8085C238.482 39.8085 239.59 36.2585 246.157 32.7511C252.725 29.2437 256.807 27.4048 256.807 27.4048C256.807 27.4048 256.807 36.4218 250.573 40.0073C246.054 42.4792 241.338 44.5714 236.473 46.2624L238.482 39.8085Z" fill="#6EB6FF"/>
<path d="M224.14 65.1981C224.14 65.1981 225.617 61.7475 232.511 58.9856C239.405 56.2237 243.686 54.7895 243.686 54.7895C243.686 54.7895 242.713 63.7568 236.16 66.6678C231.409 68.6545 226.5 70.2386 221.484 71.4035L224.14 65.1981Z" fill="#6EB6FF"/>
<path d="M220.05 95.1388C220.05 95.1388 220.76 91.4539 226.937 87.3288C233.114 83.2037 236.983 80.882 236.983 80.882C236.983 80.882 237.907 89.8564 232.113 94.0738C227.886 97.0143 223.418 99.5936 218.758 101.784L220.05 95.1388Z" fill="#6EB6FF"/>
<path d="M218.552 102.345C218.552 102.345 219.787 98.7953 216.564 92.1142C213.341 85.4331 211.133 81.4642 211.133 81.4642C211.133 81.4642 205.808 88.7417 208.683 95.3092C210.853 99.9789 213.41 104.458 216.33 108.7L218.552 102.345Z" fill="#6EB6FF"/>
<path d="M209.286 122.772C209.286 122.772 209.996 119.094 216.166 114.962C222.336 110.83 226.22 108.473 226.22 108.473C226.22 108.473 227.143 117.44 221.349 121.664C217.12 124.602 212.653 127.181 207.994 129.375L209.286 122.772Z" fill="#6EB6FF"/>
<path d="M208.931 142.865C208.931 142.865 208.697 139.123 213.61 133.55C218.524 127.976 221.697 124.803 221.697 124.803C221.697 124.803 224.864 133.245 220.327 138.797C216.98 142.711 213.311 146.338 209.357 149.638L208.931 142.865Z" fill="#6EB6FF"/>
<path d="M240.683 32.744C239.674 36.5284 238.458 40.2544 237.04 43.9052C232.944 54.0369 226.525 59.8305 222.627 68.9398C218.73 78.0491 222.187 91.4468 218.233 103.353C214.278 115.26 208.2 121.103 207.966 129.538C207.732 137.973 210.565 161.424 210.565 161.424" stroke="#263238" stroke-width="0.5" stroke-linecap="round" stroke-linejoin="round"/>
<path d="M237.956 42.2438L244.346 39.0701" stroke="#263238" stroke-width="0.5" stroke-linecap="round" stroke-linejoin="round"/>
<path d="M239.171 37.3874L237.658 32.8008" stroke="#263238" stroke-width="0.5" stroke-linecap="round" stroke-linejoin="round"/>
<path d="M223.019 68.5635C223.019 68.5635 228.358 65.9862 233.818 63.4302" stroke="#263238" stroke-width="0.5" stroke-linecap="round" stroke-linejoin="round"/>
<path d="M226.767 61.7617C226.767 61.7617 224.374 53.405 220.966 47.512" stroke="#263238" stroke-width="0.5" stroke-linecap="round" stroke-linejoin="round"/>
<path d="M219.213 100.414C222.823 96.0399 227.049 92.2133 231.759 89.0541" stroke="#263238" stroke-width="0.5" stroke-linecap="round" stroke-linejoin="round"/>
<path d="M217.295 105.405C216.531 101.806 215.467 98.2769 214.115 94.8548C212.183 90.325 211.899 89.7286 211.899 89.7286" stroke="#263238" stroke-width="0.5" stroke-linecap="round" stroke-linejoin="round"/>
<path d="M207.966 129.538C209.714 126.843 211.667 124.286 213.809 121.892C215.911 119.691 218.191 117.668 220.625 115.842" stroke="#263238" stroke-width="0.5" stroke-linecap="round" stroke-linejoin="round"/>
<path d="M209.357 149.603C209.636 146.757 210.668 144.037 212.347 141.722C215.016 138.349 218.176 133.876 219.447 132.109" stroke="#263238" stroke-width="0.5" stroke-linecap="round" stroke-linejoin="round"/>
<path d="M196.67 76.196C196.67 76.196 196.72 73.8033 200.135 70.516C203.55 67.2287 205.737 65.3827 205.737 65.3827C205.737 65.3827 207.292 70.9065 204.111 74.1796C201.781 76.4837 199.261 78.5879 196.578 80.4702L196.67 76.196Z" fill="#6EB6FF"/>
<path d="M201.193 91.2054C201.193 91.2054 201.25 88.8198 204.658 85.5254C208.066 82.231 210.267 80.3921 210.267 80.3921C210.267 80.3921 211.814 85.9159 208.641 89.1961C206.307 91.4976 203.785 93.5994 201.101 95.4796L201.193 91.2054Z" fill="#6EB6FF"/>
<path d="M196.791 80.2643C196.791 80.2643 196.592 77.8858 192.978 74.8328C189.364 71.7798 187.064 70.0616 187.064 70.0616C187.064 70.0616 185.857 75.6777 189.237 78.7449C191.709 80.8954 194.357 82.8357 197.153 84.5456L196.791 80.2643Z" fill="#6EB6FF"/>
<path d="M202.272 97.993C202.272 97.993 201.817 95.65 197.905 93.023C193.993 90.396 191.515 88.8979 191.515 88.8979C191.515 88.8979 190.912 94.5779 194.59 97.3043C197.275 99.1942 200.113 100.857 203.074 102.274L202.272 97.993Z" fill="#6EB6FF"/>
<path d="M200.752 117.163C200.752 117.163 200.802 114.777 197.536 111.362C194.27 107.947 192.161 105.995 192.161 105.995C192.161 105.995 190.372 111.447 193.397 114.855C195.629 117.255 198.059 119.464 200.66 121.458L200.752 117.163Z" fill="#6EB6FF"/>
<path d="M200.71 121.849C200.71 121.849 200.419 119.485 203.337 115.757C206.255 112.03 208.151 109.893 208.151 109.893C208.151 109.893 210.473 115.14 207.796 118.832C205.814 121.441 203.617 123.88 201.229 126.123L200.71 121.849Z" fill="#6EB6FF"/>
<path d="M203.536 141.743C203.536 141.743 204.246 139.464 208.456 137.291C212.666 135.119 215.279 133.947 215.279 133.947C215.279 133.947 215.215 139.684 211.246 141.928C208.358 143.482 205.344 144.79 202.236 145.84L203.536 141.743Z" fill="#6EB6FF"/>
<path d="M203.706 135.808C203.706 135.808 203.756 133.422 200.483 130.007C197.21 126.592 195.108 124.639 195.108 124.639C195.108 124.639 193.319 130.092 196.351 133.5C198.583 135.9 201.013 138.109 203.614 140.103L203.706 135.808Z" fill="#6EB6FF"/>
<path d="M201.199 148.346C201.199 148.346 201.853 146.053 199.559 141.921C197.266 137.788 195.718 135.367 195.718 135.367C195.718 135.367 192.601 140.188 194.674 144.257C196.223 147.146 198.012 149.901 200.021 152.493L201.199 148.346Z" fill="#6EB6FF"/>
<path d="M196.364 75.5712C196.479 78.061 196.73 80.5426 197.117 83.0049C198.295 89.8564 201.498 94.3649 202.69 100.528C203.883 106.69 199.914 114.579 200.759 122.538C201.604 130.497 204.586 134.941 203.599 140.21C202.612 145.478 197.678 159.685 197.678 159.685" stroke="#263238" stroke-width="0.5" stroke-linecap="round" stroke-linejoin="round"/>
<path d="M196.791 81.8476L193.248 79.0076" stroke="#263238" stroke-width="0.5" stroke-linecap="round" stroke-linejoin="round"/>
<path d="M196.691 78.6668L198.253 76.0185" stroke="#263238" stroke-width="0.5" stroke-linecap="round" stroke-linejoin="round"/>
<path d="M202.506 100.237C202.506 100.237 199.545 97.9149 196.492 95.5861" stroke="#263238" stroke-width="0.5" stroke-linecap="round" stroke-linejoin="round"/>
<path d="M201.101 95.5009C202.668 92.6269 204.523 89.9197 206.639 87.4211" stroke="#263238" stroke-width="0.5" stroke-linecap="round" stroke-linejoin="round"/>
<path d="M200.561 120.543C198.91 117.334 196.8 114.382 194.299 111.781" stroke="#263238" stroke-width="0.5" stroke-linecap="round" stroke-linejoin="round"/>
<path d="M201.079 123.922C202.039 121.789 203.174 119.74 204.473 117.795C206.291 115.239 206.546 114.905 206.546 114.905" stroke="#263238" stroke-width="0.5" stroke-linecap="round" stroke-linejoin="round"/>
<path d="M202.648 144.15C204.242 142.818 205.95 141.631 207.753 140.6C208.877 140.07 209.956 139.448 210.977 138.74" stroke="#263238" stroke-width="0.5" stroke-linecap="round" stroke-linejoin="round"/>
<path d="M203.606 140.195C202.887 138.281 202.02 136.425 201.015 134.643C200.005 132.992 198.86 131.427 197.593 129.964" stroke="#263238" stroke-width="0.5" stroke-linecap="round" stroke-linejoin="round"/>
<path d="M200.021 152.493C200.237 150.686 199.965 148.855 199.233 147.189C198.033 144.732 196.677 141.509 196.116 140.252" stroke="#263238" stroke-width="0.5" stroke-linecap="round" stroke-linejoin="round"/>
<path d="M25.1268 126.137C25.1268 126.137 24.005 122.893 17.899 119.932C11.793 116.971 7.95898 115.381 7.95898 115.381C7.95898 115.381 8.27139 123.617 14.0508 126.691C18.2525 128.812 22.6249 130.577 27.1219 131.966L25.1268 126.137Z" fill="#6EB6FF"/>
<path d="M25.5457 148.644C25.5457 148.644 24.4239 145.407 18.3179 142.439C12.2119 139.471 8.37793 137.888 8.37793 137.888C8.37793 137.888 8.69033 146.124 14.4697 149.205C18.6724 151.322 23.0447 153.084 27.5408 154.473L25.5457 148.644Z" fill="#6EB6FF"/>
<path d="M26.7532 131.754C26.7532 131.754 25.9793 128.409 29.5932 122.651C33.2071 116.893 35.5785 113.528 35.5785 113.528C35.5785 113.528 39.6894 120.67 36.4305 126.35C33.998 130.379 31.2311 134.195 28.159 137.76L26.7532 131.754Z" fill="#6EB6FF"/>
<path d="M27.0654 158.4C27.0654 158.4 26.6465 154.992 30.8284 149.646C35.0103 144.299 37.7367 141.204 37.7367 141.204C37.7367 141.204 41.0808 148.737 37.2397 154.04C34.3959 157.789 31.2444 161.295 27.818 164.52L27.0654 158.4Z" fill="#6EB6FF"/>
<path d="M37.5732 183.931C37.5732 183.931 36.4514 180.694 39.4192 174.588C42.387 168.482 44.3892 164.882 44.3892 164.882C44.3892 164.882 49.2385 171.549 46.5973 177.541C44.6045 181.803 42.258 185.891 39.5825 189.76L37.5732 183.931Z" fill="#6EB6FF"/>
<path d="M39.7032 190.314C39.7032 190.314 39.05 186.949 33.4268 183.143C27.8036 179.338 24.2607 177.236 24.2607 177.236C24.2607 177.236 23.3945 185.429 28.684 189.306C32.5398 192.009 36.6153 194.384 40.8676 196.406L39.7032 190.314Z" fill="#6EB6FF"/>
<path d="M41.748 210.713C41.748 210.713 40.6262 207.468 43.594 201.362C46.5618 195.256 48.564 191.656 48.564 191.656C48.564 191.656 53.4133 198.323 50.7721 204.315C48.7761 208.579 46.4273 212.669 43.7502 216.542L41.748 210.713Z" fill="#6EB6FF"/>
<path d="M50.6943 226.744C50.6943 226.744 48.7844 223.904 50.1121 217.237C51.4398 210.571 52.4764 206.587 52.4764 206.587C52.4764 206.587 58.8664 211.813 57.8085 218.274C56.9604 222.904 55.7254 227.454 54.1165 231.878L50.6943 226.744Z" fill="#6EB6FF"/>
<path d="M25.2549 125.165C26.1957 128.616 26.9447 132.117 27.4985 135.651C28.9185 145.535 26.4903 153.061 27.5979 162.049C28.7055 171.038 37.5379 180.034 39.9164 191.259C42.2949 202.484 40.1436 209.903 43.8143 216.662C47.485 223.422 60.4922 240.675 60.4922 240.675" stroke="#263238" stroke-width="0.5" stroke-linecap="round" stroke-linejoin="round"/>
<path d="M27.4482 133.919L31.0408 128.48" stroke="#263238" stroke-width="0.5" stroke-linecap="round" stroke-linejoin="round"/>
<path d="M26.1846 129.524L22.876 126.592" stroke="#263238" stroke-width="0.5" stroke-linecap="round" stroke-linejoin="round"/>
<path d="M27.7256 161.574C27.7256 161.574 30.7573 157.086 33.9026 152.564" stroke="#263238" stroke-width="0.5" stroke-linecap="round" stroke-linejoin="round"/>
<path d="M27.562 154.474C27.562 154.474 21.8394 148.943 16.4434 145.875" stroke="#263238" stroke-width="0.5" stroke-linecap="round" stroke-linejoin="round"/>
<path d="M39.334 188.482C40.178 183.37 41.7613 178.407 44.0342 173.75" stroke="#263238" stroke-width="0.5" stroke-linecap="round" stroke-linejoin="round"/>
<path d="M40.1083 193.303C37.8559 190.813 35.4003 188.514 32.7669 186.431C29.1601 183.733 28.6631 183.392 28.6631 183.392" stroke="#263238" stroke-width="0.5" stroke-linecap="round" stroke-linejoin="round"/>
<path d="M43.8066 216.662C43.955 213.73 44.3253 210.813 44.9142 207.937C45.5687 205.245 46.4426 202.612 47.527 200.063" stroke="#263238" stroke-width="0.5" stroke-linecap="round" stroke-linejoin="round"/>
<path d="M54.1163 231.878C53.031 229.502 52.5973 226.88 52.8596 224.281C53.4276 220.39 53.8678 215.406 54.0666 213.425" stroke="#263238" stroke-width="0.5" stroke-linecap="round" stroke-linejoin="round"/>
<path d="M10.4015 179.693C10.4015 179.693 9.34357 177.783 10.5435 173.629C11.7434 169.476 12.6167 167.005 12.6167 167.005C12.6167 167.005 16.3797 170.662 15.3715 174.701C14.5832 177.591 13.5549 180.41 12.2972 183.129L10.4015 179.693Z" fill="#6EB6FF"/>
<path d="M20.8671 189.477C20.8671 189.477 19.8163 187.567 21.0091 183.413C22.2019 179.26 23.0823 176.789 23.0823 176.789C23.0823 176.789 26.8453 180.445 25.8371 184.485C25.0532 187.376 24.0272 190.195 22.7699 192.913L20.8671 189.477Z" fill="#6EB6FF"/>
<path d="M12.3682 182.852C12.3682 182.852 11.1186 181.063 6.8586 180.31C2.5986 179.558 0 179.253 0 179.253C0 179.253 1.6259 184.223 5.68 185.117C8.62289 185.684 11.6084 186.003 14.6047 186.069L12.3682 182.852Z" fill="#6EB6FF"/>
<path d="M24.8359 194.383C24.8359 194.383 23.4159 192.735 19.092 192.437C14.7681 192.139 12.1553 192.111 12.1553 192.111C12.1553 192.111 14.2853 196.896 18.4388 197.343C21.4227 197.592 24.4221 197.592 27.4061 197.343L24.8359 194.383Z" fill="#6EB6FF"/>
<path d="M32.4326 210.194C32.4326 210.194 31.3747 208.284 27.2283 207.085C23.0819 205.885 20.5117 205.31 20.5117 205.31C20.5117 205.31 21.6051 210.443 25.5598 211.742C28.4245 212.617 31.3577 213.248 34.3283 213.631L32.4326 210.194Z" fill="#6EB6FF"/>
<path d="M34.5483 213.915C34.5483 213.915 33.2348 212.175 33.8383 207.901C34.4418 203.627 34.953 201.042 34.953 201.042C34.953 201.042 39.213 204.124 38.7728 208.277C38.4053 211.249 37.7878 214.185 36.9268 217.053L34.5483 213.915Z" fill="#6EB6FF"/>
<path d="M45.909 228.335C45.909 228.335 45.4404 226.205 47.755 222.562C50.0696 218.92 51.6103 216.783 51.6103 216.783C51.6103 216.783 54.1947 221.355 52.086 224.948C50.5177 227.501 48.7364 229.916 46.761 232.169L45.909 228.335Z" fill="#6EB6FF"/>
<path d="M43.3171 223.571C43.3171 223.571 42.2663 221.661 38.1128 220.468C33.9593 219.275 31.4033 218.686 31.4033 218.686C31.4033 218.686 32.4896 223.819 36.4514 225.126C39.3156 226.008 42.2487 226.65 45.2199 227.043L43.3171 223.571Z" fill="#6EB6FF"/>
<path d="M47.094 234.633C47.094 234.633 46.5615 232.503 42.834 230.309C39.1065 228.115 36.7919 226.886 36.7919 226.886C36.7919 226.886 36.5434 232.126 40.0437 234.391C42.5931 235.962 45.2697 237.315 48.0454 238.438L47.094 234.633Z" fill="#6EB6FF"/>
<path d="M9.89062 179.338C11.125 181.25 12.4617 183.094 13.895 184.862C17.9704 189.739 22.557 191.805 26.3413 196.151C30.1256 200.496 30.6013 208.533 34.9039 214.419C39.2065 220.305 43.6298 222.463 45.2557 227.085C46.8816 231.707 49.5157 245.19 49.5157 245.19" stroke="#263238" stroke-width="0.5" stroke-linecap="round" stroke-linejoin="round"/>
<path d="M13.0921 184.109L8.98828 183.484" stroke="#263238" stroke-width="0.5" stroke-linecap="round" stroke-linejoin="round"/>
<path d="M11.5518 181.631L11.5731 178.826" stroke="#263238" stroke-width="0.5" stroke-linecap="round" stroke-linejoin="round"/>
<path d="M26.0501 196.016C26.0501 196.016 22.6421 195.54 19.1631 195.1" stroke="#263238" stroke-width="0.5" stroke-linecap="round" stroke-linejoin="round"/>
<path d="M22.77 192.913C22.6864 189.925 22.91 186.937 23.4374 183.995" stroke="#263238" stroke-width="0.5" stroke-linecap="round" stroke-linejoin="round"/>
<path d="M33.8387 212.963C31.0586 211.186 28.0358 209.82 24.8643 208.909" stroke="#263238" stroke-width="0.5" stroke-linecap="round" stroke-linejoin="round"/>
<path d="M35.7907 215.384C35.5692 213.262 35.5265 211.124 35.6629 208.994C35.9256 206.154 35.9753 205.764 35.9753 205.764" stroke="#263238" stroke-width="0.5" stroke-linecap="round" stroke-linejoin="round"/>
<path d="M46.3135 230.642C46.9506 228.855 47.7441 227.128 48.6849 225.481C49.3275 224.542 49.8949 223.555 50.3818 222.527" stroke="#263238" stroke-width="0.5" stroke-linecap="round" stroke-linejoin="round"/>
<path d="M45.2558 227.085C43.8087 225.904 42.273 224.836 40.6621 223.89C39.1037 223.05 37.4795 222.337 35.8057 221.76" stroke="#263238" stroke-width="0.5" stroke-linecap="round" stroke-linejoin="round"/>
<path d="M48.0594 238.438C47.3982 236.911 46.3419 235.588 44.9993 234.604C42.9261 233.22 40.3772 231.303 39.3193 230.557" stroke="#263238" stroke-width="0.5" stroke-linecap="round" stroke-linejoin="round"/>
<path d="M21.9316 245.341H287.55" stroke="#263238" stroke-width="1.01" stroke-linecap="round" stroke-linejoin="round"/>
<path d="M7.37695 245.341H14.3989" stroke="#263238" stroke-width="1.01" stroke-linecap="round" stroke-linejoin="round"/>
<path d="M141.097 129.637H91.1064C89.3379 129.637 87.9043 131.071 87.9043 132.839V240.667C87.9043 242.435 89.3379 243.869 91.1064 243.869H141.097C142.866 243.869 144.3 242.435 144.3 240.667V132.839C144.3 131.071 142.866 129.637 141.097 129.637Z" fill="white" stroke="#263238" stroke-width="1.01" stroke-linecap="round" stroke-linejoin="round"/>
<path d="M139.585 144.625H92.6259C90.8575 144.625 89.4238 146.059 89.4238 147.827V237.94C89.4238 239.709 90.8575 241.142 92.6259 241.142H139.585C141.354 241.142 142.787 239.709 142.787 237.94V147.827C142.787 146.059 141.354 144.625 139.585 144.625Z" fill="#6EB6FF"/>
<path opacity="0.5" d="M139.585 144.625H92.6259C90.8575 144.625 89.4238 146.059 89.4238 147.827V237.94C89.4238 239.709 90.8575 241.142 92.6259 241.142H139.585C141.354 241.142 142.787 239.709 142.787 237.94V147.827C142.787 146.059 141.354 144.625 139.585 144.625Z" fill="white"/>
<path d="M129.524 105H102.693V129.637H129.524V105Z" fill="#263238" stroke="#263238" stroke-width="1.01" stroke-linecap="round" stroke-linejoin="round"/>
<path d="M104.93 107.435V126.982" stroke="white" stroke-width="1.01" stroke-linecap="round" stroke-linejoin="round"/>
<path d="M109.076 107.435V126.982" stroke="white" stroke-width="1.01" stroke-linecap="round" stroke-linejoin="round"/>
<path d="M114.998 113.655V126.982" stroke="white" stroke-width="1.01" stroke-linecap="round" stroke-linejoin="round"/>
<path d="M114.998 107.435V110.694" stroke="white" stroke-width="1.01" stroke-linecap="round" stroke-linejoin="round"/>
<path d="M141.084 153.876H91.1279V209.008H141.084V153.876Z" fill="white"/>
<path d="M115.772 201.368C125.991 201.368 134.275 193.084 134.275 182.866C134.275 172.647 125.991 164.363 115.772 164.363C105.553 164.363 97.2695 172.647 97.2695 182.866C97.2695 193.084 105.553 201.368 115.772 201.368Z" fill="#263238"/>
<path d="M119.158 170.135H112.385V195.596H119.158V170.135Z" fill="#6EB6FF"/>
<path d="M128.502 186.252V179.479H103.041V186.252H128.502Z" fill="#6EB6FF"/>
<path d="M193.881 191.62H115.234C113.371 191.62 111.861 193.13 111.861 194.992V240.738C111.861 242.6 113.371 244.11 115.234 244.11H193.881C195.743 244.11 197.253 242.6 197.253 240.738V194.992C197.253 193.13 195.743 191.62 193.881 191.62Z" fill="white" stroke="#263238" stroke-linecap="round" stroke-linejoin="round"/>
<path d="M120.033 214.411C119.197 214.411 118.395 214.079 117.804 213.488C117.213 212.897 116.881 212.095 116.881 211.259V202.739C116.88 202.324 116.961 201.913 117.119 201.53C117.277 201.147 117.509 200.798 117.802 200.505C118.094 200.211 118.442 199.979 118.825 199.82C119.208 199.661 119.619 199.579 120.033 199.579C120.871 199.579 121.675 199.912 122.267 200.504C122.86 201.097 123.193 201.901 123.193 202.739V211.259C123.193 211.673 123.111 212.084 122.952 212.467C122.793 212.85 122.56 213.197 122.267 213.49C121.973 213.783 121.625 214.015 121.242 214.173C120.859 214.331 120.448 214.412 120.033 214.411Z" fill="#263238" stroke="#263238" stroke-width="1.01" stroke-linecap="round" stroke-linejoin="round"/>
<path d="M122.171 202.448V207.73" stroke="white" stroke-width="1.01" stroke-linecap="round" stroke-linejoin="round"/>
<path d="M122.171 209.093V211.99" stroke="white" stroke-width="1.01" stroke-linecap="round" stroke-linejoin="round"/>
<path d="M133.829 214.411C132.993 214.411 132.191 214.079 131.6 213.488C131.009 212.897 130.677 212.095 130.677 211.259V202.739C130.676 202.324 130.757 201.913 130.915 201.53C131.073 201.147 131.305 200.798 131.598 200.505C131.89 200.211 132.238 199.979 132.621 199.82C133.004 199.661 133.415 199.579 133.829 199.579C134.244 199.579 134.654 199.661 135.037 199.82C135.42 199.979 135.768 200.211 136.061 200.505C136.354 200.798 136.586 201.147 136.744 201.53C136.902 201.913 136.983 202.324 136.982 202.739V211.259C136.982 212.095 136.649 212.897 136.058 213.488C135.467 214.079 134.665 214.411 133.829 214.411Z" fill="#263238" stroke="#263238" stroke-width="1.01" stroke-linecap="round" stroke-linejoin="round"/>
<path d="M135.973 202.448V207.73" stroke="white" stroke-width="1.01" stroke-linecap="round" stroke-linejoin="round"/>
<path d="M135.973 209.093V211.99" stroke="white" stroke-width="1.01" stroke-linecap="round" stroke-linejoin="round"/>
<path d="M147.652 214.411C146.816 214.411 146.015 214.079 145.423 213.488C144.832 212.897 144.5 212.095 144.5 211.259V202.739C144.499 202.324 144.58 201.913 144.738 201.53C144.896 201.147 145.128 200.798 145.421 200.505C145.714 200.211 146.061 199.979 146.444 199.82C146.827 199.661 147.238 199.579 147.652 199.579C148.067 199.579 148.477 199.661 148.86 199.82C149.243 199.979 149.591 200.211 149.884 200.505C150.177 200.798 150.409 201.147 150.567 201.53C150.725 201.913 150.806 202.324 150.805 202.739V211.259C150.805 212.095 150.473 212.897 149.881 213.488C149.29 214.079 148.488 214.411 147.652 214.411Z" fill="#263238" stroke="#263238" stroke-width="1.01" stroke-linecap="round" stroke-linejoin="round"/>
<path d="M149.782 202.448V207.73" stroke="white" stroke-width="1.01" stroke-linecap="round" stroke-linejoin="round"/>
<path d="M149.782 209.093V211.99" stroke="white" stroke-width="1.01" stroke-linecap="round" stroke-linejoin="round"/>
<path d="M161.462 214.411C160.626 214.411 159.824 214.079 159.233 213.488C158.642 212.897 158.31 212.095 158.31 211.259V202.739C158.309 202.324 158.389 201.913 158.547 201.53C158.705 201.147 158.938 200.798 159.23 200.505C159.523 200.211 159.871 199.979 160.254 199.82C160.637 199.661 161.047 199.579 161.462 199.579C161.877 199.579 162.287 199.661 162.67 199.82C163.053 199.979 163.401 200.211 163.694 200.505C163.986 200.798 164.218 201.147 164.376 201.53C164.534 201.913 164.615 202.324 164.614 202.739V211.259C164.614 212.095 164.282 212.897 163.691 213.488C163.1 214.079 162.298 214.411 161.462 214.411Z" fill="#263238" stroke="#263238" stroke-width="1.01" stroke-linecap="round" stroke-linejoin="round"/>
<path d="M163.592 202.448V207.73" stroke="white" stroke-width="1.01" stroke-linecap="round" stroke-linejoin="round"/>
<path d="M163.592 209.093V211.99" stroke="white" stroke-width="1.01" stroke-linecap="round" stroke-linejoin="round"/>
<path d="M175.272 214.411C174.857 214.412 174.447 214.331 174.063 214.173C173.68 214.015 173.332 213.783 173.038 213.49C172.745 213.197 172.512 212.85 172.353 212.467C172.194 212.084 172.112 211.673 172.112 211.259V202.739C172.112 201.901 172.445 201.097 173.038 200.504C173.63 199.912 174.434 199.579 175.272 199.579C175.686 199.579 176.097 199.661 176.48 199.82C176.863 199.979 177.211 200.211 177.503 200.505C177.796 200.798 178.028 201.147 178.186 201.53C178.344 201.913 178.425 202.324 178.424 202.739V211.259C178.424 212.095 178.092 212.897 177.501 213.488C176.91 214.079 176.108 214.411 175.272 214.411Z" fill="#263238" stroke="#263238" stroke-width="1.01" stroke-linecap="round" stroke-linejoin="round"/>
<path d="M177.401 202.448V207.73" stroke="white" stroke-width="1.01" stroke-linecap="round" stroke-linejoin="round"/>
<path d="M177.401 209.093V211.99" stroke="white" stroke-width="1.01" stroke-linecap="round" stroke-linejoin="round"/>
<path d="M189.074 214.411C188.238 214.411 187.436 214.079 186.845 213.488C186.254 212.897 185.922 212.095 185.922 211.259V202.739C185.921 202.324 186.002 201.913 186.16 201.53C186.318 201.147 186.55 200.798 186.843 200.505C187.136 200.211 187.483 199.979 187.866 199.82C188.249 199.661 188.66 199.579 189.074 199.579C189.489 199.579 189.899 199.661 190.282 199.82C190.665 199.979 191.013 200.211 191.306 200.505C191.599 200.798 191.831 201.147 191.989 201.53C192.147 201.913 192.228 202.324 192.227 202.739V211.259C192.227 212.095 191.895 212.897 191.303 213.488C190.712 214.079 189.91 214.411 189.074 214.411Z" fill="#263238" stroke="#263238" stroke-width="1.01" stroke-linecap="round" stroke-linejoin="round"/>
<path d="M191.204 202.448V207.73" stroke="white" stroke-width="1.01" stroke-linecap="round" stroke-linejoin="round"/>
<path d="M191.204 209.093V211.99" stroke="white" stroke-width="1.01" stroke-linecap="round" stroke-linejoin="round"/>
<path d="M120.033 237.046C119.197 237.046 118.395 236.714 117.804 236.123C117.213 235.531 116.881 234.729 116.881 233.893V225.373C116.881 224.537 117.213 223.736 117.804 223.144C118.395 222.553 119.197 222.221 120.033 222.221C120.448 222.22 120.859 222.301 121.242 222.459C121.625 222.617 121.973 222.849 122.267 223.142C122.56 223.435 122.793 223.782 122.952 224.165C123.111 224.548 123.193 224.959 123.193 225.373V233.893C123.193 234.308 123.111 234.718 122.952 235.101C122.793 235.484 122.56 235.832 122.267 236.125C121.973 236.418 121.625 236.65 121.242 236.808C120.859 236.966 120.448 237.047 120.033 237.046Z" fill="#263238" stroke="#263238" stroke-width="1.01" stroke-linecap="round" stroke-linejoin="round"/>
<path d="M122.171 225.118V230.4" stroke="white" stroke-width="1.01" stroke-linecap="round" stroke-linejoin="round"/>
<path d="M122.171 231.763V234.66" stroke="white" stroke-width="1.01" stroke-linecap="round" stroke-linejoin="round"/>
<path d="M133.829 237.046C132.993 237.046 132.191 236.714 131.6 236.123C131.009 235.531 130.677 234.729 130.677 233.893V225.373C130.677 224.537 131.009 223.736 131.6 223.144C132.191 222.553 132.993 222.221 133.829 222.221C134.243 222.22 134.654 222.301 135.037 222.459C135.42 222.617 135.767 222.849 136.06 223.142C136.353 223.435 136.585 223.783 136.744 224.166C136.902 224.549 136.982 224.959 136.982 225.373V233.893C136.982 234.308 136.902 234.718 136.744 235.101C136.585 235.484 136.353 235.832 136.06 236.125C135.767 236.417 135.42 236.65 135.037 236.808C134.654 236.966 134.243 237.047 133.829 237.046Z" fill="#263238" stroke="#263238" stroke-width="1.01" stroke-linecap="round" stroke-linejoin="round"/>
<path d="M135.973 225.118V230.4" stroke="white" stroke-width="1.01" stroke-linecap="round" stroke-linejoin="round"/>
<path d="M135.973 231.763V234.66" stroke="white" stroke-width="1.01" stroke-linecap="round" stroke-linejoin="round"/>
<path d="M147.652 237.046C146.816 237.046 146.015 236.714 145.423 236.122C144.832 235.531 144.5 234.729 144.5 233.893V225.373C144.5 224.537 144.832 223.736 145.423 223.144C146.015 222.553 146.816 222.221 147.652 222.221C148.488 222.221 149.29 222.553 149.881 223.144C150.473 223.736 150.805 224.537 150.805 225.373V233.893C150.805 234.729 150.473 235.531 149.881 236.122C149.29 236.714 148.488 237.046 147.652 237.046Z" fill="#263238" stroke="#263238" stroke-width="1.01" stroke-linecap="round" stroke-linejoin="round"/>
<path d="M149.782 225.118V230.4" stroke="white" stroke-width="1.01" stroke-linecap="round" stroke-linejoin="round"/>
<path d="M149.782 231.763V234.66" stroke="white" stroke-width="1.01" stroke-linecap="round" stroke-linejoin="round"/>
<path d="M161.462 237.046C161.048 237.047 160.637 236.966 160.254 236.808C159.872 236.65 159.524 236.417 159.231 236.125C158.938 235.832 158.706 235.484 158.548 235.101C158.39 234.718 158.309 234.308 158.31 233.893V225.373C158.309 224.959 158.39 224.549 158.548 224.166C158.706 223.783 158.938 223.435 159.231 223.142C159.524 222.849 159.872 222.617 160.254 222.459C160.637 222.301 161.048 222.22 161.462 222.221C162.298 222.221 163.1 222.553 163.691 223.144C164.282 223.736 164.614 224.537 164.614 225.373V233.893C164.614 234.729 164.282 235.531 163.691 236.123C163.1 236.714 162.298 237.046 161.462 237.046Z" fill="#263238" stroke="#263238" stroke-width="1.01" stroke-linecap="round" stroke-linejoin="round"/>
<path d="M163.592 225.118V230.4" stroke="white" stroke-width="1.01" stroke-linecap="round" stroke-linejoin="round"/>
<path d="M163.592 231.763V234.66" stroke="white" stroke-width="1.01" stroke-linecap="round" stroke-linejoin="round"/>
<path d="M175.272 237.046C174.857 237.047 174.447 236.966 174.063 236.808C173.68 236.65 173.332 236.418 173.038 236.125C172.745 235.832 172.512 235.484 172.353 235.101C172.194 234.718 172.112 234.308 172.112 233.893V225.373C172.112 224.959 172.194 224.548 172.353 224.165C172.512 223.782 172.745 223.435 173.038 223.142C173.332 222.849 173.68 222.617 174.063 222.459C174.447 222.301 174.857 222.22 175.272 222.221C176.108 222.221 176.91 222.553 177.501 223.144C178.092 223.736 178.424 224.537 178.424 225.373V233.893C178.424 234.729 178.092 235.531 177.501 236.123C176.91 236.714 176.108 237.046 175.272 237.046Z" fill="#263238" stroke="#263238" stroke-width="1.01" stroke-linecap="round" stroke-linejoin="round"/>
<path d="M177.401 225.118V230.4" stroke="white" stroke-width="1.01" stroke-linecap="round" stroke-linejoin="round"/>
<path d="M177.401 231.763V234.66" stroke="white" stroke-width="1.01" stroke-linecap="round" stroke-linejoin="round"/>
<path d="M189.074 237.046C188.238 237.046 187.436 236.714 186.845 236.123C186.254 235.531 185.922 234.729 185.922 233.893V225.373C185.922 224.537 186.254 223.736 186.845 223.144C187.436 222.553 188.238 222.221 189.074 222.221C189.489 222.22 189.899 222.301 190.282 222.459C190.665 222.617 191.013 222.849 191.305 223.142C191.598 223.435 191.831 223.783 191.989 224.166C192.147 224.549 192.228 224.959 192.227 225.373V233.893C192.228 234.308 192.147 234.718 191.989 235.101C191.831 235.484 191.598 235.832 191.305 236.125C191.013 236.417 190.665 236.65 190.282 236.808C189.899 236.966 189.489 237.047 189.074 237.046Z" fill="#263238" stroke="#263238" stroke-width="1.01" stroke-linecap="round" stroke-linejoin="round"/>
<path d="M191.204 225.118V230.4" stroke="white" stroke-width="1.01" stroke-linecap="round" stroke-linejoin="round"/>
<path d="M191.204 231.763V234.66" stroke="white" stroke-width="1.01" stroke-linecap="round" stroke-linejoin="round"/>
<path d="M127.02 194.346V196.121" stroke="#263238" stroke-width="0.5" stroke-linecap="round" stroke-linejoin="round"/>
<path d="M127.02 199.416V237.294" stroke="#263238" stroke-width="0.5" stroke-linecap="round" stroke-linejoin="round" stroke-dasharray="4.64 4.64"/>
<path d="M127.02 238.941V240.716" stroke="#263238" stroke-width="0.5" stroke-linecap="round" stroke-linejoin="round"/>
<path d="M140.829 194.346V196.121" stroke="#263238" stroke-width="0.5" stroke-linecap="round" stroke-linejoin="round"/>
<path d="M140.829 199.416V237.294" stroke="#263238" stroke-width="0.5" stroke-linecap="round" stroke-linejoin="round" stroke-dasharray="4.64 4.64"/>
<path d="M140.829 238.941V240.716" stroke="#263238" stroke-width="0.5" stroke-linecap="round" stroke-linejoin="round"/>
<path d="M154.639 194.346V196.121" stroke="#263238" stroke-width="0.5" stroke-linecap="round" stroke-linejoin="round"/>
<path d="M154.639 199.416V237.294" stroke="#263238" stroke-width="0.5" stroke-linecap="round" stroke-linejoin="round" stroke-dasharray="4.64 4.64"/>
<path d="M154.639 238.941V240.716" stroke="#263238" stroke-width="0.5" stroke-linecap="round" stroke-linejoin="round"/>
<path d="M168.441 194.346V196.121" stroke="#263238" stroke-width="0.5" stroke-linecap="round" stroke-linejoin="round"/>
<path d="M168.441 199.416V237.294" stroke="#263238" stroke-width="0.5" stroke-linecap="round" stroke-linejoin="round" stroke-dasharray="4.64 4.64"/>
<path d="M168.441 238.941V240.716" stroke="#263238" stroke-width="0.5" stroke-linecap="round" stroke-linejoin="round"/>
<path d="M182.251 194.346V196.121" stroke="#263238" stroke-width="0.5" stroke-linecap="round" stroke-linejoin="round"/>
<path d="M182.251 199.416V237.294" stroke="#263238" stroke-width="0.5" stroke-linecap="round" stroke-linejoin="round" stroke-dasharray="4.64 4.64"/>
<path d="M182.251 238.941V240.716" stroke="#263238" stroke-width="0.5" stroke-linecap="round" stroke-linejoin="round"/>
<path d="M114.062 217.869H194.697" stroke="#263238" stroke-width="0.5" stroke-linecap="round" stroke-linejoin="round" stroke-dasharray="5 5"/>
<path d="M191.154 198.883V187.289H172.403V198.883L167.908 205.039C167.276 205.91 166.936 206.959 166.936 208.035V243.869H196.592V208.021C196.592 206.945 196.252 205.896 195.62 205.025L191.154 198.883Z" fill="#263238" stroke="#263238" stroke-width="1.01" stroke-linecap="round" stroke-linejoin="round"/>
<path d="M191.161 181.971H172.48V183.98H191.161V181.971Z" fill="#263238" stroke="#263238" stroke-width="1.01" stroke-linecap="round" stroke-linejoin="round"/>
<path d="M193.873 177.406H169.676V182.553H193.873V177.406Z" fill="#6EB6FF" stroke="#263238" stroke-width="1.01" stroke-linecap="round" stroke-linejoin="round"/>
<path d="M192.971 183.881H170.577C170.079 183.881 169.676 184.285 169.676 184.783V187.069C169.676 187.567 170.079 187.971 170.577 187.971H192.971C193.469 187.971 193.873 187.567 193.873 187.069V184.783C193.873 184.285 193.469 183.881 192.971 183.881Z" fill="#263238" stroke="#263238" stroke-width="1.01" stroke-linecap="round" stroke-linejoin="round"/>
<path d="M186.112 210.229H166.942V234.099H186.112V210.229Z" fill="#6EB6FF" stroke="#263238" stroke-width="1.01" stroke-linecap="round" stroke-linejoin="round"/>
</svg>
