<svg width="171" height="171" viewBox="0 0 171 171" fill="none" xmlns="http://www.w3.org/2000/svg">
<path d="M76.0849 91.6144C76.0842 91.6213 76.0842 91.6281 76.0849 91.635C75.9207 91.977 73.5541 97.0351 70.671 101.895C69.9152 103.171 69.1252 104.429 68.3283 105.589C66.5944 108.113 64.8365 110.154 63.3761 110.79C58.5881 112.873 61.3241 96.5529 61.3241 96.5529C63.0706 94.4744 64.5726 92.2024 65.8009 89.7813C66.3721 88.6527 67.0355 87.3429 67.7298 86.0193C68.2633 85.0104 68.8105 84.0015 69.3475 83.0679C70.5616 80.9475 71.6936 79.2375 72.381 78.9023C73.1334 78.5329 74.1731 82.3462 74.9597 85.8928C75.5992 88.8477 76.0849 91.6144 76.0849 91.6144Z" fill="white" stroke="#263238" stroke-linecap="round" stroke-linejoin="round"/>
<path d="M76.0846 91.6143C76.0839 91.6212 76.0839 91.628 76.0846 91.6349C75.9204 91.9769 73.5538 97.035 70.6707 101.895C71.5394 94.128 70.7254 88.9331 70.7254 88.9331C68.8752 86.1355 67.7158 86.0295 67.7158 86.0295C68.2493 85.0206 68.7965 84.0117 69.3335 83.078L71.7822 80.79L74.9457 85.9029C75.5989 88.8476 76.0846 91.6143 76.0846 91.6143Z" fill="#263238"/>
<path d="M98.1508 39.3843C102.474 42.5136 106.256 53.5671 104.813 60.7491C103.37 67.9311 110.795 69.9831 110.767 81.3204C110.767 84.4805 100.979 97.326 89.6145 90.4723C78.2498 83.6186 75.0932 80.2465 76.1739 73.3723C77.2546 66.4981 77.3025 61.9769 75.2505 56.2073C73.1985 50.4378 90.3088 33.7174 98.1508 39.3843Z" fill="#263238"/>
<path d="M114.778 87.8627L112.364 89.5009C111.735 93.4639 110.639 97.3384 109.098 101.043C106.057 108.181 103.366 112.435 102.425 113.841C102.193 114.183 102.066 114.354 102.066 114.354L104.59 123.817C104.59 123.817 87.7468 141.331 69.1693 138.804L70.4108 128.886L72.0832 115.548L72.6269 111.214C72.6269 111.214 72.3978 108.106 72.0319 104.279C71.7822 101.642 71.4676 98.6631 71.1119 96.1254C71.0971 96.0121 71.0914 95.8977 71.0948 95.7834C71.1221 94.1829 72.3773 90.8176 72.3773 90.8176C71.3171 89.1384 70.3253 87.5925 69.5079 86.3716C68.4272 84.7334 67.7124 83.6801 67.7124 83.6801C67.7124 83.6801 71.4744 79.0562 71.6864 78.5295C72.8766 75.4139 77.0353 75.9953 77.0353 75.9953C77.3462 75.6945 77.7346 75.4861 78.1571 75.3934C80.1338 74.8975 85.7529 78.8373 88.8206 78.8681C91.8884 78.8989 106.947 74.8428 106.947 74.8428L108.479 75.3934C108.479 75.3934 110.555 75.1472 112.176 78.1499C112.945 79.6034 114.778 87.8627 114.778 87.8627Z" fill="#6EB6FF"/>
<path opacity="0.3" d="M87.7403 126.864C87.7403 126.864 77.2751 130.397 70.394 128.889L72.0664 115.551C73.5575 117.032 82.2033 125.373 87.7403 126.864Z" fill="white" fill-opacity="0.7"/>
<path opacity="0.3" d="M72.3606 90.8311C71.3004 89.1519 70.3086 87.6061 69.4912 86.3851C70.2026 84.6751 71.2594 83.0917 72.7231 83.184C72.7231 83.184 71.7005 87.7258 72.3606 90.8311Z" fill="white" fill-opacity="0.7"/>
<path opacity="0.3" d="M106.301 87.8625C104.423 88.4849 100.169 90.3693 100.169 90.3693L99.382 89.4562L102.409 85.1196C102.409 85.1196 100.278 85.9815 99.382 87.0656C98.486 88.1497 98.25 90.5677 98.2158 90.5574C98.1816 90.5472 97.4326 88.013 97.4326 88.013C97.1782 89.0679 97.0112 90.142 96.9333 91.2243C96.8341 92.37 98.0927 94.2339 99.1836 95.619L97.2821 105.739L90.0317 101.33L86.6117 99.2579C86.3127 99.1003 86.0238 98.9244 85.7465 98.7312C85.3497 98.4098 85.0898 97.9925 84.6281 97.7052C84.1005 97.4094 83.5308 97.196 82.9386 97.0725C80.7738 96.5685 78.5241 96.551 76.3517 97.0212C75.4352 97.2196 74.4947 97.5035 73.5849 97.288C72.6752 97.0725 71.8955 96.3441 71.0952 95.7969C71.0918 95.9111 71.0975 96.0255 71.1123 96.1389C71.4543 98.6765 71.7963 101.655 72.0323 104.292H72.4221C72.6746 104.278 72.9277 104.299 73.1745 104.354C73.6978 104.497 74.7375 107.049 75.0966 107.452C77.7197 110.38 82.1076 115.318 85.295 117.627C84.6589 115.917 81.3312 109.932 81.3928 108.051C82.1076 108.29 82.665 108.841 83.2396 109.33C84.9701 110.814 87.0358 111.847 89.0741 112.866L93.5646 115.113C94.9326 115.797 96.7349 116.867 98.3081 116.447C99.5975 116.105 101.222 114.809 102.251 113.991L102.422 113.854C103.363 112.449 106.054 108.194 109.095 101.057C110.636 97.3518 111.732 93.4773 112.361 89.5143L114.775 87.8761C114.775 87.8761 108.178 87.24 106.301 87.8625Z" fill="white" fill-opacity="0.7"/>
<path d="M69.1693 138.804L72.6269 111.232C72.6269 111.232 71.9771 102.367 71.1119 96.1425C70.9169 94.7472 72.3773 90.8313 72.3773 90.8313C69.8909 86.8983 67.7124 83.6937 67.7124 83.6937C67.7124 83.6937 71.4744 79.0699 71.6864 78.5432C72.8766 75.4276 77.0353 76.009 77.0353 76.009C77.3462 75.7082 77.7346 75.4998 78.1571 75.4071C80.1338 74.9112 85.7529 78.851 88.8206 78.8818C91.8884 78.9126 106.947 74.8564 106.947 74.8564L108.479 75.4071C108.479 75.4071 110.555 75.1608 112.176 78.1636C112.956 79.6034 114.792 87.8627 114.792 87.8627L112.378 89.5009C111.749 93.4639 110.652 97.3384 109.112 101.043C105.322 109.935 102.077 114.361 102.077 114.361L104.601 123.824" stroke="#263238" stroke-linecap="round" stroke-linejoin="round"/>
<path d="M102.805 84.5967C102.805 84.5967 98.5199 90.1473 98.626 91.1733C98.732 92.1993 100.716 93.2561 100.716 93.2561" stroke="#263238" stroke-linecap="round" stroke-linejoin="round"/>
<path d="M97.2817 86.8228C97.4885 88.2643 97.6084 89.717 97.6408 91.173C97.6408 93.0745 102.805 96.2312 102.805 96.2312" stroke="#263238" stroke-linecap="round" stroke-linejoin="round"/>
<path d="M72.3604 90.8313C72.3604 90.8313 72.0013 83.5125 73.1401 82.2505" stroke="#263238" stroke-linecap="round" stroke-linejoin="round"/>
<path d="M71.0952 84.9556C71.0952 84.9556 71.6835 88.7449 72.3059 89.4665" stroke="#263238" stroke-linecap="round" stroke-linejoin="round"/>
<path d="M90.3361 87.8628C90.3361 87.8628 82.9386 92.6234 76.085 93.2561" stroke="#263238" stroke-linecap="round" stroke-linejoin="round"/>
<path d="M76.085 108.68C76.085 108.68 84.3819 118.691 89.7957 120.045" stroke="#263238" stroke-linecap="round" stroke-linejoin="round"/>
<path d="M102.063 114.361C102.063 114.361 100.178 112.993 100.715 112.192" stroke="#263238" stroke-linecap="round" stroke-linejoin="round"/>
<path d="M97.282 122.5C97.282 122.5 85.5104 129.063 79.498 128.523" stroke="#263238" stroke-linecap="round" stroke-linejoin="round"/>
<path d="M65.6948 101.461C64.1592 95.8176 61.6455 93.9777 59.9868 87.9345C59.4944 86.1459 58.034 80.691 58.034 80.691C58.034 80.691 59.8979 74.877 56.1735 71.5664C56.1735 71.5664 55.1476 71.5664 53.3999 75.5917C52.6699 77.3501 52.4806 79.2862 52.8561 81.1527C52.8561 81.1527 54.0155 88.2423 54.2686 90.1473C54.8774 94.7403 56.1975 102.432 58.0306 106.293C59.9971 110.421 62.0696 111.344 63.6223 110.493" fill="white"/>
<path d="M65.6948 101.461C64.1592 95.8176 61.6455 93.9777 59.9868 87.9345C59.4944 86.1459 58.034 80.691 58.034 80.691C58.034 80.691 59.8979 74.877 56.1735 71.5664C56.1735 71.5664 55.1476 71.5664 53.3999 75.5917C52.6699 77.3501 52.4806 79.2862 52.8561 81.1527C52.8561 81.1527 54.0155 88.2423 54.2686 90.1473C54.8774 94.7403 56.1975 102.432 58.0306 106.293C59.9971 110.421 62.0696 111.344 63.6223 110.493" stroke="#263238" stroke-linecap="round" stroke-linejoin="round"/>
<path d="M58.6838 79.4529L62.6715 80.7696C63.0922 80.879 63.9198 80.1779 63.8822 79.7436L62.6886 65.8652C62.6654 65.5919 62.5578 65.3325 62.3808 65.1229C62.2037 64.9134 61.9659 64.7641 61.7003 64.6956L57.2987 63.738C56.8781 63.6319 55.8213 64.1347 55.8589 64.5656L57.692 78.2832C57.7155 78.557 57.8235 78.8167 58.0013 79.0263C58.179 79.2359 58.4175 79.385 58.6838 79.4529Z" fill="#6EB6FF"/>
<mask id="mask0_216_11550" style="mask-type:luminance" maskUnits="userSpaceOnUse" x="55" y="63" width="9" height="18">
<path d="M58.6838 79.4529L62.6715 80.7696C63.0922 80.879 63.9198 80.1779 63.8822 79.7436L62.6886 65.8652C62.6654 65.5919 62.5578 65.3325 62.3808 65.1229C62.2037 64.9134 61.9659 64.7641 61.7003 64.6956L57.2987 63.738C56.8781 63.6319 55.8213 64.1347 55.8589 64.5656L57.692 78.2832C57.7155 78.557 57.8235 78.8167 58.0013 79.0263C58.179 79.2359 58.4175 79.385 58.6838 79.4529Z" fill="white"/>
</mask>
<g mask="url(#mask0_216_11550)">
<path opacity="0.3" d="M58.6838 79.4529L62.6715 80.7696C63.0922 80.879 63.9198 80.1779 63.8822 79.7436L62.6886 65.8652C62.6654 65.5919 62.5578 65.3325 62.3808 65.1229C62.2037 64.9134 61.9659 64.7641 61.7003 64.6956L57.2987 63.738C56.8781 63.6319 55.8213 64.1347 55.8589 64.5656L57.692 78.2832C57.7155 78.557 57.8235 78.8167 58.0013 79.0263C58.179 79.2359 58.4175 79.385 58.6838 79.4529Z" fill="white" fill-opacity="0.7"/>
</g>
<path d="M58.6838 79.4529L62.6715 80.7696C63.0922 80.879 63.9198 80.1779 63.8822 79.7436L62.6886 65.8652C62.6654 65.5919 62.5578 65.3325 62.3808 65.1229C62.2037 64.9134 61.9659 64.7641 61.7003 64.6956L57.2987 63.738C56.8781 63.6319 55.8213 64.1347 55.8589 64.5656L57.692 78.2832C57.7155 78.557 57.8235 78.8167 58.0013 79.0263C58.179 79.2359 58.4175 79.385 58.6838 79.4529Z" stroke="#263238" stroke-linecap="round" stroke-linejoin="round"/>
<path d="M58.027 79.7947L62.4286 80.7488C62.5257 80.7745 62.6276 80.7764 62.7256 80.7543C62.8236 80.7323 62.9148 80.687 62.9916 80.6223C63.0685 80.5575 63.1286 80.4753 63.1669 80.3824C63.2052 80.2896 63.2206 80.1888 63.2118 80.0888L62.0353 66.207C62.0118 65.9332 61.9038 65.6735 61.726 65.4639C61.5483 65.2543 61.3098 65.1052 61.0435 65.0374L56.6454 64.0798C56.548 64.0548 56.4461 64.0535 56.3481 64.0761C56.2502 64.0986 56.1591 64.1442 56.0824 64.2092C56.0057 64.2742 55.9457 64.3565 55.9074 64.4495C55.8691 64.5424 55.8536 64.6431 55.8622 64.7432L57.0387 78.625C57.0619 78.8984 57.1695 79.1577 57.3465 79.3673C57.5236 79.5768 57.7614 79.7262 58.027 79.7947Z" fill="#6EB6FF" stroke="#263238" stroke-linecap="round" stroke-linejoin="round"/>
<path opacity="0.3" d="M60.4692 68.7754L61.1771 68.9293C61.1927 68.9331 61.209 68.9331 61.2246 68.9295C61.2403 68.9258 61.2548 68.9185 61.2671 68.9082C61.2794 68.8979 61.2891 68.8848 61.2955 68.8701C61.3018 68.8553 61.3046 68.8393 61.3036 68.8233L61.1155 66.5832C61.1113 66.5391 61.0936 66.4974 61.0649 66.4637C61.0361 66.4301 60.9977 66.4061 60.9548 66.3951L60.2434 66.2412C60.2278 66.2374 60.2115 66.2373 60.1959 66.241C60.1803 66.2446 60.1657 66.2519 60.1534 66.2622C60.1411 66.2725 60.1314 66.2856 60.125 66.3004C60.1187 66.3151 60.1159 66.3312 60.1169 66.3472L60.3084 68.5873C60.3126 68.6313 60.3303 68.673 60.3591 68.7067C60.3879 68.7404 60.4263 68.7643 60.4692 68.7754Z" fill="white" fill-opacity="0.7"/>
<path d="M54.2791 75.7319C54.1081 73.7859 55.8797 70.8652 57.0596 70.8652C58.2395 70.8652 61.8236 73.6286 61.8236 73.6286C63.2121 74.6341 62.5247 75.5917 62.5247 75.5917C63.3421 76.132 63.5507 76.8639 63.1916 77.2025C62.8325 77.5411 61.6321 77.2025 61.6321 77.2025C61.6321 77.2025 62.8223 78.0712 62.5247 78.4987C61.8236 79.5076 59.5185 78.1772 59.5185 78.1772C59.5185 78.1772 60.8558 79.0596 60.7805 79.2271C60.2744 80.3284 58.089 79.0459 58.089 79.0459L56.5534 79.8325C56.5548 80.0136 56.5187 80.193 56.4474 80.3595C56.3762 80.5259 56.2712 80.6759 56.1392 80.7999C56.0072 80.9238 55.851 81.0192 55.6804 81.0799C55.5097 81.1406 55.3284 81.1653 55.1478 81.1526" fill="white"/>
<path d="M54.2791 75.7319C54.1081 73.7859 55.8797 70.8652 57.0596 70.8652C58.2395 70.8652 61.8236 73.6286 61.8236 73.6286C63.2121 74.6341 62.5247 75.5917 62.5247 75.5917C63.3421 76.132 63.5507 76.8639 63.1916 77.2025C62.8325 77.5411 61.6321 77.2025 61.6321 77.2025C61.6321 77.2025 62.8223 78.0712 62.5247 78.4987C61.8236 79.5076 59.5185 78.1772 59.5185 78.1772C59.5185 78.1772 60.8558 79.0596 60.7805 79.2271C60.2744 80.3284 58.089 79.0459 58.089 79.0459L56.5534 79.8325C56.5548 80.0136 56.5187 80.193 56.4474 80.3595C56.3762 80.5259 56.2712 80.6759 56.1392 80.7999C56.0072 80.9238 55.851 81.0192 55.6804 81.0799C55.5097 81.1406 55.3284 81.1653 55.1478 81.1526" stroke="#263238" stroke-linecap="round" stroke-linejoin="round"/>
<path d="M62.5244 75.5919C62.5244 75.5919 59.166 73.4236 58.7419 73.3655C58.3178 73.3073 56.7617 72.9688 56.7617 72.9688" fill="white"/>
<path d="M62.5244 75.5919C62.5244 75.5919 59.166 73.4236 58.7419 73.3655C58.3178 73.3073 56.7617 72.9688 56.7617 72.9688" stroke="#263238" stroke-linecap="round" stroke-linejoin="round"/>
<path d="M61.6453 77.2022C61.6453 77.2022 58.9093 75.7932 58.4169 75.7932C57.6618 75.7104 56.9126 75.5813 56.1733 75.4067" fill="white"/>
<path d="M61.6453 77.2022C61.6453 77.2022 58.9093 75.7932 58.4169 75.7932C57.6618 75.7104 56.9126 75.5813 56.1733 75.4067" stroke="#263238" stroke-linecap="round" stroke-linejoin="round"/>
<path d="M59.5184 78.177C59.1997 77.9501 58.8622 77.751 58.5095 77.5819C57.8582 77.5352 57.2045 77.5352 56.5532 77.5819" fill="white"/>
<path d="M59.5184 78.177C59.1997 77.9501 58.8622 77.751 58.5095 77.5819C57.8582 77.5352 57.2045 77.5352 56.5532 77.5819" stroke="#263238" stroke-linecap="round" stroke-linejoin="round"/>
<path d="M93.7183 100.021C93.7183 100.021 95.8387 98.8271 97.7333 94.3743C99.628 89.9214 100.168 90.3694 100.168 90.3694C100.168 90.3694 104.317 88.3346 106.3 87.8626C108.284 87.3906 111.892 87.8626 111.892 87.8626C111.892 87.8626 108.814 96.7922 105.671 102.599C102.528 108.407 99.9974 111.833 98.3182 112.175C96.6389 112.517 93.7183 100.021 93.7183 100.021Z" fill="white" stroke="#263238" stroke-linecap="round" stroke-linejoin="round"/>
<path d="M106.03 75.4411C106.03 75.4411 90.9345 83.4815 86.5706 83.4371C82.2067 83.3926 79.4878 75.9131 79.4878 75.9131C79.4878 75.9131 87.559 75.7318 86.6219 71.874C86.6219 71.8091 86.5911 71.7372 86.5706 71.6688C86.1842 70.3214 84.7033 67.9616 84.1527 67.1134C84.0227 66.9116 83.9441 66.7953 83.9441 66.7953L95.8901 57.876C95.2061 66.8945 96.5262 70.848 97.3368 72.3323C98.7287 74.8734 106.03 75.4411 106.03 75.4411Z" fill="white" stroke="#263238" stroke-linecap="round" stroke-linejoin="round"/>
<path d="M92.5006 62.9307C92.5006 62.9307 90.0108 69.969 86.6113 71.874C86.6113 71.809 86.5806 71.7372 86.56 71.6688C86.1736 70.3213 84.6927 67.9615 84.1421 67.1133L92.5006 62.9307Z" fill="#263238"/>
<path d="M87.3262 81.2929C87.3262 81.2929 88.1709 79.6615 89.4329 79.47C90.6949 79.2785 94.1696 79.2443 100.596 78.1772" stroke="#263238" stroke-linecap="round" stroke-linejoin="round"/>
<path d="M85.3874 81.2929C85.3874 81.2929 84.8471 80.0241 84.7034 79.47C84.5598 78.916 81.2013 78.2183 80.0864 77.3018" stroke="#263238" stroke-linecap="round" stroke-linejoin="round"/>
<path d="M76.2524 43.0298C74.0397 45.4409 73.3796 53.3103 74.4843 56.7098C74.4843 56.7098 80.0281 57.5032 81.3243 56.5046C82.6205 55.5059 76.2524 43.0298 76.2524 43.0298Z" fill="#263238"/>
<path d="M97.1006 58.9226C97.6341 56.5662 100.462 45.1434 93.8037 40.0886C87.1449 35.0339 79.0224 41.7747 77.8836 43.365C73.2905 49.7809 75.3254 54.8801 76.1736 57.9547C77.0217 61.0293 76.6045 64.7537 80.9 69.8734C82.7058 72.0246 85.9548 70.8789 89.1559 68.6525C91.0745 67.3186 93.7763 64.9725 93.8447 62.7119" fill="white"/>
<path d="M97.1006 58.9226C97.6341 56.5662 100.462 45.1434 93.8037 40.0886C87.1449 35.0339 79.0224 41.7747 77.8836 43.365C73.2905 49.7809 75.3254 54.8801 76.1736 57.9547C77.0217 61.0293 76.6045 64.7537 80.9 69.8734C82.7058 72.0246 85.9548 70.8789 89.1559 68.6525C91.0745 67.3186 93.7763 64.9725 93.8447 62.7119" stroke="#263238" stroke-linecap="round" stroke-linejoin="round"/>
<path d="M81.8784 53.9155C81.8784 53.9155 85.4865 53.2725 87.5283 54.5516" stroke="#263238" stroke-linecap="round" stroke-linejoin="round"/>
<path d="M85.6952 57.4039C85.7841 57.958 85.5892 58.4505 85.2574 58.5052C84.9257 58.5599 84.5734 58.1632 84.4913 57.6023C84.4093 57.0414 84.5974 56.5558 84.9291 56.5011C85.2608 56.4463 85.6028 56.8499 85.6952 57.4039Z" fill="#263238"/>
<path d="M78.4857 57.4039C78.5746 57.958 78.3797 58.4505 78.0479 58.5052C77.7162 58.5599 77.3639 58.1632 77.2819 57.6023C77.1998 57.0414 77.3879 56.5558 77.7196 56.5011C78.0514 56.4463 78.4036 56.8499 78.4857 57.4039Z" fill="#263238"/>
<path d="M77.8839 53.9499C77.8839 53.9499 75.8934 53.2386 75.2505 54.1517" stroke="#263238" stroke-linecap="round" stroke-linejoin="round"/>
<path d="M79.1389 57.1304C79.3441 57.9101 77.7709 61.4259 77.8837 61.7303C77.9966 62.0347 78.7695 62.575 80.1546 62.7118" stroke="#263238" stroke-linecap="round" stroke-linejoin="round"/>
<path d="M80.8384 65.1301C80.8384 65.1301 83.7249 65.1301 85.387 63.957" stroke="#263238" stroke-linecap="round" stroke-linejoin="round"/>
<path d="M77.0768 41.3335C77.0768 41.3335 74.033 44.1619 75.9961 49.7228C76.4295 50.8568 77.0696 51.9004 77.8839 52.8008C79.9188 51.6551 80.9346 53.4437 82.1521 52.8589C83.3696 52.2741 85.3087 53.5156 86.5707 53.2693C87.1913 53.1311 87.8354 53.1372 88.4532 53.2872C89.0711 53.4372 89.6463 53.7271 90.1344 54.1346C91.0817 54.9827 91.0817 56.8398 92.501 57.7358C92.501 57.7358 93.3286 54.8323 95.0728 55.2529C96.817 55.6736 95.2746 60.7249 95.2746 60.7249C97.4604 58.0605 98.8234 54.8176 99.1974 51.3917C99.8814 45.5777 97.5831 40.499 93.7254 39.4217C93.7254 39.4217 92.4394 36.9183 88.0413 37.3219C83.6432 37.7254 79.6555 37.4792 77.0768 41.3335Z" fill="#263238"/>
<path d="M93.7183 56.0155C93.7183 56.0155 95.3428 52.0347 97.7094 53.6865C100.076 55.3384 97.2374 60.4102 96.0849 61.6962C94.9324 62.9821 94.5972 61.5628 94.4638 61.1558" fill="white"/>
<path d="M93.7183 56.0155C93.7183 56.0155 95.3428 52.0347 97.7094 53.6865C100.076 55.3384 97.2374 60.4102 96.0849 61.6962C94.9324 62.9821 94.5972 61.5628 94.4638 61.1558" stroke="#263238" stroke-linecap="round" stroke-linejoin="round"/>
<g opacity="0.2">
<path d="M78.1436 44.2268C78.2117 43.2303 78.5103 42.2633 79.0157 41.4019" stroke="white" stroke-linecap="round" stroke-linejoin="round"/>
<path d="M80.8385 51.0768C79.3748 49.4421 78.2598 47.243 78.1401 45.0337" stroke="white" stroke-linecap="round" stroke-linejoin="round"/>
<path d="M83.9438 48.3271C84.7698 49.6786 85.9362 50.7895 87.3262 51.5488" stroke="white" stroke-linecap="round" stroke-linejoin="round"/>
<path d="M83.1129 41.4019C81.9912 43.2042 82.6375 45.7897 83.5131 47.5579" stroke="white" stroke-linecap="round" stroke-linejoin="round"/>
<path d="M94.5117 51.6514C95.3594 52.0911 96.2498 52.4429 97.1691 52.7013" stroke="white" stroke-linecap="round" stroke-linejoin="round"/>
<path d="M86.5703 43.772C88.2799 46.8576 90.7709 49.4394 93.7934 51.2584" stroke="white" stroke-linecap="round" stroke-linejoin="round"/>
</g>
<path d="M69.556 73.437C69.556 73.437 68.53 73.437 68.4376 74.186C68.3453 74.935 69.874 75.9131 69.874 75.9131" fill="white"/>
<path d="M69.556 73.437C69.556 73.437 68.53 73.437 68.4376 74.186C68.3453 74.935 69.874 75.9131 69.874 75.9131" stroke="#263238" stroke-linecap="round" stroke-linejoin="round"/>
<path d="M98.3761 100.643C96.0642 97.1172 92.8015 94.9113 89.8843 90.9988C87.4696 87.754 85.2418 84.3741 83.2118 80.8756L80.1168 75.0616C80.1168 75.0616 76.3274 70.4925 74.7952 69.9316C73.2631 69.3708 64.8772 69.104 64.8772 69.104C64.8772 69.104 64.5352 70.0137 65.8314 70.472C67.1276 70.9303 71.0982 71.3031 71.0982 71.3031C71.0982 71.3031 69.9286 71.8058 69.6584 72.2196C69.3882 72.6334 69.6584 76.0329 70.1988 76.7238C70.7391 77.4146 72.8151 78.0439 72.8151 78.0439C72.8151 78.0439 73.0887 80.4379 75.1167 81.6246C77.1448 82.8114 78.1366 82.825 78.1366 82.825C78.1366 82.825 80.0449 86.0672 80.8418 88.3825C82.5518 93.3176 86.8644 104.539 89.98 108.584C93.6668 113.372 98.4445 113.557 100.172 110.51" fill="white"/>
<path d="M98.3761 100.643C96.0642 97.1172 92.8015 94.9113 89.8843 90.9988C87.4696 87.754 85.2418 84.3741 83.2118 80.8756L80.1168 75.0616C80.1168 75.0616 76.3274 70.4925 74.7952 69.9316C73.2631 69.3708 64.8772 69.104 64.8772 69.104C64.8772 69.104 64.5352 70.0137 65.8314 70.472C67.1276 70.9303 71.0982 71.3031 71.0982 71.3031C71.0982 71.3031 69.9286 71.8058 69.6584 72.2196C69.3882 72.6334 69.6584 76.0329 70.1988 76.7238C70.7391 77.4146 72.8151 78.0439 72.8151 78.0439C72.8151 78.0439 73.0887 80.4379 75.1167 81.6246C77.1448 82.8114 78.1366 82.825 78.1366 82.825C78.1366 82.825 80.0449 86.0672 80.8418 88.3825C82.5518 93.3176 86.8644 104.539 89.98 108.584C93.6668 113.372 98.4445 113.557 100.172 110.51" stroke="#263238" stroke-linecap="round" stroke-linejoin="round"/>
<path d="M74.6417 73.1089C74.6417 73.1089 71.7005 73.4509 71.3277 73.7176C70.955 73.9844 71.1328 76.0877 71.3277 76.823C71.3609 77.0146 71.4357 77.1965 71.5468 77.356C71.6579 77.5156 71.8026 77.6488 71.9707 77.7464" stroke="#263238" stroke-linecap="round" stroke-linejoin="round"/>
<path d="M73.4277 71.3716C73.4277 71.3716 70.5343 72.0932 70.3497 72.466C70.0805 73.4838 70.035 74.5479 70.2163 75.585C70.4523 76.7273 70.5207 77.0864 70.9618 77.295" stroke="#263238" stroke-linecap="round" stroke-linejoin="round"/>
<path d="M71.0952 71.3064C71.5068 71.1343 71.9295 70.9903 72.3606 70.8755" stroke="#263238" stroke-linecap="round" stroke-linejoin="round"/>
<path d="M72.8599 75.4414C73.1071 75.7239 73.4114 75.9508 73.7527 76.107C74.094 76.2632 74.4646 76.3453 74.84 76.3477C74.84 76.3477 74.2073 78.7828 75.3359 80.3628" stroke="#263238" stroke-linecap="round" stroke-linejoin="round"/>
<path d="M73.4275 75.9131C73.4275 75.9131 72.7743 76.4432 72.8598 76.727" stroke="#263238" stroke-linecap="round" stroke-linejoin="round"/>
<path d="M100.168 90.3693C100.168 90.3693 105.982 87.8248 106.824 87.6538C107.665 87.4828 113.968 87.7941 113.968 87.7941C113.188 88.5138 112.289 89.0925 111.311 89.5041C111.311 89.5041 111.171 88.3447 109.601 88.2113C108.031 88.0779 100.168 90.3693 100.168 90.3693Z" fill="#263238"/>
</svg>
