<svg width="18" height="19" viewBox="0 0 18 19" fill="none" xmlns="http://www.w3.org/2000/svg">
<path d="M8.75 16.875H6.875C4.4375 16.875 2.5 14.9375 2.5 12.5V10H3.75V12.5C3.75 14.25 5.125 15.625 6.875 15.625H8.75V16.875ZM16.25 18.125H17.625L14.75 11.25H13.375L10.5 18.125H11.875L12.375 16.875H15.6875L16.25 18.125ZM12.9375 15.625L14.0625 12.875L15.1875 15.625H12.9375ZM16.25 8.75H15V6.25C15 4.5 13.625 3.125 11.875 3.125H9.375V1.875H11.875C14.3125 1.875 16.25 3.8125 16.25 6.25V8.75ZM7.5 2.5V1.25H4.375V0H3.125V1.25H0V2.5H5.125C5 3.0625 4.625 4.0625 3.75 5C3.375 4.5625 3.0625 4.125 2.875 3.75H1.4375C1.6875 4.375 2.125 5.125 2.75 5.8125C2.25 6.25 1.5 6.625 0.625 6.9375L1.0625 8.125C2.1875 7.6875 3.0625 7.1875 3.75 6.6875C4.4375 7.25 5.3125 7.75 6.4375 8.125L6.875 6.9375C6 6.625 5.25 6.1875 4.6875 5.8125C5.875 4.5625 6.25 3.25 6.375 2.5H7.5Z" fill="#2A2A2A"/>
</svg>
