<svg width="104" height="104" viewBox="0 0 104 104" fill="none" xmlns="http://www.w3.org/2000/svg">
<path d="M98.0388 54.7268C101.504 32.5915 83.0337 10.2793 58.7871 7.50874C58.4855 7.47338 58.1839 7.44218 57.8802 7.41098C40.9386 5.72826 25.453 18.67 21.0247 28.5396C16.5964 38.4092 5.00869 47.8004 9.30389 66.0961C13.5991 84.3918 25.2679 94.1366 52.6241 97.0215C79.9802 99.9065 85.0284 92.0836 92.2897 74.9902C95.016 68.4922 96.9464 61.6884 98.0388 54.7268Z" fill="#6EB6FF"/>
<path opacity="0.8" d="M98.0388 54.7268C101.504 32.5915 83.0337 10.2793 58.7871 7.50874C58.4855 7.47338 58.1839 7.44218 57.8802 7.41098C40.9386 5.72826 25.453 18.67 21.0247 28.5396C16.5964 38.4092 5.00869 47.8004 9.30389 66.0961C13.5991 84.3918 25.2679 94.1366 52.6241 97.0215C79.9802 99.9065 85.0284 92.0836 92.2897 74.9902C95.016 68.4922 96.9464 61.6884 98.0388 54.7268Z" fill="white"/>
<path d="M28.6021 57.0294C23.2648 57.0294 19.1943 56.9566 19.0195 56.7382C19.0088 56.7233 19.0012 56.7064 18.9972 56.6885C18.9933 56.6707 18.9931 56.6521 18.9967 56.6342C19.1131 56.162 19.6747 54.6103 21.9503 54.4481C22.5519 54.4033 23.1568 54.4432 23.7474 54.5666C24.3589 54.681 24.5419 54.7164 24.8747 54.0529L24.9205 53.9614C25.5445 52.7134 26.4763 50.831 29.1887 50.9849C30.0331 51.0468 30.8599 51.2581 31.6306 51.6089C32.5333 51.9812 32.9451 52.1497 33.4527 51.0494C34.4531 48.8799 36.0901 46.802 40.6453 47.8316C45.0445 48.8238 46.1552 53.5641 46.2821 54.1714C46.7792 54.3025 47.3783 53.9884 48.0667 53.6286C49.1463 53.0649 50.3672 52.4284 51.6672 53.2646C53.7971 54.6332 53.8221 56.5801 53.8221 56.6633C53.8216 56.6904 53.8108 56.7162 53.7918 56.7355C53.7729 56.7549 53.7472 56.7662 53.7202 56.7673C50.128 56.8255 37.5815 57.0294 28.6021 57.0294ZM19.2151 56.6134C20.6149 57.0294 44.3123 56.7153 53.6079 56.5551C53.5704 56.1391 53.3146 54.5646 51.5549 53.4351C50.3568 52.6634 49.192 53.2729 48.1645 53.8095C47.4386 54.1881 46.7522 54.5458 46.1594 54.3482C46.1413 54.3425 46.1252 54.3318 46.1127 54.3175C46.1002 54.3032 46.0919 54.2858 46.0887 54.2671C46.0887 54.2151 45.1423 49.0546 40.5995 48.0271C36.2024 47.035 34.657 48.9319 33.6419 51.1305C33.0491 52.4118 32.4543 52.1705 31.5515 51.7961C30.8025 51.4534 29.9979 51.2484 29.1762 51.1908C26.6032 51.0494 25.7026 52.8548 25.1077 54.0508L25.0599 54.1444C24.6584 54.9473 24.3402 54.887 23.7079 54.7684C23.1352 54.648 22.5484 54.6088 21.9648 54.6519C19.968 54.7975 19.3835 56.0226 19.2151 56.6154V56.6134Z" fill="#263238"/>
<path d="M71.1568 67.8704C67.6645 67.8704 65.0478 67.8205 64.9293 67.6624C64.9185 67.6484 64.9109 67.6322 64.9069 67.615C64.903 67.5977 64.9028 67.5798 64.9064 67.5625C64.9813 67.2589 65.3432 66.2605 66.8013 66.1565C67.1835 66.1282 67.5679 66.1534 67.9432 66.2313C68.3259 66.3041 68.4153 66.3208 68.6129 65.9297L68.6421 65.8715C69.0123 65.1269 69.6363 63.8747 71.3648 63.9745C71.9015 64.0126 72.427 64.1464 72.9165 64.3697C73.4947 64.6069 73.711 64.6942 74.0147 64.0349C74.6512 62.6558 75.6933 61.3309 78.5907 61.9861C81.328 62.608 82.0622 65.52 82.16 65.9942C82.4553 66.0587 82.8193 65.8673 83.2333 65.651C83.8885 65.3099 84.7017 64.8835 85.54 65.4222C86.9003 66.2958 86.9149 67.5438 86.9149 67.5958C86.9144 67.6229 86.9035 67.6487 86.8846 67.6681C86.8656 67.6874 86.84 67.6988 86.8129 67.6998C82.992 67.7664 76.1737 67.8704 71.1568 67.8704ZM65.1248 67.5397C66.2022 67.7601 78.4493 67.6353 86.6965 67.4939C86.6387 67.1032 86.4947 66.7302 86.2749 66.4021C86.0551 66.074 85.7649 65.799 85.4256 65.5969C84.6893 65.1248 83.9696 65.5013 83.3289 65.8341C82.863 66.0774 82.4241 66.3062 82.0352 66.1773C82.0176 66.171 82.002 66.1602 81.99 66.1459C81.9779 66.1317 81.9698 66.1145 81.9665 66.0961C81.9665 66.0629 81.3737 62.8389 78.5366 62.1982C75.7931 61.5742 74.8301 62.7598 74.1977 64.1305C73.8088 64.9729 73.399 64.8024 72.8312 64.5694C72.3634 64.3556 71.8611 64.2274 71.3481 64.1909C69.7528 64.1035 69.1912 65.2309 68.8209 65.9713L68.7918 66.0296C68.5381 66.5392 68.3217 66.5246 67.8995 66.4456C67.5416 66.3687 67.1745 66.3442 66.8096 66.3728C65.624 66.456 65.2475 67.1632 65.131 67.5397H65.1248Z" fill="#263238"/>
<path d="M19.6768 22.5618C16.1845 22.5618 13.5678 22.5119 13.4493 22.3538C13.4385 22.3398 13.4309 22.3236 13.4269 22.3064C13.423 22.2891 13.4228 22.2712 13.4264 22.2539C13.5013 21.9503 13.8632 20.9519 15.3213 20.8479C15.7036 20.8196 16.0879 20.8448 16.4632 20.9227C16.8459 20.9955 16.9354 21.0122 17.133 20.6211L17.1621 20.5629C17.5323 19.8183 18.1501 18.5682 19.8869 18.6659C20.4227 18.7052 20.9473 18.839 21.4365 19.0611C22.0147 19.2983 22.231 19.3877 22.5347 18.7263C23.1733 17.3472 24.2133 16.0223 27.1107 16.6775C29.8522 17.3015 30.5843 20.2135 30.6862 20.6794C30.9816 20.7397 31.3435 20.5504 31.7616 20.3341C32.4147 19.993 33.228 19.5666 34.0662 20.1053C35.4266 20.9789 35.4411 22.2269 35.4411 22.2789C35.4411 22.3061 35.4305 22.3323 35.4114 22.3517C35.3923 22.3712 35.3664 22.3824 35.3392 22.3829C31.5141 22.464 24.6938 22.5618 19.6768 22.5618ZM13.6448 22.2311C14.7222 22.4515 26.9693 22.3267 35.2165 22.1853C35.1587 21.7946 35.0147 21.4217 34.7949 21.0935C34.5751 20.7654 34.285 20.4904 33.9456 20.2883C33.2093 19.8162 32.4896 20.1927 31.849 20.5275C31.383 20.7688 30.9442 20.9976 30.5552 20.8687C30.5376 20.8624 30.522 20.8516 30.51 20.8373C30.4979 20.8231 30.4899 20.8059 30.4866 20.7875C30.4866 20.7563 29.8938 17.5303 27.0566 16.8896C24.3131 16.2656 23.3501 17.4533 22.7178 18.8219C22.3288 19.6539 21.919 19.4938 21.3512 19.2608C20.8834 19.047 20.3812 18.9188 19.8682 18.8823C18.2707 18.7949 17.7112 19.9223 17.341 20.6627L17.3118 20.721C17.056 21.2306 16.848 21.216 16.432 21.137C16.074 21.0612 15.707 21.0367 15.3421 21.0642C14.144 21.1495 13.7675 21.8546 13.651 22.2311H13.6448Z" fill="#263238"/>
<path d="M69.9982 96.1706C70.0162 96.1797 70.0368 96.182 70.0563 96.177C70.0758 96.1721 70.0929 96.1602 70.1043 96.1436C71.0362 94.6799 71.5781 93.002 71.6782 91.2697C71.7783 89.5374 71.4334 87.8083 70.6763 86.247C70.6665 86.2281 70.6497 86.2138 70.6294 86.2071C70.6092 86.2005 70.5872 86.2021 70.5681 86.2116C70.5586 86.216 70.5502 86.2223 70.5432 86.2301C70.5362 86.238 70.5309 86.2471 70.5276 86.257C70.5243 86.267 70.5231 86.2775 70.5239 86.2879C70.5248 86.2983 70.5278 86.3085 70.5328 86.3177C71.2778 87.8541 71.6172 89.5557 71.5185 91.2603C71.4199 92.965 70.8865 94.6161 69.9691 96.0562C69.9633 96.065 69.9593 96.0747 69.9573 96.085C69.9553 96.0953 69.9553 96.1059 69.9575 96.1162C69.9596 96.1264 69.9637 96.1361 69.9697 96.1448C69.9756 96.1534 69.9832 96.1608 69.992 96.1665L69.9982 96.1706Z" fill="#263238"/>
<path d="M69.9587 92.7407C70.9197 92.9299 70.8739 94.5087 70.8344 94.5191C70.7741 94.6751 70.7117 94.8311 70.6431 94.9871C70.6576 94.7624 70.3789 94.284 69.7986 93.8285C69.2183 93.373 69.056 92.5264 69.9587 92.7407Z" fill="#263238"/>
<path d="M72.7044 93.4148C73.6404 93.6332 72.8916 94.7273 72.1179 94.7169C71.3441 94.7065 70.8241 94.8438 70.6619 94.9936C70.7409 94.8438 70.8158 94.6899 70.8844 94.536C70.9052 94.563 71.8121 93.2401 72.7044 93.4148Z" fill="#263238"/>
<path d="M70.1854 91.3118C71.163 91.3388 71.3855 92.8884 71.3502 92.9009C71.319 93.0652 71.2836 93.2274 71.2441 93.3897C71.2191 93.1671 70.8614 92.7491 70.2041 92.3996C69.5468 92.0502 69.2639 91.2473 70.1854 91.3118Z" fill="#263238"/>
<path d="M73.0081 91.52C73.9669 91.5804 73.4241 92.768 72.6524 92.8866C71.8807 93.0052 71.4044 93.2235 71.2629 93.3962C71.3129 93.2381 71.3586 93.078 71.4023 92.9178C71.4273 92.9282 72.0929 91.4888 73.0081 91.52Z" fill="#263238"/>
<path d="M70.1666 89.8559C71.1359 89.7207 71.6226 91.2037 71.581 91.2224C71.581 91.3868 71.5706 91.5511 71.5602 91.7175C71.4978 91.5095 71.0735 91.1538 70.3746 90.9208C69.6758 90.6879 69.239 89.9599 70.1666 89.8559Z" fill="#263238"/>
<path d="M72.981 89.5898C73.9358 89.4879 73.5905 90.7525 72.8583 90.9917C72.1262 91.2309 71.681 91.5305 71.575 91.7218C71.5978 91.5596 71.6145 91.3953 71.629 91.2289C71.6623 91.2476 72.0783 89.7209 72.981 89.5898Z" fill="#263238"/>
<path d="M69.9066 88.4353C70.8406 88.1399 71.5706 89.5273 71.5311 89.5481C71.5561 89.7124 71.5748 89.8746 71.5914 90.039C71.4937 89.8414 71.0194 89.5668 70.2914 89.4524C69.5634 89.338 69.0102 88.689 69.9066 88.4353Z" fill="#263238"/>
<path d="M72.6357 87.6967C73.5613 87.4388 73.4324 88.7367 72.7501 89.1049C72.0679 89.4731 71.6789 89.8308 71.6061 90.0367C71.6061 89.8724 71.5916 89.7081 71.5791 89.5438C71.6145 89.5563 71.7705 87.9838 72.6357 87.6967Z" fill="#263238"/>
<path d="M69.4075 87.0644C70.279 86.6172 71.2275 87.8735 71.2005 87.8964C71.2525 88.0545 71.2982 88.2126 71.3419 88.3728C71.213 88.1939 70.6971 88.0004 69.9608 88.0088C69.2245 88.0171 68.5651 87.4659 69.4075 87.0644Z" fill="#263238"/>
<path d="M71.9681 85.8745C72.8375 85.4585 72.9353 86.7856 72.3238 87.2536C71.7123 87.7216 71.3899 88.1542 71.3524 88.3705C71.3191 88.2083 71.2838 88.0461 71.2422 87.8859C71.2859 87.8942 71.1673 86.3009 71.9681 85.8745Z" fill="#263238"/>
<path d="M70.9156 86.9771C70.9406 86.9771 70.8075 85.5627 70.4164 84.8847C70.0254 84.2066 69.4555 84.321 69.2932 84.6143C69.131 84.9075 69.3993 85.3693 69.7092 85.7C70.0192 86.0307 70.9281 86.9584 70.9156 86.9771Z" fill="#263238"/>
<path d="M70.8906 87.0249C70.901 87.029 70.9123 87.0298 70.9231 87.0272C70.9339 87.0246 70.9436 87.0187 70.9509 87.0104C70.9557 87.0045 70.9582 86.9971 70.9582 86.9896C70.9582 86.982 70.9557 86.9747 70.9509 86.9688C70.9717 86.7046 70.7825 85.4421 70.4455 84.8597C70.3826 84.7137 70.2813 84.5874 70.1524 84.4944C70.0234 84.4014 69.8717 84.345 69.7133 84.3313C69.6168 84.3282 69.5212 84.3506 69.4361 84.3963C69.351 84.4419 69.2795 84.5092 69.2287 84.5913C69.002 84.9865 69.4908 85.5689 69.6447 85.7395C69.965 86.0349 70.7825 86.9043 70.8469 86.9979C70.8511 87.0059 70.8573 87.0127 70.865 87.0175C70.8727 87.0222 70.8816 87.0248 70.8906 87.0249ZM70.0004 84.5081C70.1602 84.6025 70.2883 84.7422 70.3685 84.9096C70.6785 85.4441 70.822 86.4384 70.8573 86.819C70.7825 86.7337 70.6639 86.611 70.4767 86.403C70.2354 86.1472 69.9151 85.8185 69.7404 85.6542C69.4471 85.3381 69.1871 84.9013 69.3389 84.635C69.3798 84.5692 69.4373 84.5154 69.5055 84.4789C69.5738 84.4424 69.6505 84.4245 69.7279 84.427C69.824 84.4316 69.9175 84.4594 70.0004 84.5081Z" fill="#263238"/>
<path d="M71.1005 96.9027C71.1158 96.922 71.1377 96.9349 71.162 96.9388C71.1863 96.9426 71.2111 96.9372 71.2316 96.9235C72.9706 95.7636 74.3836 94.1775 75.3358 92.3165C76.2879 90.4555 76.7475 88.3817 76.6708 86.2926C76.6728 86.2788 76.6719 86.2646 76.6679 86.2511C76.664 86.2376 76.6572 86.2251 76.6481 86.2145C76.6389 86.2039 76.6275 86.1954 76.6147 86.1895C76.602 86.1837 76.5881 86.1807 76.5741 86.1807C76.56 86.1807 76.5461 86.1837 76.5334 86.1895C76.5206 86.1954 76.5093 86.2039 76.5001 86.2145C76.4909 86.2251 76.4841 86.2376 76.4802 86.2511C76.4763 86.2646 76.4753 86.2788 76.4773 86.2926C76.5529 88.3487 76.1005 90.3898 75.1633 92.2213C74.226 94.0528 72.8352 95.6137 71.1234 96.755C71.1025 96.7694 71.0881 96.7913 71.083 96.8161C71.078 96.841 71.0828 96.8668 71.0964 96.8882L71.1005 96.9027Z" fill="#263238"/>
<path d="M72.7252 93.1026C73.6924 93.7786 72.875 95.4967 72.8271 95.4884C72.6836 95.6319 72.538 95.7754 72.3882 95.9044C72.513 95.6631 72.4382 94.9996 72.0201 94.2154C71.602 93.4313 71.8287 92.4245 72.7252 93.1026Z" fill="#263238"/>
<path d="M75.425 95.1807C76.3506 95.8775 74.9944 96.7178 74.1458 96.3309C73.3034 95.9794 72.6565 95.8421 72.4006 95.9253C72.5587 95.7984 72.7147 95.6653 72.8666 95.5301C72.8832 95.5717 74.5243 94.5525 75.425 95.1807Z" fill="#263238"/>
<path d="M73.6715 91.6299C74.7365 92.1354 74.231 93.9512 74.1832 93.9491C74.0709 94.1135 73.9523 94.2757 73.8317 94.4359C73.9086 94.18 73.7194 93.5435 73.1723 92.8426C72.6253 92.1416 72.6731 91.1141 73.6715 91.6299Z" fill="#263238"/>
<path d="M76.6814 93.2255C77.7089 93.758 76.5212 94.8021 75.6247 94.5608C74.7366 94.3528 74.0793 94.3237 73.8442 94.4464C73.9829 94.2939 74.1119 94.14 74.2311 93.9847C74.2561 94.0159 75.6871 92.7679 76.6814 93.2255Z" fill="#263238"/>
<path d="M74.3536 90.0284C75.4872 90.3487 75.2959 92.2186 75.2501 92.2228C75.1669 92.4016 75.0796 92.5805 74.986 92.7573C75.0192 92.4932 74.7239 91.9004 74.0666 91.3013C73.4093 90.7023 73.2824 89.6872 74.3536 90.0284Z" fill="#263238"/>
<path d="M77.5841 91.104C78.6865 91.4555 77.6923 92.6806 76.7667 92.5912C75.8411 92.5017 75.2087 92.612 74.9966 92.7721C75.1006 92.6016 75.2046 92.4289 75.2982 92.2542C75.3294 92.2854 76.5295 90.8045 77.5841 91.104Z" fill="#263238"/>
<path d="M74.7614 88.331C75.9324 88.46 76.0531 90.3382 76.0094 90.3486C75.9574 90.54 75.9012 90.7292 75.8388 90.9185C75.8263 90.6523 75.4353 90.1177 74.6886 89.6393C73.9419 89.1609 73.6465 88.175 74.7614 88.331Z" fill="#263238"/>
<path d="M78.1289 88.843C79.2729 89.0073 78.4971 90.3863 77.5694 90.4508C76.6417 90.5153 76.0364 90.7316 75.8555 90.923C75.9303 90.7399 75.999 90.5527 76.0635 90.3655C76.0988 90.3967 77.0348 88.7348 78.1289 88.843Z" fill="#263238"/>
<path d="M74.88 86.5777C76.0573 86.5069 76.492 88.3519 76.4504 88.3685C76.4317 88.5661 76.4067 88.7638 76.3776 88.9614C76.3215 88.7014 75.8472 88.2375 75.0298 87.8901C74.2123 87.5428 73.7527 86.6109 74.88 86.5777Z" fill="#263238"/>
<path d="M78.2829 86.5112C79.4394 86.48 78.9069 87.9859 78.0021 88.2043C77.0973 88.4227 76.5357 88.7451 76.3901 88.9635C76.4317 88.7701 76.4713 88.5725 76.5045 88.377C76.5441 88.3999 77.1868 86.5923 78.2829 86.5112Z" fill="#263238"/>
<path d="M76.5814 87.2142C76.6022 87.237 77.1493 85.6022 77.0473 84.6641C76.9454 83.726 76.2611 83.5742 75.9387 83.8196C75.6163 84.065 75.6891 84.7036 75.8638 85.2174C76.0781 85.7103 76.6043 87.1996 76.5814 87.2142Z" fill="#263238"/>
<path d="M76.5295 87.2538C76.5393 87.2633 76.5516 87.2695 76.565 87.2718C76.5784 87.274 76.5922 87.2721 76.6044 87.2663C76.6127 87.2628 76.6198 87.257 76.625 87.2497C76.6301 87.2423 76.6331 87.2337 76.6335 87.2247C76.7854 86.946 77.1889 85.4608 77.0995 84.6538C77.0641 84.1983 76.8644 83.8572 76.5503 83.7157C76.4457 83.6651 76.3295 83.6433 76.2136 83.6524C76.0977 83.6616 75.9864 83.7014 75.891 83.7677C75.4459 84.0922 75.7038 84.9741 75.7932 85.2362C76.0012 85.7167 76.4796 87.0728 76.5067 87.208C76.5071 87.2168 76.5094 87.2254 76.5134 87.2333C76.5173 87.2412 76.5228 87.2481 76.5295 87.2538ZM76.7708 84.0464C76.9008 84.2291 76.9732 84.4464 76.9788 84.6704C77.0599 85.4109 76.7355 86.5757 76.5899 87.0125C76.5483 86.8836 76.4775 86.686 76.3694 86.376C76.2259 85.9788 76.0345 85.4588 75.9201 85.1925C75.7516 84.7016 75.6767 84.0922 75.9742 83.8738C76.0513 83.822 76.1407 83.7913 76.2334 83.7847C76.326 83.7782 76.4188 83.796 76.5025 83.8364C76.6073 83.8841 76.6993 83.9561 76.7708 84.0464Z" fill="#263238"/>
<path d="M80.2215 96.5701C80.2315 96.5746 80.2426 96.5757 80.2532 96.5731C80.2638 96.5704 80.2732 96.5642 80.2798 96.5555C80.7906 95.8774 81.0927 95.0652 81.1492 94.2182C81.2057 93.3711 81.0142 92.526 80.598 91.7861C80.592 91.7761 80.5825 91.7688 80.5714 91.7653C80.5603 91.7619 80.5483 91.7626 80.5377 91.7673C80.5329 91.7694 80.5286 91.7724 80.5249 91.7761C80.5213 91.7798 80.5184 91.7842 80.5165 91.789C80.5146 91.7939 80.5136 91.799 80.5137 91.8042C80.5137 91.8094 80.5148 91.8146 80.5169 91.8193C80.9271 92.5469 81.1162 93.3783 81.0612 94.2118C81.0062 95.0452 80.7093 95.8445 80.207 96.5118C80.2036 96.516 80.2013 96.5209 80.2001 96.5261C80.1989 96.5313 80.1989 96.5367 80.2001 96.5419C80.2013 96.5471 80.2037 96.552 80.207 96.5561C80.2104 96.5603 80.2146 96.5636 80.2195 96.5659L80.2215 96.5701Z" fill="#263238"/>
<path d="M80.2005 94.9165C80.7309 95.006 80.7059 95.7693 80.6851 95.7735C80.6518 95.8484 80.6165 95.9232 80.579 95.9981C80.579 95.89 80.4314 95.6591 80.111 95.4407C79.7907 95.2223 79.6992 94.8125 80.2005 94.9165Z" fill="#263238"/>
<path d="M81.7191 95.2412C82.2349 95.3473 81.821 95.8652 81.3946 95.8652C81.1181 95.8454 80.8409 95.891 80.5854 95.9984C80.6291 95.9256 80.6707 95.8528 80.7082 95.7779C80.7248 95.7945 81.224 95.156 81.7191 95.2412Z" fill="#263238"/>
<path d="M80.3252 94.224C80.866 94.2365 80.9888 94.9832 80.97 94.9915C80.9513 95.0685 80.9326 95.1475 80.9118 95.2245C80.8972 95.1184 80.7038 94.9167 80.3398 94.7482C79.9758 94.5797 79.8115 94.197 80.3252 94.224Z" fill="#263238"/>
<path d="M81.8836 94.3214C82.414 94.3505 82.1082 94.9246 81.686 94.9808C81.2637 95.0369 80.9954 95.143 80.9185 95.2262C80.9476 95.1492 80.9725 95.0723 80.9954 94.9953C81.0121 95.0057 81.3802 94.311 81.8836 94.3214Z" fill="#263238"/>
<path d="M80.3148 93.5271C80.8515 93.4626 81.1156 94.176 81.0969 94.1864C81.0969 94.2655 81.0928 94.3445 81.0844 94.4235C81.0512 94.3216 80.8161 94.1532 80.4313 94.0408C80.0465 93.9285 79.8032 93.5749 80.3148 93.5271Z" fill="#263238"/>
<path d="M81.8707 93.3918C82.399 93.344 82.2077 93.9534 81.8021 94.0678C81.3965 94.1822 81.1531 94.3278 81.0928 94.4214C81.1053 94.3424 81.1157 94.2613 81.124 94.1822C81.1427 94.1947 81.3715 93.4605 81.8707 93.3918Z" fill="#263238"/>
<path d="M80.1714 92.8405C80.6873 92.6969 81.0866 93.3667 81.07 93.3771C81.0825 93.4541 81.0949 93.5331 81.1033 93.6121C81.0492 93.5185 80.7871 93.3854 80.3836 93.3313C79.98 93.2773 79.6764 92.9632 80.1714 92.8405Z" fill="#263238"/>
<path d="M81.6796 92.483C82.1912 92.3582 82.1205 92.9905 81.744 93.1631C81.3676 93.3358 81.1512 93.5126 81.12 93.6124C81.12 93.5334 81.12 93.4543 81.1055 93.3753C81.12 93.3919 81.2012 92.6203 81.6796 92.483Z" fill="#263238"/>
<path d="M79.8971 92.1792C80.3776 91.9712 80.9018 92.5682 80.8872 92.5807C80.9143 92.6576 80.9413 92.7346 80.9663 92.8095C80.8935 92.7242 80.6085 92.6306 80.2029 92.6347C79.7973 92.6389 79.4312 92.3727 79.8971 92.1792Z" fill="#263238"/>
<path d="M81.3135 91.6051C81.794 91.3971 81.8481 92.044 81.5091 92.2707C81.17 92.4974 80.9932 92.7054 80.9724 92.8094C80.9558 92.7304 80.935 92.6534 80.9121 92.5744C80.9329 92.5785 80.8684 91.811 81.3135 91.6051Z" fill="#263238"/>
<path d="M80.7291 92.1441C80.7094 91.7923 80.6158 91.4486 80.4545 91.1353C80.2465 90.8087 79.9221 90.8628 79.8305 91.0043C79.739 91.1457 79.8888 91.3683 80.0573 91.5284C80.2257 91.6886 80.7374 92.1275 80.7291 92.1441Z" fill="#263238"/>
<path d="M80.7167 92.1608C80.7217 92.1639 80.7275 92.1656 80.7333 92.1656C80.7392 92.1656 80.745 92.1639 80.75 92.1608C80.75 92.1608 80.75 92.1504 80.75 92.14C80.7317 91.7848 80.6366 91.4378 80.4713 91.1228C80.4311 91.0493 80.3727 90.9874 80.3016 90.9429C80.2306 90.8985 80.1493 90.8731 80.0657 90.8691C80.0144 90.8664 79.9633 90.8764 79.9169 90.8982C79.8705 90.9199 79.8301 90.9528 79.7994 90.9939C79.6725 91.1852 79.9429 91.466 80.0303 91.5472C80.2071 91.6907 80.6543 92.1088 80.6938 92.1545C80.7004 92.1593 80.7086 92.1616 80.7167 92.1608ZM80.2237 90.946C80.3108 90.9884 80.3832 91.0558 80.4317 91.1395C80.5801 91.4265 80.6719 91.7393 80.7021 92.0609C80.6605 92.0193 80.594 91.959 80.4941 91.8529C80.3943 91.7468 80.1821 91.57 80.0781 91.4931C79.9159 91.3392 79.7724 91.1291 79.8556 91.0001C79.8801 90.9686 79.9117 90.9433 79.9479 90.9263C79.984 90.9094 80.0237 90.9011 80.0636 90.9024C80.1197 90.9042 80.1745 90.9191 80.2237 90.946Z" fill="#263238"/>
<path d="M80.833 96.9279C80.843 96.936 80.8555 96.9404 80.8684 96.9404C80.8813 96.9404 80.8938 96.936 80.9038 96.9279C82.8506 95.8026 84.003 93.8391 83.9094 91.8028C83.9069 91.7905 83.9003 91.7795 83.8906 91.7715C83.881 91.7636 83.8688 91.7593 83.8563 91.7593C83.8438 91.7593 83.8317 91.7636 83.822 91.7715C83.8123 91.7795 83.8057 91.7905 83.8033 91.8028C83.8948 93.8058 82.7633 95.7382 80.8455 96.8468C80.8397 96.8495 80.8346 96.8534 80.8306 96.8584C80.8265 96.8634 80.8237 96.8692 80.8223 96.8754C80.8209 96.8817 80.8209 96.8882 80.8225 96.8944C80.824 96.9006 80.8269 96.9064 80.831 96.9113L80.833 96.9279Z" fill="#263238"/>
<path d="M81.7295 95.0911C82.2641 95.4156 81.8127 96.2455 81.7857 96.2392C81.7066 96.31 81.6255 96.3786 81.5444 96.4472C81.613 96.3308 81.5714 96.0104 81.3364 95.6319C81.1013 95.2533 81.2345 94.7645 81.7295 95.0911Z" fill="#263238"/>
<path d="M83.221 96.0961C83.7327 96.4331 82.9839 96.8366 82.5138 96.6515C82.0437 96.4664 81.6922 96.4164 81.5508 96.456C81.6381 96.3936 81.7234 96.3312 81.8066 96.2646C81.817 96.2812 82.7239 95.7904 83.221 96.0961Z" fill="#263238"/>
<path d="M82.2518 94.3796C82.8404 94.623 82.5617 95.5008 82.5346 95.4987C82.4722 95.5777 82.4077 95.6568 82.3412 95.7337C82.3849 95.6089 82.2788 95.3032 81.9772 94.9662C81.6756 94.6292 81.7006 94.1321 82.2518 94.3796Z" fill="#263238"/>
<path d="M83.9155 95.1494C84.4833 95.4052 83.8281 95.9086 83.331 95.7921C82.8339 95.6756 82.4782 95.6777 82.3472 95.738C82.42 95.6652 82.4928 95.5904 82.5552 95.5155C82.576 95.5342 83.3664 94.9248 83.9155 95.1494Z" fill="#263238"/>
<path d="M82.6301 93.5999C83.2541 93.7538 83.1501 94.6565 83.1252 94.6586C83.0794 94.7439 83.0295 94.8312 82.9796 94.9144C82.9962 94.7875 82.834 94.4984 82.47 94.2155C82.106 93.9327 82.0373 93.4439 82.6301 93.5999Z" fill="#263238"/>
<path d="M84.4168 94.124C85.0262 94.2925 84.475 94.8832 83.9654 94.8396C83.4558 94.7959 83.1043 94.85 82.9878 94.9269C83.044 94.8458 83.1001 94.7626 83.1542 94.6794C83.1688 94.696 83.824 93.9826 84.4168 94.124Z" fill="#263238"/>
<path d="M82.8547 92.7908C83.5016 92.8511 83.5682 93.758 83.5453 93.7622C83.5162 93.8537 83.485 93.9452 83.4496 94.0367C83.4496 93.9099 83.227 93.6519 82.8152 93.4127C82.4034 93.1735 82.239 92.7138 82.8547 92.7908Z" fill="#263238"/>
<path d="M84.7143 93.0364C85.3487 93.1154 84.9223 93.781 84.4065 93.8122C83.8906 93.8434 83.5599 93.9474 83.458 94.039C83.4996 93.9516 83.5391 93.8622 83.5745 93.7706C83.5932 93.7873 84.1111 92.9761 84.7143 93.0364Z" fill="#263238"/>
<path d="M82.917 91.936C83.568 91.9027 83.8093 92.7908 83.7864 92.7992C83.7739 92.8948 83.7615 92.9905 83.7448 93.0862C83.7136 92.9593 83.4515 92.7368 83.0002 92.5683C82.5488 92.3998 82.2971 91.9609 82.917 91.936Z" fill="#263238"/>
<path d="M84.7995 91.9128C85.4402 91.8983 85.1448 92.6221 84.6456 92.7282C84.1464 92.8343 83.8344 92.9882 83.7554 93.0943C83.7783 93.0007 83.799 92.907 83.8178 92.8114C83.8386 92.8238 84.1942 91.9503 84.7995 91.9128Z" fill="#263238"/>
<path d="M83.8595 92.2519C83.872 92.2623 84.1736 91.474 84.1174 91.0206C84.0613 90.5671 83.6848 90.4964 83.5059 90.6046C83.327 90.7127 83.3665 91.031 83.4643 91.2785C83.6137 91.5955 83.7456 91.9205 83.8595 92.2519Z" fill="#263238"/>
<path d="M83.8241 92.2707C83.8303 92.2748 83.8375 92.277 83.8449 92.277C83.8523 92.277 83.8595 92.2748 83.8657 92.2707C83.8699 92.2693 83.8736 92.2669 83.8765 92.2636C83.8795 92.2603 83.8815 92.2563 83.8823 92.252C84.0581 91.8597 84.1461 91.4338 84.1403 91.004C84.1383 90.9073 84.1087 90.8131 84.0549 90.7328C84.001 90.6524 83.9253 90.5891 83.8366 90.5505C83.778 90.5268 83.7148 90.5167 83.6517 90.521C83.5886 90.5253 83.5274 90.544 83.4726 90.5755C83.2271 90.7336 83.3686 91.1579 83.4185 91.2827C83.5329 91.5157 83.7971 92.1688 83.8116 92.2354C83.8092 92.2418 83.8091 92.2488 83.8114 92.2553C83.8137 92.2618 83.8182 92.2672 83.8241 92.2707ZM83.9572 90.7232C84.0283 90.8081 84.0692 90.9141 84.0737 91.0248C84.079 91.4106 84.0083 91.7936 83.8657 92.1522C83.8428 92.0898 83.8033 91.9941 83.743 91.8464C83.6639 91.655 83.5579 91.4033 83.4955 91.2765C83.4019 91.0393 83.3603 90.7461 83.5246 90.64C83.5688 90.6146 83.6182 90.5998 83.669 90.5965C83.7199 90.5933 83.7708 90.6017 83.8179 90.6213C83.8739 90.6441 83.9243 90.6789 83.9655 90.7232H83.9572Z" fill="#263238"/>
<path d="M9.98395 95.813C9.97419 95.8175 9.96326 95.8187 9.95277 95.8164C9.94228 95.8142 9.93279 95.8086 9.92571 95.8005C9.41483 95.122 9.11283 94.3093 9.05668 93.4619C9.00053 92.6144 9.19266 91.769 9.60955 91.029C9.61555 91.0196 9.62465 91.0126 9.63529 91.0091C9.64593 91.0057 9.65743 91.0061 9.66779 91.0103C9.67277 91.0121 9.67732 91.0149 9.68112 91.0186C9.68493 91.0223 9.68792 91.0267 9.68988 91.0316C9.69185 91.0365 9.69275 91.0418 9.69253 91.0471C9.6923 91.0524 9.69096 91.0576 9.68859 91.0623C9.27782 91.7906 9.08854 92.6229 9.14396 93.4572C9.19938 94.2914 9.4971 95.0914 10.0006 95.7589C10.0035 95.7632 10.0054 95.768 10.0062 95.7731C10.0071 95.7782 10.0068 95.7834 10.0054 95.7883C10.004 95.7933 10.0015 95.7979 9.9982 95.8018C9.99486 95.8057 9.99071 95.8088 9.98603 95.8109L9.98395 95.813Z" fill="#263238"/>
<path d="M10.0028 94.1592C9.47243 94.2507 9.49739 95.012 9.52027 95.0161C9.55355 95.091 9.58683 95.168 9.62427 95.2429C9.62427 95.1326 9.77195 94.9017 10.0923 94.6833C10.4126 94.4649 10.5062 94.0552 10.0028 94.1592Z" fill="#263238"/>
<path d="M8.4864 94.4839C7.96848 94.59 8.3824 95.1079 8.81088 95.1079C9.23936 95.1079 9.5264 95.1682 9.61792 95.241C9.57424 95.1682 9.53472 95.0954 9.4952 95.0206C9.48064 95.0372 8.97936 94.3986 8.4864 94.4839Z" fill="#263238"/>
<path d="M9.87801 93.4667C9.33929 93.4812 9.21449 94.228 9.23529 94.2342C9.25193 94.3132 9.27065 94.3902 9.29353 94.4692C9.30809 94.3611 9.50153 94.1593 9.86345 93.9929C10.2254 93.8265 10.4001 93.4396 9.87801 93.4667Z" fill="#263238"/>
<path d="M8.32 93.5646C7.79168 93.5937 8.09536 94.1678 8.528 94.2239C8.96064 94.2801 9.22064 94.3883 9.29552 94.4715C9.26848 94.3945 9.24352 94.3175 9.21856 94.2385C9.19152 94.2489 8.82336 93.5542 8.32 93.5646Z" fill="#263238"/>
<path d="M9.88823 92.7678C9.35367 92.7033 9.08743 93.4188 9.10615 93.4271C9.10615 93.5062 9.11031 93.5852 9.11863 93.6643C9.15399 93.5623 9.38695 93.3939 9.77383 93.2815C10.1607 93.1692 10.3999 92.8177 9.88823 92.7678Z" fill="#263238"/>
<path d="M8.33466 92.6389C7.80634 92.5911 7.9977 93.2005 8.40122 93.317C8.80474 93.4335 9.05226 93.5749 9.1105 93.6685C9.09802 93.5895 9.08762 93.5104 9.0793 93.4314C9.06266 93.4397 8.83178 92.7034 8.33466 92.6389Z" fill="#263238"/>
<path d="M10.0319 92.0836C9.5161 91.9422 9.11882 92.6099 9.13546 92.6203C9.1209 92.6993 9.1105 92.7783 9.1001 92.8574C9.15418 92.7617 9.41834 92.6286 9.81978 92.5745C10.2212 92.5204 10.5291 92.2063 10.0319 92.0836Z" fill="#263238"/>
<path d="M8.52809 91.7277C8.01641 91.6029 8.08921 92.2331 8.46569 92.4057C8.84217 92.5784 9.05641 92.7573 9.08969 92.855C9.08969 92.776 9.08969 92.6969 9.10425 92.6179C9.08761 92.6241 9.00233 91.8629 8.52809 91.7277Z" fill="#263238"/>
<path d="M10.3084 91.4223C9.8279 91.2143 9.30374 91.8133 9.3183 91.8258C9.28918 91.9007 9.26214 91.9776 9.23926 92.0546C9.30998 91.9672 9.59494 91.8757 10.0026 91.8799C10.4103 91.884 10.7722 91.6157 10.3084 91.4223Z" fill="#263238"/>
<path d="M8.88995 90.8481C8.41155 90.6505 8.35747 91.2869 8.69443 91.5137C9.03139 91.7404 9.21027 91.9484 9.23107 92.0524C9.24979 91.9733 9.26851 91.8964 9.29139 91.8173C9.27059 91.8215 9.33507 91.054 8.88995 90.8481Z" fill="#263238"/>
<path d="M9.47447 91.3804C9.49639 91.0287 9.59057 90.6853 9.75111 90.3716C9.95911 90.0451 10.2815 90.0991 10.3751 90.2406C10.4687 90.382 10.3169 90.6046 10.1484 90.7647C9.97991 90.9249 9.46615 91.3721 9.47447 91.3804Z" fill="#263238"/>
<path d="M9.48885 91.4034C9.48379 91.4063 9.47805 91.4078 9.47221 91.4078C9.46636 91.4078 9.46063 91.4063 9.45557 91.4034C9.45557 91.4034 9.45557 91.4034 9.45557 91.3847C9.47425 91.0293 9.57007 90.6822 9.73637 90.3675C9.7758 90.2937 9.83369 90.2313 9.90441 90.1864C9.97513 90.1416 10.0563 90.1158 10.1399 90.1117C10.1914 90.1092 10.2427 90.1193 10.2894 90.141C10.3362 90.1628 10.3769 90.1955 10.4082 90.2365C10.533 90.4279 10.2626 90.7087 10.1773 90.7898C10.0005 90.9333 9.55333 91.3535 9.51173 91.3971C9.50885 91.4002 9.50519 91.4024 9.50116 91.4035C9.49712 91.4046 9.49287 91.4045 9.48885 91.4034ZM9.98389 90.1907C9.89686 90.2331 9.82444 90.3005 9.77589 90.3842C9.62589 90.6726 9.53469 90.9879 9.50757 91.3119C9.54917 91.2723 9.61365 91.2099 9.71557 91.1143C9.81749 91.0186 10.0255 90.8335 10.1316 90.7544C10.2917 90.6005 10.4373 90.3904 10.352 90.2615C10.3275 90.2299 10.2959 90.2047 10.2597 90.1877C10.2236 90.1707 10.184 90.1625 10.144 90.1637C10.0893 90.1596 10.0343 90.1689 9.98389 90.1907Z" fill="#263238"/>
<path d="M9.37252 96.1666C9.36305 96.1758 9.35089 96.1818 9.33781 96.1836C9.32473 96.1855 9.31139 96.1832 9.29972 96.177C7.35284 95.0496 6.20052 93.0861 6.29412 91.0498C6.29617 91.0367 6.30313 91.0249 6.31356 91.0168C6.32399 91.0087 6.33712 91.0049 6.35028 91.0061C6.35673 91.0058 6.36318 91.0068 6.36922 91.0091C6.37527 91.0114 6.38079 91.0149 6.38546 91.0193C6.39012 91.0238 6.39383 91.0292 6.39637 91.0351C6.3989 91.0411 6.4002 91.0475 6.4002 91.0539C6.30868 93.057 7.4402 94.9914 9.36004 96.0979C9.36557 96.1009 9.3704 96.105 9.3742 96.11C9.378 96.115 9.38069 96.1207 9.38207 96.1268C9.38345 96.1329 9.3835 96.1393 9.38221 96.1454C9.38092 96.1516 9.37832 96.1574 9.3746 96.1624L9.37252 96.1666Z" fill="#263238"/>
<path d="M8.47385 94.3339C7.93929 94.6584 8.39273 95.4883 8.41977 95.4842C8.49673 95.5528 8.57785 95.6215 8.66105 95.6922C8.59241 95.5757 8.63401 95.2554 8.86905 94.8789C9.10409 94.5024 8.97097 94.0157 8.47385 94.3339Z" fill="#263238"/>
<path d="M6.98258 95.3346C6.4709 95.6799 7.22178 96.0772 7.69602 95.8879C8.17026 95.6986 8.52802 95.6529 8.66114 95.6924C8.57378 95.63 8.48642 95.5676 8.40322 95.501C8.38658 95.5239 7.48802 95.033 6.98258 95.3346Z" fill="#263238"/>
<path d="M7.95191 93.6248C7.36327 93.8681 7.64199 94.7438 7.66903 94.7417C7.73143 94.8208 7.79591 94.8998 7.86455 94.9768C7.82087 94.852 7.92695 94.5462 8.22855 94.2092C8.53015 93.8723 8.50311 93.3752 7.95191 93.6248Z" fill="#263238"/>
<path d="M6.28773 94.3926C5.71989 94.6484 6.37717 95.1538 6.87221 95.0374C7.36725 94.9209 7.72709 94.923 7.85605 94.9812C7.78325 94.9084 7.71253 94.8356 7.64805 94.7586C7.63141 94.7774 6.83685 94.1679 6.28773 94.3926Z" fill="#263238"/>
<path d="M7.5754 92.851C6.9514 93.007 7.0554 93.9076 7.08036 93.9097C7.12612 93.995 7.17396 94.0824 7.22596 94.1676C7.20724 94.0387 7.37156 93.7516 7.73348 93.4667C8.0954 93.1817 8.16612 92.6867 7.5754 92.851Z" fill="#263238"/>
<path d="M5.78662 93.3667C5.17926 93.5373 5.72838 94.128 6.23798 94.0843C6.74758 94.0406 7.10118 94.0947 7.21766 94.1717C7.15942 94.0885 7.10326 94.0053 7.05126 93.9221C7.03462 93.9387 6.37318 93.2253 5.78662 93.3667Z" fill="#263238"/>
<path d="M7.35077 92.0336C6.70389 92.096 6.63525 93.0008 6.66021 93.0049C6.68933 93.0978 6.72053 93.1894 6.75381 93.2795C6.75381 93.1526 6.97637 92.8947 7.39029 92.6555C7.80421 92.4163 7.96645 91.9587 7.35077 92.0336Z" fill="#263238"/>
<path d="M5.48922 92.2793C4.86522 92.3583 5.28122 93.0239 5.79706 93.0551C6.3129 93.0863 6.6457 93.1903 6.74554 93.2839C6.70394 93.1945 6.6665 93.105 6.62906 93.0135C6.61034 93.0302 6.09242 92.2273 5.48922 92.2793Z" fill="#263238"/>
<path d="M7.27998 91.1869C6.62894 91.1537 6.38974 92.0439 6.41262 92.0501C6.42302 92.1458 6.43758 92.2415 6.45214 92.3372C6.48334 92.2124 6.74542 91.9877 7.19678 91.8213C7.64814 91.6549 7.90398 91.2036 7.27998 91.1869Z" fill="#263238"/>
<path d="M5.40801 91.156C4.76945 91.1414 5.06481 91.8673 5.56401 91.9734C6.06321 92.0795 6.37313 92.2313 6.45425 92.3374C6.43137 92.2438 6.40849 92.1502 6.39185 92.0545C6.36481 92.0691 6.00913 91.1955 5.40801 91.156Z" fill="#263238"/>
<path d="M6.34399 91.4951C6.33151 91.5055 6.02991 90.7171 6.08607 90.2658C6.14223 89.8144 6.52079 89.7395 6.69759 89.8498C6.87439 89.96 6.83695 90.2762 6.73919 90.5237C6.64143 90.7712 6.33151 91.4888 6.34399 91.4951Z" fill="#263238"/>
<path d="M6.37308 91.5199C6.36675 91.5235 6.35958 91.5254 6.35228 91.5254C6.34497 91.5254 6.3378 91.5235 6.33148 91.5199C6.33148 91.5199 6.31692 91.5199 6.31484 91.4991C6.13907 91.1068 6.05105 90.6809 6.05692 90.2511C6.05927 90.1542 6.08931 90.06 6.14349 89.9796C6.19768 89.8993 6.27374 89.8361 6.36268 89.7976C6.42126 89.7738 6.48449 89.7637 6.54756 89.7681C6.61063 89.7724 6.67189 89.791 6.72668 89.8226C6.97212 89.9807 6.8286 90.405 6.78076 90.5319C6.66428 90.7627 6.40012 91.4179 6.38556 91.4824C6.38767 91.4856 6.38904 91.4892 6.38955 91.493C6.39006 91.4967 6.3897 91.5006 6.38849 91.5042C6.38729 91.5078 6.38527 91.5111 6.3826 91.5138C6.37993 91.5165 6.37667 91.5186 6.37308 91.5199ZM6.23996 89.9682C6.1706 90.0533 6.12984 90.1581 6.12348 90.2677C6.11814 90.6542 6.18881 91.0379 6.33148 91.3971C6.35436 91.3347 6.3918 91.2391 6.45212 91.0893C6.53116 90.8979 6.63724 90.6463 6.70172 90.5194C6.79324 90.2823 6.83484 89.989 6.67052 89.8829C6.62653 89.8579 6.57737 89.8434 6.52686 89.8405C6.47635 89.8376 6.42586 89.8464 6.37932 89.8663C6.32536 89.8886 6.27756 89.9235 6.23996 89.9682Z" fill="#263238"/>
<path d="M77.4134 51.6881C76.935 51.1848 76.3485 50.1656 75.9283 49.3356C75.8451 49.0964 75.7578 48.8614 75.6558 48.6305C75.5747 48.4412 75.4832 48.2582 75.3896 48.0793C75.3896 48.0793 75.3896 48.0668 75.4 48.0689C75.5456 48.1105 76.544 48.2894 76.0864 47.318C75.6288 46.3467 73.6986 45.3774 73.6986 45.3774C73.6986 45.3774 74.1894 44.9406 73.7318 44.7035C73.0797 44.4265 72.4009 44.2174 71.7059 44.0795C71.4501 44.0608 68.8542 42.48 68.1054 42.5278C67.3566 42.5756 67.9806 42.9667 67.9806 42.9667C67.5123 42.7744 67.0239 42.6348 66.5246 42.5507C66.2173 42.5018 65.9059 42.4829 65.5949 42.4945C65.5949 42.4945 63.881 42.428 62.737 43.3078C61.593 44.1876 61.5659 45.0238 61.0314 45.5958C60.4968 46.1678 57.9384 45.7643 56.8422 46.6587C55.7461 47.5531 56.4762 48.4974 56.2827 48.8115C56.0893 49.1256 54.236 50.2675 55.2011 51.4968C55.9437 52.4348 58.5894 52.5368 59.6586 52.7073C59.8 52.7718 59.9477 52.8342 60.1016 52.8904C59.8499 53.2419 58.4002 52.986 59.9747 53.9075C61.4037 54.7395 62.972 54.3235 63.8851 54.7707C64.5778 55.2574 65.0707 55.7545 65.2392 56.2267C65.6552 57.352 65.9568 58.4377 65.9568 58.4377C65.9568 58.4377 67.9848 57.1065 69.1642 56.6302C69.4962 56.555 69.842 56.5658 70.1688 56.6614C71.0778 56.9734 73.3117 59.0804 73.9981 58.6998C74.6845 58.3192 74.3246 57.7409 74.3246 57.7409C74.3246 57.7409 75.8451 58.4897 76.2403 58.0259C76.3537 57.8808 76.4305 57.7106 76.4642 57.5295C76.4979 57.3485 76.4874 57.162 76.4338 56.9859C76.4338 56.9859 78.0978 56.6718 78.7218 55.0619C79.3458 53.452 78.3016 52.6241 77.4134 51.6881Z" fill="#6EB6FF"/>
<path d="M92.9345 23.6227C90.9606 22.6284 88.1692 20.3196 86.0872 18.3977C85.6067 17.8153 85.1116 17.2433 84.5833 16.6942C84.1528 16.2491 83.6993 15.8248 83.2355 15.4108C83.2355 15.388 83.2355 15.3734 83.2563 15.3734C83.7576 15.3734 87.0939 15.0884 84.758 12.8129C82.4222 10.5374 75.4147 9.39756 75.4147 9.39756C75.4147 9.39756 76.5836 7.8334 74.9134 7.54844C73.2432 7.26348 68.742 7.26556 67.9059 7.407C67.0697 7.54844 57.3956 5.27292 55.0598 5.98428C52.724 6.69564 55.0598 7.26556 55.0598 7.26556C55.0598 7.26556 52.2227 6.9806 50.0532 7.26556C47.8838 7.55052 47.0518 7.8334 47.0518 7.8334C47.0518 7.8334 41.544 8.97116 38.7089 12.243C35.8739 15.5148 36.5395 17.7904 35.3809 19.7809C34.2224 21.7715 25.7048 22.6264 23.0361 25.8982C20.3675 29.17 23.5353 31.1606 23.2025 32.1569C22.8697 33.1532 18.0296 37.7043 22.2 40.2689C25.399 42.2241 33.9041 40.4915 37.4401 40.1025C37.9504 40.1691 38.4739 40.2204 39.0105 40.2564C38.5342 41.4025 33.694 41.8289 39.5347 43.1081C44.8262 44.2688 49.4334 41.9246 52.7344 42.428C55.3739 43.21 57.3915 44.1752 58.3504 45.3067C60.6841 48.0481 62.6435 50.7521 62.6435 50.7521C62.6435 50.7521 67.8788 45.5792 71.1944 43.3785C72.1886 42.9521 73.3118 42.638 74.4142 42.688C77.5841 42.8315 86.5947 46.8126 88.4292 45.2484C90.2638 43.6843 88.5956 42.403 88.5956 42.403C88.5956 42.403 94.1014 43.2579 94.9355 41.6937C95.7696 40.1296 94.6027 38.7048 94.6027 38.7048C94.6027 38.7048 99.6072 36.5728 100.108 31.7368C100.61 26.9008 96.6036 25.4718 92.9345 23.6227Z" fill="#6EB6FF"/>
<path opacity="0.3" d="M92.9345 23.6227C90.9606 22.6284 88.1692 20.3196 86.0872 18.3977C85.6067 17.8153 85.1116 17.2433 84.5833 16.6942C84.1528 16.2491 83.6993 15.8248 83.2355 15.4108C83.2355 15.388 83.2355 15.3734 83.2563 15.3734C83.7576 15.3734 87.0939 15.0884 84.758 12.8129C82.4222 10.5374 75.4147 9.39756 75.4147 9.39756C75.4147 9.39756 76.5836 7.8334 74.9134 7.54844C73.2432 7.26348 68.742 7.26556 67.9059 7.407C67.0697 7.54844 57.3956 5.27292 55.0598 5.98428C52.7239 6.69564 55.0598 7.26556 55.0598 7.26556C55.0598 7.26556 52.2227 6.9806 50.0532 7.26556C47.8838 7.55052 47.0518 7.8334 47.0518 7.8334C47.0518 7.8334 41.544 8.97116 38.7089 12.243C35.8739 15.5148 36.5395 17.7904 35.3809 19.7809C34.2224 21.7715 25.7048 22.6264 23.0361 25.8982C20.3675 29.17 23.5353 31.1606 23.2025 32.1569C22.8697 33.1532 18.0296 37.7043 22.2 40.2689C22.3102 40.3355 22.4288 40.3979 22.5494 40.4561C24.3673 40.4936 26.959 39.5492 30.5075 36.19C38.9876 28.1654 42.0161 27.87 42.0161 27.87C42.0161 27.87 34.1412 28.6272 35.9592 26.8113C37.7771 24.9955 44.7409 22.8739 46.7086 22.722C48.6763 22.5702 54.7332 22.5702 54.7332 22.5702C54.7332 22.5702 50.0408 20.3009 52.1603 19.6936C54.2798 19.0862 58.2172 19.5438 60.1849 20.1491C62.1526 20.7544 64.8795 22.5702 64.8795 22.5702C64.8795 22.5702 74.2561 19.5313 73.9524 20.5921C73.6488 21.6529 72.2884 22.8635 72.2884 22.8635C72.2884 22.8635 82.1289 23.7724 81.5236 25.892C80.9184 28.0115 79.8596 26.8009 80.9184 28.0115C81.9771 29.222 83.6432 32.2505 88.4896 34.2203C93.336 36.19 99.5427 35.5827 97.2713 34.2203C95 32.8579 88.3377 30.2828 94.6963 30.2828C96.6078 30.2828 98.4611 30.8028 100.123 31.5308C100.491 26.855 96.5516 25.4448 92.9345 23.6227Z" fill="white"/>
<path d="M64.3283 59.5545C64.0559 53.0004 63.8229 47.5321 63.8229 47.5321L65.2082 43.2161C65.2082 43.2161 68.1202 38.2241 69.8091 36.5913C71.4981 34.9585 75.9202 29.8604 75.9202 29.8604C75.9202 29.8604 72.1637 33.0095 71.2235 33.9871C70.2834 34.9647 68.8773 35.5055 68.8773 35.5055C68.8773 35.5055 69.441 33.5524 69.6282 33.2175C69.8154 32.8826 71.0363 26.8111 71.0363 26.8111C71.0363 26.8111 69.2517 32.5665 68.0307 35.1727C66.8098 37.779 62.6768 43.6425 62.6768 43.6425L62.0195 41.0362C62.0195 41.0362 61.8323 36.8014 61.9259 36.3666C62.0195 35.9319 64.8379 28.2234 64.8379 28.2234L60.9816 34.3199L59.3842 22.9194L59.5714 35.5138C59.2402 35.2402 58.8929 34.9867 58.5314 34.7546C58.1549 34.5466 53.4583 30.9545 52.9903 30.3034C52.5223 29.6524 50.0783 26.5033 50.0783 26.5033L51.9503 30.7361L47.1663 28.6748C47.1663 28.6748 58.1549 35.6241 58.625 37.6854C59.0951 39.7466 59.249 43.8484 59.249 43.8484C59.249 43.8484 59.3551 63.8393 59.2594 67.7538C59.1637 71.6684 58.0967 85.0948 58.001 88.5538C57.9053 92.0129 58.1986 96.9175 58.1986 96.9175H67.5815C67.5815 96.9175 65.3559 86.8774 65.0647 78.3743C64.9399 74.7177 64.6923 68.5026 64.4511 62.6058L70.1648 51.1658L64.3283 59.5545Z" fill="#263238"/>
<path d="M67.5834 97.0218H58.2005C58.1738 97.0223 58.148 97.0124 58.1285 96.9941C58.1091 96.9758 58.0976 96.9507 58.0965 96.924C58.0965 96.8762 57.8032 91.984 57.8989 88.552C57.9447 86.9005 58.2068 83.0358 58.4855 78.9445C58.7912 74.4475 59.1095 69.7925 59.1573 67.7437C59.253 63.8749 59.1573 44.0421 59.1469 43.8424C59.1469 43.8029 58.993 39.7302 58.5229 37.7022C58.0528 35.6742 47.2202 28.8227 47.112 28.7582C47.0895 28.7444 47.0731 28.7225 47.0662 28.697C47.0592 28.6715 47.0622 28.6443 47.0746 28.621C47.0866 28.5977 47.1072 28.5799 47.132 28.5714C47.1568 28.5629 47.1839 28.5642 47.2077 28.5752L51.7546 30.5325L49.9824 26.541C49.9727 26.5177 49.9715 26.4918 49.9791 26.4678C49.9868 26.4438 50.0027 26.4233 50.024 26.4099C50.0457 26.3969 50.0715 26.3923 50.0963 26.3969C50.1212 26.4015 50.1436 26.415 50.1592 26.4349C50.1842 26.4661 52.6095 29.5923 53.0712 30.2371C53.506 30.8424 58.1464 34.4096 58.5812 34.6613C58.8846 34.8515 59.1764 35.0599 59.4548 35.2853L59.28 22.9134C59.2778 22.8859 59.2867 22.8585 59.3046 22.8375C59.3226 22.8164 59.3481 22.8033 59.3757 22.8011C59.4033 22.7989 59.4306 22.8077 59.4517 22.8257C59.4728 22.8436 59.4858 22.8692 59.488 22.8968L61.0439 34.0165L64.7442 28.1758C64.7581 28.1546 64.7793 28.1391 64.8039 28.1324C64.8284 28.1257 64.8545 28.1282 64.8773 28.1395C64.9001 28.1508 64.918 28.17 64.9276 28.1936C64.9372 28.2171 64.9378 28.2434 64.9293 28.2674C63.9559 30.9318 62.0943 36.059 62.0173 36.3981C61.9404 36.7371 62.061 39.8467 62.113 41.0282L62.712 43.4035C63.4255 42.3843 66.845 37.4443 67.9266 35.1376C69.1309 32.5667 70.9093 26.8467 70.926 26.7885C70.9328 26.7609 70.9504 26.7372 70.9748 26.7225C70.9992 26.7079 71.0284 26.7036 71.056 26.7105C71.0835 26.7174 71.1073 26.7349 71.1219 26.7593C71.1365 26.7837 71.1409 26.8129 71.134 26.8405C71.0092 27.4645 69.9047 32.9474 69.7133 33.2885C69.4494 33.9578 69.2223 34.641 69.0332 35.3352C69.8133 34.9909 70.5255 34.5098 71.136 33.9146C72.07 32.9453 75.8036 29.8128 75.841 29.7816C75.8602 29.7638 75.8855 29.7538 75.9117 29.7538C75.9379 29.7538 75.9632 29.7638 75.9824 29.7816C75.9998 29.801 76.0095 29.8262 76.0095 29.8523C76.0095 29.8784 75.9998 29.9036 75.9824 29.923C75.9388 29.973 71.5458 35.0482 69.8714 36.6602C68.2448 38.2264 65.4389 43.0042 65.2954 43.2517L63.9205 47.5406C63.9351 47.8859 64.1535 53.0402 64.4114 59.2365L70.0732 51.1099C70.0886 51.0886 70.1115 51.0739 70.1372 51.0685C70.163 51.0631 70.1898 51.0675 70.2125 51.0808C70.2352 51.0939 70.252 51.1153 70.2594 51.1405C70.2668 51.1657 70.2641 51.1927 70.252 51.216L64.5591 62.629C64.8607 69.9984 65.0666 75.2941 65.1706 78.3704C65.4576 86.7674 67.6666 96.795 67.6832 96.8949C67.6871 96.9099 67.6874 96.9256 67.6842 96.9408C67.6809 96.9559 67.6742 96.9701 67.6645 96.9822C67.6547 96.9944 67.6424 97.0042 67.6284 97.011C67.6143 97.0179 67.599 97.0215 67.5834 97.0218ZM58.2983 96.8138H67.4503C67.1924 95.6219 65.2288 86.2806 64.9543 78.3787C64.8503 75.2982 64.6423 69.9942 64.3407 62.6102C64.3399 62.5923 64.3434 62.5745 64.3511 62.5582L69.4346 52.4162L64.4135 59.6213C64.4009 59.639 64.3831 59.6523 64.3626 59.6594C64.3421 59.6665 64.3199 59.667 64.2991 59.6608C64.278 59.655 64.2593 59.6426 64.2458 59.6253C64.2323 59.6081 64.2248 59.587 64.2242 59.5651C63.9517 53.011 63.7188 47.5427 63.7188 47.5427C63.7168 47.531 63.7168 47.5191 63.7188 47.5074L65.104 43.1851C65.1037 43.1782 65.1037 43.1712 65.104 43.1643C65.2247 42.9563 68.0431 38.137 69.7237 36.5083C70.928 35.3498 73.5447 32.392 74.9237 30.8133C73.7402 31.82 71.8932 33.4112 71.2796 34.0498C70.5906 34.7129 69.7807 35.2376 68.8938 35.5952C68.8756 35.6022 68.8559 35.604 68.8367 35.6003C68.8176 35.5966 68.7999 35.5876 68.7856 35.5744C68.7711 35.5618 68.7606 35.5453 68.7554 35.5268C68.7502 35.5083 68.7506 35.4887 68.7565 35.4704C68.7794 35.3893 69.3244 33.4986 69.5157 33.1658C69.6176 32.991 70.096 30.7738 70.5349 28.6501C69.9109 30.5678 68.8855 33.5485 68.1055 35.2166C66.8928 37.8 62.7828 43.6427 62.7412 43.701C62.7302 43.7178 62.7146 43.7311 62.6961 43.7391C62.6777 43.7471 62.6573 43.7495 62.6375 43.746C62.6177 43.7424 62.5994 43.7331 62.5849 43.7191C62.5704 43.7052 62.5604 43.6873 62.556 43.6677L61.8988 41.0614C61.8988 41.0614 61.8988 41.0469 61.8988 41.0406C61.8988 40.868 61.7116 36.787 61.8072 36.344C61.8842 35.9946 63.6418 31.144 64.3927 29.0952L61.0647 34.3597C61.0537 34.3782 61.037 34.3926 61.0171 34.4008C60.9973 34.4091 60.9753 34.4107 60.9544 34.4054C60.9336 34.4009 60.9146 34.3902 60.9001 34.3745C60.8856 34.3589 60.8763 34.3392 60.8733 34.3181L59.5088 24.5733L59.6711 35.4974C59.6719 35.5171 59.6668 35.5365 59.6564 35.5532C59.646 35.5699 59.6308 35.5831 59.6128 35.591C59.5952 35.5998 59.5754 35.6033 59.5559 35.6011C59.5363 35.5989 59.5178 35.5911 59.5026 35.5786C59.1779 35.3085 58.8376 35.0577 58.4834 34.8277C58.082 34.5968 53.3874 31.0088 52.909 30.3474C52.5804 29.8918 51.27 28.1925 50.5253 27.2274L52.0562 30.6781C52.0644 30.6974 52.0668 30.7187 52.0631 30.7394C52.0594 30.7601 52.0498 30.7793 52.0354 30.7946C52.0202 30.8092 52.0011 30.819 51.9803 30.8227C51.9596 30.8264 51.9382 30.8238 51.9189 30.8154L48.2872 29.2512C51.0724 31.0629 58.3399 35.9301 58.7309 37.6461C59.1968 39.6949 59.3549 43.7883 59.3549 43.8299C59.3549 44.0379 59.461 63.8686 59.3653 67.7499C59.3133 69.807 58.9972 74.46 58.6935 78.959C58.4148 83.0504 58.1527 86.9129 58.1069 88.5603C58.0196 91.7136 58.2588 96.1066 58.2983 96.8138Z" fill="#263238"/>
<path d="M7.87914 95.6344H10.2358L9.74489 94.6526L11.3153 95.832L11.4131 94.2595L12.2971 95.3411L12.8857 93.7686L13.4743 95.3411L15.6355 93.9662L15.1446 95.7321L16.8127 94.8502L17.1081 95.7321L18.8761 95.0457L19.0716 95.9297H56.0852V95.1435L57.2625 95.832L57.8511 94.4571L58.342 95.3411L60.11 92.4936L60.3055 95.2413L61.5827 93.6709L61.6804 94.948L62.4667 93.8685V95.4389L63.2508 93.18L64.5279 95.6344L63.7417 91.9049L66.0006 96.0275L66.4915 92.6891L66.9823 95.6344L68.5527 91.4141L68.3572 95.4389L71.9889 93.3776L71.2047 95.2413L72.2843 95.3411L75.4251 95.9297L76.5046 94.7504L76.7022 95.832H86.1267L74.15 97.2048L80.1383 97.991L68.8481 98.3841L69.339 99.0705H64.8233L58.4398 99.6592L62.2691 98.3841L50.0948 99.3659L43.5179 99.5614H38.2159L40.9657 98.5797H35.4662L37.5295 97.991L26.9257 98.1886L29.9687 98.6795L17.0103 97.8933L19.9556 96.9115L4.34521 96.6161L7.87914 95.6344Z" fill="#6EB6FF"/>
<path d="M51.8087 63.4131C51.8087 63.4131 48.7199 64.7547 47.8151 66.4332C46.9103 68.1118 47.3783 69.3203 48.4183 70.1939C49.4583 71.0675 49.6267 71.3337 48.9903 72.2073C48.3538 73.0809 48.2165 74.356 48.9903 75.1193C49.764 75.8827 51.2055 76.3944 51.1368 76.9913C51.0682 77.5883 49.7952 77.3948 50.1301 79.0068C50.465 80.6188 51.7421 80.8518 54.1923 80.0136C56.6426 79.1753 58.5208 77.0246 58.9909 74.6056C59.461 72.1865 57.8511 69.2683 55.5672 67.2195C54.2321 66.0347 52.9765 64.7631 51.8087 63.4131Z" fill="#7D7D7D"/>
<path d="M51.9357 80.6066C51.5668 80.6202 51.2009 80.5363 50.8749 80.3632C50.4381 80.1157 50.1635 79.6831 50.0283 79.0424C49.7974 77.9359 50.3049 77.6135 50.6773 77.3784C50.8853 77.2453 51.0163 77.1558 51.035 76.9978C51.0683 76.6962 50.5629 76.3738 50.0283 76.0285C49.6299 75.7899 49.257 75.5111 48.9155 75.1965C48.0835 74.3541 48.2915 72.9938 48.9155 72.141C49.5062 71.3318 49.3731 71.1176 48.3622 70.269C47.1142 69.229 46.9062 67.9144 47.7382 66.3794C48.6513 64.6904 51.6549 63.3696 51.7817 63.3135C51.8022 63.3044 51.8252 63.3023 51.847 63.3075C51.8688 63.3128 51.8883 63.3251 51.9024 63.3426C53.0668 64.6935 54.3174 65.9678 55.6464 67.1573C58.1861 69.4453 59.5422 72.3739 59.1013 74.6453C58.6187 77.1288 56.7093 79.2816 54.2341 80.1282C53.4982 80.4088 52.7223 80.5703 51.9357 80.6066ZM51.7797 63.5506C51.3179 63.7586 48.7096 65.0066 47.9067 66.4938C47.1309 67.929 47.3264 69.1499 48.4849 70.1234C49.5541 71.0199 49.7517 71.3506 49.0736 72.2782C48.5016 73.0624 48.3019 74.3042 49.0632 75.0634C49.3938 75.3661 49.7549 75.6338 50.1406 75.8621C50.7646 76.2573 51.2888 76.5984 51.2409 77.029C51.2118 77.2931 50.9955 77.4304 50.7875 77.5635C50.4339 77.7882 50.0304 78.044 50.2321 79.0091C50.3528 79.5895 50.5961 79.9763 50.9768 80.1947C51.6008 80.5504 52.6137 80.4693 54.1592 79.9389C56.5637 79.1069 58.4211 77.0269 58.8891 74.6141C59.3176 72.4176 57.9864 69.5576 55.4987 67.3341C54.1806 66.1487 52.9385 64.8816 51.7797 63.5402V63.5506Z" fill="#263238"/>
<path d="M51.3761 75.8639C51.2659 75.8634 51.1559 75.8529 51.0475 75.8327C51.0205 75.8277 50.9966 75.8122 50.981 75.7896C50.9654 75.767 50.9594 75.7391 50.9643 75.7121C50.9663 75.6985 50.971 75.6854 50.9783 75.6737C50.9855 75.662 50.9951 75.6519 51.0064 75.6441C51.0178 75.6363 51.0306 75.6309 51.0441 75.6283C51.0576 75.6257 51.0715 75.6259 51.0849 75.6289C51.5033 75.7032 51.9342 75.6106 52.2851 75.371C52.2958 75.3616 52.3083 75.3546 52.3218 75.3502C52.3353 75.3459 52.3495 75.3443 52.3637 75.3457C52.3778 75.3471 52.3915 75.3513 52.4039 75.3582C52.4164 75.3651 52.4272 75.3744 52.4359 75.3857C52.4446 75.3969 52.4509 75.4098 52.4544 75.4235C52.4579 75.4373 52.4585 75.4516 52.4563 75.4656C52.4541 75.4797 52.449 75.4931 52.4413 75.5051C52.4337 75.517 52.4237 75.5273 52.412 75.5353C52.1091 75.7496 51.7471 75.8645 51.3761 75.8639Z" fill="#263238"/>
<path d="M50.1801 75.4209C50.1576 75.4211 50.1356 75.4138 50.1177 75.4001C50.0075 75.3143 49.9027 75.2219 49.8036 75.1235C48.8884 74.2062 49.6559 73.2203 50.2196 72.5006C50.4983 72.1408 50.7646 71.8017 50.7334 71.5875C50.6876 71.2464 50.3652 70.9468 49.9596 70.5704C49.468 70.147 49.0381 69.6569 48.6825 69.1144C48.2915 68.4758 48.5036 67.6334 49.3065 66.6787C49.3241 66.6574 49.3495 66.6441 49.377 66.6416C49.4045 66.639 49.4319 66.6475 49.4531 66.6652C49.4744 66.6828 49.4877 66.7082 49.4903 66.7357C49.4928 66.7632 49.4843 66.7906 49.4667 66.8118C48.955 67.4254 48.4267 68.3032 48.8676 69.0041C49.2131 69.5346 49.6335 70.0124 50.1156 70.4227C50.5524 70.8283 50.8977 71.1486 50.9476 71.5646C50.9871 71.8641 50.7105 72.2198 50.3902 72.6316C49.8182 73.3638 49.1734 74.1937 49.9596 74.98C50.0512 75.0727 50.1492 75.1589 50.2529 75.2379C50.2746 75.2547 50.2888 75.2795 50.2923 75.3068C50.2958 75.3341 50.2884 75.3617 50.2716 75.3835C50.2605 75.3967 50.2464 75.407 50.2305 75.4135C50.2145 75.42 50.1972 75.4226 50.1801 75.4209Z" fill="#263238"/>
<path d="M49.712 66.4747C49.6849 66.4744 49.6589 66.464 49.6392 66.4456C49.6294 66.4359 49.6217 66.4244 49.6164 66.4117C49.6111 66.3991 49.6084 66.3855 49.6084 66.3717C49.6084 66.358 49.6111 66.3444 49.6164 66.3317C49.6217 66.3191 49.6294 66.3076 49.6392 66.2979C49.7899 66.1405 49.9489 65.9912 50.1155 65.8507C50.1373 65.8338 50.1648 65.8259 50.1922 65.8286C50.2197 65.8314 50.245 65.8444 50.2632 65.8652C50.2804 65.8865 50.2885 65.9138 50.2858 65.941C50.2831 65.9683 50.2697 65.9934 50.2486 66.0108C50.2486 66.0108 50.0406 66.1793 49.7889 66.4435C49.7788 66.4536 49.7668 66.4616 49.7536 66.4669C49.7404 66.4723 49.7262 66.4749 49.712 66.4747Z" fill="#263238"/>
<path d="M44.7202 84.7082C44.7202 84.7082 40.7391 83.3291 38.3907 82.5637C36.0424 81.7983 35.6347 81.6443 35.0232 82.1477C34.4117 82.6511 28.9912 88.2213 27.9783 89.0387C26.9653 89.8562 26.3975 90.4157 26.3975 90.4157L27.1629 91.7427C27.1629 91.7427 29.5091 90.6715 32.4711 89.2925C35.433 87.9135 36.9119 86.5365 36.9119 86.5365C36.9119 86.5365 41.0968 89.5483 42.8315 90.5176C44.5663 91.4869 46.6088 92.6101 46.6088 92.6101C47.3539 92.1068 48.0699 91.5617 48.7533 90.9773C49.4667 90.3138 49.5707 87.6597 49.5707 87.6597L44.7202 84.7082Z" fill="#263238"/>
<path d="M46.6087 92.7225C46.5913 92.7223 46.5742 92.7181 46.5588 92.71C46.538 92.6996 44.4975 91.5764 42.7815 90.6176C41.182 89.7232 37.4651 87.0712 36.918 86.678C36.6081 86.9443 35.1188 88.1923 32.5147 89.3966C29.5881 90.759 27.2294 91.8364 27.2044 91.8468C27.1807 91.857 27.1541 91.8581 27.1296 91.8501C27.1051 91.8421 27.0844 91.8254 27.0713 91.8031L26.3059 90.4803C26.2946 90.4605 26.2901 90.4376 26.2931 90.4151C26.2962 90.3925 26.3065 90.3716 26.3225 90.3555C26.3225 90.3555 26.9007 89.7793 27.9137 88.9702C28.5065 88.4939 30.6489 86.3494 32.3691 84.6271C33.6171 83.3791 34.6987 82.2934 34.9566 82.0791C35.5972 81.5467 36.0507 81.6944 38.2367 82.4078L38.4239 82.4702C40.7452 83.2273 44.7139 84.6001 44.7555 84.6147H44.7742L49.6247 87.5745C49.6402 87.5846 49.6527 87.5986 49.6611 87.615C49.6695 87.6314 49.6734 87.6497 49.6726 87.6681C49.6726 87.7784 49.5623 90.3721 48.8239 91.0585C48.1371 91.6472 47.4169 92.1958 46.667 92.7017C46.6499 92.714 46.6297 92.7212 46.6087 92.7225ZM36.9118 86.4409C36.9337 86.4407 36.955 86.4481 36.9721 86.4617C37.0137 86.4908 41.1716 89.4798 42.8835 90.4366C44.4393 91.306 46.2635 92.3086 46.6025 92.4979C47.3255 92.009 48.02 91.4791 48.6825 90.9108C49.3065 90.3368 49.4417 88.1216 49.4625 87.7243L44.6785 84.8019C44.4476 84.7228 40.6225 83.4 38.3615 82.6636L38.1743 82.6012C36.0299 81.9024 35.643 81.7692 35.0918 82.2351C34.8401 82.4431 33.7647 83.5206 32.5188 84.7686C30.7051 86.5865 28.6479 88.6457 28.0468 89.1366C27.2148 89.7939 26.6948 90.291 26.5284 90.4511L27.2065 91.6264C27.6579 91.4184 29.8169 90.4324 32.4294 89.2156C35.3414 87.8595 36.8286 86.4908 36.8431 86.4784C36.8515 86.4678 36.8618 86.4591 36.8736 86.4526C36.8854 86.4462 36.8984 86.4422 36.9118 86.4409Z" fill="#263238"/>
<path d="M46.0138 90.6172C46.0138 90.6172 44.8386 90.9812 39.3329 90.9812C33.8271 90.9812 33.8666 91.0623 31.8823 91.5074C29.898 91.9525 25.8898 92.3519 25.1681 92.3519H23.6289L23.5894 94.8625C23.5894 94.8625 26.6657 95.3471 29.663 95.6716C32.6602 95.9961 36.3044 95.4282 37.9226 95.3887C39.5409 95.3492 43.1476 96.3185 47.8026 96.6034C52.4577 96.8884 54.7686 95.8733 55.0826 95.7527C55.3967 95.6321 46.0138 90.6172 46.0138 90.6172Z" fill="#263238"/>
<path d="M49.371 96.7617C48.8572 96.7617 48.331 96.7451 47.7881 96.7139C45.5619 96.5534 43.3457 96.2757 41.1487 95.8819C39.7406 95.6531 38.6278 95.4659 37.9185 95.4888C37.4443 95.4992 36.7911 95.5574 36.0361 95.624C34.2348 95.7821 31.7679 96.0005 29.6443 95.7717C26.6782 95.4513 23.5956 94.9646 23.5644 94.9605C23.54 94.9561 23.5179 94.9433 23.5019 94.9243C23.4859 94.9053 23.4771 94.8813 23.4771 94.8565L23.5166 92.3459C23.5176 92.3189 23.529 92.2932 23.5483 92.2743C23.5677 92.2553 23.5935 92.2445 23.6206 92.244H25.1681C25.842 92.244 29.8772 91.8425 31.8678 91.3953L32.2401 91.3121C33.8937 90.9357 34.1911 90.8691 39.3412 90.8691C44.7492 90.8691 45.9785 90.5134 45.9972 90.5093C46.0225 90.4989 46.0509 90.4989 46.0763 90.5093C55.2283 95.4035 55.2158 95.6573 55.2095 95.7425C55.2065 95.7642 55.1981 95.7847 55.185 95.8021C55.1719 95.8196 55.1546 95.8334 55.1347 95.8424L55.0743 95.8653C53.583 96.4581 51.6028 96.7617 49.371 96.7617ZM38.0163 95.2891C38.7443 95.2891 39.8279 95.4659 41.182 95.6885C43.3724 96.078 45.5816 96.3529 47.8006 96.5121C50.6065 96.6827 53.1275 96.4019 54.9121 95.7197C54.1779 95.1664 49.3086 92.5019 46.0014 90.7277C45.7435 90.7921 44.2999 91.0854 39.3329 91.0854C34.2057 91.0854 33.9124 91.152 32.2796 91.5243L31.9052 91.6096C29.8585 92.0672 25.8607 92.4624 25.1598 92.4624H23.7246L23.6871 94.7795C24.2134 94.8606 26.9881 95.2849 29.665 95.5741C31.77 95.8029 34.2244 95.5845 36.0174 95.4285C36.7766 95.3598 37.4318 95.3016 37.9123 95.2912L38.0163 95.2891Z" fill="#263238"/>
<path d="M24.9976 91.9363L24.9248 95.3017C24.9456 95.3787 23.1901 95.1686 21.6301 95.0459C19.8309 94.9044 19.729 94.607 19.6187 94.3511C19.5085 94.0953 19.288 91.8551 19.288 91.8551C19.288 91.8551 18.2646 89.6212 18.3374 88.6083C18.4102 87.5953 19.5085 85.3863 19.729 85.7524C19.9494 86.1185 21.1184 88.9743 21.1184 88.9743C21.1184 88.9743 22.6181 90.8027 23.4979 91.2415C24.3778 91.6804 24.9976 91.9363 24.9976 91.9363Z" fill="#7D7D7D"/>
<path d="M24.8228 95.4137C24.6377 95.4137 24.2383 95.3805 23.3169 95.2931C22.7906 95.2432 22.1937 95.187 21.6217 95.1413C19.785 94.9957 19.6477 94.6753 19.5271 94.3945C19.4065 94.1137 19.2172 92.1793 19.186 91.8819C19.0882 91.6614 18.1626 89.5939 18.2333 88.5893C18.2999 87.6553 19.2068 85.7022 19.6186 85.6045C19.6578 85.5915 19.7003 85.593 19.7384 85.6086C19.7766 85.6242 19.8078 85.653 19.8266 85.6897C20.0346 86.0475 21.1183 88.6641 21.2181 88.9096C21.3492 89.0677 22.7428 90.7337 23.554 91.1393C24.4193 91.572 25.0412 91.8278 25.0474 91.832C25.0669 91.8397 25.0836 91.8532 25.0951 91.8707C25.1066 91.8882 25.1125 91.9088 25.1119 91.9297L25.0391 95.2952C25.0375 95.3206 25.0289 95.3451 25.0141 95.3659C24.9788 95.395 24.9601 95.4137 24.8228 95.4137ZM19.6477 85.8125C19.3857 85.9435 18.51 87.6491 18.4413 88.6038C18.3706 89.5918 19.3732 91.7883 19.3836 91.8112C19.3857 91.8222 19.3857 91.8335 19.3836 91.8445C19.4709 92.7347 19.629 94.1325 19.706 94.3009C19.8017 94.5297 19.914 94.7981 21.63 94.9249C22.202 94.9707 22.801 95.0269 23.3293 95.0789C23.9533 95.1371 24.6002 95.1995 24.8145 95.1995L24.8831 91.988C24.7001 91.9089 24.1509 91.6718 23.4417 91.3161C22.5535 90.8731 21.0913 89.0968 21.0289 89.0281C21.0228 89.0206 21.0179 89.0122 21.0143 89.0032C21.0081 88.9741 19.8849 86.2305 19.6477 85.8125Z" fill="#263238"/>
<path d="M20.5442 94.7919C20.5207 94.7916 20.4981 94.7836 20.4797 94.769C20.1344 94.4924 20.0367 93.9641 19.9327 93.4046C19.9056 93.2527 19.8765 93.0988 19.8411 92.9428C19.7725 92.637 19.5333 91.9423 19.2795 91.206C18.8635 90.0017 18.5952 89.1946 18.5952 88.945C18.5952 88.6954 18.8469 88.0319 19.344 86.9212C19.349 86.9079 19.3567 86.8958 19.3666 86.8856C19.3765 86.8754 19.3884 86.8674 19.4015 86.8619C19.4146 86.8565 19.4287 86.8538 19.4429 86.854C19.4571 86.8542 19.4711 86.8573 19.484 86.8632C19.497 86.869 19.5086 86.8774 19.5181 86.8879C19.5277 86.8984 19.535 86.9108 19.5396 86.9242C19.5443 86.9376 19.5461 86.9518 19.545 86.966C19.5439 86.9801 19.5399 86.9939 19.5333 87.0065C18.8739 88.4812 18.8032 88.8535 18.8032 88.945C18.8032 89.1801 19.161 90.2201 19.4771 91.1374C19.733 91.8799 19.9743 92.5809 20.045 92.8991C20.0803 93.0551 20.1095 93.2132 20.1365 93.3671C20.2384 93.91 20.3258 94.378 20.6107 94.6151C20.6322 94.6323 20.6459 94.6572 20.6491 94.6845C20.6522 94.7118 20.6444 94.7392 20.6274 94.7607C20.6164 94.7714 20.6034 94.7797 20.5891 94.7851C20.5747 94.7905 20.5594 94.7928 20.5442 94.7919Z" fill="#263238"/>
<path d="M19.6873 86.5283C19.6721 86.5288 19.657 86.5252 19.6436 86.5179C19.6186 86.5066 19.599 86.4857 19.5893 86.46C19.5795 86.4343 19.5804 86.4057 19.5916 86.3806L19.6894 86.1726C19.6952 86.1604 19.7033 86.1494 19.7134 86.1404C19.7234 86.1313 19.7352 86.1244 19.748 86.1199C19.7608 86.1155 19.7743 86.1136 19.7878 86.1145C19.8013 86.1153 19.8145 86.1188 19.8267 86.1248C19.8391 86.1304 19.8502 86.1384 19.8595 86.1484C19.8688 86.1584 19.8759 86.1701 19.8806 86.1829C19.8852 86.1957 19.8873 86.2093 19.8866 86.2229C19.8859 86.2365 19.8825 86.2498 19.8766 86.2621C19.8766 86.2621 19.8391 86.339 19.7809 86.4701C19.7725 86.4877 19.7592 86.5026 19.7427 86.5129C19.7261 86.5233 19.7068 86.5286 19.6873 86.5283Z" fill="#263238"/>
<path d="M49.215 85.353C49.215 85.353 48.3622 85.3072 46.3903 84.7706C44.4185 84.2339 43.1622 83.5226 43.0727 83.9178C42.9833 84.313 44.822 86.8776 45.8079 87.953C46.4055 88.6008 47.163 89.08 48.0044 89.3424C47.0944 89.646 46.2097 90.0209 45.3586 90.4635C44.1106 91.1354 43.2974 91.2706 43.6946 91.6283C44.0919 91.9861 48.8946 95.3037 51.4946 96.3811C53.009 97.019 54.6103 97.4263 56.2454 97.5896C56.2454 97.5896 58.3524 97.7248 59.07 96.9178C59.7876 96.1107 61.7158 93.6002 61.7158 92.8389C61.7158 92.0776 61.3122 91.7635 61.0918 91.4494C60.8713 91.1354 60.1121 86.5635 60.1121 85.8002C60.1121 85.0368 59.9852 83.9635 60.7028 83.3811C61.4204 82.7987 62.3002 80.3693 62.4812 79.2939C62.6622 78.2186 62.7932 76.5213 61.8572 75.8286C60.9212 75.136 58.8391 76.5067 58.2276 76.5213C57.6161 76.5358 52.6678 79.1213 51.6382 81.1846C50.902 82.6145 50.0932 84.0057 49.215 85.353Z" fill="#6EB6FF"/>
<path d="M56.6053 97.7038C56.3973 97.7038 56.2662 97.7038 56.2454 97.6934C54.5993 97.527 52.987 97.1169 51.4614 96.4766C48.8427 95.393 44.0046 92.0379 43.6323 91.7051C43.5873 91.673 43.5511 91.63 43.5271 91.5802C43.5031 91.5304 43.4921 91.4754 43.495 91.4201C43.5262 91.2121 43.8091 91.0853 44.327 90.8502C44.5974 90.7254 44.9365 90.5715 45.3109 90.3718C46.0746 89.9724 46.8664 89.629 47.68 89.3443C46.9386 89.0575 46.2721 88.6059 45.731 88.0235C44.899 87.1125 42.8606 84.396 42.9709 83.8947C42.9783 83.8612 42.9927 83.8296 43.0131 83.8021C43.0336 83.7745 43.0596 83.7515 43.0894 83.7346C43.2974 83.6181 43.728 83.772 44.5038 84.0486C45.0238 84.2338 45.6686 84.4646 46.4174 84.6726C47.3148 84.9386 48.2324 85.1313 49.1609 85.2488C50.0231 83.9202 50.8179 82.5491 51.5425 81.1408C52.595 79.0338 57.6037 76.4379 58.2214 76.4213C58.5394 76.3585 58.8478 76.2543 59.1387 76.1114C60.0227 75.7432 61.2333 75.2419 61.9155 75.7494C62.6581 76.2986 62.8806 77.4987 62.579 79.3146C62.4022 80.3733 61.5141 82.8506 60.7653 83.4642C60.1766 83.9426 60.1933 84.8078 60.2078 85.5026C60.2078 85.6066 60.2078 85.7106 60.2078 85.8042C60.2078 86.6362 60.9837 91.1269 61.175 91.3931C61.2145 91.4493 61.2624 91.5075 61.3123 91.5678C61.6421 91.91 61.825 92.3676 61.8219 92.8429C61.8219 93.6998 59.7149 96.3539 59.1512 96.9904C58.5875 97.6269 57.2521 97.7038 56.6053 97.7038ZM43.2641 83.903C43.2356 83.9013 43.2071 83.9062 43.1809 83.9176C43.177 83.9202 43.1737 83.9235 43.1712 83.9275C43.1687 83.9314 43.1671 83.9359 43.1664 83.9405C43.0998 84.2442 44.7701 86.6757 45.8704 87.8821C46.4607 88.5128 47.2057 88.9782 48.0315 89.232C48.053 89.2381 48.072 89.2508 48.0858 89.2684C48.0996 89.286 48.1076 89.3074 48.1085 89.3298C48.1094 89.3524 48.1027 89.3748 48.0896 89.3932C48.0764 89.4117 48.0574 89.4252 48.0357 89.4317C47.1327 89.7355 46.2545 90.1082 45.4086 90.5466C45.028 90.7546 44.6869 90.9064 44.4123 91.0312C44.0545 91.1934 43.7155 91.3494 43.7009 91.4472C43.7009 91.468 43.7238 91.5054 43.7696 91.547C44.1398 91.8757 48.9405 95.2037 51.5405 96.279C53.0457 96.9107 54.6361 97.3165 56.26 97.4834C56.2808 97.4834 58.3233 97.604 58.9993 96.8448C59.7814 95.9629 61.6181 93.5355 61.6181 92.8346C61.6208 92.4073 61.4548 91.9962 61.1563 91.6906C61.1022 91.6282 61.0523 91.5658 61.0086 91.5054C60.7445 91.1352 60.004 86.4906 60.004 85.7958C60.004 85.7022 60.004 85.6024 60.004 85.4984C59.9894 84.7579 59.9707 83.8344 60.6384 83.2957C61.3061 82.757 62.188 80.4086 62.3773 79.2709C62.6622 77.5632 62.4605 76.4005 61.7969 75.9075C61.2083 75.4707 60.0601 75.947 59.2219 76.2944C58.9094 76.4507 58.5759 76.5607 58.2318 76.621C57.639 76.6355 52.7281 79.2355 51.7318 81.2261C50.9913 82.6607 50.1784 84.0568 49.2961 85.409C49.2864 85.4247 49.2725 85.4374 49.256 85.4459C49.2395 85.4543 49.221 85.4581 49.2025 85.4568C49.1672 85.4568 48.3185 85.4048 46.3571 84.8702C45.6 84.6622 44.951 84.4314 44.4289 84.2462C44.055 84.0879 43.6642 83.9727 43.2641 83.903Z" fill="#263238"/>
<path d="M52.1123 84.3527C52.0969 84.3527 52.0817 84.3494 52.0677 84.3429C52.0536 84.3364 52.0412 84.327 52.0312 84.3152C52.014 84.2939 52.0058 84.2667 52.0086 84.2394C52.0113 84.2122 52.0247 84.1871 52.0458 84.1696C52.8778 83.4812 54.0779 82.4599 55.1304 81.4927C56.8963 79.8661 58.1901 78.433 58.2047 78.4184C58.2236 78.3999 58.2489 78.3892 58.2754 78.3887C58.3019 78.3882 58.3276 78.3978 58.3473 78.4156C58.367 78.4334 58.3791 78.458 58.3812 78.4844C58.3833 78.5109 58.3752 78.5371 58.3586 78.5578C58.3461 78.5723 57.0461 80.0138 55.2719 81.6445C54.2173 82.6159 53.0067 83.6413 52.1789 84.3298C52.1597 84.3443 52.1364 84.3524 52.1123 84.3527Z" fill="#263238"/>
<path d="M51.1908 85.1095C51.1754 85.1097 51.1601 85.1064 51.1461 85.1C51.132 85.0935 51.1196 85.084 51.1097 85.0721C51.0929 85.0503 51.085 85.0228 51.0877 84.9954C51.0904 84.9679 51.1035 84.9425 51.1243 84.9244C51.1243 84.9244 51.3323 84.7663 51.6443 84.5084C51.6547 84.4996 51.6668 84.493 51.6798 84.4889C51.6929 84.4849 51.7066 84.4835 51.7202 84.4849C51.7337 84.4862 51.7469 84.4903 51.7589 84.4969C51.7709 84.5034 51.7814 84.5123 51.7899 84.523C51.8071 84.5443 51.8153 84.5715 51.8125 84.5988C51.8098 84.626 51.7964 84.6511 51.7753 84.6686C51.4529 84.9348 51.2553 85.0846 51.2553 85.0846C51.2378 85.1008 51.2147 85.1097 51.1908 85.1095Z" fill="#263238"/>
<path d="M52.3079 92.0007C52.2882 92.001 52.2687 91.996 52.2517 91.9861C52.0274 91.8433 51.8114 91.6877 51.6048 91.5202C51.5866 91.502 51.5759 91.4776 51.5746 91.4519C51.5733 91.4261 51.5817 91.4009 51.598 91.3809C51.6143 91.361 51.6374 91.3478 51.6629 91.3439C51.6884 91.3401 51.7144 91.3458 51.7359 91.36C51.9348 91.5226 52.1432 91.6733 52.3599 91.8114C52.383 91.8263 52.3993 91.8498 52.4051 91.8767C52.411 91.9036 52.4059 91.9317 52.3911 91.9549C52.3819 91.9687 52.3696 91.9801 52.3551 91.9881C52.3406 91.9961 52.3244 92.0004 52.3079 92.0007Z" fill="#263238"/>
<path d="M51.2222 91.1439C51.1957 91.1437 51.1704 91.1333 51.1515 91.1148C50.527 90.5173 50.0198 89.8083 49.656 89.0244C49.6508 89.0117 49.6481 88.9981 49.6482 88.9844C49.6483 88.9706 49.651 88.9571 49.6563 88.9444C49.6617 88.9318 49.6694 88.9203 49.6792 88.9106C49.6889 88.901 49.7005 88.8933 49.7132 88.8881C49.7259 88.8829 49.7395 88.8803 49.7532 88.8804C49.7669 88.8804 49.7805 88.8832 49.7931 88.8885C49.8058 88.8938 49.8173 88.9016 49.8269 88.9113C49.8366 88.9211 49.8442 88.9326 49.8494 88.9453C50.2056 89.7028 50.6993 90.3876 51.3054 90.965C51.3151 90.9747 51.3229 90.9862 51.3282 90.9989C51.3334 91.0115 51.3362 91.0251 51.3362 91.0389C51.3362 91.0526 51.3334 91.0662 51.3282 91.0789C51.3229 91.0915 51.3151 91.103 51.3054 91.1127C51.2946 91.1236 51.2816 91.132 51.2672 91.1374C51.2529 91.1428 51.2375 91.145 51.2222 91.1439Z" fill="#263238"/>
<path d="M52.5471 76.2677C52.5471 76.2677 52.3786 75.9661 53.3791 75.3296C54.2516 74.7362 55.0923 74.0975 55.8979 73.416L56.7029 74.7576C56.7029 74.7576 54.521 76.4362 53.8492 76.6047C53.1773 76.7731 52.5471 76.2677 52.5471 76.2677Z" fill="white"/>
<path d="M53.5703 76.7521C53.1766 76.7343 52.7975 76.598 52.4825 76.3611C52.4724 76.3517 52.4633 76.3412 52.4555 76.3299C52.4201 76.2633 52.2932 75.9139 53.3311 75.2504C54.1954 74.6594 55.0285 74.0241 55.8271 73.3472C55.8389 73.3373 55.8525 73.33 55.8672 73.3257C55.8818 73.3214 55.8973 73.3202 55.9124 73.3222C55.9273 73.3252 55.9414 73.3311 55.9539 73.3397C55.9664 73.3483 55.9771 73.3593 55.9852 73.3721L56.7902 74.7158C56.8034 74.7376 56.808 74.7637 56.803 74.7887C56.798 74.8137 56.7838 74.836 56.7631 74.851C56.6737 74.9197 54.5584 76.5441 53.874 76.723C53.7744 76.7451 53.6724 76.7549 53.5703 76.7521ZM52.6406 76.2197C52.7716 76.3091 53.2958 76.6481 53.8303 76.5129C54.4065 76.3694 56.187 75.0341 56.5718 74.7429L55.8771 73.5843C55.0975 74.2402 54.2846 74.8553 53.4414 75.4272C52.7134 75.8785 52.6447 76.1406 52.6406 76.2093V76.2197Z" fill="#263238"/>
<path d="M50.6667 65.9631C50.6667 65.9631 50.0302 67.7082 50.1633 68.5153C50.2964 69.3223 50.9953 70.3602 51.1035 70.8636C51.2116 71.367 50.7353 72.0388 50.935 72.3071C51.1347 72.5754 51.8752 72.5151 51.8752 72.5151C51.8752 72.5151 52.4472 73.0518 52.8486 73.3887C53.25 73.7257 54.394 74.3622 54.6624 74.2602C54.8824 74.1565 55.0857 74.0205 55.2656 73.8567L55.8355 74.4953L57.7075 72.9186C57.7075 72.9186 57.7075 71.7434 56.4595 70.8386C55.2115 69.9338 52.4659 67.9849 51.794 67.1134C51.3825 66.5725 51.0544 65.9731 50.8206 65.335L50.6667 65.9631Z" fill="white"/>
<path d="M55.8355 74.5931C55.8209 74.5928 55.8065 74.5895 55.7933 74.5834C55.7801 74.5773 55.7682 74.5686 55.7585 74.5577L55.2551 73.9961C55.0883 74.1421 54.9004 74.262 54.6977 74.3518C54.342 74.4849 53.1252 73.7465 52.782 73.4616C52.4388 73.1766 51.9667 72.7357 51.8377 72.6171C51.6547 72.6275 51.0577 72.6441 50.8518 72.3696C50.7187 72.1907 50.8019 71.9141 50.8892 71.6208C50.9818 71.387 51.0202 71.1352 51.0015 70.8845C50.9114 70.5872 50.7908 70.3 50.6417 70.0275C50.3817 69.5575 50.1864 69.0544 50.0614 68.532C49.9262 67.7208 50.5231 66.0547 50.5689 65.932L50.7353 65.308C50.7404 65.2863 50.7526 65.267 50.7699 65.253C50.7873 65.2391 50.8087 65.2313 50.831 65.231C50.8533 65.2303 50.8753 65.2368 50.8936 65.2495C50.912 65.2623 50.9258 65.2806 50.9329 65.3017C51.1649 65.9281 51.488 66.5168 51.8918 67.0489C52.4783 67.8123 54.7247 69.443 56.0684 70.4165L56.5364 70.7555C57.8052 71.6811 57.8198 72.8688 57.8198 72.9208C57.8198 72.9359 57.8165 72.9508 57.81 72.9645C57.8035 72.9782 57.7941 72.9902 57.7823 72.9998L55.9103 74.5765C55.8883 74.591 55.8616 74.5969 55.8355 74.5931ZM55.2655 73.7465C55.2791 73.7465 55.2924 73.7495 55.3046 73.7552C55.3169 73.761 55.3277 73.7694 55.3363 73.7798L55.8396 74.3435L57.6035 72.8625C57.555 72.4711 57.4231 72.0946 57.2168 71.7584C57.0105 71.4222 56.7345 71.1341 56.4075 70.9136L55.9519 70.5766C54.5999 69.5949 52.339 67.9558 51.7316 67.1675C51.3799 66.7035 51.0872 66.1977 50.8601 65.6616L50.7748 65.9902C50.7748 66.0089 50.1508 67.7208 50.2777 68.4862C50.3996 68.9893 50.5877 69.4741 50.8372 69.9277C50.9962 70.2145 51.1232 70.5179 51.2158 70.8325C51.2421 71.1151 51.2022 71.3999 51.0993 71.6645C51.0286 71.8953 50.9579 72.1325 51.0286 72.2281C51.1513 72.3904 51.6131 72.4133 51.8772 72.3883C51.907 72.3875 51.9359 72.3979 51.9583 72.4174C51.9583 72.4174 52.5303 72.9561 52.9255 73.2848C53.3644 73.6488 54.4398 74.2125 54.6353 74.1397C54.8438 74.0409 55.0365 73.912 55.2073 73.7569C55.2253 73.748 55.2455 73.7444 55.2655 73.7465Z" fill="#263238"/>
<path d="M51.3386 70.1314H51.3262C51.2713 70.1282 51.22 70.1034 51.1834 70.0625C51.1468 70.0216 51.1278 69.9678 51.1306 69.913C51.1386 69.8032 51.1688 69.6962 51.2196 69.5986C51.2704 69.5009 51.3407 69.4147 51.426 69.3452C51.5405 69.2659 51.6713 69.2133 51.8089 69.1913C51.9464 69.1694 52.0871 69.1786 52.2206 69.2183C52.2757 69.2296 52.3241 69.2624 52.3552 69.3094C52.3862 69.3564 52.3972 69.4138 52.3859 69.4689C52.3746 69.5241 52.3419 69.5725 52.2949 69.6035C52.2479 69.6345 52.1905 69.6456 52.1353 69.6343C52.0609 69.6104 51.9823 69.6023 51.9046 69.6106C51.8268 69.6188 51.7517 69.6432 51.6839 69.6821C51.6071 69.7502 51.5583 69.8443 51.5466 69.9463C51.541 69.9974 51.5166 70.0446 51.4782 70.0788C51.4398 70.113 51.3901 70.1317 51.3386 70.1314Z" fill="#263238"/>
<path d="M52.0105 70.8677C51.9926 70.8678 51.9749 70.8632 51.9592 70.8545C51.9436 70.8457 51.9304 70.8331 51.9211 70.8177L51.7131 70.4808C51.6993 70.4573 51.6952 70.4293 51.7018 70.4028C51.7085 70.3764 51.7252 70.3536 51.7484 70.3393C51.7601 70.3319 51.7731 70.3269 51.7868 70.3246C51.8004 70.3224 51.8144 70.3229 51.8278 70.3262C51.8412 70.3295 51.8538 70.3355 51.8649 70.3439C51.8759 70.3522 51.8851 70.3627 51.892 70.3747L52.0563 70.6493C52.2556 70.6235 52.4423 70.5371 52.5908 70.4017C52.5987 70.3905 52.6088 70.3809 52.6204 70.3736C52.632 70.3662 52.6449 70.3612 52.6584 70.3589C52.672 70.3566 52.6858 70.357 52.6992 70.36C52.7126 70.3631 52.7253 70.3688 52.7364 70.3768C52.7584 70.3933 52.773 70.4178 52.7773 70.445C52.7816 70.4721 52.7751 70.4999 52.7593 70.5224C52.5721 70.7865 52.0729 70.8593 52.0168 70.8656L52.0105 70.8677Z" fill="#263238"/>
<path d="M55.2656 73.8527L56.4075 72.4092L55.8355 74.4892L55.2656 73.8527Z" fill="#263238"/>
<path d="M55.8355 74.5933C55.8209 74.5931 55.8065 74.5899 55.7933 74.5838C55.78 74.5777 55.7682 74.5689 55.7586 74.558L55.1886 73.9215C55.1729 73.9025 55.1643 73.8785 55.1643 73.8539C55.1643 73.8292 55.1729 73.8053 55.1886 73.7863L56.3306 72.3427C56.3453 72.3242 56.366 72.3114 56.3891 72.3064C56.4123 72.3015 56.4364 72.3048 56.4574 72.3157C56.479 72.3264 56.4962 72.3443 56.5061 72.3663C56.516 72.3883 56.5179 72.4131 56.5115 72.4363L55.9416 74.5163C55.9368 74.5347 55.9271 74.5513 55.9135 74.5645C55.9 74.5777 55.8831 74.5869 55.8646 74.5912L55.8355 74.5933ZM55.4029 73.8403L55.7877 74.2688L56.1725 72.8648L55.4029 73.8403Z" fill="#263238"/>
<path d="M53.5538 77.3429C53.5538 77.3429 53.0838 78.1478 51.8753 79.8597C50.6668 81.5715 50.0969 83.4185 50.1967 83.7867C50.2966 84.1549 51.4447 84.2235 51.5737 84.1216C51.7026 84.0197 53.0838 81.2366 55.3676 79.088C57.6514 76.9393 58.3212 75.8661 58.2796 75.6976C58.238 75.5291 53.5538 77.3429 53.5538 77.3429Z" fill="white"/>
<path d="M51.2762 84.269C51.0159 84.2675 50.7573 84.2276 50.5087 84.1505C50.2757 84.0693 50.1364 83.957 50.0927 83.8135C49.9845 83.4141 50.5586 81.5401 51.7858 79.7991C52.9777 78.1122 53.4498 77.3031 53.4602 77.2885C53.4729 77.2692 53.491 77.254 53.5122 77.2449C56.5573 76.0717 58.1777 75.5185 58.3274 75.5996C58.3417 75.6077 58.3541 75.6188 58.3637 75.6321C58.3734 75.6453 58.3802 75.6605 58.3836 75.6765C58.4439 75.974 57.4497 77.2657 55.4342 79.1626C53.6495 80.8433 52.4327 82.9066 51.9127 83.7761C51.8381 83.9305 51.7437 84.0745 51.6319 84.2045C51.5211 84.257 51.3984 84.2793 51.2762 84.269ZM53.6245 77.4258C53.5268 77.5922 53.0276 78.4076 51.9605 79.9218C50.7645 81.617 50.2113 83.4433 50.2965 83.7615C50.3111 83.8156 50.3797 83.8738 50.49 83.9217C50.816 84.0457 51.1679 84.0857 51.5133 84.0381C51.53 84.0194 51.6298 83.8509 51.7359 83.6721C52.2601 82.786 53.4873 80.7122 55.2927 79.0129C57.3311 77.0951 57.9967 76.1154 58.1485 75.8076C57.5786 75.9365 55.1637 76.833 53.6245 77.4258Z" fill="#263238"/>
<path d="M57.9509 72.3841C57.9509 72.3841 56.5074 74.096 55.8355 74.4995C55.1637 74.903 53.0504 76.1281 52.8154 76.1281C52.5803 76.1281 52.3786 76.3632 52.5803 76.6648C52.8516 77.0687 53.0875 77.4953 53.2854 77.9398C53.3434 78.1166 53.4647 78.2658 53.6259 78.3587C53.7871 78.4516 53.977 78.4817 54.159 78.4432C54.6624 78.3101 57.2125 77.1681 58.319 76.1552C59.4256 75.1422 59.9955 74.1085 59.6274 73.3014C59.2592 72.4944 58.1859 71.8371 57.9509 72.3841Z" fill="white"/>
<path d="M53.9823 78.5782C53.835 78.578 53.6908 78.5362 53.5663 78.4576C53.3829 78.3454 53.2456 78.1713 53.1794 77.9667C52.9833 77.5365 52.7531 77.1226 52.4909 76.7291C52.4381 76.6616 52.4049 76.5809 52.395 76.4957C52.3851 76.4106 52.3988 76.3244 52.4348 76.2466C52.4726 76.1809 52.5277 76.1268 52.594 76.0901C52.6604 76.0535 52.7355 76.0356 52.8112 76.0386C52.9922 76.0219 54.4919 75.1795 55.7794 74.4078C56.4034 74.0355 57.7346 72.4714 57.8594 72.3278C57.894 72.254 57.9495 72.192 58.019 72.1495C58.0885 72.107 58.169 72.0858 58.2504 72.0886C58.7309 72.0886 59.4256 72.6544 59.7064 73.2805C60.0746 74.0833 59.6004 75.1379 58.3732 76.2549C57.2229 77.2949 54.6583 78.4306 54.1695 78.5616C54.1079 78.5739 54.0451 78.5794 53.9823 78.5782ZM58.2608 72.2862C58.217 72.283 58.1732 72.2937 58.1359 72.3169C58.0985 72.3401 58.0694 72.3745 58.0528 72.4152C58.0485 72.4249 58.0429 72.434 58.0362 72.4422C57.978 72.5129 56.5802 74.1707 55.8959 74.5784C55.613 74.7489 53.1212 76.2424 52.8216 76.2424C52.783 76.2405 52.7447 76.2495 52.7109 76.2682C52.6771 76.287 52.6492 76.3148 52.6303 76.3485C52.6116 76.3928 52.6058 76.4415 52.6135 76.4889C52.6213 76.5364 52.6422 76.5807 52.674 76.6168C52.8632 76.8997 53.3541 77.7317 53.3936 77.9293C53.4484 78.0776 53.5517 78.203 53.6869 78.2849C53.7531 78.3275 53.8275 78.3556 53.9053 78.3674C53.9831 78.3792 54.0625 78.3745 54.1383 78.3536C54.6 78.2309 57.1501 77.1056 58.2567 76.0947C59.4111 75.0443 59.8666 74.075 59.5421 73.3616C59.2613 72.7626 58.6165 72.2862 58.2608 72.2862Z" fill="#263238"/>
<path d="M50.6667 65.9634C50.6667 65.9634 51.6734 69.5222 53.7867 70.5955C55.9 71.6688 57.1147 72.2741 57.2769 73.2142C57.4392 74.1544 56.2037 74.2875 56.5386 75.6312C56.8734 76.9749 58.6539 78.7512 62.4125 77.8131C66.171 76.875 65.6698 74.0858 65.0978 72.1389C64.5258 70.192 63.4546 69.489 61.8093 68.4822C60.5613 67.7189 59.9789 66.2234 59.4006 64.9566C58.8224 63.6899 57.7242 62.2526 56.3118 61.8366C54.5958 61.3395 51.5777 62.6354 50.9329 64.4158C50.5003 65.6285 50.6667 65.9634 50.6667 65.9634Z" fill="#7D7D7D"/>
<path d="M60.4408 78.1769C59.6485 78.1935 58.8638 78.0194 58.1528 77.6694C57.7441 77.4709 57.3813 77.1893 57.0876 76.8426C56.7939 76.4959 56.5758 76.0918 56.4472 75.656C56.2392 74.8635 56.5699 74.46 56.8528 74.1064C57.0608 73.8381 57.2501 73.6051 57.1835 73.2328C57.0275 72.3529 55.8191 71.7393 53.8181 70.7243L53.7474 70.6889C51.6424 69.6198 50.6399 66.2211 50.5754 65.9985C50.5442 65.9216 50.4339 65.5222 50.8437 64.3845C51.5322 62.4813 54.6272 61.2416 56.3495 61.7408C58.1715 62.2691 59.224 64.3033 59.5027 64.9128C59.5547 65.0272 59.6067 65.1437 59.6608 65.2601C60.1787 66.4104 60.7653 67.7145 61.8719 68.3926C63.5691 69.4326 64.6362 70.1669 65.1999 72.1096C65.5826 73.4137 65.8779 74.9113 65.177 76.1344C64.6923 76.983 63.7709 77.5904 62.4397 77.9128C61.7867 78.0822 61.1154 78.171 60.4408 78.1769ZM55.4967 61.8385C53.8327 61.8385 51.5779 62.9493 51.0351 64.4552C50.6191 65.5763 50.7605 65.9112 50.7626 65.9112C50.7635 65.9167 50.7635 65.9223 50.7626 65.9278C50.773 65.9632 51.7839 69.4534 53.8327 70.5038L53.9013 70.5392C56.0312 71.6187 57.2023 72.2157 57.3791 73.1953C57.4623 73.6613 57.2293 73.9525 57.0047 74.2353C56.7384 74.5681 56.4659 74.9113 56.6386 75.6061C56.7608 76.012 56.9661 76.388 57.2414 76.7103C57.5168 77.0326 57.8562 77.2941 58.2381 77.4781C59.3155 78.0355 60.7487 78.1145 62.3856 77.7048C63.6607 77.3865 64.5363 76.8208 64.9939 76.0262C65.6554 74.8697 65.3663 73.4241 64.9939 72.1637C64.4448 70.2917 63.4547 69.6073 61.7512 68.5632C60.5906 67.8539 59.9895 66.5165 59.4632 65.3392C59.4091 65.2227 59.3571 65.1062 59.3072 64.9939C59.0368 64.4032 58.0197 62.4376 56.2829 61.9342C56.0266 61.8659 55.7619 61.8336 55.4967 61.8385Z" fill="#263238"/>
<path d="M63.6314 74.2976C63.607 74.298 63.5834 74.2895 63.5647 74.2739C63.546 74.2582 63.5335 74.2364 63.5295 74.2123C63.4946 73.9973 63.4324 73.7876 63.3444 73.5883C63.3364 73.5642 63.3375 73.5379 63.3476 73.5145C63.3577 73.4911 63.376 73.4722 63.3991 73.4614C63.4222 73.4506 63.4485 73.4487 63.4729 73.456C63.4973 73.4633 63.5182 73.4793 63.5316 73.501C63.6297 73.7128 63.6997 73.9366 63.7396 74.1666C63.7444 74.1936 63.7384 74.2215 63.7228 74.244C63.7073 74.2666 63.6834 74.2822 63.6564 74.2872L63.6314 74.2976Z" fill="#263238"/>
<path d="M63.0678 73.1411C63.0414 73.1409 63.016 73.1305 62.9971 73.112C62.4813 72.6211 61.5577 72.4006 60.1579 72.072C59.4257 71.8993 58.5147 71.6809 57.4539 71.3752C53.271 70.1667 52.4806 68.1241 52.4494 68.0368C52.4445 68.0241 52.4421 68.0105 52.4424 67.9969C52.4428 67.9833 52.4458 67.9699 52.4515 67.9575C52.4571 67.9451 52.4651 67.9339 52.4752 67.9247C52.4852 67.9154 52.4969 67.9083 52.5097 67.9036C52.5357 67.8943 52.5643 67.8956 52.5892 67.9073C52.6142 67.919 52.6335 67.9401 52.6429 67.966C52.6429 67.9848 53.4416 69.9982 57.5121 71.1755C58.5646 71.4812 59.4736 71.6955 60.2058 71.8702C61.6368 72.2113 62.5811 72.436 63.1385 72.9664C63.1482 72.9759 63.1559 72.9872 63.1612 72.9997C63.1664 73.0122 63.1691 73.0256 63.1691 73.0392C63.1691 73.0527 63.1664 73.0661 63.1612 73.0786C63.1559 73.0911 63.1482 73.1025 63.1385 73.112C63.1294 73.1214 63.1184 73.1289 63.1062 73.1339C63.0941 73.1389 63.081 73.1414 63.0678 73.1411Z" fill="#263238"/>
<path d="M64.896 74.298H64.8835C64.8563 74.2948 64.8313 74.281 64.8142 74.2596C64.7971 74.2382 64.7891 74.2108 64.792 74.1836C64.9293 72.8087 63.7229 71.8956 60.9939 71.3236C58.8078 70.8597 55.952 69.697 54.7726 66.7767C54.6463 66.458 54.499 66.1481 54.3317 65.849C54.3187 65.8249 54.3156 65.7967 54.323 65.7703C54.3304 65.744 54.3476 65.7215 54.3712 65.7076C54.3956 65.6945 54.4241 65.6914 54.4508 65.6987C54.4775 65.7061 54.5004 65.7234 54.5147 65.7471C54.6855 66.0546 54.8363 66.3728 54.9661 66.6997C56.1101 69.5327 58.8994 70.6684 61.0376 71.1197C63.8893 71.7229 65.1477 72.7026 64.9896 74.2044C64.9877 74.2286 64.9772 74.2513 64.9601 74.2684C64.9429 74.2856 64.9202 74.2961 64.896 74.298Z" fill="#263238"/>
<path d="M54.1404 65.4597C54.1237 65.46 54.1072 65.4561 54.0923 65.4485C54.0775 65.4409 54.0647 65.4297 54.0551 65.416C53.3105 64.3594 52.6761 64.4696 52.6699 64.4717C52.6423 64.4775 52.6135 64.4721 52.5899 64.4567C52.5663 64.4413 52.5498 64.4171 52.544 64.3895C52.5382 64.362 52.5436 64.3332 52.559 64.3096C52.5744 64.286 52.5986 64.2695 52.6262 64.2637C52.6574 64.2637 53.3937 64.1119 54.2257 65.2912C54.2413 65.314 54.2474 65.3419 54.2427 65.3691C54.2381 65.3963 54.223 65.4205 54.2007 65.4368C54.1834 65.4504 54.1624 65.4584 54.1404 65.4597Z" fill="#263238"/>
<path d="M43.135 75.3149C43.6742 75.4073 44.1909 75.6015 44.6576 75.8869C45.0395 76.1374 45.3889 76.4343 45.6976 76.7709L44.903 77.8317L43.135 75.3149Z" fill="white"/>
<path d="M44.9011 77.9358C44.8847 77.9348 44.8687 77.9302 44.8543 77.9223C44.8399 77.9144 44.8275 77.9033 44.8179 77.89L43.0561 75.3732C43.0446 75.3566 43.0382 75.337 43.0376 75.3168C43.0371 75.2966 43.0424 75.2767 43.053 75.2595C43.0636 75.2422 43.079 75.2285 43.0973 75.2199C43.1156 75.2113 43.1359 75.2082 43.156 75.211C43.711 75.3059 44.2427 75.5064 44.7222 75.8017C45.1115 76.057 45.4672 76.3603 45.7809 76.7044C45.7954 76.7228 45.8033 76.7455 45.8033 76.7689C45.8033 76.7923 45.7954 76.815 45.7809 76.8334L44.9864 77.8942C44.9762 77.9071 44.9633 77.9176 44.9485 77.9248C44.9337 77.932 44.9175 77.9358 44.9011 77.9358ZM43.3702 75.4689L44.9032 77.6529L45.5604 76.7772C45.2713 76.4743 44.949 76.205 44.5995 75.9743C44.2208 75.7385 43.8053 75.5677 43.3702 75.4689Z" fill="#263238"/>
<path d="M44.6804 77.9629L43.135 75.313L44.9009 77.8319L44.6804 77.9629Z" fill="#6EB6FF"/>
<path d="M44.6806 78.0667H44.6536C44.6265 78.0589 44.6034 78.041 44.5891 78.0167L43.0437 75.3689C43.0288 75.3455 43.0238 75.3171 43.0299 75.2899C43.0359 75.2628 43.0525 75.2392 43.0759 75.2243C43.0994 75.2094 43.1278 75.2045 43.1549 75.2105C43.182 75.2166 43.2056 75.2331 43.2205 75.2566L44.9864 77.7734C44.9947 77.785 45.0005 77.7982 45.0033 77.8122C45.0062 77.8261 45.0061 77.8406 45.003 77.8545C44.996 77.8819 44.979 77.9057 44.9552 77.9211L44.7326 78.0542C44.717 78.0635 44.6988 78.0679 44.6806 78.0667ZM44.4726 77.4031L44.7139 77.8191L44.7493 77.7983L44.4726 77.4031Z" fill="#263238"/>
<path d="M43.135 75.3149C43.135 75.3149 43.9296 75.7122 44.2603 76.174C44.591 76.6357 44.9009 77.6757 44.9009 77.6757L43.135 75.3149Z" fill="white"/>
<path d="M44.9011 77.7795C44.8849 77.7796 44.8689 77.7759 44.8544 77.7687C44.84 77.7615 44.8274 77.7509 44.8179 77.7378L43.0561 75.375C43.0416 75.3566 43.0337 75.3339 43.0337 75.3105C43.0337 75.2871 43.0416 75.2644 43.0561 75.246C43.0717 75.2287 43.0925 75.217 43.1154 75.2125C43.1383 75.208 43.162 75.211 43.183 75.2211C43.2163 75.2377 44.015 75.637 44.3478 76.1134C44.6806 76.5897 44.9905 77.6026 45.003 77.6463C45.0099 77.6699 45.0083 77.6951 44.9984 77.7176C44.9885 77.74 44.9709 77.7583 44.9489 77.7691C44.9338 77.7757 44.9175 77.7792 44.9011 77.7795ZM43.5262 75.6641L44.587 77.0826C44.4808 76.7856 44.3413 76.5016 44.171 76.2361C43.9903 76.01 43.7722 75.8165 43.5262 75.6641Z" fill="#263238"/>
<path d="M44.6807 77.9627L48.9197 82.7322L52.4952 80.8103L48.5661 76.02L44.6807 77.9627Z" fill="#6EB6FF"/>
<path d="M48.9195 82.8361C48.9046 82.836 48.8899 82.8328 48.8763 82.8267C48.8626 82.8206 48.8505 82.8118 48.8404 82.8008L44.6014 78.0313C44.5911 78.0195 44.5837 78.0055 44.5797 77.9903C44.5758 77.9752 44.5754 77.9593 44.5785 77.944C44.581 77.9284 44.5872 77.9136 44.5966 77.9009C44.606 77.8883 44.6184 77.878 44.6326 77.8712L48.518 75.9201C48.5393 75.9103 48.5631 75.9077 48.586 75.9125C48.6088 75.9174 48.6295 75.9296 48.6449 75.9472L52.5761 80.7312C52.5857 80.743 52.5926 80.7567 52.5962 80.7715C52.5998 80.7862 52.6 80.8016 52.5969 80.8165C52.5938 80.8316 52.5876 80.8458 52.5786 80.8584C52.5697 80.8709 52.5582 80.8814 52.5449 80.8893L48.9673 82.8091C48.9543 82.8226 48.9377 82.832 48.9195 82.8361ZM44.8468 78.0001L48.9423 82.6053L52.3348 80.7832L48.5367 76.1552L44.8468 78.0001Z" fill="#263238"/>
<path d="M44.9011 77.8318C45.0375 77.437 45.2559 77.0755 45.5418 76.7709C45.9827 76.33 48.4995 75.5229 48.4995 75.5229L52.385 80.4692L52.4078 80.6668L48.5661 76.0305L44.9011 77.8318Z" fill="white"/>
<path d="M52.4161 80.7602C52.4007 80.7604 52.3854 80.7572 52.3713 80.7507C52.3573 80.7442 52.3449 80.7347 52.335 80.7228L48.5473 76.1468L44.9552 77.921C44.9369 77.9305 44.9161 77.9341 44.8957 77.9315C44.8753 77.9289 44.8561 77.9202 44.8408 77.9065C44.8253 77.8932 44.8142 77.8756 44.8086 77.856C44.8031 77.8365 44.8034 77.8157 44.8096 77.7962C44.9516 77.3868 45.1784 77.0118 45.4752 76.6959C45.9307 76.2404 48.3726 75.4479 48.4766 75.4105C48.4967 75.4046 48.5181 75.4049 48.5381 75.4111C48.5581 75.4174 48.5758 75.4295 48.5889 75.4458L52.4744 80.3921C52.487 80.4068 52.4949 80.4249 52.4972 80.4441L52.518 80.6521C52.5214 80.6742 52.517 80.6969 52.5056 80.7162C52.4943 80.7355 52.4766 80.7503 52.4556 80.7582C52.4428 80.7618 52.4293 80.7625 52.4161 80.7602ZM48.4641 75.633C47.7236 75.8785 45.9536 76.5087 45.6166 76.8436C45.4016 77.0701 45.2271 77.3318 45.1008 77.6174L48.5203 75.9201C48.5411 75.9101 48.5647 75.9073 48.5873 75.9122C48.6099 75.9171 48.6303 75.9294 48.6451 75.9471L49.9659 77.5425L48.4641 75.633Z" fill="#263238"/>
<path d="M50.0011 83.2167C50.0011 83.2167 49.3605 82.7092 49.2502 82.445C49.14 82.1809 48.6969 81.1201 48.5222 80.9225C48.2119 80.5756 47.938 80.1978 47.7048 79.7951C47.4843 79.3791 47.2409 79.3313 47.1078 79.6412C46.9747 79.9511 47.1515 80.3921 47.3741 80.7457C47.5966 81.0993 47.7901 81.4508 47.7901 81.4508C47.7901 81.4508 47.216 80.9433 46.8853 80.6354C46.5545 80.3276 45.891 79.5081 45.7371 79.4415C45.5832 79.3749 45.3835 79.6183 45.5832 80.0821C45.7829 80.546 46.5317 81.8044 46.8624 82.3348C47.2042 82.8291 47.6492 83.2436 48.1665 83.5495C48.5201 83.7471 49.4145 84.3815 49.4145 84.3815L50.0011 83.2167Z" fill="white"/>
<path d="M49.4271 84.4919C49.4055 84.4921 49.3844 84.4855 49.3667 84.4732C49.3667 84.4732 48.4619 83.8325 48.1187 83.6412C47.5865 83.328 47.1292 82.902 46.7792 82.3932C46.4277 81.8316 45.6893 80.5898 45.4917 80.1281C45.3378 79.7682 45.4002 79.5207 45.5125 79.4084C45.5465 79.3726 45.5905 79.3479 45.6387 79.3375C45.687 79.3271 45.7372 79.3315 45.7829 79.3501C45.8807 79.3938 46.0533 79.5789 46.4235 79.9908C46.6191 80.2092 46.8229 80.4338 46.9602 80.5628C47.0975 80.6917 47.2243 80.8061 47.3762 80.9351L47.2951 80.8041C47.1203 80.5253 46.8541 79.9991 47.0226 79.6039C47.1141 79.3959 47.2306 79.3439 47.3304 79.3397C47.4303 79.3356 47.6237 79.4042 47.8067 79.7557C48.0352 80.1508 48.3043 80.521 48.6096 80.8602C48.7365 81.0037 48.9799 81.5112 49.3563 82.4119C49.4375 82.6095 49.9034 83.0089 50.076 83.1441C50.0945 83.1593 50.1073 83.1802 50.1126 83.2036C50.1179 83.2269 50.1152 83.2513 50.1051 83.273L49.5311 84.442C49.5241 84.4553 49.5144 84.4671 49.5026 84.4764C49.4907 84.4857 49.4771 84.4924 49.4624 84.4961C49.4505 84.4989 49.438 84.4974 49.4271 84.4919ZM45.6831 79.5353C45.677 79.5358 45.6712 79.5376 45.6658 79.5404C45.6604 79.5433 45.6557 79.5472 45.6519 79.5519C45.6061 79.5976 45.552 79.7599 45.6747 80.0407C45.8682 80.4921 46.5983 81.7213 46.9477 82.2788C47.2796 82.7582 47.711 83.1604 48.2123 83.4581C48.5015 83.6204 49.1338 84.0592 49.3813 84.2319L49.8639 83.246C49.6891 83.1025 49.2399 82.7239 49.1483 82.4847C48.672 81.3449 48.4994 81.0599 48.437 80.9913C48.1209 80.6382 47.8421 80.2534 47.605 79.8431C47.4864 79.6184 47.372 79.5477 47.32 79.5436C47.268 79.5394 47.2327 79.5956 47.1952 79.6829C47.0995 79.9076 47.1952 80.2736 47.4531 80.6896C47.6736 81.0412 47.8691 81.3969 47.8691 81.401C47.8814 81.4222 47.8857 81.4471 47.8811 81.4712C47.8765 81.4952 47.8634 81.5169 47.8442 81.5321C47.8252 81.5478 47.8013 81.5564 47.7766 81.5564C47.7519 81.5564 47.728 81.5478 47.709 81.5321C47.709 81.5321 47.1307 81.0183 46.8021 80.7125C46.6565 80.5773 46.4506 80.3485 46.253 80.1281C46.0785 79.9174 45.8879 79.7206 45.6831 79.5394V79.5353Z" fill="#263238"/>
<path d="M60.1329 74.6576C60.1329 74.6576 59.2593 74.9259 58.8246 76.5025C58.3899 78.0792 57.8844 80.128 57.8844 80.128C57.8844 80.128 57.2126 80.4629 57.0795 80.8664C56.9464 81.2699 57.2126 81.74 57.2875 81.975C57.3624 82.2101 56.7841 82.3099 56.416 82.6802C56.1804 82.9104 56.0072 83.1967 55.9126 83.5122C55.8793 83.612 55.7046 83.5787 55.4092 83.5787C54.5624 83.6848 53.7064 83.696 52.8571 83.612C51.0787 83.4789 50.307 82.8736 50.0054 83.0088C49.7038 83.144 48.8968 84.6187 48.7969 85.3571C48.6971 86.0955 48.7969 86.2307 48.9633 86.3305C49.1566 86.4076 49.3609 86.4532 49.5686 86.4658C51.4274 87.0748 53.3182 87.5817 55.2324 87.9842C58.3212 88.6227 58.9577 88.2858 59.6296 87.7762C59.9874 87.5245 60.3045 87.2193 60.5697 86.8713C60.5697 86.8713 61.643 84.6561 61.8448 84.1861C62.0465 83.716 62.7516 82.0374 63.3216 80.9642C63.8915 79.8909 65.1 78.5139 63.5566 76.0637C62.0132 73.6134 60.1329 74.6576 60.1329 74.6576Z" fill="#6EB6FF"/>
<path d="M57.8718 88.4354C56.9756 88.4056 56.0846 88.2879 55.2115 88.0839C53.295 87.6828 51.4015 87.1787 49.5393 86.5738C49.3201 86.5623 49.1047 86.5123 48.9028 86.4261C48.674 86.2909 48.5825 86.0933 48.6844 85.3507C48.7864 84.6082 49.5892 83.0815 49.9532 82.9192C50.1176 82.8464 50.3297 82.9192 50.6833 83.044C51.3826 83.3004 52.1141 83.4586 52.8569 83.5141C53.609 83.5964 54.3679 83.5964 55.12 83.5141C55.2737 83.4944 55.4289 83.4874 55.5838 83.4933C55.6602 83.5004 55.7372 83.4969 55.8126 83.4829V83.4725C55.9125 83.1477 56.0911 82.8526 56.3326 82.6135C56.4986 82.4602 56.6856 82.3313 56.888 82.2307C57.0252 82.1559 57.1937 82.0623 57.1792 82.0103C57.1646 81.9583 57.1417 81.8979 57.1147 81.8293C57.0086 81.5589 56.863 81.1887 56.9795 80.8413C57.1064 80.4607 57.6367 80.1507 57.7948 80.0655C57.8718 79.7555 58.3273 77.9147 58.7225 76.4837C59.151 74.9403 59.9851 74.6117 60.0932 74.5701C60.2451 74.4911 62.1233 73.6071 63.6438 76.0261C65.0374 78.2351 64.2283 79.6203 63.6438 80.6312C63.5627 80.7706 63.4857 80.9016 63.4171 81.0306C62.8992 82.0061 62.2752 83.4683 62.0089 84.0944L61.9444 84.2442C61.7364 84.7122 60.711 86.8442 60.6673 86.9336C60.397 87.2991 60.0689 87.618 59.696 87.8779C59.2529 88.192 58.8224 88.4354 57.8718 88.4354ZM50.1009 83.1002C50.0796 83.0988 50.0582 83.1024 50.0385 83.1106C49.7868 83.2208 48.9985 84.6539 48.8904 85.3778C48.7822 86.1016 48.8904 86.1848 49.0089 86.2493C49.188 86.318 49.3768 86.358 49.5684 86.3679H49.5934C51.4516 86.9711 53.3409 87.4738 55.2531 87.8738C58.4438 88.5331 58.9971 88.1255 59.567 87.6907C59.915 87.4457 60.2236 87.149 60.4822 86.8109C60.4822 86.8005 61.5513 84.604 61.7489 84.1423L61.8134 83.9904C62.0817 83.3664 62.7078 81.8959 63.2299 80.912C63.2985 80.781 63.3776 80.6479 63.4587 80.5064C64.0536 79.4872 64.794 78.2184 63.4691 76.1155C61.9985 73.7818 60.2576 74.7011 60.1827 74.7427H60.164C60.164 74.7427 59.332 75.0215 58.916 76.517C58.4854 78.0749 57.982 80.1175 57.9758 80.1383C57.9722 80.1529 57.9655 80.1666 57.9561 80.1784C57.9468 80.1903 57.9351 80.2 57.9217 80.2069C57.747 80.2943 57.2665 80.5896 57.1688 80.885C57.071 81.1803 57.2062 81.4903 57.2998 81.7295C57.3289 81.8085 57.356 81.8751 57.3705 81.9375C57.4329 82.1455 57.2124 82.2703 56.9816 82.3972C56.7959 82.4879 56.6242 82.6048 56.472 82.7445C56.2536 82.9595 56.092 83.2254 56.0019 83.5183V83.5432C55.952 83.6951 55.7939 83.6888 55.5859 83.6847C55.4414 83.6783 55.2966 83.6845 55.1532 83.7034C54.3885 83.7919 53.6162 83.7954 52.8507 83.7138C52.09 83.6571 51.3409 83.4947 50.6251 83.2312C50.4568 83.1649 50.2806 83.1209 50.1009 83.1002Z" fill="#263238"/>
<path d="M57.2667 85.8336C57.2475 85.8332 57.2288 85.8274 57.2127 85.817C56.1123 85.1493 56.0999 83.8826 56.0999 83.8306C56.0999 83.803 56.1108 83.7765 56.1303 83.757C56.1498 83.7375 56.1763 83.7266 56.2039 83.7266C56.2314 83.7266 56.2579 83.7375 56.2774 83.757C56.2969 83.7765 56.3079 83.803 56.3079 83.8306C56.3079 83.841 56.3224 85.0328 57.3208 85.6402C57.3326 85.6472 57.3429 85.6565 57.3511 85.6676C57.3592 85.6786 57.3651 85.6912 57.3684 85.7045C57.3717 85.7179 57.3723 85.7318 57.3702 85.7453C57.3681 85.7589 57.3633 85.772 57.3562 85.7837C57.3466 85.7987 57.3333 85.8112 57.3177 85.8199C57.3021 85.8286 57.2846 85.8333 57.2667 85.8336Z" fill="#263238"/>
<path d="M59.0139 83.1359C58.995 83.1357 58.9765 83.1304 58.9604 83.1205C58.9442 83.1106 58.9311 83.0965 58.9224 83.0797C58.6395 82.5431 58.053 81.6924 57.6848 81.6924C57.6423 81.6878 57.5993 81.6943 57.56 81.7111C57.6547 81.8375 57.7692 81.9477 57.899 82.0377C57.91 82.0459 57.9192 82.0561 57.9261 82.0679C57.9331 82.0796 57.9377 82.0926 57.9396 82.1061C57.9415 82.1197 57.9408 82.1334 57.9374 82.1467C57.934 82.1599 57.928 82.1723 57.9198 82.1833C57.9116 82.1942 57.9014 82.2034 57.8896 82.2103C57.8779 82.2173 57.8649 82.2219 57.8514 82.2238C57.8378 82.2257 57.8241 82.225 57.8108 82.2216C57.7976 82.2182 57.7852 82.2122 57.7742 82.2041C57.5974 82.073 57.3083 81.8255 57.3707 81.6341C57.4206 81.4844 57.6182 81.4844 57.6848 81.4844C58.2984 81.4844 59.0243 82.8301 59.1054 82.9841C59.1119 82.996 59.1159 83.0092 59.1172 83.0227C59.1185 83.0363 59.1171 83.05 59.113 83.063C59.1089 83.0759 59.1023 83.088 59.0935 83.0984C59.0847 83.1088 59.0739 83.1173 59.0618 83.1234C59.0472 83.1317 59.0307 83.136 59.0139 83.1359Z" fill="#263238"/>
<path d="M49.6329 86.0976C49.6067 86.0977 49.5815 86.0879 49.5622 86.0702C49.5429 86.0524 49.531 86.0281 49.5289 86.002C49.4125 84.5293 50.4733 83.4144 50.519 83.3666C50.5286 83.3568 50.54 83.3489 50.5526 83.3435C50.5652 83.3381 50.5787 83.3352 50.5924 83.335C50.6062 83.3348 50.6198 83.3373 50.6325 83.3424C50.6453 83.3474 50.6569 83.355 50.6667 83.3645C50.6765 83.3741 50.6844 83.3855 50.6898 83.3981C50.6953 83.4107 50.6981 83.4242 50.6983 83.4379C50.6985 83.4516 50.696 83.4653 50.691 83.478C50.6859 83.4907 50.6784 83.5024 50.6688 83.5122C50.6688 83.5226 49.6288 84.6084 49.7369 85.9853C49.7381 85.999 49.7365 86.0127 49.7323 86.0258C49.7281 86.0388 49.7214 86.0509 49.7125 86.0614C49.7036 86.0718 49.6927 86.0804 49.6805 86.0866C49.6683 86.0928 49.6549 86.0966 49.6413 86.0976H49.6329Z" fill="#263238"/>
<path d="M26.7551 89.147L28.9121 91.6721C28.9121 91.6721 27.5933 93.1718 27.0089 93.8311C26.4244 94.4905 25.3241 96.1732 24.8498 96.2086C24.3756 96.2439 22.8738 95.2934 22.3975 95.0375C21.9212 94.7817 20.0929 93.5004 19.5521 92.2566C19.0113 91.0127 18.5121 89.5859 19.2525 89.6587C19.993 89.7315 20.8999 90.6841 21.9961 91.0127C23.0922 91.3414 22.9841 91.3788 23.8993 90.9753C24.8145 90.5718 26.7551 89.147 26.7551 89.147Z" fill="#7D7D7D"/>
<path d="M24.8249 96.3146C24.4297 96.3146 23.5769 95.8425 22.7449 95.3557C22.5806 95.2621 22.4433 95.181 22.3476 95.129C21.8713 94.8732 20.0056 93.5649 19.4481 92.2981C18.5184 90.1932 18.7846 89.8271 18.872 89.7065C18.9163 89.6475 18.9762 89.6021 19.0449 89.5753C19.1136 89.5485 19.1884 89.5413 19.2609 89.5546C19.6561 89.5941 20.0784 89.8604 20.5651 90.1661C21.015 90.4787 21.5047 90.7299 22.0211 90.9129L22.2977 90.9981C23.0569 91.229 23.0569 91.2311 23.814 90.8983L23.8515 90.8796C24.7459 90.4885 26.6678 89.0762 26.6865 89.0617C26.708 89.0464 26.7343 89.0396 26.7605 89.0427C26.7866 89.0458 26.8107 89.0585 26.828 89.0783L28.987 91.6034C29.0037 91.6224 29.0129 91.6468 29.0129 91.6721C29.0129 91.6973 29.0037 91.7217 28.987 91.7407C28.987 91.7407 27.6704 93.2404 27.0838 93.8997C26.9112 94.0932 26.6907 94.3823 26.4598 94.686C25.7443 95.622 25.2118 96.2855 24.8561 96.3125L24.8249 96.3146ZM19.2089 89.7605C19.1791 89.7575 19.149 89.762 19.1214 89.7736C19.0938 89.7853 19.0695 89.8037 19.0508 89.8271C18.9656 89.9457 18.8428 90.4137 19.6478 92.2149C20.1844 93.4317 21.994 94.6964 22.4579 94.946C22.5536 94.998 22.6929 95.0791 22.8593 95.1748C23.423 95.5034 24.4609 96.1066 24.8291 96.1066H24.852C25.139 96.0858 25.8129 95.206 26.308 94.5633C26.5451 94.2533 26.7676 93.9621 26.9444 93.7625C27.4561 93.1884 28.5252 91.9716 28.7873 91.6825L26.751 89.2988C26.3745 89.5733 24.775 90.7215 23.9534 91.0834L23.916 91.1001C23.1048 91.4578 23.084 91.4599 22.252 91.2082L21.9753 91.125C21.4393 90.9369 20.9307 90.6781 20.4632 90.3554C19.9993 90.0621 19.5979 89.8084 19.2505 89.7751L19.2089 89.7605Z" fill="#263238"/>
<path d="M23.3855 91.8445C23.2004 91.8399 23.02 91.7853 22.8634 91.6865C22.8513 91.68 22.8407 91.6711 22.8321 91.6604C22.8236 91.6497 22.8173 91.6374 22.8136 91.6241C22.8099 91.6109 22.8089 91.5971 22.8107 91.5835C22.8124 91.5699 22.8169 91.5568 22.8239 91.545C22.8374 91.5211 22.8599 91.5034 22.8865 91.496C22.913 91.4886 22.9413 91.492 22.9653 91.5055C23.0507 91.5632 23.1469 91.6029 23.2481 91.6222C23.3493 91.6415 23.4534 91.64 23.554 91.6178C23.581 91.6128 23.6088 91.6185 23.6317 91.6336C23.6546 91.6488 23.6707 91.6722 23.6767 91.6989C23.6794 91.7123 23.6795 91.7261 23.6769 91.7395C23.6743 91.7529 23.6691 91.7657 23.6616 91.7771C23.654 91.7885 23.6443 91.7983 23.633 91.8059C23.6217 91.8136 23.609 91.8189 23.5956 91.8217C23.5266 91.8369 23.4562 91.8446 23.3855 91.8445Z" fill="#263238"/>
<path d="M23.9971 91.67C23.9779 91.6701 23.959 91.6647 23.9428 91.6544C23.9265 91.6441 23.9136 91.6292 23.9056 91.6118C23.8933 91.5872 23.8911 91.5587 23.8997 91.5326C23.9083 91.5065 23.9269 91.4849 23.9514 91.4724C24.142 91.3764 24.3261 91.268 24.5026 91.1479C25.4531 90.5239 26.6949 89.6337 26.7074 89.6233C26.7303 89.6082 26.758 89.6024 26.7851 89.607C26.8121 89.6117 26.8364 89.6264 26.853 89.6482C26.8609 89.6594 26.8666 89.6721 26.8697 89.6854C26.8728 89.6988 26.8731 89.7127 26.8708 89.7262C26.8685 89.7398 26.8635 89.7527 26.8562 89.7643C26.8488 89.7759 26.8392 89.786 26.828 89.7938C26.8155 89.7938 25.58 90.6862 24.617 91.3206C24.4336 91.4466 24.2418 91.5599 24.0429 91.6596C24.0285 91.6662 24.0129 91.6698 23.9971 91.67Z" fill="#263238"/>
<path d="M27.9323 92.2213C27.9191 92.2217 27.906 92.2193 27.8938 92.2143C27.8816 92.2093 27.8706 92.2017 27.8616 92.1922L27.4892 91.8386C27.4691 91.8196 27.4574 91.7933 27.4566 91.7656C27.4558 91.7379 27.4661 91.711 27.4851 91.6909C27.5041 91.6708 27.5304 91.659 27.5581 91.6582C27.5858 91.6575 27.6126 91.6677 27.6328 91.6867L28.0051 92.0424C28.0201 92.0569 28.0304 92.0754 28.0347 92.0958C28.039 92.1161 28.0371 92.1373 28.0292 92.1565C28.0214 92.1758 28.008 92.1922 27.9907 92.2038C27.9734 92.2153 27.9531 92.2214 27.9323 92.2213Z" fill="#263238"/>
<path d="M27.167 91.4887C27.1405 91.4886 27.1151 91.4781 27.0962 91.4596L25.973 90.3863C25.9532 90.367 25.9418 90.3406 25.9414 90.3129C25.941 90.2852 25.9517 90.2585 25.971 90.2387C25.9903 90.2188 26.0167 90.2074 26.0444 90.207C26.0721 90.2067 26.0988 90.2173 26.1186 90.2366L27.2481 91.3119C27.263 91.3264 27.2733 91.345 27.2777 91.3653C27.282 91.3856 27.2801 91.4068 27.2722 91.426C27.2644 91.4453 27.251 91.4617 27.2337 91.4733C27.2164 91.4848 27.1961 91.4909 27.1753 91.4908L27.167 91.4887Z" fill="#263238"/>
<path d="M25.2035 95.9566C25.1918 95.9586 25.1798 95.9586 25.1681 95.9566C25.1681 95.9566 24.9997 95.8963 24.696 95.7736C24.6703 95.7634 24.6498 95.7434 24.6389 95.718C24.6279 95.6927 24.6275 95.664 24.6377 95.6384C24.6479 95.6127 24.6679 95.5922 24.6933 95.5812C24.7186 95.5703 24.7473 95.5699 24.7729 95.5801C25.0704 95.7008 25.2347 95.759 25.2368 95.759C25.2644 95.7634 25.2891 95.7786 25.3055 95.8012C25.3218 95.8239 25.3286 95.8521 25.3241 95.8796C25.3197 95.9072 25.3045 95.9319 25.2819 95.9483C25.2593 95.9647 25.2311 95.9714 25.2035 95.967V95.9566Z" fill="#263238"/>
<path d="M24.4422 95.6533C24.4285 95.6562 24.4143 95.6562 24.4006 95.6533C23.8931 95.4349 23.3606 95.1853 22.826 94.9086C21.4844 94.2181 20.667 93.5109 20.095 92.5395C19.5708 91.6555 19.2152 90.2515 19.2006 90.185C19.1972 90.1717 19.1964 90.1579 19.1983 90.1444C19.2002 90.1308 19.2047 90.1178 19.2117 90.106C19.2187 90.0942 19.2279 90.0839 19.2388 90.0757C19.2498 90.0674 19.2622 90.0615 19.2755 90.0581C19.3022 90.0517 19.3304 90.0559 19.354 90.0699C19.3777 90.0839 19.395 90.1065 19.4024 90.133C19.4024 90.1475 19.7664 91.5744 20.2739 92.4355C20.8251 93.3674 21.6176 94.0538 22.9217 94.7235C23.4542 94.9981 23.9804 95.2456 24.4838 95.4619C24.5087 95.4729 24.5283 95.4932 24.5385 95.5185C24.5486 95.5438 24.5484 95.572 24.5379 95.5971C24.5287 95.6144 24.5149 95.6288 24.498 95.6387C24.4811 95.6486 24.4618 95.6537 24.4422 95.6533Z" fill="#263238"/>
</svg>
